<svg width="24" height="24" viewBox="0 0 24 24" fill="none" xmlns="http://www.w3.org/2000/svg">
<path fill-rule="evenodd" clip-rule="evenodd" d="M19.0303 11.9697C19.3232 12.2626 19.3232 12.7375 19.0303 13.0304L12.7803 19.2804C12.4874 19.5733 12.0126 19.5733 11.7197 19.2804L5.46967 13.0304C5.17678 12.7375 5.17678 12.2626 5.46967 11.9697C5.76256 11.6768 6.23744 11.6768 6.53033 11.9697L11.5 16.9394V7.5C11.5 7.08579 11.8358 6.75 12.25 6.75C12.6642 6.75 13 7.08585 13 7.50007V16.9394L17.9697 11.9697C18.2626 11.6768 18.7374 11.6768 19.0303 11.9697Z" fill="#24292E"/>
<circle cx="12.25" cy="5.25" r="0.75" transform="rotate(-90 12.25 5.25)" fill="black"/>
</svg>
