<svg width="24" height="24" viewBox="0 0 24 24" fill="none" xmlns="http://www.w3.org/2000/svg">
<line x1="10.5" y1="5.5" x2="21.5" y2="5.5" stroke="black" stroke-linecap="round"/>
<line x1="10.5" y1="8.5" x2="21.5" y2="8.5" stroke="black" stroke-linecap="round"/>
<line x1="10.5" y1="15.5" x2="21.5" y2="15.5" stroke="black" stroke-linecap="round"/>
<line x1="10.5" y1="18.5" x2="21.5" y2="18.5" stroke="black" stroke-linecap="round"/>
<path d="M5 4.375C4.65528 4.375 4.31394 4.4429 3.99546 4.57482C3.67698 4.70673 3.3876 4.90009 3.14384 5.14384C2.90009 5.3876 2.70673 5.67698 2.57482 5.99546C2.4429 6.31394 2.375 6.65528 2.375 7C2.375 7.34472 2.4429 7.68606 2.57482 8.00454C2.70673 8.32302 2.90009 8.6124 3.14384 8.85616C3.3876 9.09991 3.67698 9.29327 3.99546 9.42518C4.31394 9.5571 4.65528 9.625 5 9.625C5.69619 9.625 6.36387 9.34844 6.85616 8.85616C7.34844 8.36387 7.625 7.69619 7.625 7C7.625 6.30381 7.34844 5.63613 6.85616 5.14384C6.36387 4.65156 5.69619 4.375 5 4.375ZM2 7C2 6.20435 2.31607 5.44129 2.87868 4.87868C3.44129 4.31607 4.20435 4 5 4C5.79565 4 6.55871 4.31607 7.12132 4.87868C7.68393 5.44129 8 6.20435 8 7C8 7.79565 7.68393 8.55871 7.12132 9.12132C6.55871 9.68393 5.79565 10 5 10C4.20435 10 3.44129 9.68393 2.87868 9.12132C2.31607 8.55871 2 7.79565 2 7Z" fill="black"/>
<path d="M5 18.875C5.49728 18.875 5.97419 18.6775 6.32583 18.3258C6.67746 17.9742 6.875 17.4973 6.875 17C6.875 16.5027 6.67746 16.0258 6.32583 15.6742C5.97419 15.3225 5.49728 15.125 5 15.125C4.50272 15.125 4.02581 15.3225 3.67417 15.6742C3.32254 16.0258 3.125 16.5027 3.125 17C3.125 17.4973 3.32254 17.9742 3.67417 18.3258C4.02581 18.6775 4.50272 18.875 5 18.875ZM5 14C4.20435 14 3.44129 14.3161 2.87868 14.8787C2.31607 15.4413 2 16.2044 2 17C2 17.7956 2.31607 18.5587 2.87868 19.1213C3.44129 19.6839 4.20435 20 5 20C5.79565 20 6.55871 19.6839 7.12132 19.1213C7.68393 18.5587 8 17.7956 8 17C8 16.2044 7.68393 15.4413 7.12132 14.8787C6.55871 14.3161 5.79565 14 5 14ZM2.375 17C2.375 16.6553 2.4429 16.3139 2.57482 15.9955C2.70673 15.677 2.90009 15.3876 3.14384 15.1438C3.3876 14.9001 3.67698 14.7067 3.99546 14.5748C4.31394 14.4429 4.65528 14.375 5 14.375C5.34472 14.375 5.68606 14.4429 6.00454 14.5748C6.32302 14.7067 6.6124 14.9001 6.85616 15.1438C7.09991 15.3876 7.29327 15.677 7.42518 15.9955C7.5571 16.3139 7.625 16.6553 7.625 17C7.625 17.6962 7.34844 18.3639 6.85616 18.8562C6.36387 19.3484 5.69619 19.625 5 19.625C4.30381 19.625 3.63613 19.3484 3.14384 18.8562C2.65156 18.3639 2.375 17.6962 2.375 17Z" fill="black"/>
</svg>
