<svg width="24" height="24" viewBox="0 0 24 24" fill="none" xmlns="http://www.w3.org/2000/svg">
<rect x="6" y="3" width="16" height="3" rx="0.5" stroke="black" stroke-width="0.5"/>
<rect x="10" y="8" width="12" height="3" rx="0.5" stroke="black" stroke-width="0.5"/>
<rect x="14" y="13" width="8" height="3" rx="0.5" stroke="black" stroke-width="0.5"/>
<rect x="10" y="18" width="12" height="3" rx="0.5" stroke="black" stroke-width="0.5"/>
<path d="M11.5 14.5H10.5M12 15.1667V13.8333C12 13.7449 11.9649 13.6601 11.9024 13.5976C11.8399 13.5351 11.7551 13.5 11.6667 13.5H10.3333C10.2449 13.5 10.1601 13.5351 10.0976 13.5976C10.0351 13.6601 10 13.7449 10 13.8333V15.1667C10 15.2551 10.0351 15.3399 10.0976 15.4024C10.1601 15.4649 10.2449 15.5 10.3333 15.5H11.6667C11.7551 15.5 11.8399 15.4649 11.9024 15.4024C11.9649 15.3399 12 15.2551 12 15.1667ZM11 14V15.0093V14Z" stroke="black" stroke-width="0.25" stroke-linecap="round" stroke-linejoin="round"/>
<path d="M7.5 19.5H6.5M8 20.1667V18.8333C8 18.7449 7.96488 18.6601 7.90237 18.5976C7.83986 18.5351 7.75507 18.5 7.66667 18.5H6.33333C6.24493 18.5 6.16014 18.5351 6.09763 18.5976C6.03512 18.6601 6 18.7449 6 18.8333V20.1667C6 20.2551 6.03512 20.3399 6.09763 20.4024C6.16014 20.4649 6.24493 20.5 6.33333 20.5H7.66667C7.75507 20.5 7.83986 20.4649 7.90237 20.4024C7.96488 20.3399 8 20.2551 8 20.1667ZM7 19V20.0093V19Z" stroke="black" stroke-width="0.25" stroke-linecap="round" stroke-linejoin="round"/>
<path d="M3.5 4.5H2.5M4 5.16667V3.83333C4 3.74493 3.96488 3.66014 3.90237 3.59763C3.83986 3.53512 3.75507 3.5 3.66667 3.5H2.33333C2.24493 3.5 2.16014 3.53512 2.09763 3.59763C2.03512 3.66014 2 3.74493 2 3.83333V5.16667C2 5.25507 2.03512 5.33986 2.09763 5.40237C2.16014 5.46488 2.24493 5.5 2.33333 5.5H3.66667C3.75507 5.5 3.83986 5.46488 3.90237 5.40237C3.96488 5.33986 4 5.25507 4 5.16667Z" stroke="black" stroke-width="0.25" stroke-linecap="round" stroke-linejoin="round"/>
<path d="M7.5 9.5H6.5M8 10.1667V8.83333C8 8.74493 7.96488 8.66014 7.90237 8.59763C7.83986 8.53512 7.75507 8.5 7.66667 8.5H6.33333C6.24493 8.5 6.16014 8.53512 6.09763 8.59763C6.03512 8.66014 6 8.74493 6 8.83333V10.1667C6 10.2551 6.03512 10.3399 6.09763 10.4024C6.16014 10.4649 6.24493 10.5 6.33333 10.5H7.66667C7.75507 10.5 7.83986 10.4649 7.90237 10.4024C7.96488 10.3399 8 10.2551 8 10.1667Z" stroke="black" stroke-width="0.25" stroke-linecap="round" stroke-linejoin="round"/>
<line x1="3.02499" y1="5.5" x2="3.02499" y2="19.6" stroke="black" stroke-width="0.25"/>
<line x1="7.02499" y1="10.4" x2="7.02499" y2="14.4" stroke="black" stroke-width="0.25"/>
<line x1="3" y1="19.475" x2="6" y2="19.475" stroke="black" stroke-width="0.25"/>
<line x1="3" y1="9.475" x2="6" y2="9.475" stroke="black" stroke-width="0.25"/>
<line x1="6.89999" y1="14.475" x2="9.89999" y2="14.475" stroke="black" stroke-width="0.25"/>
</svg>
