<svg width="24" height="24" viewBox="0 0 24 24" fill="none" xmlns="http://www.w3.org/2000/svg">
<rect x="2" y="6" width="20" height="12" rx="2" stroke="black" stroke-width="1.5"/>
<path fill-rule="evenodd" clip-rule="evenodd" d="M4.5 8.5C4.5 8.22386 4.72386 8 5 8H6.5H8C8.27614 8 8.5 8.22386 8.5 8.5C8.5 8.77614 8.27614 9 8 9H7V15H8C8.27614 15 8.5 15.2239 8.5 15.5C8.5 15.7761 8.27614 16 8 16H6.5H5C4.72386 16 4.5 15.7761 4.5 15.5C4.5 15.2239 4.72386 15 5 15H6V9H5C4.72386 9 4.5 8.77614 4.5 8.5Z" fill="black"/>
</svg>
