<svg width="24" height="24" viewBox="0 0 24 24" fill="none" xmlns="http://www.w3.org/2000/svg">
<path d="M23.7844 15.5906L21.7031 8.625C21.622 8.35285 21.4548 8.11435 21.2266 7.94531C20.9984 7.77627 20.7215 7.68581 20.4375 7.6875H19.5C19.3508 7.6875 19.2077 7.74676 19.1023 7.85225C18.9968 7.95774 18.9375 8.10082 18.9375 8.25C18.9375 8.39918 18.9968 8.54226 19.1023 8.64775C19.2077 8.75324 19.3508 8.8125 19.5 8.8125H20.4375C20.4782 8.81342 20.5178 8.82637 20.5511 8.84973C20.5845 8.87309 20.6102 8.9058 20.625 8.94375L22.4906 15.1875H19.1719L17.2031 8.625C17.122 8.35285 16.9548 8.11435 16.7266 7.94531C16.4984 7.77627 16.2215 7.68581 15.9375 7.6875H15C14.8508 7.6875 14.7077 7.74676 14.6023 7.85225C14.4968 7.95774 14.4375 8.10082 14.4375 8.25C14.4375 8.39918 14.4968 8.54226 14.6023 8.64775C14.7077 8.75324 14.8508 8.8125 15 8.8125H15.9375C15.9782 8.81342 16.0178 8.82637 16.0511 8.84973C16.0845 8.87309 16.1102 8.9058 16.125 8.94375L17.9906 15.1875H14.6719L12.7031 8.625C12.622 8.35285 12.4548 8.11435 12.2266 7.94531C11.9984 7.77627 11.7215 7.68581 11.4375 7.6875H3.5625C3.27851 7.68581 3.00164 7.77627 2.77343 7.94531C2.54523 8.11435 2.37801 8.35285 2.29688 8.625L0.215625 15.5813C0.195315 15.6351 0.18576 15.6925 0.1875 15.75C0.1875 15.8992 0.246763 16.0423 0.352252 16.1477C0.457742 16.2532 0.600816 16.3125 0.75 16.3125H23.25C23.3992 16.3125 23.5423 16.2532 23.6477 16.1477C23.7532 16.0423 23.8125 15.8992 23.8125 15.75C23.813 15.6956 23.8035 15.6416 23.7844 15.5906ZM3.375 8.94375C3.3898 8.9058 3.41551 8.87309 3.44887 8.84973C3.48224 8.82637 3.52178 8.81342 3.5625 8.8125H11.4375C11.4782 8.81342 11.5178 8.82637 11.5511 8.84973C11.5845 8.87309 11.6102 8.9058 11.625 8.94375L13.4906 15.1875H1.50938L3.375 8.94375Z" fill="black"/>
</svg>
