<svg width="24" height="24" viewBox="0 0 24 24" fill="none" xmlns="http://www.w3.org/2000/svg">
<path opacity="0.2" d="M21 12C21 13.78 20.4722 15.5201 19.4832 17.0001C18.4943 18.4802 17.0887 19.6337 15.4442 20.3149C13.7996 20.9961 11.99 21.1743 10.2442 20.8271C8.49836 20.4798 6.89472 19.6226 5.63604 18.364C4.37737 17.1053 3.5202 15.5016 3.17294 13.7558C2.82567 12.01 3.0039 10.2004 3.68509 8.55585C4.36628 6.91131 5.51983 5.50571 6.99987 4.51677C8.47991 3.52784 10.22 3 12 3C14.387 3 16.6761 3.94821 18.364 5.63604C20.0518 7.32387 21 9.61305 21 12Z" fill="black"/>
<path d="M13.5 16.5C13.5 16.6989 13.421 16.8897 13.2803 17.0303C13.1397 17.171 12.9489 17.25 12.75 17.25C12.3522 17.25 11.9706 17.092 11.6893 16.8107C11.408 16.5294 11.25 16.1478 11.25 15.75V12C11.0511 12 10.8603 11.921 10.7197 11.7803C10.579 11.6397 10.5 11.4489 10.5 11.25C10.5 11.0511 10.579 10.8603 10.7197 10.7197C10.8603 10.579 11.0511 10.5 11.25 10.5C11.6478 10.5 12.0294 10.658 12.3107 10.9393C12.592 11.2206 12.75 11.6022 12.75 12V15.75C12.9489 15.75 13.1397 15.829 13.2803 15.9697C13.421 16.1103 13.5 16.3011 13.5 16.5ZM21.75 12C21.75 13.9284 21.1782 15.8134 20.1068 17.4168C19.0355 19.0202 17.5127 20.2699 15.7312 21.0078C13.9496 21.7458 11.9892 21.9389 10.0979 21.5627C8.20656 21.1865 6.46928 20.2579 5.10571 18.8943C3.74215 17.5307 2.81355 15.7934 2.43735 13.9021C2.06114 12.0108 2.25422 10.0504 2.99218 8.26884C3.73013 6.48726 4.97982 4.96452 6.58319 3.89317C8.18657 2.82183 10.0716 2.25 12 2.25C14.585 2.25273 17.0634 3.28084 18.8913 5.10872C20.7192 6.93661 21.7473 9.41498 21.75 12ZM20.25 12C20.25 10.3683 19.7662 8.77325 18.8596 7.41655C17.9531 6.05984 16.6646 5.00242 15.1571 4.37799C13.6497 3.75357 11.9909 3.59019 10.3905 3.90852C8.79017 4.22685 7.32016 5.01259 6.16637 6.16637C5.01259 7.32015 4.22685 8.79016 3.90853 10.3905C3.5902 11.9908 3.75358 13.6496 4.378 15.1571C5.00242 16.6646 6.05984 17.9531 7.41655 18.8596C8.77326 19.7661 10.3683 20.25 12 20.25C14.1873 20.2475 16.2843 19.3775 17.8309 17.8309C19.3775 16.2843 20.2475 14.1873 20.25 12ZM11.625 9C11.8475 9 12.065 8.93402 12.25 8.8104C12.435 8.68679 12.5792 8.51109 12.6644 8.30552C12.7495 8.09995 12.7718 7.87375 12.7284 7.65552C12.685 7.43729 12.5778 7.23684 12.4205 7.0795C12.2632 6.92217 12.0627 6.81502 11.8445 6.77162C11.6263 6.72821 11.4001 6.75049 11.1945 6.83564C10.9889 6.92078 10.8132 7.06498 10.6896 7.24998C10.566 7.43499 10.5 7.6525 10.5 7.875C10.5 8.17337 10.6185 8.45952 10.8295 8.6705C11.0405 8.88147 11.3266 9 11.625 9Z" fill="black"/>
</svg>
