<svg width="53" height="24" viewBox="0 0 322 146" fill="none" xmlns="http://www.w3.org/2000/svg">
<path d="M55.2938 86.6648C51.9542 83.6785 50.2844 79.2644 50.2844 73.434C50.2844 67.6036 51.9866 63.1896 55.3965 60.2033C58.8009 57.2169 63.4591 55.7209 69.3655 55.7209C71.8188 55.7209 73.9858 55.8973 75.8717 56.2613C77.7577 56.6197 79.5626 57.2283 81.2864 58.0929V67.5524C78.6061 66.2157 75.5637 65.5445 72.1593 65.5445C69.1601 65.5445 66.9446 66.1417 65.5179 67.3363C64.0859 68.5308 63.3726 70.5615 63.3726 73.434C63.3726 76.2099 64.0751 78.2178 65.4855 79.4578C66.8905 80.7035 69.1169 81.3235 72.1647 81.3235C75.3908 81.3235 78.4548 80.5329 81.3621 78.9573V88.8547C78.136 90.3849 74.1155 91.1471 69.3006 91.1471C63.2969 91.1471 58.6334 89.6511 55.2938 86.6648Z" fill="white"/>
<path d="M84.2698 73.4278C84.2698 67.6429 85.8369 63.246 88.9711 60.2312C92.1054 57.2165 96.8284 55.7148 103.145 55.7148C109.506 55.7148 114.261 57.2222 117.422 60.2312C120.578 63.2403 122.156 67.6429 122.156 73.4278C122.156 85.2366 115.818 91.1409 103.145 91.1409C90.5599 91.1466 84.2698 85.2422 84.2698 73.4278ZM107.679 79.4573C108.609 78.2116 109.074 76.2037 109.074 73.4335C109.074 70.7089 108.609 68.7123 107.679 67.4439C106.75 66.1754 105.237 65.544 103.145 65.544C101.103 65.544 99.6222 66.1811 98.7143 67.4439C97.8065 68.7123 97.3525 70.7089 97.3525 73.4335C97.3525 76.2094 97.8065 78.2173 98.7143 79.4573C99.6222 80.7031 101.097 81.3231 103.145 81.3231C105.237 81.3231 106.744 80.6974 107.679 79.4573Z" fill="white"/>
<path d="M125.138 56.4315H137.129L137.47 59.0139C138.788 58.0583 140.469 57.2677 142.511 56.6476C144.554 56.0276 146.667 55.7148 148.85 55.7148C152.892 55.7148 155.843 56.7671 157.707 58.8717C159.571 60.9764 160.501 64.2243 160.501 68.627V90.4299H147.694V69.9865C147.694 68.4564 147.364 67.3585 146.705 66.6873C146.046 66.0161 144.943 65.6862 143.398 65.6862C142.447 65.6862 141.468 65.9137 140.469 66.3688C139.469 66.8238 138.631 67.4097 137.945 68.1264V90.4299H125.138V56.4315Z" fill="white"/>
<path d="M160.538 56.4317H173.891L180.024 76.3689L186.158 56.4317H199.511L186.768 90.4301H173.275L160.538 56.4317Z" fill="white"/>
<path d="M203.543 87.5061C199.695 84.4686 197.896 79.1957 197.896 73.5018C197.896 67.9558 199.328 63.3882 202.597 60.2312C205.866 57.0743 210.849 55.7148 217.139 55.7148C222.926 55.7148 227.476 57.1255 230.8 59.9468C234.118 62.7682 235.782 66.6191 235.782 71.4939V77.4494H211.427C212.032 79.2184 212.799 80.4983 214.685 81.2889C216.571 82.0796 219.203 82.4721 222.57 82.4721C224.58 82.4721 226.633 82.3071 228.719 81.9715C229.454 81.8521 230.665 81.6644 231.302 81.5222V89.7871C228.119 90.6972 223.877 91.1523 219.095 91.1523C212.659 91.1466 207.39 90.5436 203.543 87.5061ZM222.326 70.1344C222.326 68.4507 220.484 64.8273 216.782 64.8273C213.442 64.8273 211.238 68.3938 211.238 70.1344H222.326Z" fill="white"/>
<path d="M245.838 73.1436L233.846 56.4317H247.745L272.273 90.4301H258.24L252.787 82.825L247.335 90.4301H233.365L245.838 73.1436Z" fill="white"/>
<path d="M257.931 56.4317H271.765L261.147 71.3177L254.122 61.7786L257.931 56.4317Z" fill="white"/>
</svg>
