<svg width="24" height="24" viewBox="0 0 24 24" fill="none" xmlns="http://www.w3.org/2000/svg">
<path d="M4.34998 18.45L4.47748 18.2723L10.4925 6.86175L10.5052 6.741L7.85398 1.761C7.80544 1.66993 7.7295 1.59643 7.63689 1.5509C7.54428 1.50536 7.43971 1.4901 7.33795 1.50727C7.23619 1.52443 7.14241 1.57316 7.06987 1.64656C6.99733 1.71995 6.9497 1.8143 6.93373 1.91625L4.34998 18.45Z" fill="#FFC24A"/>
<path d="M4.42499 18.315L4.52099 18.1275L10.4737 6.8355L7.82924 1.836C7.78563 1.74905 7.71502 1.67858 7.62799 1.63513C7.54096 1.59169 7.4422 1.57761 7.3465 1.59501C7.2508 1.61241 7.16331 1.66035 7.09715 1.73165C7.03098 1.80295 6.9897 1.89377 6.97949 1.9905L4.42499 18.315Z" fill="#FFA712"/>
<path d="M12.438 10.5075L14.412 8.4825L12.4373 4.71675C12.3938 4.6357 12.3292 4.56796 12.2503 4.52074C12.1714 4.47351 12.0811 4.44857 11.9892 4.44857C11.8972 4.44857 11.8069 4.47351 11.728 4.52074C11.6491 4.56796 11.5845 4.6357 11.541 4.71675L10.4858 6.72825V6.9L12.438 10.5075Z" fill="#F4BD62"/>
<path d="M12.4027 10.425L14.322 8.46L12.4027 4.8C12.3713 4.72078 12.3177 4.65233 12.2482 4.60292C12.1788 4.5535 12.0966 4.52522 12.0114 4.5215C11.9263 4.51777 11.8419 4.53876 11.7684 4.58192C11.6949 4.62508 11.6355 4.68857 11.5972 4.76475L10.5367 6.8115L10.5052 6.91575L12.4027 10.425Z" fill="#FFA50E"/>
<path d="M4.3515 18.4507L4.40925 18.3922L4.6185 18.3075L12.3135 10.641L12.411 10.3755L10.4918 6.717L4.3515 18.4507Z" fill="#F6820C"/>
<path d="M12.684 22.317L19.65 18.4328L17.6595 6.1845C17.6452 6.09816 17.6074 6.01741 17.5503 5.95114C17.4931 5.88486 17.4188 5.83561 17.3355 5.8088C17.2522 5.78199 17.1631 5.77865 17.078 5.79915C16.993 5.81964 16.9152 5.86319 16.8532 5.925L4.34998 18.45L11.2747 22.3162C11.49 22.4364 11.7324 22.4994 11.979 22.4994C12.2255 22.4994 12.4679 22.4364 12.6832 22.3162" fill="#FDE068"/>
<path d="M19.5862 18.4005L17.6122 6.2445C17.6088 6.16191 17.5808 6.08222 17.532 6.0155C17.4833 5.94878 17.4158 5.89804 17.3381 5.86969C17.2605 5.84135 17.1762 5.83668 17.0958 5.85627C17.0155 5.87586 16.9429 5.91883 16.887 5.97975L4.42499 18.4268L11.2732 22.2518C11.4868 22.3709 11.7273 22.4334 11.9719 22.4334C12.2164 22.4334 12.4569 22.3709 12.6705 22.2518L19.5862 18.4005Z" fill="#FCCA3F"/>
<path d="M12.684 22.2C12.4687 22.3201 12.2263 22.3832 11.9797 22.3832C11.7332 22.3832 11.4908 22.3201 11.2755 22.2L4.40698 18.3915L4.34998 18.45L11.2747 22.3163C11.49 22.4364 11.7324 22.4994 11.979 22.4994C12.2255 22.4994 12.4679 22.4364 12.6832 22.3163L19.65 18.4328L19.6327 18.3278L12.684 22.2Z" fill="#EEAB37"/>
</svg>
