<svg width="24" height="24" viewBox="0 0 192 192" fill="none" xmlns="http://www.w3.org/2000/svg">
<path d="M104 130C121.5 128 138 118.5 147 103C142.7 142 100 167 65 152C61.8 150.6 59 148.3 57.1 145.3C49.3 133 46.8 117.3 50.5 103C61 121.3 82.5 132.5 104 130Z" fill="#ffffff"/>
<path d="M49.5 90.5C42.3 107.2 42 126.7 50.8 143C19.8 119.5 20.1 69.5 50.5 46.3C53.3 44.2 56.6 43 60.1 42.8C74.5 42 89.1 47.5 99.4 57.8C78.6 58 58.3 71.3 49.5 90.5Z" fill="#ffffff"/>
<path d="M110 62.5C99.5 47.8 83 37.8 65 37.5C100 21.6 143 47.5 147.5 85.8C147.9 89.3 147.3 92.9 145.7 96.1C139.2 109.4 127.1 119.7 113 123.5C123.4 104.3 122 80.7 110 62.5Z" fill="#ffffff"/>
</svg>
