<svg width="24" height="24" viewBox="0 0 24 24" fill="none" xmlns="http://www.w3.org/2000/svg">
<g fill="none"><path stroke="currentColor" stroke-linecap="round" stroke-width="1.5" d="M17.923 8c.015.206.048.368.112.52c.136.32.397.559.919 1.037l.475.435c1.837 1.683 2.756 2.524 2.54 3.47c-.215.944-1.422 1.366-3.835 2.212l-.624.218c-.686.24-1.028.36-1.291.601c-.264.24-.417.575-.724 1.243l-.28.609c-1.079 2.351-1.619 3.527-2.565 3.646c-.947.118-1.673-.899-3.125-2.934l-.376-.526c-.413-.578-.62-.867-.917-1.038c-.298-.17-.654-.203-1.365-.268l-.648-.06c-2.505-.228-3.757-.343-4.126-1.214c-.37-.872.388-1.923 1.903-4.026l.392-.544c.43-.597.646-.896.725-1.242s.012-.7-.12-1.409l-.122-.645c-.468-2.493-.702-3.74.016-4.397s1.913-.29 4.302.445l.618.19c.678.21 1.018.314 1.365.27c.346-.043.661-.23 1.29-.602l.574-.34c2.215-1.311 3.322-1.967 4.136-1.502c.492.282.68.861.741 1.842"/><path fill="currentColor" d="M17.53 16.47a.75.75 0 1 0-1.06 1.06zm2.94 5.06a.75.75 0 1 0 1.06-1.06zm-4-4l4 4l1.06-1.06l-4-4z"/></g>
</svg>