<svg width="24" height="24" viewBox="0 0 24 24" fill="none" xmlns="http://www.w3.org/2000/svg">
<path fill="currentColor" d="M3 11.991c0 5.638 4.239 8.375 6.899 9.536c.721.315 1.082.473 2.101.473V8l-9 3z"/><path fill="currentColor" d="M14.101 21.527C16.761 20.365 21 17.63 21 11.991V11l-9-3v14c1.02 0 1.38-.158 2.101-.473M8.838 2.805L8.265 3c-3.007 1.03-4.51 1.545-4.887 2.082C3 5.62 3 7.22 3 10.417V11l9-3V2c-.811 0-1.595.268-3.162.805" opacity=".5"/><path fill="currentColor" d="m15.735 3l-.573-.195C13.595 2.268 12.812 2 12 2v6l9 3v-.583c0-3.198 0-4.797-.378-5.335c-.377-.537-1.88-1.052-4.887-2.081"/>
</svg>