<svg width="73" height="24" viewBox="0 0 100 33" fill="none" xmlns="http://www.w3.org/2000/svg">
<path fill-rule="evenodd" clip-rule="evenodd" d="M18.1535 0.233786L17.4762 8.59222L17.4771 8.5932C17.1566 8.55399 16.8321 8.53194 16.5013 8.53194C16.0896 8.53194 15.6843 8.56331 15.2892 8.62359L14.9045 4.57033C14.8927 4.44388 14.9927 4.33312 15.1206 4.33508H15.8132L15.4794 0.234275C15.4681 0.108806 15.5676 0 15.6946 0H17.9384C18.0638 0 18.1633 0.108316 18.1535 0.234275V0.233786ZM12.4907 0.648914C12.4573 0.527365 12.327 0.459729 12.2083 0.503349L10.0998 1.27136C9.98123 1.31449 9.92487 1.45025 9.97731 1.56494L11.6927 5.30404L11.0414 5.53929C10.9218 5.58242 10.8644 5.72014 10.9198 5.83581L12.6676 9.51315C13.3018 9.16419 13.988 8.901 14.7124 8.73534L12.4907 0.649404V0.648914ZM7.31203 2.97647L12.1647 9.81408L12.1657 9.81506C11.5506 10.215 10.9938 10.6978 10.5115 11.2472L7.60905 8.38785C7.51739 8.29864 7.52474 8.14965 7.62228 8.06829L8.15308 7.62425L5.26283 4.69727C5.17461 4.60807 5.18147 4.46104 5.27803 4.37968L6.99639 2.93629C7.09393 2.85493 7.23851 2.87404 7.31203 2.97647ZM3.24108 6.93465C3.13767 6.86309 2.99406 6.89544 2.93035 7.00376L1.80895 8.94756C1.74572 9.05734 1.78983 9.19703 1.90354 9.25094L5.62062 11.0129L5.27313 11.6118C5.20892 11.7226 5.25401 11.8642 5.37066 11.9172L9.07402 13.6105C9.34211 12.9219 9.70088 12.2799 10.1391 11.7L3.24108 6.93416V6.93465ZM0.502776 12.2181C0.524831 12.0936 0.647361 12.0142 0.769892 12.0461L8.88091 14.1648C8.67065 14.85 8.55351 15.5749 8.53734 16.3258L4.47619 15.9998C4.34876 15.9895 4.25809 15.8719 4.28014 15.7464L4.40169 15.0652L0.306727 14.6814C0.181256 14.6692 0.0915636 14.5525 0.113619 14.428L0.502286 12.2176L0.502776 12.2181ZM0.19645 17.6956C0.0709786 17.7079 -0.0187137 17.8245 0.00334174 17.949L0.393479 20.1595C0.415534 20.2839 0.539045 20.3633 0.660595 20.3315L4.64038 19.2915L4.75899 19.9727C4.78105 20.0982 4.90652 20.1776 5.02954 20.1438L8.95492 19.0601C8.72358 18.3798 8.58096 17.6603 8.54273 16.9115L0.19694 17.6966L0.19645 17.6956ZM1.49478 23.504C1.43156 23.3942 1.47469 23.2545 1.58937 23.2001L9.16273 19.6091C9.45092 20.2884 9.83224 20.9186 10.288 21.4857L6.96895 23.8466C6.86553 23.9211 6.71947 23.8887 6.65625 23.7785L6.31169 23.1786L2.9279 25.5174C2.8235 25.5899 2.68087 25.5576 2.61716 25.4483L1.49478 23.5045V23.504ZM10.6708 21.9293L4.78007 27.8974C4.69184 27.9866 4.6987 28.1336 4.79526 28.215L6.5146 29.6574C6.61116 29.7388 6.75672 29.7197 6.83024 29.6172L9.20978 26.2624L9.7396 26.7089C9.83714 26.7912 9.98466 26.7711 10.0572 26.6667L12.3676 23.3148C11.7408 22.933 11.1708 22.4654 10.6723 21.9317L10.6713 21.9298L10.6708 21.9293ZM9.50728 31.5125C9.38867 31.4694 9.33231 31.3336 9.38475 31.2189H9.38573L12.8798 23.5966C13.5228 23.9255 14.2164 24.1706 14.9462 24.3151L13.9213 28.2562C13.889 28.3797 13.7576 28.4493 13.638 28.4052L12.9876 28.167L11.8981 32.134C11.8648 32.2555 11.7344 32.3232 11.6158 32.2795L9.50728 31.5125ZM15.5245 24.4068L14.8472 32.7657C14.8374 32.8912 14.9364 33 15.0623 33H17.3061C17.433 33 17.532 32.8912 17.5213 32.7657L17.1875 28.6649H17.88C18.0075 28.6669 18.1079 28.5561 18.0962 28.4297L17.7114 24.3764C17.3164 24.4367 16.9115 24.4676 16.4994 24.4676C16.169 24.4676 15.8446 24.4455 15.5245 24.4063V24.4068ZM23.6164 1.77912C23.6689 1.66443 23.6125 1.52867 23.4939 1.48554L21.3854 0.71851C21.2668 0.67538 21.1364 0.742526 21.1031 0.864075L20.0135 4.83107L19.3631 4.59288C19.2435 4.54877 19.1117 4.61787 19.0798 4.74138L18.055 8.68241C18.7848 8.82699 19.4778 9.07254 20.1214 9.40092L23.6164 1.77863V1.77912ZM28.2211 5.10113L22.3303 11.0693L22.3293 11.0673C21.8309 10.5336 21.2614 10.0665 20.634 9.6842L22.9445 6.3323C23.017 6.2279 23.1645 6.20781 23.2621 6.29015L23.7919 6.73615L26.1714 3.38131C26.2449 3.27888 26.3905 3.25976 26.487 3.34112L28.2064 4.78353C28.3029 4.86489 28.3098 5.01193 28.2216 5.10113H28.2211ZM31.4118 9.79791C31.5265 9.74351 31.5696 9.60382 31.5064 9.49453L30.384 7.55073C30.3208 7.44094 30.1782 7.40908 30.0733 7.48113L26.6895 9.81996L26.3449 9.22006C26.2817 9.1093 26.1361 9.07744 26.0322 9.15194L22.7131 11.5128C23.1694 12.0799 23.5502 12.7097 23.8389 13.3895L31.4118 9.7984V9.79791ZM32.6067 12.8401L32.9968 15.0505L32.9978 15.0515C33.0199 15.176 32.9307 15.2926 32.8047 15.3049L24.4579 16.089C24.4197 15.3401 24.2771 14.6207 24.0462 13.9404L27.9716 12.8567C28.0942 12.8224 28.2196 12.9018 28.2422 13.0278L28.3608 13.709L32.3406 12.669C32.4621 12.6367 32.5856 12.7161 32.6077 12.841L32.6067 12.8401ZM32.2298 20.952C32.3523 20.9843 32.4749 20.9049 32.4969 20.7799L32.8861 18.57C32.9081 18.4455 32.8189 18.3289 32.693 18.3166L28.598 17.9329L28.7195 17.2516C28.7416 17.1261 28.6514 17.0085 28.5235 16.9982L24.4628 16.6723C24.4467 17.4231 24.3281 18.148 24.1193 18.8332L32.2303 20.951V20.952H32.2298ZM30.0693 25.9943C30.0061 26.1031 29.8625 26.1349 29.7591 26.0634L29.7601 26.0624L22.8611 21.2975C23.2993 20.7177 23.6581 20.0756 23.9262 19.387L27.6295 21.0809C27.7462 21.1343 27.7913 21.2759 27.7271 21.3862L27.3791 21.9851L31.0966 23.7471C31.2103 23.8015 31.2545 23.9412 31.1912 24.0505L30.0698 25.9943H30.0693ZM20.835 23.184L25.6877 30.0225C25.7612 30.125 25.9058 30.1441 26.0033 30.0627L27.7217 28.6193C27.8182 28.538 27.8251 28.3909 27.7369 28.3017L24.8466 25.3753L25.3774 24.9312C25.4749 24.8499 25.4818 24.7009 25.3906 24.6117L22.4886 21.7523C22.0064 22.3022 21.4496 22.7845 20.8345 23.1844H20.8355L20.835 23.184ZM20.7928 32.4952C20.6742 32.5383 20.5433 32.4712 20.5105 32.3496L18.2888 24.2637C19.0132 24.098 19.6999 23.8343 20.3341 23.4859L22.0813 27.1632C22.1367 27.2789 22.0794 27.4166 21.9598 27.4597L21.3084 27.695L23.0239 31.4341C23.0763 31.5488 23.0199 31.6845 22.9013 31.7277L20.7928 32.4957V32.4952Z" fill="#007DC1"/>
<path d="M90.0133 24.0958C87.1755 24.0958 85.1692 21.889 85.1692 18.9941C85.1692 16.0991 87.1755 13.8924 90.0133 13.8924C92.851 13.8924 94.8 16.0991 94.8 18.9941C94.8 21.889 92.8223 24.0958 90.0133 24.0958ZM89.5546 27.1339C91.8478 27.1339 93.7969 26.2453 95.0291 24.3821C95.2582 26.188 96.5768 26.8471 98.2391 26.8471H99.5577V23.9808H98.9845C98.0386 23.9808 97.8096 23.5221 97.8096 22.4617V11.1401H94.7714V13.4619C93.7396 11.8283 91.7905 10.8538 89.5551 10.8538C85.5711 10.8538 81.9025 14.1787 81.9025 18.9936C81.9025 23.8085 85.5711 27.1334 89.5551 27.1334L89.5546 27.1339ZM73.9052 23.2072C73.9052 25.7867 75.5102 26.8471 77.4307 26.8471H81.1279V23.9808H78.4338C77.3161 23.9808 77.0865 23.5508 77.0865 22.4617V14.0064H81.1279V11.1401H77.0865V5.86609H73.9052V23.2067V23.2072ZM59.4308 26.8471H62.6121V20.1118H63.6726L69.0898 26.8471H73.1025L66.1948 18.3059L71.4975 11.1406H67.9148L63.5867 17.1882H62.6121V5.86709H59.4308V26.8476V26.8471ZM49.1123 10.8538C44.6696 10.8538 41.001 14.1787 41.001 18.9936C41.001 23.8085 44.6696 27.1334 49.1123 27.1334C53.555 27.1334 57.2235 23.8085 57.2235 18.9936C57.2235 14.1787 53.555 10.8538 49.1123 10.8538ZM49.1123 24.0958C46.2745 24.0958 44.2682 21.889 44.2682 18.9941C44.2682 16.0991 46.2745 13.8924 49.1123 13.8924C51.95 13.8924 53.9563 16.0991 53.9563 18.9941C53.9563 21.889 51.95 24.0958 49.1123 24.0958Z" fill="#007DC1"/>
</svg>