<svg width="73" height="24" viewBox="0 0 100 33" fill="none" xmlns="http://www.w3.org/2000/svg">
<path fill-rule="evenodd" clip-rule="evenodd" d="M18.1535 0.233786L17.4762 8.59222L17.4771 8.5932C17.1566 8.55399 16.8321 8.53194 16.5013 8.53194C16.0896 8.53194 15.6843 8.56331 15.2892 8.62359L14.9045 4.57033C14.8927 4.44388 14.9927 4.33312 15.1206 4.33508H15.8132L15.4794 0.234275C15.4681 0.108806 15.5676 0 15.6946 0H17.9384C18.0638 0 18.1633 0.108316 18.1535 0.234275V0.233786Z" fill="white"/>
<path d="M90.0133 24.0958C87.1755 24.0958 85.1692 21.889 85.1692 18.9941C85.1692 16.0991 87.1755 13.8924 90.0133 13.8924C92.851 13.8924 94.8 16.0991 94.8 18.9941C94.8 21.889 92.8223 24.0958 90.0133 24.0958ZM89.5546 27.1339C91.8478 27.1339 93.7969 26.2453 95.0291 24.3821C95.2582 26.188 96.5768 26.8471 98.2391 26.8471H99.5577V23.9808H98.9845C98.0386 23.9808 97.8096 23.5221 97.8096 22.4617V11.1401H94.7714V13.4619C93.7396 11.8283 91.7905 10.8538 89.5551 10.8538C85.5711 10.8538 81.9025 14.1787 81.9025 18.9936C81.9025 23.8085 85.5711 27.1334 89.5551 27.1334L89.5546 27.1339ZM73.9052 23.2072C73.9052 25.7867 75.5102 26.8471 77.4307 26.8471H81.1279V23.9808H78.4338C77.3161 23.9808 77.0865 23.5508 77.0865 22.4617V14.0064H81.1279V11.1401H77.0865V5.86609H73.9052V23.2067V23.2072ZM59.4308 26.8471H62.6121V20.1118H63.6726L69.0898 26.8471H73.1025L66.1948 18.3059L71.4975 11.1406H67.9148L63.5867 17.1882H62.6121V5.86709H59.4308V26.8476V26.8471ZM49.1123 10.8538C44.6696 10.8538 41.001 14.1787 41.001 18.9936C41.001 23.8085 44.6696 27.1334 49.1123 27.1334C53.555 27.1334 57.2235 23.8085 57.2235 18.9936C57.2235 14.1787 53.555 10.8538 49.1123 10.8538ZM49.1123 24.0958C46.2745 24.0958 44.2682 21.889 44.2682 18.9941C44.2682 16.0991 46.2745 13.8924 49.1123 13.8924C51.95 13.8924 53.9563 16.0991 53.9563 18.9941C53.9563 21.889 51.95 24.0958 49.1123 24.0958Z" fill="white"/>
</svg>