<svg width="92" height="24" viewBox="0 0 432 113" fill="none" xmlns="http://www.w3.org/2000/svg">
<path d="M1.397 66.7608C1.996 72.3621 7.091 81.9642 21.877 81.9642C34.764 81.9642 40.959 73.7624 40.959 65.7607C40.959 58.559 36.063 52.6577 26.373 50.6571L19.379 49.1569C16.682 48.6568 14.884 47.1565 14.884 44.7559C14.884 41.9552 17.681 39.8549 21.178 39.8549C26.772 39.8549 28.87 43.5556 29.27 46.4564L40.359 43.9558C39.76 38.6546 35.064 29.7527 21.078 29.7527C10.488 29.7527 2.696 37.0543 2.696 45.8561C2.696 52.7576 6.991 58.4591 16.482 60.5594L22.976 62.0598C26.772 62.8599 28.271 64.6605 28.271 66.8609C28.271 69.4615 26.173 71.762 21.777 71.762C15.983 71.762 13.085 68.1611 12.786 64.2602L1.397 66.7608Z" fill="#ffffff"/>
<path d="M83.421 80.4639H96.109C95.909 78.7635 95.609 75.3628 95.609 71.5618V31.2529H82.321V59.8592C82.321 65.5606 78.925 69.5614 73.031 69.5614C66.837 69.5614 64.039 65.1604 64.039 59.6592V31.2529H50.752V62.3599C50.752 73.0622 57.545 81.7642 69.434 81.7642C74.628 81.7642 80.325 79.7638 83.022 75.1627C83.022 77.1631 83.221 79.4636 83.421 80.4639Z" fill="#ffffff"/>
<path d="M123.076 99.4682V75.663C125.473 78.9636 130.469 81.6644 137.263 81.6644C151.149 81.6644 160.439 70.6617 160.439 55.7584C160.439 41.1553 152.148 30.1528 137.762 30.1528C130.37 30.1528 124.875 33.4534 122.677 37.2544V31.253H109.79V99.4682H123.076ZM147.352 55.8585C147.352 64.6606 141.958 69.7616 135.164 69.7616C128.372 69.7616 122.877 64.5605 122.877 55.8585C122.877 47.1566 128.372 42.0554 135.164 42.0554C141.958 42.0554 147.352 47.1566 147.352 55.8585Z" fill="#ffffff"/>
<path d="M167.964 67.0609C167.964 74.7627 174.357 81.8643 184.848 81.8643C192.139 81.8643 196.835 78.4634 199.332 74.5625C199.332 76.463 199.532 79.1635 199.832 80.4639H212.02C211.72 78.7635 211.422 75.2627 211.422 72.6622V48.4567C211.422 38.5545 205.627 29.7527 190.043 29.7527C176.855 29.7527 169.761 38.2544 168.963 45.9562L180.751 48.4567C181.151 44.1558 184.348 40.455 190.141 40.455C195.737 40.455 198.434 43.3556 198.434 46.8564C198.434 48.5568 197.536 49.9572 194.738 50.3572L182.65 52.1576C174.458 53.3579 167.964 58.2589 167.964 67.0609ZM187.644 71.962C183.349 71.962 181.25 69.1614 181.25 66.2608C181.25 62.4599 183.947 60.5594 187.345 60.0594L198.434 58.359V60.5594C198.434 69.2615 193.239 71.962 187.644 71.962Z" fill="#ffffff"/>
<path d="M237.703 80.4641V74.4627C240.299 78.6637 245.494 81.6644 252.288 81.6644C266.276 81.6644 275.467 70.5618 275.467 55.6585C275.467 41.0552 267.174 29.9528 252.788 29.9528C245.494 29.9528 240.1 33.1535 237.902 36.6541V8.04785H224.815V80.4641H237.703ZM262.178 55.7584C262.178 64.7605 256.784 69.7616 249.99 69.7616C243.297 69.7616 237.703 64.6606 237.703 55.7584C237.703 46.7564 243.297 41.8554 249.99 41.8554C256.784 41.8554 262.178 46.7564 262.178 55.7584Z" fill="#ffffff"/>
<path d="M282.99 67.0609C282.99 74.7627 289.383 81.8643 299.873 81.8643C307.165 81.8643 311.862 78.4634 314.358 74.5625C314.358 76.463 314.559 79.1635 314.858 80.4639H327.046C326.748 78.7635 326.448 75.2627 326.448 72.6622V48.4567C326.448 38.5545 320.653 29.7527 305.068 29.7527C291.881 29.7527 284.788 38.2544 283.989 45.9562L295.776 48.4567C296.177 44.1558 299.374 40.455 305.167 40.455C310.763 40.455 313.46 43.3556 313.46 46.8564C313.46 48.5568 312.561 49.9572 309.763 50.3572L297.676 52.1576C289.484 53.3579 282.99 58.2589 282.99 67.0609ZM302.671 71.962C298.375 71.962 296.276 69.1614 296.276 66.2608C296.276 62.4599 298.973 60.5594 302.371 60.0594L313.46 58.359V60.5594C313.46 69.2615 308.265 71.962 302.671 71.962Z" fill="#ffffff"/>
<path d="M335.645 66.7608C336.243 72.3621 341.339 81.9642 356.124 81.9642C369.012 81.9642 375.205 73.7624 375.205 65.7607C375.205 58.559 370.311 52.6577 360.62 50.6571L353.626 49.1569C350.929 48.6568 349.132 47.1565 349.132 44.7559C349.132 41.9552 351.928 39.8549 355.425 39.8549C361.021 39.8549 363.118 43.5556 363.519 46.4564L374.607 43.9558C374.007 38.6546 369.312 29.7527 355.326 29.7527C344.735 29.7527 336.944 37.0543 336.944 45.8561C336.944 52.7576 341.238 58.4591 350.73 60.5594L357.224 62.0598C361.021 62.8599 362.519 64.6605 362.519 66.8609C362.519 69.4615 360.421 71.762 356.025 71.762C350.23 71.762 347.334 68.1611 347.034 64.2602L335.645 66.7608Z" fill="#ffffff"/>
<path d="M395.385 50.2571C395.685 45.7562 399.482 40.5549 406.375 40.5549C413.967 40.5549 417.165 45.3561 417.365 50.2571H395.385ZM418.664 63.0601C417.065 67.4609 413.668 70.5617 407.474 70.5617C400.88 70.5617 395.385 65.8606 395.087 59.3593H430.252C430.252 59.159 430.451 57.1587 430.451 55.2582C430.451 39.4547 421.361 29.7527 406.175 29.7527C393.588 29.7527 381.998 39.9548 381.998 55.6584C381.998 72.262 393.886 81.9642 407.374 81.9642C419.462 81.9642 427.255 74.8626 429.753 66.3607L418.664 63.0601Z" fill="#ffffff"/>
</svg>