<svg xmlns="http://www.w3.org/2000/svg" version="1.1" xmlns:xlink="http://www.w3.org/1999/xlink" xmlns:svgjs="http://svgjs.com/svgjs" width="128" height="128"><svg width="128" height="128" viewBox="0 0 128 128" fill="none" xmlns="http://www.w3.org/2000/svg">
<path opacity="0.66" d="M61.5599 73.2116C56.2872 72.3025 51.2569 75.8782 50.4084 81.151C48.1053 94.9086 56.166 105.454 53.0751 124C56.166 105.454 67.2569 98.0601 69.5599 84.3025C70.4084 79.0903 66.8327 74.0601 61.5599 73.2116Z" fill="#FD9235"></path>
<path d="M61.5601 73.2121C58.045 72.606 54.651 75.0302 54.1055 78.5454C52.5904 87.7575 57.9843 94.7879 55.8631 107.273C57.9237 94.8485 65.3783 89.8788 66.8934 80.7272C67.4995 77.1514 65.1359 73.8182 61.5601 73.2121Z" fill="white"></path>
<path d="M67.6195 76.7276L54.4679 74.4852C53.8618 74.364 53.4376 73.8185 53.5588 73.1518L53.9831 70.7275L69.377 73.3942L68.9528 75.8185C68.771 76.4245 68.2256 76.8488 67.6195 76.7276Z" fill="url(#paint0_linear_352_237)"></path>
<path d="M49.3777 47.3945L38.8323 57.8189C37.5596 59.0916 36.8929 60.7886 37.0141 62.6068L38.1656 79.5159C38.2262 80.0613 38.8323 80.3644 39.2565 80.0613L54.105 70.6068L49.3777 47.3945Z" fill="url(#paint1_linear_352_237)"></path>
<path d="M81.256 52.7891L87.8014 66.0618C88.5893 67.6376 88.65 69.5164 87.9227 71.1528L81.3166 86.7286C81.0742 87.2134 80.4075 87.3347 80.1045 86.9104L69.1348 73.1528L81.256 52.7891Z" fill="url(#paint2_linear_352_237)"></path>
<path d="M73.3159 4C56.7704 13.394 42.4673 49.5153 51.1946 69.273C51.437 69.879 51.9825 70.3032 52.528 70.4244L70.6493 73.576C71.2553 73.6972 71.8614 73.4548 72.2856 72.97C87.1948 57.2729 85.7402 18.4243 73.3159 4Z" fill="url(#paint3_linear_352_237)"></path>
<path d="M73.3173 4C67.3173 7.39395 61.6809 14.3031 57.2566 22.6668C52.6506 21.6365 82.2265 26.9698 82.2265 26.9698C80.8325 17.6364 77.8022 9.21214 73.3173 4Z" fill="url(#paint4_linear_352_237)"></path>
<path d="M73.0144 46.1817C69.6205 49.4544 64.2872 49.3333 61.0144 45.9393C57.7417 42.5454 57.8629 37.212 61.2569 33.9392C64.6508 30.6665 69.9841 30.7877 73.2569 34.1817C76.469 37.5756 76.3478 42.9695 73.0144 46.1817Z" fill="url(#paint5_linear_352_237)"></path>
<path d="M73.9838 40.2418C73.9232 44.06 70.7717 47.0903 67.0141 46.9691C63.1959 46.9085 60.1655 43.7569 60.2867 39.9993C60.3473 36.1812 63.4988 33.1509 67.2564 33.2721C71.014 33.2721 74.0444 36.4236 73.9838 40.2418Z" fill="#F15A29"></path>
<path d="M73.984 40.2415C73.984 38.6657 73.4991 37.1506 72.59 35.9385C72.59 36.1203 72.5295 36.3021 72.5295 36.4839C72.4688 37.3324 72.5295 38.2415 72.1658 38.9688C71.8022 39.6961 71.1355 40.1809 70.3476 40.3627C69.2567 40.5445 68.0445 39.9991 66.9536 40.3021C65.6203 40.6657 64.8324 42.1203 63.4991 42.5445C62.893 42.7263 62.2264 42.6657 61.5597 42.4233C61.1355 42.3021 60.7112 42.0597 60.4082 41.7567C61.1355 44.7264 63.7415 46.9082 66.9536 46.9688C70.7718 47.0294 73.9234 43.9991 73.984 40.2415Z" fill="#F15A29"></path>
<g opacity="0.4">
<path d="M68.2266 34.4844C68.1054 34.4844 67.9236 34.4238 67.8024 34.4238C67.6205 34.4238 67.4993 34.4844 67.3781 34.545C67.2569 34.6662 67.1963 34.7874 67.1963 34.9086C67.1963 35.2117 67.3781 35.4541 67.6812 35.5147H67.7418C67.863 35.5147 67.9842 35.5147 68.1054 35.5753C68.2872 35.5753 68.4085 35.5753 68.5297 35.4541C68.6509 35.3935 68.7114 35.2117 68.772 35.0905C68.772 34.8481 68.5903 34.545 68.2266 34.4844Z" fill="white"></path>
<path d="M66.2869 34.5457C66.1656 34.4851 65.9839 34.4245 65.8626 34.4851C64.3475 34.8487 62.9536 35.8184 62.1657 37.1518C61.9839 37.3942 62.105 37.7578 62.3475 37.9396C62.4081 38.0002 62.4687 38.0002 62.5293 38.0002C62.7717 38.0608 63.0142 37.9396 63.1354 37.7578C63.802 36.6669 64.8324 35.879 66.1051 35.6366C66.2263 35.576 66.4081 35.5154 66.4687 35.3942C66.5293 35.2729 66.5899 35.0911 66.5293 34.9699C66.5293 34.7881 66.4081 34.6669 66.2869 34.5457Z" fill="white"></path>
</g>
<path d="M51.9231 66.2434C52.1049 67.6373 52.3473 69.0919 52.6504 70.4858L60.5898 71.8191C60.4685 71.5767 60.4079 71.3343 60.2867 71.0919C60.0443 70.4252 59.8019 69.8191 59.6201 69.1524C59.1958 67.8191 58.8322 66.4858 58.4685 65.0918C57.8019 62.3645 57.3777 59.516 57.0746 56.6675C56.5292 50.9706 56.7716 45.1524 57.7413 39.3948C58.2261 36.5463 58.8928 33.6978 59.8019 30.9099L60.105 29.8796L60.4686 28.8493L61.1958 26.7886L62.0443 24.7281L62.4686 23.6977L62.9534 22.6674C65.3777 17.2735 68.408 12.1219 71.9232 7.27344C67.9232 11.6977 64.3474 16.6068 61.3171 21.8189L60.711 22.7886L60.1655 23.819L59.0746 25.8189L58.1049 27.8796L57.6201 28.9098L57.1958 29.9402C55.9837 32.7281 54.9534 35.6371 54.1049 38.6068C52.4079 44.4857 51.4988 50.6675 51.4382 56.91C51.317 60.0009 51.4989 63.0918 51.9231 66.2434Z" fill="white"></path>
<path d="M58.9532 87.5154C57.6199 87.273 56.7713 86.0609 56.9532 84.7276L59.4381 68.485C59.7411 66.485 60.226 64.4851 60.9532 62.6063L63.8623 54.8486L65.2563 55.0911L65.3774 63.3941C65.4381 65.4547 65.2562 67.4547 64.832 69.4547L61.7411 85.6366C61.4986 86.9094 60.2865 87.7578 58.9532 87.5154Z" fill="url(#paint6_linear_352_237)"></path>
<defs>
<linearGradient id="SvgjsLinearGradient1006" x1="60.9902" y1="75.4968" x2="61.5985" y2="71.8665" gradientUnits="userSpaceOnUse">
<stop stop-color="white"></stop>
<stop offset="0.129" stop-color="#EFF6FF"></stop>
<stop offset="0.5153" stop-color="#C6DFFF"></stop>
<stop offset="0.8188" stop-color="#ACD0FF"></stop>
<stop offset="1" stop-color="#A2CBFF"></stop>
</linearGradient>
<linearGradient id="SvgjsLinearGradient1005" x1="107.01" y1="35.7707" x2="39.5745" y2="65.9119" gradientUnits="userSpaceOnUse">
<stop offset="0.00765814" stop-color="#EF4136"></stop>
<stop offset="0.4196" stop-color="#EF4337"></stop>
<stop offset="0.568" stop-color="#F04A38"></stop>
<stop offset="0.6737" stop-color="#F1553C"></stop>
<stop offset="0.7593" stop-color="#F36641"></stop>
<stop offset="0.8326" stop-color="#F57C47"></stop>
<stop offset="0.8974" stop-color="#F7984F"></stop>
<stop offset="0.9547" stop-color="#FAB758"></stop>
<stop offset="1" stop-color="#FDD661"></stop>
</linearGradient>
<linearGradient id="SvgjsLinearGradient1004" x1="30.6932" y1="22.9783" x2="84.6272" y2="73.4483" gradientUnits="userSpaceOnUse">
<stop offset="0.00765814" stop-color="#EF4136"></stop>
<stop offset="0.4196" stop-color="#EF4337"></stop>
<stop offset="0.568" stop-color="#F04A38"></stop>
<stop offset="0.6737" stop-color="#F1553C"></stop>
<stop offset="0.7593" stop-color="#F36641"></stop>
<stop offset="0.8326" stop-color="#F57C47"></stop>
<stop offset="0.8974" stop-color="#F7984F"></stop>
<stop offset="0.9547" stop-color="#FAB758"></stop>
<stop offset="1" stop-color="#FDD661"></stop>
</linearGradient>
<linearGradient id="SvgjsLinearGradient1003" x1="50.5252" y1="20.1747" x2="82.8928" y2="65.5666" gradientUnits="userSpaceOnUse">
<stop stop-color="white"></stop>
<stop offset="0.2088" stop-color="#FBFDFF"></stop>
<stop offset="0.416" stop-color="#EFF6FF"></stop>
<stop offset="0.6226" stop-color="#DBEBFF"></stop>
<stop offset="0.8275" stop-color="#BFDBFF"></stop>
<stop offset="1" stop-color="#A2CBFF"></stop>
</linearGradient>
<linearGradient id="SvgjsLinearGradient1002" x1="75.035" y1="-5.25259" x2="69.5115" y2="24.8317" gradientUnits="userSpaceOnUse">
<stop stop-color="#FDD661"></stop>
<stop offset="0.6574" stop-color="#F47144"></stop>
<stop offset="1" stop-color="#EF4136"></stop>
</linearGradient>
<linearGradient id="SvgjsLinearGradient1001" x1="62.2518" y1="32.9195" x2="72.0406" y2="46.7985" gradientUnits="userSpaceOnUse">
<stop stop-color="#FCC715"></stop>
<stop offset="0.0833177" stop-color="#FCC019"></stop>
<stop offset="0.4305" stop-color="#FDA729"></stop>
<stop offset="0.7462" stop-color="#FD9732"></stop>
<stop offset="1" stop-color="#FD9235"></stop>
</linearGradient>
<linearGradient id="SvgjsLinearGradient1000" x1="54.7989" y1="61.4053" x2="69.0034" y2="81.3254" gradientUnits="userSpaceOnUse">
<stop stop-color="#FDD661"></stop>
<stop offset="0.5015" stop-color="#FCA22E"></stop>
<stop offset="1" stop-color="#FC7200"></stop>
</linearGradient>
</defs>
</svg><style>@media (prefers-color-scheme: light) { :root { filter: none; } }
</style></svg>