<svg width="24" height="24" viewBox="0 0 24 24" fill="none" xmlns="http://www.w3.org/2000/svg">
<path d="M22.0379 17.7271L13.8385 3.48934C13.6502 3.16913 13.3815 2.90366 13.059 2.71922C12.7366 2.53477 12.3715 2.43774 12.0001 2.43774C11.6286 2.43774 11.2635 2.53477 10.9411 2.71922C10.6186 2.90366 10.3499 3.16913 10.1616 3.48934L1.96224 17.7271C1.78176 18.0361 1.68665 18.3875 1.68665 18.7453C1.68665 19.1031 1.78176 19.4544 1.96224 19.7634C2.14804 20.0859 2.41638 20.353 2.73965 20.5374C3.06293 20.7218 3.42948 20.8167 3.80161 20.8125H20.1985C20.5703 20.8164 20.9365 20.7213 21.2594 20.5369C21.5823 20.3525 21.8503 20.0856 22.036 19.7634C22.2168 19.4546 22.3122 19.1033 22.3125 18.7455C22.3128 18.3877 22.2181 18.0363 22.0379 17.7271ZM21.0619 19.2C20.9743 19.3506 20.8481 19.4752 20.6964 19.5609C20.5446 19.6466 20.3727 19.6903 20.1985 19.6875H3.80161C3.62735 19.6903 3.4555 19.6466 3.30374 19.5609C3.15198 19.4752 3.02579 19.3506 2.93817 19.2C2.85622 19.0621 2.81296 18.9047 2.81296 18.7443C2.81296 18.584 2.85622 18.4266 2.93817 18.2887L11.1366 4.0509C11.2262 3.90201 11.3528 3.77883 11.5041 3.69331C11.6554 3.6078 11.8263 3.56286 12.0001 3.56286C12.1738 3.56286 12.3447 3.6078 12.496 3.69331C12.6473 3.77883 12.7739 3.90201 12.8635 4.0509L21.0629 18.2887C21.1447 18.4266 21.1878 18.5841 21.1876 18.7445C21.1874 18.9048 21.144 19.0622 21.0619 19.2ZM11.4376 13.5V9.74996C11.4376 9.60078 11.4968 9.4577 11.6023 9.35221C11.7078 9.24673 11.8509 9.18746 12.0001 9.18746C12.1492 9.18746 12.2923 9.24673 12.3978 9.35221C12.5033 9.4577 12.5626 9.60078 12.5626 9.74996V13.5C12.5626 13.6491 12.5033 13.7922 12.3978 13.8977C12.2923 14.0032 12.1492 14.0625 12.0001 14.0625C11.8509 14.0625 11.7078 14.0032 11.6023 13.8977C11.4968 13.7922 11.4376 13.6491 11.4376 13.5ZM12.9376 16.875C12.9376 17.0604 12.8826 17.2416 12.7796 17.3958C12.6765 17.55 12.5301 17.6701 12.3588 17.7411C12.1875 17.8121 11.999 17.8306 11.8172 17.7944C11.6353 17.7583 11.4682 17.669 11.3371 17.5379C11.206 17.4068 11.1167 17.2397 11.0806 17.0579C11.0444 16.876 11.063 16.6875 11.1339 16.5162C11.2049 16.3449 11.325 16.1985 11.4792 16.0955C11.6334 15.9924 11.8146 15.9375 12.0001 15.9375C12.2487 15.9375 12.4871 16.0362 12.663 16.212C12.8388 16.3879 12.9376 16.6263 12.9376 16.875Z" fill="black"/>
</svg>
