<svg width="24" height="24" viewBox="0 0 24 24" fill="none" xmlns="http://www.w3.org/2000/svg">
<path opacity="0.5" d="M12 8V12L14.5 14.5" stroke="#1C274C" stroke-width="1.5" stroke-linecap="round" stroke-linejoin="round"/>
<path d="M5.60423 5.60423L5.0739 5.0739V5.0739L5.60423 5.60423ZM4.33785 6.87061L3.58786 6.87438C3.58993 7.28564 3.92282 7.61853 4.33408 7.6206L4.33785 6.87061ZM6.87964 7.63339C7.29384 7.63547 7.63131 7.30138 7.63339 6.88717C7.63548 6.47296 7.30138 6.13549 6.88717 6.13341L6.87964 7.63339ZM5.07505 4.32129C5.07297 3.90708 4.7355 3.57298 4.32129 3.57506C3.90708 3.57715 3.57299 3.91462 3.57507 4.32882L5.07505 4.32129ZM3.8267 10.785C3.88295 10.3746 3.59587 9.99635 3.1855 9.9401C2.77512 9.88385 2.39684 10.1709 2.34059 10.5813L3.8267 10.785ZM18.8623 5.13786C15.0421 1.31766 8.86882 1.27898 5.0739 5.0739L6.13456 6.13456C9.33367 2.93545 14.5572 2.95404 17.8017 6.19852L18.8623 5.13786ZM5.13786 18.8623C8.95805 22.6825 15.1314 22.7212 18.9263 18.9263L17.8656 17.8656C14.6665 21.0647 9.443 21.0461 6.19852 17.8017L5.13786 18.8623ZM18.9263 18.9263C22.7212 15.1314 22.6825 8.95805 18.8623 5.13786L17.8017 6.19852C21.0461 9.443 21.0647 14.6665 17.8656 17.8656L18.9263 18.9263ZM5.0739 5.0739L3.80752 6.34028L4.86818 7.40094L6.13456 6.13456L5.0739 5.0739ZM4.33408 7.6206L6.87964 7.63339L6.88717 6.13341L4.34162 6.12062L4.33408 7.6206ZM5.08784 6.86684L5.07505 4.32129L3.57507 4.32882L3.58786 6.87438L5.08784 6.86684ZM2.34059 10.5813C1.93916 13.51 2.87401 16.5985 5.13786 18.8623L6.19852 17.8017C4.27795 15.8811 3.48673 13.2653 3.8267 10.785L2.34059 10.5813Z" fill="#1C274C"/>
</svg>
