<svg width="501" height="158" viewBox="0 0 501 158" fill="none" xmlns="http://www.w3.org/2000/svg">
<g clip-path="url(#clip0_353_263)">
<g filter="url(#filter0_d_353_263)">
<path d="M30.5584 84.7182H49.5093C51.385 84.7182 53.3254 82.9719 54.0369 80.9021C55.2011 74.2402 56.6888 67.5782 58.1764 60.8516C58.5644 58.9759 58.9525 57.1002 59.3406 55.2245C59.7287 53.1548 58.1764 51.4084 56.3007 51.4084C40.3896 51.4084 24.8019 51.4084 9.27894 51.4084L11.9308 40.0896H73.376C80.232 40.0896 84.3067 45.3933 82.8838 51.9259C80.5554 62.6626 78.4856 73.5287 76.0278 84.2008C75.0576 88.4696 71.8237 92.221 68.0723 94.2907L71.8884 118.028H47.6337L44.2057 96.0371C38.902 96.0371 33.2102 96.0371 27.9065 96.0371L23.379 118.028H1L13.1597 60.2695L37.0263 54.2543L30.5584 84.7182Z" fill="#EF4444"/>
<path d="M125.895 54.1899C122.467 70.4243 118.651 86.5941 115.288 102.829C114.835 104.963 116.452 106.709 118.328 106.709C124.02 106.709 129.711 106.709 135.403 106.709C137.667 106.709 139.866 104.963 140.319 102.829C143.682 86.9175 147.175 71.0711 150.538 55.1601C150.991 53.0903 149.374 51.344 147.11 51.344C130.811 51.344 114.512 51.344 98.2126 51.344L100.864 40.0251H164.573C171.041 40.0251 175.051 45.3288 173.693 51.8614C169.812 69.9716 165.867 88.0171 161.922 106.192C160.499 112.66 154.354 118.028 147.886 118.028C132.363 118.028 116.776 118.028 101.641 118.028C94.7846 118.028 90.8392 112.66 92.1328 106.192C95.3668 90.7983 98.9888 75.534 101.964 60.205L125.895 54.1899Z" fill="#EF4444"/>
<path d="M217.934 84.7184H211.077L203.898 118.028H181.519L193.679 60.2697L217.545 54.1899L213.406 73.3996H220.262L243.74 40.0251H265.731L238.437 79.0267L249.432 117.446H227.441L217.934 84.7184ZM217.934 51.344L220.585 40.0251L192.127 40.0898L189.863 51.4087H217.934V51.344Z" fill="#EF4444"/>
<path d="M308.679 84.7184H301.887L294.708 118.028H272.329L284.489 60.2697L308.355 54.1899L304.216 73.3996H310.942L334.421 40.0251H356.412L329.117 79.0267L340.113 117.446H318.122L308.679 84.7184ZM308.679 51.344L311.33 40.0251L282.872 40.0898L280.608 51.4087H308.679V51.344Z" fill="#EF4444"/>
<path d="M418.31 51.344L420.962 40.0251H500.582L497.93 51.344H418.31ZM455.5 118.028H433.121L445.281 60.2697L469.148 54.2546L455.5 118.028Z" fill="#EF4444"/>
<path opacity="0.66" d="M381.959 103.799C376.332 102.829 370.964 106.645 370.058 112.272C367.601 126.954 376.203 138.208 372.904 158C376.203 138.208 388.039 130.318 390.497 115.635C391.403 110.073 387.586 104.769 381.959 103.799Z" fill="#FD9235"/>
<path d="M381.96 103.799C378.208 103.152 374.586 105.74 374.004 109.491C372.387 119.322 378.144 126.825 375.88 140.149C378.079 126.89 386.034 121.586 387.651 111.819C388.298 108.003 385.776 104.446 381.96 103.799Z" fill="white"/>
<path d="M388.428 107.615L374.392 105.222C373.745 105.092 373.293 104.51 373.422 103.799L373.875 101.211L390.303 104.057L389.851 106.645C389.657 107.291 389.074 107.744 388.428 107.615Z" fill="url(#paint0_linear_353_263)"/>
<path d="M368.959 76.3104L357.705 87.4352C356.347 88.7935 355.635 90.6045 355.764 92.5449L356.993 110.59C357.058 111.172 357.705 111.496 358.158 111.172L374.004 101.083L368.959 76.3104Z" fill="url(#paint1_linear_353_263)"/>
<path d="M402.98 82.0021L409.966 96.1668C410.806 97.8485 410.871 99.8535 410.095 101.6L403.045 118.222C402.786 118.74 402.075 118.869 401.751 118.416L390.044 103.734L402.98 82.0021Z" fill="url(#paint2_linear_353_263)"/>
<path d="M394.507 30C376.85 40.0253 361.585 78.574 370.899 99.6594C371.158 100.306 371.74 100.759 372.322 100.888L391.661 104.252C392.308 104.381 392.955 104.122 393.408 103.605C409.319 86.853 407.766 45.3936 394.507 30Z" fill="url(#paint3_linear_353_263)"/>
<path d="M394.507 30C388.104 33.622 382.089 40.9954 377.367 49.9212C372.452 48.8216 404.015 54.5134 404.015 54.5134C402.527 44.4881 399.293 35.5624 394.507 30Z" fill="url(#paint4_linear_353_263)"/>
<path d="M394.184 75.0161C390.562 78.5087 384.871 78.3794 381.378 74.7573C377.885 71.1353 378.015 65.4435 381.637 61.9509C385.259 58.4582 390.95 58.5875 394.443 62.2096C397.871 65.7669 397.742 71.5234 394.184 75.0161Z" fill="url(#paint5_linear_353_263)"/>
<path d="M395.219 68.6127C395.154 72.6875 391.791 75.9214 387.781 75.7921C383.706 75.7274 380.472 72.3641 380.601 68.354C380.666 64.2792 384.029 61.0452 388.039 61.1746C392.049 61.2393 395.284 64.5379 395.219 68.6127Z" fill="#F15A29"/>
<path d="M395.219 68.613C395.219 66.9313 394.702 65.3143 393.731 64.0208C393.731 64.2148 393.667 64.4088 393.667 64.6029C393.602 65.5084 393.667 66.4786 393.279 67.2547C392.891 68.0309 392.179 68.5483 391.338 68.7423C390.174 68.9364 388.88 68.3542 387.716 68.6776C386.293 69.0657 385.452 70.618 384.029 71.0708C383.383 71.2648 382.671 71.2001 381.96 70.9414C381.507 70.812 381.054 70.5533 380.731 70.2299C381.507 73.3992 384.288 75.7277 387.716 75.7923C391.791 75.9217 395.154 72.6877 395.219 68.613Z" fill="#F15A29"/>
<g opacity="0.4">
<path d="M389.074 62.469C388.945 62.469 388.751 62.4043 388.621 62.4043C388.427 62.4043 388.298 62.469 388.168 62.5336C388.039 62.663 387.974 62.7924 387.974 62.9217C387.974 63.2451 388.168 63.5038 388.492 63.5685H388.556C388.686 63.5685 388.815 63.5685 388.945 63.6332C389.139 63.6332 389.268 63.6332 389.397 63.5038C389.527 63.4392 389.591 63.2451 389.656 63.1158C389.656 62.857 389.462 62.5336 389.074 62.469Z" fill="white"/>
<path d="M387.004 62.5981C386.875 62.5334 386.681 62.4687 386.552 62.5334C384.935 62.9215 383.447 63.9563 382.606 65.3793C382.412 65.638 382.541 66.0261 382.8 66.2201C382.865 66.2848 382.93 66.2848 382.994 66.2848C383.253 66.3495 383.512 66.2201 383.641 66.0261C384.352 64.8618 385.452 64.021 386.81 63.7623C386.94 63.6976 387.134 63.6329 387.198 63.5036C387.263 63.3742 387.328 63.1802 387.263 63.0508C387.263 62.7921 387.134 62.6627 387.004 62.5981Z" fill="white"/>
</g>
<path d="M371.676 96.3607C371.87 97.8483 372.129 99.4006 372.452 100.888L380.925 102.311C380.796 102.052 380.731 101.794 380.601 101.535C380.343 100.824 380.084 100.177 379.89 99.4653C379.437 98.0423 379.049 96.6194 378.661 95.1317C377.95 92.2212 377.497 89.1813 377.174 86.1413C376.591 80.0615 376.85 73.8523 377.885 67.7078C378.402 64.6679 379.114 61.628 380.084 58.6527L380.408 57.5532L380.796 56.4536L381.572 54.2545L382.477 52.0555L382.93 50.9559L383.447 49.8564C386.035 44.0999 389.269 38.6022 393.02 33.4279C388.751 38.1494 384.935 43.3884 381.701 48.9508L381.054 49.9857L380.472 51.0853L379.308 53.2197L378.273 55.4188L377.756 56.5183L377.303 57.6178C376.009 60.5931 374.91 63.6977 374.004 66.867C372.193 73.1409 371.223 79.7381 371.158 86.4001C371.029 89.6987 371.223 93.062 371.676 96.3607Z" fill="white"/>
<path d="M379.178 119.128C377.755 118.869 376.85 117.576 377.044 116.153L379.696 98.8189C380.019 96.6844 380.537 94.55 381.313 92.545L384.417 84.2661L385.905 84.5248L386.034 93.3858C386.099 95.5849 385.905 97.7193 385.452 99.8537L382.154 117.123C381.895 118.417 380.601 119.322 379.178 119.128Z" fill="url(#paint6_linear_353_263)"/>
</g>
</g>
<defs>
<filter id="filter0_d_353_263" x="-3" y="30" width="507.582" height="136" filterUnits="userSpaceOnUse" color-interpolation-filters="sRGB">
<feFlood flood-opacity="0" result="BackgroundImageFix"/>
<feColorMatrix in="SourceAlpha" type="matrix" values="0 0 0 0 0 0 0 0 0 0 0 0 0 0 0 0 0 0 127 0" result="hardAlpha"/>
<feOffset dy="4"/>
<feGaussianBlur stdDeviation="2"/>
<feComposite in2="hardAlpha" operator="out"/>
<feColorMatrix type="matrix" values="0 0 0 0 0 0 0 0 0 0 0 0 0 0 0 0 0 0 0.25 0"/>
<feBlend mode="normal" in2="BackgroundImageFix" result="effect1_dropShadow_353_263"/>
<feBlend mode="normal" in="SourceGraphic" in2="effect1_dropShadow_353_263" result="shape"/>
</filter>
<linearGradient id="paint0_linear_353_263" x1="381.374" y1="106.263" x2="382.024" y2="102.389" gradientUnits="userSpaceOnUse">
<stop stop-color="white"/>
<stop offset="0.129" stop-color="#EFF6FF"/>
<stop offset="0.5153" stop-color="#C6DFFF"/>
<stop offset="0.8188" stop-color="#ACD0FF"/>
<stop offset="1" stop-color="#A2CBFF"/>
</linearGradient>
<linearGradient id="paint1_linear_353_263" x1="430.46" y1="63.8518" x2="358.492" y2="96.0187" gradientUnits="userSpaceOnUse">
<stop offset="0.00765814" stop-color="#EF4136"/>
<stop offset="0.4196" stop-color="#EF4337"/>
<stop offset="0.568" stop-color="#F04A38"/>
<stop offset="0.6737" stop-color="#F1553C"/>
<stop offset="0.7593" stop-color="#F36641"/>
<stop offset="0.8326" stop-color="#F57C47"/>
<stop offset="0.8974" stop-color="#F7984F"/>
<stop offset="0.9547" stop-color="#FAB758"/>
<stop offset="1" stop-color="#FDD661"/>
</linearGradient>
<linearGradient id="paint2_linear_353_263" x1="349.014" y1="50.1991" x2="406.573" y2="104.061" gradientUnits="userSpaceOnUse">
<stop offset="0.00765814" stop-color="#EF4136"/>
<stop offset="0.4196" stop-color="#EF4337"/>
<stop offset="0.568" stop-color="#F04A38"/>
<stop offset="0.6737" stop-color="#F1553C"/>
<stop offset="0.7593" stop-color="#F36641"/>
<stop offset="0.8326" stop-color="#F57C47"/>
<stop offset="0.8974" stop-color="#F7984F"/>
<stop offset="0.9547" stop-color="#FAB758"/>
<stop offset="1" stop-color="#FDD661"/>
</linearGradient>
<linearGradient id="paint3_linear_353_263" x1="370.18" y1="47.208" x2="404.723" y2="95.6504" gradientUnits="userSpaceOnUse">
<stop stop-color="white"/>
<stop offset="0.2088" stop-color="#FBFDFF"/>
<stop offset="0.416" stop-color="#EFF6FF"/>
<stop offset="0.6226" stop-color="#DBEBFF"/>
<stop offset="0.8275" stop-color="#BFDBFF"/>
<stop offset="1" stop-color="#A2CBFF"/>
</linearGradient>
<linearGradient id="paint4_linear_353_263" x1="396.335" y1="20.072" x2="390.44" y2="52.178" gradientUnits="userSpaceOnUse">
<stop stop-color="#FDD661"/>
<stop offset="0.6574" stop-color="#F47144"/>
<stop offset="1" stop-color="#EF4136"/>
</linearGradient>
<linearGradient id="paint5_linear_353_263" x1="382.716" y1="60.8436" x2="393.163" y2="75.6554" gradientUnits="userSpaceOnUse">
<stop stop-color="#FCC715"/>
<stop offset="0.0833177" stop-color="#FCC019"/>
<stop offset="0.4305" stop-color="#FDA729"/>
<stop offset="0.7462" stop-color="#FD9732"/>
<stop offset="1" stop-color="#FD9235"/>
</linearGradient>
<linearGradient id="paint6_linear_353_263" x1="374.739" y1="91.2489" x2="389.898" y2="112.508" gradientUnits="userSpaceOnUse">
<stop stop-color="#FDD661"/>
<stop offset="0.5015" stop-color="#FCA22E"/>
<stop offset="1" stop-color="#FC7200"/>
</linearGradient>
<clipPath id="clip0_353_263">
<rect width="501" height="158" fill="white"/>
</clipPath>
</defs>
</svg>
