<svg width="128" height="128" viewBox="0 0 128 128" fill="none" xmlns="http://www.w3.org/2000/svg">
<path d="M104.254 22.8189C93.8535 7.93378 73.3135 3.52179 58.4621 12.9841L32.3794 29.6078C28.8559 31.8245 25.8337 34.752 23.5059 38.2032C21.1781 41.6543 19.5961 45.5532 18.8608 49.6506C17.6166 56.5524 18.7102 63.6721 21.9684 69.8824C19.7358 73.2691 18.2131 77.0734 17.4922 81.0653C16.7492 85.2452 16.8483 89.5314 17.7837 93.6725C18.7191 97.8136 20.4719 101.726 22.9395 105.181C33.3417 120.067 53.8818 124.478 68.7309 115.016L94.8136 98.3921C98.3374 96.1756 101.36 93.2482 103.688 89.797C106.015 86.3458 107.597 82.4468 108.332 78.3493C109.576 71.4475 108.484 64.328 105.227 58.117C107.459 54.7303 108.981 50.9262 109.701 46.9346C110.445 42.7547 110.346 38.4684 109.41 34.3272C108.475 30.186 106.722 26.2734 104.254 22.8189" fill="url(#paint0_linear_301_30)"/>
<path d="M56.8097 106.83C52.7051 107.897 48.3719 107.679 44.3952 106.205C40.4185 104.731 36.9899 102.072 34.5726 98.5871C33.0884 96.5096 32.0341 94.1567 31.4714 91.6663C30.9087 89.176 30.8491 86.5983 31.296 84.0846C31.4474 83.2593 31.6556 82.4454 31.9193 81.6489L32.4105 80.1511L33.7468 81.1326C36.8329 83.4001 40.2835 85.1242 43.9498 86.2304L44.9192 86.5245L44.8299 87.492C44.7115 88.8684 45.0842 90.2422 45.8819 91.3701C46.6094 92.4197 47.6415 93.2209 48.8388 93.6653C50.0361 94.1097 51.341 94.1759 52.5771 93.8551C53.144 93.7036 53.6843 93.4661 54.1792 93.151L80.2626 76.5292C80.9008 76.1273 81.4484 75.5969 81.8703 74.9717C82.2922 74.3466 82.5793 73.6404 82.7132 72.8982C82.8471 72.1405 82.8287 71.3637 82.6591 70.6132C82.4896 69.8628 82.1723 69.1535 81.7257 68.527C80.9978 67.4771 79.9653 66.6757 78.7676 66.2311C77.5699 65.7865 76.2646 65.72 75.0279 66.0406C74.4618 66.1921 73.9222 66.4294 73.4279 66.7442L63.4747 73.0891C61.8381 74.1297 60.0519 74.9141 58.1782 75.415C54.0737 76.4822 49.7404 76.264 45.7638 74.79C41.7872 73.3159 38.3587 70.657 35.9414 67.1723C34.4572 65.0949 33.4028 62.742 32.8401 60.2516C32.2774 57.7612 32.2179 55.1836 32.6648 52.6699C33.1069 50.206 34.0583 47.8615 35.4582 45.7864C36.8581 43.7112 38.6758 41.9511 40.7948 40.6186L66.8759 23.9954C68.5133 22.953 70.3007 22.1677 72.1759 21.6667C76.2805 20.5995 80.6137 20.8176 84.5903 22.2917C88.5669 23.7657 91.9953 26.4246 94.4126 29.9093C95.8968 31.9867 96.9512 34.3396 97.5139 36.83C98.0765 39.3204 98.1361 41.898 97.6892 44.4118C97.5372 45.2369 97.329 46.0507 97.0659 46.8475L96.5747 48.3453L95.2391 47.3653C92.1533 45.0964 88.7024 43.3716 85.0354 42.2653L84.066 41.9711L84.1553 41.0036C84.2728 39.6273 83.9002 38.2538 83.1033 37.1256C82.3759 36.0759 81.3438 35.2748 80.1465 34.8304C78.9491 34.386 77.6443 34.3197 76.4081 34.6406C75.8413 34.7921 75.301 35.0295 74.806 35.3447L48.7226 51.9672C48.0845 52.3687 47.5372 52.8989 47.1155 53.524C46.6939 54.149 46.4073 54.8551 46.2739 55.5972C46.1393 56.3548 46.1571 57.1317 46.3263 57.8823C46.4955 58.633 46.8128 59.3423 47.2595 59.9689C47.9875 61.0188 49.0199 61.8201 50.2177 62.2647C51.4154 62.7093 52.7206 62.7758 53.9573 62.4553C54.524 62.3034 55.0643 62.066 55.5593 61.7512L65.5112 55.4087C67.1472 54.3667 68.9332 53.5816 70.8071 53.0809C74.9117 52.0137 79.2449 52.2318 83.2215 53.7059C87.1982 55.1799 90.6267 57.8389 93.0439 61.3236C94.5282 63.4009 95.5826 65.7539 96.1453 68.2442C96.7079 70.7346 96.7675 73.3123 96.3205 75.826C95.8782 78.29 94.9267 80.6346 93.5268 82.71C92.1269 84.7855 90.3094 86.546 88.1905 87.8792L62.1093 104.501C60.472 105.543 58.6846 106.329 56.8093 106.83" fill="white"/>
<defs>
<linearGradient id="paint0_linear_301_30" x1="42.6667" y1="40" x2="77.3333" y2="90.6667" gradientUnits="userSpaceOnUse">
<stop stop-color="#ED9209"/>
<stop offset="1" stop-color="#00A4EF"/>
</linearGradient>
</defs>
</svg>
