<svg width="24" height="24" viewBox="0 0 24 24" fill="none" xmlns="http://www.w3.org/2000/svg">
<g clip-path="url(#clip0_2122_2651)">
<path opacity="0.1" fill-rule="evenodd" clip-rule="evenodd" d="M1.4064 22.242C2.8116 24 5.0748 24 9.6 24H14.4C18.9252 24 21.1884 24 22.5936 22.242C23.9988 20.484 24 17.6565 24 12C24 6.3435 24 3.5145 22.5936 1.758C21.1872 0.00149989 18.9252 0 14.4 0H9.6C5.0748 0 2.8116 -1.78814e-07 1.4064 1.758C0.00119991 3.516 0 6.3435 0 12C0 17.6565 -1.43051e-07 20.4855 1.4064 22.242Z" fill="black"/>
<path opacity="0.5" d="M10.0009 20H14.0009C17.7719 20 19.6579 20 20.8289 18.828C21.9999 17.656 22.0009 15.771 22.0009 12C22.0009 11.558 21.9989 10.392 21.9969 10H2.00089C1.99889 10.392 2.00089 11.558 2.00089 12C2.00089 15.771 2.00089 17.657 3.17189 18.828C4.34289 19.999 6.23089 20 10.0009 20Z" fill="black"/>
<path d="M5.25085 13.5C5.25085 13.3011 5.32987 13.1103 5.47052 12.9697C5.61118 12.829 5.80194 12.75 6.00085 12.75H8.00085C8.19977 12.75 8.39053 12.829 8.53118 12.9697C8.67184 13.1103 8.75085 13.3011 8.75085 13.5C8.75085 13.6989 8.67184 13.8897 8.53118 14.0303C8.39053 14.171 8.19977 14.25 8.00085 14.25H6.00085C5.80194 14.25 5.61118 14.171 5.47052 14.0303C5.32987 13.8897 5.25085 13.6989 5.25085 13.5ZM5.25085 16.5C5.25085 16.3011 5.32987 16.1103 5.47052 15.9697C5.61118 15.829 5.80194 15.75 6.00085 15.75H10.0009C10.1998 15.75 10.3905 15.829 10.5312 15.9697C10.6718 16.1103 10.7509 16.3011 10.7509 16.5C10.7509 16.6989 10.6718 16.8897 10.5312 17.0303C10.3905 17.171 10.1998 17.25 10.0009 17.25H6.00085C5.80194 17.25 5.61118 17.171 5.47052 17.0303C5.32987 16.8897 5.25085 16.6989 5.25085 16.5Z" fill="black"/>
<path fill-rule="evenodd" clip-rule="evenodd" d="M17.1979 12.293C16.8749 12.25 16.4779 12.25 16.0459 12.25H15.9559C15.5229 12.25 15.1259 12.25 14.8039 12.293C14.4479 12.341 14.0729 12.453 13.7639 12.763C13.4549 13.073 13.3419 13.447 13.2939 13.803C13.2509 14.126 13.2509 14.523 13.2509 14.955V15.045C13.2509 15.478 13.2509 15.875 13.2939 16.197C13.3419 16.553 13.4539 16.928 13.7639 17.237C14.0739 17.546 14.4479 17.659 14.8039 17.707C15.1269 17.75 15.5239 17.75 15.9559 17.75H16.0459C16.4789 17.75 16.8759 17.75 17.1979 17.707C17.5539 17.659 17.9289 17.547 18.2379 17.237C18.5469 16.927 18.6599 16.553 18.7079 16.197C18.7509 15.874 18.7509 15.477 18.7509 15.045V14.955C18.7509 14.522 18.7509 14.125 18.7079 13.803C18.6599 13.447 18.5479 13.072 18.2379 12.763C17.9279 12.454 17.5539 12.341 17.1979 12.293Z" fill="black"/>
<path d="M9.99585 4H14.0059C17.7869 4 19.6779 4 20.8519 5.116C21.6979 5.919 21.9349 7.076 22.0009 9V10H2.00085V9C2.06685 7.075 2.30385 5.92 3.14985 5.116C4.32385 4 6.21485 4 9.99585 4Z" fill="black"/>
</g>
<defs>
<clipPath id="clip0_2122_2651">
<rect width="24" height="24" fill="white"/>
</clipPath>
</defs>
</svg>
