<svg width="24" height="24" viewBox="0 0 24 24" fill="none" xmlns="http://www.w3.org/2000/svg">
<g clip-path="url(#clip0_2119_2011)">
<path opacity="0.1" fill-rule="evenodd" clip-rule="evenodd" d="M1.4064 22.242C2.8116 24 5.0748 24 9.6 24H14.4C18.9252 24 21.1884 24 22.5936 22.242C23.9988 20.484 24 17.6565 24 12C24 6.3435 24 3.5145 22.5936 1.758C21.1872 0.00149989 18.9252 0 14.4 0H9.6C5.0748 0 2.8116 -1.78814e-07 1.4064 1.758C0.00119991 3.516 0 6.3435 0 12C0 17.6565 -1.43051e-07 20.4855 1.4064 22.242Z" fill="black"/>
<path opacity="0.4" d="M12 20C8.2288 20 6.3432 20 5.1712 18.828C4 17.6576 4 15.7712 4 12C4 8.2288 4 6.3432 5.1712 5.1712C6.344 4 8.2288 4 12 4C15.7712 4 17.6568 4 18.828 5.1712C20 6.344 20 8.2288 20 12C20 15.7712 20 17.6568 18.828 18.828C17.6576 20 15.7712 20 12 20Z" fill="black"/>
<path d="M16.03 8.97C16.1705 9.11063 16.2494 9.30125 16.2494 9.5C16.2494 9.69875 16.1705 9.88937 16.03 10.03L11.03 15.03C10.8894 15.1705 10.6988 15.2493 10.5 15.2493C10.3013 15.2493 10.1107 15.1705 9.97003 15.03L7.97003 13.03C7.89634 12.9613 7.83724 12.8785 7.79625 12.7865C7.75526 12.6945 7.73322 12.5952 7.73144 12.4945C7.72966 12.3938 7.74819 12.2938 7.78591 12.2004C7.82363 12.107 7.87977 12.0222 7.95099 11.951C8.02221 11.8797 8.10705 11.8236 8.20043 11.7859C8.29382 11.7482 8.39385 11.7296 8.49455 11.7314C8.59526 11.7332 8.69457 11.7552 8.78657 11.7962C8.87857 11.8372 8.96137 11.8963 9.03003 11.97L10.5 13.44L14.97 8.97C15.1107 8.82955 15.3013 8.75066 15.5 8.75066C15.6988 8.75066 15.8894 8.82955 16.03 8.97Z" fill="black"/>
</g>
<defs>
<clipPath id="clip0_2119_2011">
<rect width="24" height="24" fill="white"/>
</clipPath>
</defs>
</svg>
