<svg width="24" height="24" viewBox="0 0 24 24" fill="none" xmlns="http://www.w3.org/2000/svg">
<line x1="10.5" y1="5.5" x2="21.5" y2="5.5" stroke="black" stroke-linecap="round"/>
<line x1="10.5" y1="8.5" x2="21.5" y2="8.5" stroke="black" stroke-linecap="round"/>
<line x1="10.5" y1="15.5" x2="21.5" y2="15.5" stroke="black" stroke-linecap="round"/>
<line x1="10.5" y1="18.5" x2="21.5" y2="18.5" stroke="black" stroke-linecap="round"/>
<path d="M2 5.08333C2 4.79602 2.11414 4.52047 2.3173 4.3173C2.52047 4.11414 2.79602 4 3.08333 4H6.91667C7.20398 4 7.47954 4.11414 7.6827 4.3173C7.88586 4.52047 8 4.79602 8 5.08333V8.91667C8 9.20398 7.88586 9.47954 7.6827 9.6827C7.47954 9.88586 7.20398 10 6.91667 10H3.08333C2.79602 10 2.52047 9.88586 2.3173 9.6827C2.11414 9.47954 2 9.20398 2 8.91667V5.08333ZM3.08333 4.5C2.92862 4.5 2.78025 4.56146 2.67085 4.67085C2.56146 4.78025 2.5 4.92862 2.5 5.08333V8.91667C2.5 9.23867 2.76133 9.5 3.08333 9.5H6.91667C7.07138 9.5 7.21975 9.43854 7.32915 9.32915C7.43854 9.21975 7.5 9.07138 7.5 8.91667V5.08333C7.5 4.92862 7.43854 4.78025 7.32915 4.67085C7.21975 4.56146 7.07138 4.5 6.91667 4.5H3.08333Z" fill="black"/>
<path d="M3.08333 14C2.79602 14 2.52047 14.1141 2.3173 14.3173C2.11414 14.5205 2 14.796 2 15.0833V18.9167C2 19.204 2.11414 19.4795 2.3173 19.6827C2.52047 19.8859 2.79602 20 3.08333 20H6.91667C7.20398 20 7.47954 19.8859 7.6827 19.6827C7.88586 19.4795 8 19.204 8 18.9167V15.0833C8 14.796 7.88586 14.5205 7.6827 14.3173C7.47954 14.1141 7.20398 14 6.91667 14H3.08333ZM2.5 15.0833C2.5 14.7613 2.76133 14.5 3.08333 14.5H6.91667C7.23867 14.5 7.5 14.7613 7.5 15.0833V18.9167C7.5 19.0714 7.43854 19.2197 7.32915 19.3291C7.21975 19.4385 7.07138 19.5 6.91667 19.5H3.08333C2.92862 19.5 2.78025 19.4385 2.67085 19.3291C2.56146 19.2197 2.5 19.0714 2.5 18.9167V15.0833ZM6.76 16.0933C6.78456 16.0704 6.80426 16.0428 6.81793 16.0122C6.83159 15.9815 6.83894 15.9484 6.83953 15.9148C6.84012 15.8813 6.83395 15.8479 6.82137 15.8168C6.8088 15.7857 6.79009 15.7574 6.76635 15.7337C6.74261 15.7099 6.71433 15.6912 6.6832 15.6786C6.65207 15.6661 6.61873 15.6599 6.58516 15.6605C6.55159 15.6611 6.51849 15.6684 6.48782 15.6821C6.45715 15.6957 6.42955 15.7154 6.40667 15.74L4.33233 17.812L3.59333 17.0733C3.54594 17.0292 3.48326 17.0051 3.41849 17.0063C3.35373 17.0074 3.29193 17.0337 3.24613 17.0795C3.20032 17.1253 3.17408 17.1871 3.17294 17.2518C3.1718 17.3166 3.19584 17.3793 3.24 17.4267L4.155 18.342C4.20188 18.3888 4.26542 18.4151 4.33167 18.4151C4.39792 18.4151 4.46146 18.3888 4.50833 18.342L6.75967 16.0937L6.76 16.0933Z" fill="black"/>
</svg>
