<svg width="24" height="24" viewBox="0 0 24 24" fill="none" xmlns="http://www.w3.org/2000/svg">
<g clip-path="url(#clip0_2119_2009)">
<path opacity="0.1" fill-rule="evenodd" clip-rule="evenodd" d="M1.4064 22.242C2.8116 24 5.0748 24 9.6 24H14.4C18.9252 24 21.1884 24 22.5936 22.242C23.9988 20.484 24 17.6565 24 12C24 6.3435 24 3.5145 22.5936 1.758C21.1872 0.00149989 18.9252 0 14.4 0H9.6C5.0748 0 2.8116 -1.78814e-07 1.4064 1.758C0.00119991 3.516 0 6.3435 0 12C0 17.6565 -1.43051e-07 20.4855 1.4064 22.242Z" fill="black"/>
<g filter="url(#filter0_dd_2119_2009)">
<path d="M4 6.5C4 6.23478 4.10536 5.98043 4.29289 5.79289C4.48043 5.60536 4.73478 5.5 5 5.5H19C19.2652 5.5 19.5196 5.60536 19.7071 5.79289C19.8946 5.98043 20 6.23478 20 6.5V9.5C20 9.76522 19.8946 10.0196 19.7071 10.2071C19.5196 10.3946 19.2652 10.5 19 10.5H5C4.73478 10.5 4.48043 10.3946 4.29289 10.2071C4.10536 10.0196 4 9.76522 4 9.5V6.5Z" fill="black" fill-opacity="0.4"/>
<path d="M5 5C4.60218 5 4.22064 5.15804 3.93934 5.43934C3.65804 5.72064 3.5 6.10218 3.5 6.5V9.5C3.5 9.89782 3.65804 10.2794 3.93934 10.5607C4.22064 10.842 4.60218 11 5 11H19C19.3978 11 19.7794 10.842 20.0607 10.5607C20.342 10.2794 20.5 9.89782 20.5 9.5V6.5C20.5 6.10218 20.342 5.72064 20.0607 5.43934C19.7794 5.15804 19.3978 5 19 5H5Z" stroke="black" stroke-opacity="0.04"/>
</g>
<path d="M6.5 8H10.5" stroke="black" stroke-linecap="round"/>
<path opacity="0.4" d="M16.5 8H17.5" stroke="black" stroke-linecap="round"/>
<g filter="url(#filter1_dd_2119_2009)">
<path d="M4 13.5C4 13.2348 4.10536 12.9804 4.29289 12.7929C4.48043 12.6054 4.73478 12.5 5 12.5H19C19.2652 12.5 19.5196 12.6054 19.7071 12.7929C19.8946 12.9804 20 13.2348 20 13.5V24.5C20 24.7652 19.8946 25.0196 19.7071 25.2071C19.5196 25.3946 19.2652 25.5 19 25.5H5C4.73478 25.5 4.48043 25.3946 4.29289 25.2071C4.10536 25.0196 4 24.7652 4 24.5V13.5Z" fill="black" fill-opacity="0.4"/>
<path d="M5 12C4.60218 12 4.22064 12.158 3.93934 12.4393C3.65804 12.7206 3.5 13.1022 3.5 13.5V24.5C3.5 24.8978 3.65804 25.2794 3.93934 25.5607C4.22064 25.842 4.60218 26 5 26H19C19.3978 26 19.7794 25.842 20.0607 25.5607C20.342 25.2794 20.5 24.8978 20.5 24.5V13.5C20.5 13.1022 20.342 12.7206 20.0607 12.4393C19.7794 12.158 19.3978 12 19 12H5Z" stroke="black" stroke-opacity="0.04"/>
</g>
<path d="M6.5 15H13.5M6.5 18H12.5M6.5 21H9.5" stroke="black" stroke-linecap="round"/>
</g>
<defs>
<filter id="filter0_dd_2119_2009" x="0" y="2.5" width="24" height="13" filterUnits="userSpaceOnUse" color-interpolation-filters="sRGB">
<feFlood flood-opacity="0" result="BackgroundImageFix"/>
<feColorMatrix in="SourceAlpha" type="matrix" values="0 0 0 0 0 0 0 0 0 0 0 0 0 0 0 0 0 0 127 0" result="hardAlpha"/>
<feOffset dy="1"/>
<feGaussianBlur stdDeviation="1"/>
<feColorMatrix type="matrix" values="0 0 0 0 0 0 0 0 0 0 0 0 0 0 0 0 0 0 0.06 0"/>
<feBlend mode="normal" in2="BackgroundImageFix" result="effect1_dropShadow_2119_2009"/>
<feColorMatrix in="SourceAlpha" type="matrix" values="0 0 0 0 0 0 0 0 0 0 0 0 0 0 0 0 0 0 127 0" result="hardAlpha"/>
<feOffset dy="1"/>
<feGaussianBlur stdDeviation="1.5"/>
<feColorMatrix type="matrix" values="0 0 0 0 0 0 0 0 0 0 0 0 0 0 0 0 0 0 0.1 0"/>
<feBlend mode="normal" in2="effect1_dropShadow_2119_2009" result="effect2_dropShadow_2119_2009"/>
<feBlend mode="normal" in="SourceGraphic" in2="effect2_dropShadow_2119_2009" result="shape"/>
</filter>
<filter id="filter1_dd_2119_2009" x="0" y="9.5" width="24" height="21" filterUnits="userSpaceOnUse" color-interpolation-filters="sRGB">
<feFlood flood-opacity="0" result="BackgroundImageFix"/>
<feColorMatrix in="SourceAlpha" type="matrix" values="0 0 0 0 0 0 0 0 0 0 0 0 0 0 0 0 0 0 127 0" result="hardAlpha"/>
<feOffset dy="1"/>
<feGaussianBlur stdDeviation="1"/>
<feColorMatrix type="matrix" values="0 0 0 0 0 0 0 0 0 0 0 0 0 0 0 0 0 0 0.06 0"/>
<feBlend mode="normal" in2="BackgroundImageFix" result="effect1_dropShadow_2119_2009"/>
<feColorMatrix in="SourceAlpha" type="matrix" values="0 0 0 0 0 0 0 0 0 0 0 0 0 0 0 0 0 0 127 0" result="hardAlpha"/>
<feOffset dy="1"/>
<feGaussianBlur stdDeviation="1.5"/>
<feColorMatrix type="matrix" values="0 0 0 0 0 0 0 0 0 0 0 0 0 0 0 0 0 0 0.1 0"/>
<feBlend mode="normal" in2="effect1_dropShadow_2119_2009" result="effect2_dropShadow_2119_2009"/>
<feBlend mode="normal" in="SourceGraphic" in2="effect2_dropShadow_2119_2009" result="shape"/>
</filter>
<clipPath id="clip0_2119_2009">
<rect width="24" height="24" fill="white"/>
</clipPath>
</defs>
</svg>
