<svg width="24" height="24" viewBox="0 0 24 24" fill="none" xmlns="http://www.w3.org/2000/svg">
<g clip-path="url(#clip0_2119_2007)">
<path opacity="0.1" fill-rule="evenodd" clip-rule="evenodd" d="M1.4064 22.242C2.8116 24 5.0748 24 9.6 24H14.4C18.9252 24 21.1884 24 22.5936 22.242C23.9988 20.484 24 17.6565 24 12C24 6.3435 24 3.5145 22.5936 1.758C21.1872 0.00149989 18.9252 0 14.4 0H9.6C5.0748 0 2.8116 -1.78814e-07 1.4064 1.758C0.00119991 3.516 0 6.3435 0 12C0 17.6565 -1.43051e-07 20.4855 1.4064 22.242Z" fill="black"/>
<path d="M19 5H14C13.1716 5 13 5.67157 13 6.5C13 7.32843 13.1716 8 14 8H19C19.8284 8 20 7.32843 20 6.5C20 5.67157 19.8284 5 19 5Z" fill="black"/>
<g filter="url(#filter0_dd_2119_2007)">
<path d="M18 9H7C5.89543 9 5 9.89543 5 11V17C5 18.1046 5.89543 19 7 19H18C19.1046 19 20 18.1046 20 17V11C20 9.89543 19.1046 9 18 9Z" fill="black" fill-opacity="0.4"/>
</g>
</g>
<defs>
<filter id="filter0_dd_2119_2007" x="2" y="7" width="21" height="16" filterUnits="userSpaceOnUse" color-interpolation-filters="sRGB">
<feFlood flood-opacity="0" result="BackgroundImageFix"/>
<feColorMatrix in="SourceAlpha" type="matrix" values="0 0 0 0 0 0 0 0 0 0 0 0 0 0 0 0 0 0 127 0" result="hardAlpha"/>
<feOffset dy="1"/>
<feGaussianBlur stdDeviation="1"/>
<feColorMatrix type="matrix" values="0 0 0 0 0 0 0 0 0 0 0 0 0 0 0 0 0 0 0.06 0"/>
<feBlend mode="normal" in2="BackgroundImageFix" result="effect1_dropShadow_2119_2007"/>
<feColorMatrix in="SourceAlpha" type="matrix" values="0 0 0 0 0 0 0 0 0 0 0 0 0 0 0 0 0 0 127 0" result="hardAlpha"/>
<feOffset dy="1"/>
<feGaussianBlur stdDeviation="1.5"/>
<feColorMatrix type="matrix" values="0 0 0 0 0 0 0 0 0 0 0 0 0 0 0 0 0 0 0.1 0"/>
<feBlend mode="normal" in2="effect1_dropShadow_2119_2007" result="effect2_dropShadow_2119_2007"/>
<feBlend mode="normal" in="SourceGraphic" in2="effect2_dropShadow_2119_2007" result="shape"/>
</filter>
<clipPath id="clip0_2119_2007">
<rect width="24" height="24" fill="white"/>
</clipPath>
</defs>
</svg>
