<svg width="24" height="24" viewBox="0 0 24 24" fill="none" xmlns="http://www.w3.org/2000/svg">
<g clip-path="url(#clip0_2128_2769)">
<path opacity="0.1" fill-rule="evenodd" clip-rule="evenodd" d="M1.4064 22.242C2.8116 24 5.0748 24 9.6 24H14.4C18.9252 24 21.1884 24 22.5936 22.242C23.9988 20.484 24 17.6565 24 12C24 6.3435 24 3.5145 22.5936 1.758C21.1872 0.00149989 18.9252 0 14.4 0H9.6C5.0748 0 2.8116 -1.78814e-07 1.4064 1.758C0.00119991 3.516 0 6.3435 0 12C0 17.6565 -1.43051e-07 20.4855 1.4064 22.242Z" fill="black"/>
<path d="M16.8611 11.9712C16.8621 12.1284 16.832 12.2842 16.7728 12.4298C16.7135 12.5754 16.6261 12.7079 16.5156 12.8197C16.4051 12.9315 16.2737 13.0205 16.1288 13.0815C15.984 13.1426 15.8285 13.1745 15.6713 13.1754C15.514 13.1746 15.3585 13.1428 15.2135 13.0818C15.0685 13.0208 14.937 12.9319 14.8264 12.82C14.7158 12.7082 14.6284 12.5757 14.5691 12.43C14.5097 12.2844 14.4797 12.1285 14.4806 11.9712C14.4798 11.814 14.5099 11.6582 14.5693 11.5126C14.6287 11.3671 14.7162 11.2347 14.8267 11.1229C14.9373 11.0112 15.0688 10.9223 15.2137 10.8614C15.3586 10.8005 15.5141 10.7687 15.6713 10.7679C16.3283 10.7679 16.8611 11.307 16.8611 11.9712Z" fill="black"/>
<path fill-rule="evenodd" clip-rule="evenodd" d="M17.619 7.8672C16.8549 7.7592 15.8712 7.7592 14.6445 7.7592H9.55586C8.32916 7.7592 7.34546 7.7592 6.58136 7.8672C5.79206 7.9797 5.13416 8.22 4.64456 8.7852C4.15586 9.3504 4.00556 10.0416 4.00016 10.8489C3.99476 11.6283 4.12526 12.6147 4.28726 13.8441L4.61576 16.3389C4.74266 17.3001 4.84526 18.0786 5.00456 18.6879C5.17106 19.3215 5.41586 19.8471 5.87576 20.2539C6.33476 20.6616 6.88376 20.838 7.52636 20.9199C8.14466 21 8.92136 21 9.87986 21H14.3205C15.279 21 16.0557 21 16.674 20.9208C17.3175 20.838 17.8647 20.6616 18.3246 20.2548C18.7845 19.8471 19.0293 19.3215 19.1958 18.6879C19.3551 18.0786 19.4577 17.3001 19.5846 16.3389L19.9131 13.8441C20.0751 12.6147 20.2056 11.6283 20.2002 10.8489C20.1939 10.0416 20.0454 9.3504 19.5558 8.7852C19.0662 8.22 18.4083 7.9797 17.619 7.8672ZM6.74696 9.0588C6.09356 9.1524 5.76236 9.3216 5.54096 9.5781C5.31776 9.8346 5.19536 10.1892 5.18996 10.857C5.18546 11.5419 5.30336 12.4446 5.47346 13.7325L5.51846 14.0736L5.85236 13.8288C6.71636 13.1961 7.99076 13.2276 8.81156 13.9143L11.8572 16.464C12.1452 16.7052 12.6411 16.7502 12.9993 16.5396L13.2108 16.4145C14.2233 15.8187 15.5814 15.8817 16.5156 16.5855L18.1644 17.8275C18.2454 17.382 18.3183 16.8339 18.4101 16.14L18.7269 13.7325C18.897 12.4455 19.0149 11.5419 19.0095 10.857C19.005 10.1892 18.8826 9.8346 18.6603 9.579C18.438 9.3216 18.1068 9.1524 17.4525 9.0588C16.782 8.9634 15.882 8.9625 14.5977 8.9625H9.60266C8.31836 8.9625 7.41746 8.9634 6.74696 9.0588Z" fill="black"/>
<path opacity="0.7" d="M7.49213 5.25C6.36533 5.25 5.44103 6.006 5.13323 7.0086L5.11523 7.0716C5.43743 6.9636 5.77223 6.8916 6.11243 6.8439C6.98723 6.7188 8.09333 6.7188 9.37853 6.7188H14.9603C16.2455 6.7188 17.3516 6.7188 18.2273 6.8439C18.5666 6.8916 18.9023 6.9627 19.2245 7.0716L19.2065 7.0086C18.8978 6.006 17.9735 5.25 16.8485 5.25H7.49213Z" fill="black"/>
<path opacity="0.4" d="M9.27319 3H14.927C15.1151 3 15.26 3 15.386 3.0135C15.8169 3.06143 16.2263 3.22726 16.5691 3.49274C16.9119 3.75821 17.1749 4.11307 17.3291 4.5183H6.87109C7.02532 4.11307 7.28829 3.75821 7.6311 3.49274C7.9739 3.22726 8.38327 3.06143 8.81419 3.0135C8.94019 3 9.08419 3 9.27319 3Z" fill="black"/>
</g>
<defs>
<clipPath id="clip0_2128_2769">
<rect width="24" height="24" fill="white"/>
</clipPath>
</defs>
</svg>
