<svg width="24" height="24" viewBox="0 0 24 24" fill="none" xmlns="http://www.w3.org/2000/svg">
<path d="M4.11009 17.9091V7H6.63282V7.83523H5.06464V17.0739H6.63282V17.9091H4.11009Z" fill="black"/>
<path d="M8.69638 16.2045C8.48616 16.2045 8.30576 16.1293 8.15519 15.9787C8.00462 15.8281 7.92934 15.6477 7.92934 15.4375C7.92934 15.2273 8.00462 15.0469 8.15519 14.8963C8.30576 14.7457 8.48616 14.6705 8.69638 14.6705C8.90661 14.6705 9.08701 14.7457 9.23758 14.8963C9.38815 15.0469 9.46343 15.2273 9.46343 15.4375C9.46343 15.5767 9.42792 15.7045 9.3569 15.821C9.28871 15.9375 9.19638 16.0312 9.07991 16.1023C8.96627 16.1705 8.83843 16.2045 8.69638 16.2045Z" fill="black"/>
<path d="M12.0011 16.2045C11.7908 16.2045 11.6104 16.1293 11.4599 15.9787C11.3093 15.8281 11.234 15.6477 11.234 15.4375C11.234 15.2273 11.3093 15.0469 11.4599 14.8963C11.6104 14.7457 11.7908 14.6705 12.0011 14.6705C12.2113 14.6705 12.3917 14.7457 12.5423 14.8963C12.6928 15.0469 12.7681 15.2273 12.7681 15.4375C12.7681 15.5767 12.7326 15.7045 12.6616 15.821C12.5934 15.9375 12.5011 16.0312 12.3846 16.1023C12.271 16.1705 12.1431 16.2045 12.0011 16.2045Z" fill="black"/>
<path d="M15.3058 16.2045C15.0955 16.2045 14.9151 16.1293 14.7646 15.9787C14.614 15.8281 14.5387 15.6477 14.5387 15.4375C14.5387 15.2273 14.614 15.0469 14.7646 14.8963C14.9151 14.7457 15.0955 14.6705 15.3058 14.6705C15.516 14.6705 15.6964 14.7457 15.847 14.8963C15.9975 15.0469 16.0728 15.2273 16.0728 15.4375C16.0728 15.5767 16.0373 15.7045 15.9663 15.821C15.8981 15.9375 15.8058 16.0312 15.6893 16.1023C15.5756 16.1705 15.4478 16.2045 15.3058 16.2045Z" fill="black"/>
<path d="M19.8889 7V17.9091H17.3661V17.0739H18.9343V7.83523H17.3661V7H19.8889Z" fill="black"/>
</svg>
