<svg width="24" height="24" viewBox="0 0 24 24" fill="none" xmlns="http://www.w3.org/2000/svg">
<g clip-path="url(#clip0_2129_2793)">
<path opacity="0.1" fill-rule="evenodd" clip-rule="evenodd" d="M1.4064 22.242C2.8116 24 5.0748 24 9.6 24H14.4C18.9252 24 21.1884 24 22.5936 22.242C23.9988 20.484 24 17.6565 24 12C24 6.3435 24 3.5145 22.5936 1.758C21.1872 0.00149989 18.9252 0 14.4 0H9.6C5.0748 0 2.8116 -1.78814e-07 1.4064 1.758C0.00119991 3.516 0 6.3435 0 12C0 17.6565 -1.43051e-07 20.4855 1.4064 22.242Z" fill="black"/>
<path opacity="0.2" d="M4 9H20V18C20 18.5523 19.5523 19 19 19H5C4.44772 19 4 18.5523 4 18V9Z" fill="black"/>
<path opacity="0.4" d="M4 6C4 5.44772 4.44772 5 5 5H19C19.5523 5 20 5.44772 20 6V8H4V6Z" fill="black"/>
<path d="M4 8H20V9H4V8Z" fill="black"/>
<path opacity="0.4" d="M6 11.5C6 11.2239 6.22386 11 6.5 11H17.5C17.7761 11 18 11.2239 18 11.5V12.5C18 12.7761 17.7761 13 17.5 13H6.5C6.22386 13 6 12.7761 6 12.5V11.5Z" fill="black"/>
<path opacity="0.4" d="M6 15.5C6 15.2239 6.22386 15 6.5 15H17.5C17.7761 15 18 15.2239 18 15.5V16.5C18 16.7761 17.7761 17 17.5 17H6.5C6.22386 17 6 16.7761 6 16.5V15.5Z" fill="black"/>
</g>
<defs>
<clipPath id="clip0_2129_2793">
<rect width="24" height="24" fill="white"/>
</clipPath>
</defs>
</svg>
