<svg width="24" height="24" viewBox="0 0 24 24" fill="none" xmlns="http://www.w3.org/2000/svg">
<g clip-path="url(#clip0_2128_2757)">
<path opacity="0.1" fill-rule="evenodd" clip-rule="evenodd" d="M1.4064 22.242C2.8116 24 5.0748 24 9.6 24H14.4C18.9252 24 21.1884 24 22.5936 22.242C23.9988 20.484 24 17.6565 24 12C24 6.3435 24 3.5145 22.5936 1.758C21.1872 0.00149989 18.9252 0 14.4 0H9.6C5.0748 0 2.8116 -1.78814e-07 1.4064 1.758C0.00119991 3.516 0 6.3435 0 12C0 17.6565 -1.43051e-07 20.4855 1.4064 22.242Z" fill="black"/>
<path d="M5.58889 5.58777C5.08516 6.09142 4.68557 6.68938 4.41294 7.34748C4.14032 8.00559 4 8.71096 4 9.42331C4 10.1357 4.14032 10.841 4.41294 11.4991C4.68557 12.1572 5.08516 12.7552 5.58889 13.2588L7.63504 15.3043L8.03007 15.2285H8.03087L8.04204 15.2261L8.1011 15.2117C8.15589 15.199 8.23969 15.1748 8.35248 15.1391C8.57752 15.0673 8.90871 14.9452 9.3181 14.748C10.1353 14.3546 11.2637 13.6595 12.4615 12.4608C13.6594 11.2629 14.3545 10.1344 14.7487 9.31716C14.9458 8.90855 15.0679 8.57655 15.1397 8.3515C15.1729 8.24923 15.2019 8.14566 15.2267 8.04105L15.2291 8.02987L15.3049 7.63403L13.2596 5.58857C12.756 5.08493 12.1581 4.68542 11.5001 4.41286C10.8421 4.14029 10.1369 4 9.42463 4C8.71242 4 8.00718 4.14029 7.34917 4.41286C6.69117 4.68542 6.0933 5.08493 5.58969 5.58857M16.3057 8.63401L16.2801 8.71621C16.1924 8.98995 16.0503 9.37383 15.8269 9.83671C15.38 10.7641 14.6099 12.0059 13.3083 13.3075C12.0067 14.6092 10.7649 15.3801 9.83762 15.827C9.44905 16.0158 9.04707 16.1755 8.63498 16.3051L10.7027 18.3721C11.2044 18.8842 11.8026 19.2917 12.4628 19.5711C13.1229 19.8505 13.8319 19.9963 14.5488 19.9999C15.2656 20.0036 15.976 19.8651 16.639 19.5925C17.302 19.3199 17.9044 18.9185 18.4113 18.4116C18.9182 17.9047 19.3196 17.3024 19.5923 16.6394C19.865 15.9764 20.0035 15.2659 19.9999 14.549C19.9963 13.8322 19.8507 13.1231 19.5713 12.4629C19.292 11.8027 18.8846 11.2044 18.3726 10.7026L16.3057 8.63401Z" fill="black"/>
</g>
<defs>
<clipPath id="clip0_2128_2757">
<rect width="24" height="24" fill="white"/>
</clipPath>
</defs>
</svg>
