<svg width="24" height="24" viewBox="0 0 24 24" fill="none" xmlns="http://www.w3.org/2000/svg">
<g clip-path="url(#clip0_2121_2067)">
<path opacity="0.1" fill-rule="evenodd" clip-rule="evenodd" d="M1.4064 22.242C2.8116 24 5.0748 24 9.6 24H14.4C18.9252 24 21.1884 24 22.5936 22.242C23.9988 20.484 24 17.6565 24 12C24 6.3435 24 3.5145 22.5936 1.758C21.1872 0.00149989 18.9252 0 14.4 0H9.6C5.0748 0 2.8116 -1.78814e-07 1.4064 1.758C0.00119991 3.516 0 6.3435 0 12C0 17.6565 -1.43051e-07 20.4855 1.4064 22.242Z" fill="black"/>
<path d="M10.0072 7.38586C10.8939 5.79529 11.3372 5 12 5C12.6628 5 13.1061 5.79529 13.9928 7.38586L14.2222 7.79736C14.4741 8.24935 14.6001 8.47535 14.7965 8.62446C14.993 8.77358 15.2376 8.82893 15.7269 8.93963L16.1723 9.04042C17.8941 9.42999 18.755 9.62477 18.9598 10.2834C19.1646 10.9421 18.5777 11.6283 17.4039 13.0009L17.1003 13.3561C16.7667 13.7461 16.5999 13.9411 16.5249 14.1824C16.4499 14.4237 16.4751 14.6839 16.5255 15.2043L16.5714 15.6781C16.7489 17.5094 16.8376 18.4251 16.3014 18.8322C15.7652 19.2392 14.9591 18.8681 13.347 18.1258L12.93 17.9338C12.4719 17.7229 12.2428 17.6174 12 17.6174C11.7572 17.6174 11.5281 17.7229 11.07 17.9338L10.653 18.1258C9.04087 18.8681 8.23482 19.2392 7.6986 18.8322C7.16238 18.4251 7.25112 17.5094 7.42858 15.6781L7.47449 15.2043C7.52492 14.6839 7.55013 14.4237 7.4751 14.1824C7.40008 13.9411 7.2333 13.7461 6.89974 13.3561L6.59607 13.0009C5.42227 11.6283 4.83538 10.9421 5.04019 10.2834C5.24501 9.62477 6.1059 9.42999 7.82768 9.04042L8.27312 8.93963C8.7624 8.82893 9.00703 8.77358 9.20346 8.62446C9.39989 8.47535 9.52587 8.24935 9.77783 7.79736L10.0072 7.38586Z" fill="black"/>
</g>
<defs>
<clipPath id="clip0_2121_2067">
<rect width="24" height="24" fill="white"/>
</clipPath>
</defs>
</svg>
