<svg width="24" height="24" viewBox="0 0 24 24" fill="none" xmlns="http://www.w3.org/2000/svg">
<path d="M4 7.5C4 5.84315 5.34315 4.5 7 4.5V3.5C4.79086 3.5 3 5.29086 3 7.5H4ZM7 10.5C5.34315 10.5 4 9.15685 4 7.5H3C3 9.70914 4.79086 11.5 7 11.5V10.5ZM17 10.5H7V11.5H17V10.5ZM20 7.5C20 9.15685 18.6569 10.5 17 10.5V11.5C19.2091 11.5 21 9.70914 21 7.5H20ZM17 4.5C18.6569 4.5 20 5.84315 20 7.5H21C21 5.29086 19.2091 3.5 17 3.5V4.5ZM7 4.5H17V3.5H7V4.5ZM4 16.5C4 14.8431 5.34315 13.5 7 13.5V12.5C4.79086 12.5 3 14.2909 3 16.5H4ZM7 19.5C5.34315 19.5 4 18.1569 4 16.5H3C3 18.7091 4.79086 20.5 7 20.5V19.5ZM17 19.5H7V20.5H17V19.5ZM20 16.5C20 18.1569 18.6569 19.5 17 19.5V20.5C19.2091 20.5 21 18.7091 21 16.5H20ZM17 13.5C18.6569 13.5 20 14.8431 20 16.5H21C21 14.2909 19.2091 12.5 17 12.5V13.5ZM7 13.5H17V12.5H7V13.5Z" fill="black"/>
<path fill-rule="evenodd" clip-rule="evenodd" d="M17 9.5C18.1046 9.5 19 8.60457 19 7.5C19 6.39543 18.1046 5.5 17 5.5C15.8954 5.5 15 6.39543 15 7.5C15 8.60457 15.8954 9.5 17 9.5ZM7 18.5C8.10457 18.5 9 17.6046 9 16.5C9 15.3954 8.10457 14.5 7 14.5C5.89543 14.5 5 15.3954 5 16.5C5 17.6046 5.89543 18.5 7 18.5Z" fill="black"/>
</svg>
