<svg width="24" height="24" viewBox="0 0 24 24" fill="none" xmlns="http://www.w3.org/2000/svg">
<path d="M13.8 11.4001C13.8 10.9227 13.9896 10.4649 14.3272 10.1273C14.6647 9.78974 15.1226 9.6001 15.6 9.6001H17.4C17.5591 9.6001 17.7117 9.66331 17.8242 9.77583C17.9368 9.88836 18 10.041 18 10.2001C18 10.3592 17.9368 10.5118 17.8242 10.6244C17.7117 10.7369 17.5591 10.8001 17.4 10.8001H15.6C15.4408 10.8001 15.2882 10.8633 15.1757 10.9758C15.0632 11.0884 15 11.241 15 11.4001V12.6001C15 12.7592 15.0632 12.9118 15.1757 13.0244C15.2882 13.1369 15.4408 13.2001 15.6 13.2001H16.2C16.6774 13.2001 17.1352 13.3897 17.4728 13.7273C17.8103 14.0649 18 14.5227 18 15.0001V16.2001C18 16.6775 17.8103 17.1353 17.4728 17.4729C17.1352 17.8105 16.6774 18.0001 16.2 18.0001H14.4C14.2408 18.0001 14.0882 17.9369 13.9757 17.8244C13.8632 17.7118 13.8 17.5592 13.8 17.4001C13.8 17.241 13.8632 17.0884 13.9757 16.9758C14.0882 16.8633 14.2408 16.8001 14.4 16.8001H16.2C16.3591 16.8001 16.5117 16.7369 16.6242 16.6244C16.7368 16.5118 16.8 16.3592 16.8 16.2001V15.0001C16.8 14.841 16.7368 14.6884 16.6242 14.5758C16.5117 14.4633 16.3591 14.4001 16.2 14.4001H15.6C15.1226 14.4001 14.6647 14.2105 14.3272 13.8729C13.9896 13.5353 13.8 13.0775 13.8 12.6001V11.4001ZM13.2 10.2001C13.2 10.041 13.1368 9.88836 13.0242 9.77583C12.9117 9.66331 12.7591 9.6001 12.6 9.6001C12.4408 9.6001 12.2882 9.66331 12.1757 9.77583C12.0632 9.88836 12 10.041 12 10.2001V16.2001C12 16.3592 11.9368 16.5118 11.8242 16.6244C11.7117 16.7369 11.5591 16.8001 11.4 16.8001H10.2C10.0408 16.8001 9.88823 16.8633 9.77571 16.9758C9.66319 17.0884 9.59998 17.241 9.59998 17.4001C9.59998 17.5592 9.66319 17.7118 9.77571 17.8244C9.88823 17.9369 10.0408 18.0001 10.2 18.0001H11.4C11.8774 18.0001 12.3352 17.8105 12.6728 17.4729C13.0103 17.1353 13.2 16.6775 13.2 16.2001V10.2001ZM3.59998 7.2001V16.8001C3.59998 17.7549 3.97926 18.6706 4.65439 19.3457C5.32952 20.0208 6.2452 20.4001 7.19998 20.4001H16.8C17.7548 20.4001 18.6704 20.0208 19.3456 19.3457C20.0207 18.6706 20.4 17.7549 20.4 16.8001V7.2001C20.4 6.24532 20.0207 5.32964 19.3456 4.65451C18.6704 3.97938 17.7548 3.6001 16.8 3.6001H7.19998C6.2452 3.6001 5.32952 3.97938 4.65439 4.65451C3.97926 5.32964 3.59998 6.24532 3.59998 7.2001ZM7.19998 4.8001H16.8C17.4365 4.8001 18.0469 5.05295 18.497 5.50304C18.9471 5.95313 19.2 6.56358 19.2 7.2001V16.8001C19.2 17.4366 18.9471 18.0471 18.497 18.4972C18.0469 18.9472 17.4365 19.2001 16.8 19.2001H7.19998C6.56346 19.2001 5.95301 18.9472 5.50292 18.4972C5.05283 18.0471 4.79998 17.4366 4.79998 16.8001V7.2001C4.79998 6.56358 5.05283 5.95313 5.50292 5.50304C5.95301 5.05295 6.56346 4.8001 7.19998 4.8001Z" fill="black"/>
</svg>
