<svg width="24" height="24" viewBox="0 0 24 24" fill="none" xmlns="http://www.w3.org/2000/svg">
<path d="M18.5755 12.7261C18.6092 16.3512 21.7557 17.5576 21.7905 17.573C21.7638 17.658 21.2877 19.292 20.1328 20.9799C19.1344 22.4392 18.0981 23.893 16.4658 23.9231C14.862 23.9527 14.3461 22.972 12.5124 22.972C10.6792 22.972 10.1061 23.893 8.58782 23.9527C7.0122 24.0123 5.81235 22.3748 4.80573 20.9208C2.74858 17.9469 1.17654 12.517 3.2874 8.85181C4.33601 7.03162 6.21007 5.87909 8.24405 5.84952C9.79125 5.82004 11.2517 6.89044 12.1975 6.89044C13.1427 6.89044 14.9174 5.6032 16.7831 5.79223C17.564 5.82476 19.7565 6.10766 21.1643 8.16831C21.0508 8.23863 18.5483 9.69547 18.5755 12.7262M15.5612 3.82469C16.3977 2.81211 16.9607 1.40259 16.8071 0C15.6013 0.0484571 14.1433 0.803505 13.2784 1.81547C12.5033 2.7117 11.8245 4.14606 12.0077 5.52084C13.3517 5.62484 14.7247 4.83787 15.5612 3.82469" fill="black"/>
</svg>
