<svg width="138" height="24" viewBox="0 0 138 24" fill="none" xmlns="http://www.w3.org/2000/svg">
<path d="M26.3353 15.0732C26.3353 12.4936 28.4779 11.519 31.175 11.519H33.7959C33.9871 11.519 34.0829 11.4233 34.0829 11.2323V10.8311C34.0829 9.43613 33.0309 8.76737 31.4812 8.76737C30.276 8.76737 29.4535 9.16888 29.0133 10.0287C28.8603 10.3345 28.7262 10.449 28.4012 10.449H27.2726C26.9093 10.449 26.7369 10.258 26.7369 9.97127C26.7369 9.83733 26.7752 9.6463 26.9281 9.32164C27.6551 7.81222 29.0707 6.83762 31.7107 6.83762C34.6566 6.83762 36.3975 8.13719 36.3975 10.9841V15.704C36.3975 16.1818 36.5696 16.2966 36.9713 16.2966H36.9904C37.3729 16.2966 37.5641 16.4876 37.5641 16.8697V17.8251C37.5641 18.2072 37.3729 18.3982 36.9904 18.3982H36.3209C35.2303 18.3982 34.6758 18.1115 34.3313 17.3662C34.2738 17.2323 34.2355 17.1943 34.1592 17.1943C34.0829 17.1943 34.0251 17.2326 33.8722 17.3662C33.0114 18.1307 31.94 18.5319 30.5052 18.5319C28.3243 18.5319 26.3353 17.519 26.3353 15.0732ZM34.0829 13.7737V13.5826C34.0829 13.3916 33.9871 13.2959 33.7959 13.2959H30.9263C29.5873 13.2959 28.6499 13.7928 28.6499 14.9776C28.6499 16.1623 29.6065 16.6592 30.7542 16.6592C32.5335 16.6592 34.0829 15.5507 34.0829 13.7737Z" fill="#ffffff"/>
<path d="M38.5209 13.4063V7.53993C38.5209 7.15787 38.7121 6.96684 39.0946 6.96684H40.2615C40.644 6.96684 40.8352 7.15787 40.8352 7.53993V13.1962C40.8352 15.0306 41.5047 16.3872 43.4178 16.3872C45.4457 16.3872 46.4019 14.7821 46.4019 12.9286V7.53961C46.4019 7.15755 46.5932 6.96652 46.9756 6.96652H48.1426C48.525 6.96652 48.7163 7.15755 48.7163 7.53961V17.8204C48.7163 18.2025 48.525 18.3935 48.1426 18.3935H47.0906C46.7461 18.3935 46.5549 18.2216 46.4974 17.8775L46.4016 17.3615C46.3825 17.2467 46.325 17.1896 46.2295 17.1896C46.1532 17.1896 46.0958 17.2279 46.0003 17.3235C45.2159 18.0306 44.2593 18.5274 42.8437 18.5274C39.8404 18.5274 38.5209 16.3681 38.5209 13.4063Z" fill="#ffffff"/>
<path d="M50.8602 15.282V3.70192C50.8602 3.31986 51.0514 3.12883 51.4339 3.12883H52.6008C52.9833 3.12883 53.1745 3.31986 53.1745 3.70192V6.68281C53.1745 6.87384 53.2703 6.96951 53.4615 6.96951H56.8477C57.2301 6.96951 57.4214 7.16054 57.4214 7.5426V8.49806C57.4214 8.88012 57.2301 9.07146 56.8477 9.07146H53.4615C53.2703 9.07146 53.1745 9.16714 53.1745 9.35817V15.0718C53.1745 15.9125 53.557 16.2948 54.4177 16.2948H57.0769C57.4594 16.2948 57.6506 16.4859 57.6506 16.8679V17.8234C57.6506 18.2055 57.4594 18.3965 57.0769 18.3965H54.3031C51.9118 18.3965 50.8602 17.4413 50.8602 15.282Z" fill="#ffffff"/>
<path d="M59.2395 17.8234V3.70192C59.2395 3.31986 59.4307 3.12883 59.8132 3.12883H60.9801C61.3626 3.12883 61.5538 3.31986 61.5538 3.70192V8.15427C61.5538 8.26908 61.6302 8.3453 61.7259 8.3453C61.7834 8.3453 61.8406 8.32617 62.013 8.1734C62.8545 7.40897 63.7727 6.83588 65.3224 6.83588C68.3066 6.83588 69.6459 8.93784 69.6459 12.0335V17.8237C69.6459 18.2058 69.4547 18.3968 69.0722 18.3968H67.9053C67.5228 18.3968 67.3316 18.2058 67.3316 17.8237V12.1483C67.3316 10.371 66.6429 8.97611 64.7682 8.97611C62.7594 8.97611 61.5545 10.6003 61.5545 12.8936V17.8237C61.5545 18.2058 61.3632 18.3968 60.9808 18.3968H59.8138C59.4314 18.3968 59.2395 18.2055 59.2395 17.8234Z" fill="#ffffff"/>
<path d="M71.0993 10.7715C71.0993 5.59299 73.1078 2.99417 76.7043 2.99417C80.3008 2.99417 82.309 5.59299 82.309 10.7715C82.309 15.95 80.3005 18.5297 76.7043 18.5297C73.1081 18.5297 71.0993 15.9309 71.0993 10.7715ZM73.9114 12.5105L78.981 6.89256C79.0576 6.79689 79.0956 6.7398 79.0956 6.60586C79.0956 6.51019 79.0765 6.39569 78.9427 6.22348C78.4261 5.59299 77.6995 5.13439 76.7046 5.13439C74.6004 5.13439 73.4143 7.04532 73.4143 10.7906C73.4143 11.3255 73.4334 11.8035 73.5101 12.4531C73.5292 12.5679 73.5864 12.6442 73.6822 12.6442C73.7396 12.6442 73.8159 12.625 73.9114 12.5105ZM79.9947 10.7332C79.9947 10.1981 79.9755 9.72037 79.8989 9.07074C79.8797 8.95593 79.8226 8.87971 79.7268 8.87971C79.6693 8.87971 79.5927 8.89884 79.4973 9.01365L74.4276 14.6316C74.3513 14.7273 74.313 14.7844 74.313 14.9183C74.313 15.014 74.3322 15.1285 74.466 15.3004C74.9825 15.9309 75.7092 16.3895 76.7043 16.3895C78.8086 16.3895 79.9947 14.4785 79.9947 10.7332Z" fill="#ffffff"/>
<path d="M1.26834 10.2499C5.20746 9.60217 8.29463 6.51809 8.94341 2.58331L9.259 0.669875C9.31961 0.299735 9.01532 -0.0268029 8.64069 0.00174179C5.64144 0.23355 2.81491 1.2254 1.2539 1.86467C0.495844 2.17553 0 2.91142 0 3.73043V9.77877C0 10.1345 0.31842 10.4052 0.670128 10.3475L1.26834 10.2499Z" fill="#ffffff"/>
<path d="M10.8431 2.58304C11.4915 6.51782 14.579 9.60158 18.5181 10.2496L19.1163 10.3475C19.4681 10.4052 19.7865 10.1345 19.7865 9.77881V3.73047C19.7865 2.91115 19.2906 2.17557 18.5326 1.86472C16.9716 1.22419 14.1438 0.233592 11.1458 0.00178354C10.7712 -0.0270748 10.4656 0.298523 10.5275 0.669918L10.8431 2.58304Z" fill="#ffffff"/>
<path d="M18.5182 12.1463C14.5791 12.794 11.4919 15.8781 10.8431 19.8129L10.4497 23.5475C10.4136 23.8844 10.7885 24.1219 11.0708 23.9333C13.5485 22.2646 19.1839 17.9079 19.7416 12.4659C19.769 12.198 19.5313 11.9794 19.2659 12.0224L18.5192 12.1447L18.5182 12.1463Z" fill="#ffffff"/>
<path d="M8.94451 19.8092C8.29605 15.8744 5.20857 12.7906 1.26945 12.1426L0.466486 12.0102C0.230026 11.9713 0.018374 12.167 0.0412978 12.406C0.570115 17.8785 6.28347 22.2624 8.77557 23.9296C9.0337 24.1009 9.37504 23.8951 9.34207 23.5871L8.94451 19.8092Z" fill="#ffffff"/>
<path d="M128.659 14.7202H130.488C130.554 16.0252 131.708 16.9821 133.558 16.9821C135.126 16.9821 136.236 16.3079 136.236 15.2857C136.236 13.8938 135.017 13.785 133.362 13.5893C130.88 13.2848 128.899 12.7846 128.899 10.4792C128.899 8.45655 130.75 7.12987 133.254 7.15162C135.779 7.17337 137.608 8.34781 137.782 10.6532H135.953C135.823 9.52225 134.778 8.67404 133.254 8.67404C131.708 8.67404 130.663 9.32651 130.663 10.3487C130.663 11.5666 131.838 11.7189 133.449 11.9146C135.975 12.2191 138 12.6976 138 15.1552C138 17.2213 136.019 18.5045 133.558 18.5045C130.684 18.5045 128.703 17.1561 128.659 14.7202Z" fill="#ffffff"/>
<path d="M122.652 18.5045C119.408 18.5045 117.274 16.3079 117.274 12.8498C117.274 9.457 119.474 7.15162 122.696 7.15162C125.418 7.15162 127.138 8.67404 127.595 11.1099H125.722C125.396 9.63099 124.307 8.73929 122.674 8.73929C120.54 8.73929 119.103 10.4357 119.103 12.8498C119.103 15.2639 120.54 16.9169 122.674 16.9169C124.264 16.9169 125.352 16.0034 125.701 14.5897H127.595C127.159 16.9821 125.352 18.5045 122.652 18.5045Z" fill="#ffffff"/>
<path d="M110.546 18.5045C107.302 18.5045 105.037 16.1991 105.037 12.8281C105.037 9.457 107.302 7.15162 110.546 7.15162C113.79 7.15162 116.054 9.457 116.054 12.8281C116.054 16.1991 113.79 18.5045 110.546 18.5045ZM110.546 16.9169C112.745 16.9169 114.226 15.1987 114.226 12.8281C114.226 10.4574 112.745 8.73929 110.546 8.73929C108.347 8.73929 106.866 10.4574 106.866 12.8281C106.866 15.1987 108.347 16.9169 110.546 16.9169Z" fill="#ffffff"/>
<path d="M96.0769 18.374H91.1998V3.14983H96.0769C100.845 3.14983 103.741 6.19467 103.741 10.7619C103.741 15.3074 100.845 18.374 96.0769 18.374ZM93.094 4.88974V16.6341H96.0769C99.7783 16.6341 101.803 14.307 101.803 10.7619C101.803 7.19512 99.7783 4.88974 96.0769 4.88974H93.094Z" fill="#ffffff"/>
</svg>