<svg width="24" height="24" viewBox="0 0 24 24" fill="none" xmlns="http://www.w3.org/2000/svg">
<path d="M24 11.9998C24 18.6278 18.6276 24 11.9997 24C5.37225 24 0 18.6278 0 11.9998C0 5.37234 5.37225 0 11.9997 0C18.6276 0 24 5.37234 24 11.9998Z" fill="#F22E46"/>
<path d="M10.971 9.45844L13.8483 12.3347C14.2636 12.7506 14.9379 12.7506 15.3543 12.3347C15.7697 11.9189 15.7706 11.2451 15.3543 10.8293L12.4768 7.95188C10.418 5.89256 7.09041 5.85938 4.98787 7.84725C4.96824 7.86356 4.94932 7.8807 4.93116 7.89863C4.92197 7.90781 4.91447 7.91756 4.90538 7.92581C4.896 7.93481 4.88644 7.94288 4.87753 7.95188C4.85983 7.96977 4.84294 7.98845 4.82691 8.00784C2.838 10.1113 2.87222 13.439 4.93125 15.4982L7.80862 18.375C8.22487 18.7906 8.89828 18.7906 9.31444 18.375C9.73087 17.959 9.73087 17.2844 9.31547 16.8694L6.438 13.9921C5.18194 12.7365 5.1735 10.6988 6.41194 9.43238C7.67812 8.19394 9.71475 8.20294 10.971 9.45853V9.45844Z" fill="white"/>
<path d="M14.6846 5.62659C14.2688 6.04256 14.2688 6.71625 14.6857 7.13213L17.5621 10.0096C18.8174 11.2651 18.8255 13.3026 17.5872 14.5692C16.3206 15.8067 14.2847 15.7985 13.0288 14.5428L10.1514 11.6657C9.73535 11.2497 9.06082 11.2497 8.64522 11.6657C8.22869 12.0813 8.22869 12.7571 8.64522 13.1718L11.5217 16.0493C13.5812 18.1086 16.9083 18.142 19.0113 16.154C19.0308 16.1367 19.0491 16.1207 19.0684 16.1025C19.0773 16.0936 19.0855 16.0845 19.094 16.0753C19.1034 16.0664 19.1125 16.0582 19.1212 16.0482C19.1397 16.0311 19.1554 16.0122 19.1718 15.9925C21.1608 13.8899 21.1275 10.5634 19.0685 8.50294L16.1912 5.6265C15.7753 5.20997 15.1001 5.20997 14.6846 5.62659Z" fill="#F5B1B2"/>
</svg>
