<svg width="24" height="24" viewBox="0 0 24 24" fill="none" xmlns="http://www.w3.org/2000/svg">
<path d="M8.50722 2.1255H14.7097L8.27097 21.2018C8.20517 21.3982 8.07936 21.569 7.91129 21.6901C7.74322 21.8112 7.54138 21.8765 7.33422 21.8768H2.50722C2.35048 21.8764 2.19608 21.8388 2.05679 21.7669C1.9175 21.695 1.79732 21.591 1.70622 21.4635C1.61511 21.3359 1.55568 21.1885 1.53286 21.0335C1.51004 20.8784 1.52447 20.7201 1.57497 20.5718L7.57497 2.79675C7.64078 2.60032 7.76659 2.42951 7.93465 2.30841C8.10272 2.1873 8.30457 2.12201 8.51172 2.12175L8.50722 2.1255Z" fill="url(#paint0_linear_208_197)"/>
<path d="M17.52 14.9205H7.68524C7.59384 14.9205 7.50454 14.948 7.42898 14.9994C7.35342 15.0509 7.2951 15.1239 7.2616 15.2089C7.2281 15.2939 7.22097 15.3871 7.24115 15.4763C7.26133 15.5654 7.30788 15.6464 7.37475 15.7088L13.695 21.6075C13.8783 21.7784 14.1194 21.8738 14.37 21.8745H19.9395L17.52 14.9205Z" fill="#0078D4"/>
<path d="M8.50728 2.1255C8.29813 2.12474 8.09421 2.19084 7.92529 2.31416C7.75636 2.43748 7.63127 2.61156 7.56827 2.811L1.57953 20.5552C1.52605 20.7043 1.50927 20.8641 1.53058 21.021C1.5519 21.1779 1.61069 21.3274 1.70198 21.4568C1.79328 21.5862 1.91439 21.6917 2.05509 21.7644C2.19578 21.8371 2.35191 21.8749 2.51028 21.8745H7.46027C7.64469 21.8416 7.81705 21.7603 7.95975 21.6389C8.10246 21.5175 8.21039 21.3605 8.27253 21.1837L9.46652 17.664L13.7325 21.6435C13.9113 21.7915 14.1357 21.8733 14.3678 21.8752H19.9178L17.484 14.9212H10.3898L14.7323 2.1255H8.50728Z" fill="url(#paint1_linear_208_197)"/>
<path d="M16.4295 2.79675C16.3639 2.60032 16.2383 2.42947 16.0703 2.30834C15.9023 2.18722 15.7006 2.12194 15.4935 2.12175H8.58148C8.78856 2.12194 8.99035 2.18722 9.15831 2.30834C9.32627 2.42947 9.45191 2.60032 9.51748 2.79675L15.5175 20.5718C15.5676 20.7203 15.5816 20.8787 15.5584 21.0338C15.5352 21.1889 15.4754 21.3362 15.3839 21.4636C15.2924 21.591 15.1719 21.6948 15.0324 21.7664C14.8929 21.8379 14.7383 21.8753 14.5815 21.8752H21.4942C21.6506 21.8744 21.8046 21.8365 21.9434 21.7646C22.0823 21.6926 22.2021 21.5888 22.2929 21.4615C22.3838 21.3342 22.4432 21.1872 22.4661 21.0325C22.4891 20.8778 22.475 20.7199 22.425 20.5718L16.4295 2.79675Z" fill="url(#paint2_linear_208_197)"/>
<defs>
<linearGradient id="paint0_linear_208_197" x1="9.24988" y1="3.61047" x2="3.35466" y2="21.5842" gradientUnits="userSpaceOnUse">
<stop stop-color="#114A8B"/>
<stop offset="1" stop-color="#0669BC"/>
</linearGradient>
<linearGradient id="paint1_linear_208_197" x1="12.434" y1="12.725" x2="11.2424" y2="13.0421" gradientUnits="userSpaceOnUse">
<stop stop-opacity="0.3"/>
<stop offset="0.071" stop-opacity="0.2"/>
<stop offset="0.321" stop-opacity="0.1"/>
<stop offset="0.623" stop-opacity="0.05"/>
<stop offset="1" stop-opacity="0"/>
</linearGradient>
<linearGradient id="paint2_linear_208_197" x1="13.9143" y1="2.88607" x2="20.6484" y2="20.4885" gradientUnits="userSpaceOnUse">
<stop stop-color="#3CCBF4"/>
<stop offset="1" stop-color="#2892DF"/>
</linearGradient>
</defs>
</svg>
