<svg width="24" height="24" viewBox="0 0 24 24" fill="none" xmlns="http://www.w3.org/2000/svg">
<path d="M23.714 12.2245C23.714 11.2413 23.6342 10.5237 23.4616 9.77963H12.2336V14.2176H18.8241C18.6913 15.3205 17.9738 16.9815 16.3793 18.0976L16.3569 18.2461L19.907 20.9963L20.1529 21.0209C22.4118 18.9347 23.714 15.8653 23.714 12.2245Z" fill="#4285F4"/>
<path d="M12.2336 23.9176C15.4624 23.9176 18.173 22.8545 20.1529 21.0209L16.3792 18.0976C15.3694 18.8018 14.014 19.2934 12.2336 19.2934C9.07115 19.2934 6.38709 17.2074 5.43029 14.324L5.29005 14.3359L1.59863 17.1927L1.55035 17.3269C3.51689 21.2334 7.55631 23.9176 12.2336 23.9176Z" fill="#34A853"/>
<path d="M5.43029 14.324C5.17783 13.5799 5.03173 12.7826 5.03173 11.9588C5.03173 11.1349 5.17783 10.3377 5.41701 9.59359L5.41032 9.43511L1.67264 6.5324L1.55035 6.59056C0.739849 8.21166 0.27478 10.0321 0.27478 11.9588C0.27478 13.8855 0.739849 15.7058 1.55035 17.3269L5.43029 14.324Z" fill="#FBBC05"/>
<path d="M12.2336 4.62403C14.4791 4.62403 15.9939 5.59402 16.8576 6.40461L20.2326 3.10928C18.1598 1.1826 15.4624 0 12.2336 0C7.55631 0 3.51689 2.68406 1.55035 6.59056L5.41701 9.59359C6.38709 6.7102 9.07115 4.62403 12.2336 4.62403Z" fill="#EB4335"/>
</svg>
