<svg width="24" height="24" viewBox="0 0 24 24" fill="none" xmlns="http://www.w3.org/2000/svg">
<path fill="currentColor" fill-rule="evenodd" d="m4.614 8.545l-.426 1.705H2a.75.75 0 0 0 0 1.5h20a.75.75 0 0 0 0-1.5h-2.187l-.427-1.705c-.546-2.183-.818-3.274-1.632-3.91C16.94 4 15.815 4 13.565 4h-3.13c-2.25 0-3.375 0-4.189.635c-.814.636-1.087 1.727-1.632 3.91M6.5 21a3.5 3.5 0 0 0 3.384-2.604l1.11-.555a2.25 2.25 0 0 1 2.012 0l1.11.555A3.501 3.501 0 0 0 21 17.5a3.5 3.5 0 0 0-6.91-.794l-.413-.206a3.75 3.75 0 0 0-3.354 0l-.413.206A3.501 3.501 0 0 0 3 17.5A3.5 3.5 0 0 0 6.5 21" clip-rule="evenodd"/>
</svg>