<svg width="24" height="24" viewBox="0 0 24 24" fill="none" xmlns="http://www.w3.org/2000/svg">
<g fill="none" stroke="currentColor" stroke-width="1.5"><path d="M21 17.5a3.5 3.5 0 1 1-7 0a3.5 3.5 0 0 1 7 0Z"/><path stroke-linecap="round" d="M2 11h20M4 11l.614-2.455c.545-2.183.818-3.274 1.632-3.91C7.06 4 8.185 4 10.435 4h3.13c2.25 0 3.375 0 4.189.635c.814.636 1.086 1.727 1.632 3.91L20 11"/><path d="M10 17.5a3.5 3.5 0 1 1-7 0a3.5 3.5 0 0 1 7 0Z"/><path stroke-linecap="round" d="m10 17.5l.658-.33a3 3 0 0 1 2.684 0l.658.33"/></g>
</svg>