<svg width="24" height="24" viewBox="0 0 24 24" fill="none" xmlns="http://www.w3.org/2000/svg">
<path d="M10.4268 13.5732C10.8843 14.0083 10.8843 14.7224 10.4268 15.1576C9.99166 15.5927 9.27758 15.5927 8.84244 15.1576C7.79741 14.111 7.21045 12.6924 7.21045 11.2134C7.21045 9.73439 7.79741 8.31584 8.84244 7.26924L12.7922 3.31949C13.8388 2.27446 15.2573 1.6875 16.7363 1.6875C18.2154 1.6875 19.6339 2.27446 20.6805 3.31949C21.7255 4.36609 22.3125 5.78465 22.3125 7.26366C22.3125 8.74266 21.7255 10.1612 20.6805 11.2078L19.0181 12.8703C19.0292 11.9554 18.8842 11.0405 18.5718 10.1702L19.0962 9.63462C19.4089 9.32521 19.6572 8.95683 19.8267 8.55082C19.9962 8.1448 20.0835 7.7092 20.0835 7.26924C20.0835 6.82927 19.9962 6.39367 19.8267 5.98765C19.6572 5.58164 19.4089 5.21326 19.0962 4.90385C18.7867 4.59107 18.4184 4.34275 18.0123 4.17328C17.6063 4.00381 17.1707 3.91655 16.7308 3.91655C16.2908 3.91655 15.8552 4.00381 15.4492 4.17328C15.0432 4.34275 14.6748 4.59107 14.3654 4.90385L10.4268 8.84244C10.114 9.15185 9.8657 9.52022 9.69623 9.92624C9.52676 10.3323 9.4395 10.7679 9.4395 11.2078C9.4395 11.6478 9.52676 12.0834 9.69623 12.4894C9.8657 12.8954 10.114 13.2638 10.4268 13.5732Z" fill="currentColor"/>
<path d="M13.5732 8.84244C14.0083 8.4073 14.7224 8.4073 15.1576 8.84244C16.2026 9.88904 16.7896 11.3076 16.7896 12.7866C16.7896 14.2656 16.2026 15.6842 15.1576 16.7308L11.2078 20.6805C10.1612 21.7255 8.74267 22.3125 7.26366 22.3125C5.78465 22.3125 4.36609 21.7255 3.31949 20.6805C2.27446 19.6339 1.6875 18.2154 1.6875 16.7363C1.6875 15.2573 2.27446 13.8388 3.31949 12.7922L4.98196 11.1297C4.9708 12.0446 5.11585 12.9595 5.42825 13.841L4.90385 14.3654C4.59107 14.6748 4.34275 15.0432 4.17328 15.4492C4.00381 15.8552 3.91655 16.2908 3.91655 16.7308C3.91655 17.1707 4.00381 17.6063 4.17328 18.0123C4.34275 18.4184 4.59107 18.7867 4.90385 19.0961C5.21326 19.4089 5.58164 19.6572 5.98766 19.8267C6.39367 19.9962 6.82927 20.0834 7.26924 20.0834C7.7092 20.0834 8.1448 19.9962 8.55082 19.8267C8.95683 19.6572 9.32521 19.4089 9.63462 19.0961L13.5732 15.1576C13.886 14.8482 14.1343 14.4798 14.3038 14.0738C14.4732 13.6677 14.5605 13.2321 14.5605 12.7922C14.5605 12.3522 14.4732 11.9166 14.3038 11.5106C14.1343 11.1046 13.886 10.7362 13.5732 10.4268C13.4648 10.3253 13.3785 10.2026 13.3194 10.0663C13.2604 9.93005 13.2299 9.78312 13.2299 9.63462C13.2299 9.48612 13.2604 9.33919 13.3194 9.20293C13.3785 9.06667 13.4648 8.94398 13.5732 8.84244Z" fill="currentColor"/>
<path d="M17.0625 9L16.418 7.58203L15 6.9375L16.418 6.29297L17.0625 4.875L17.707 6.29297L19.125 6.9375L17.707 7.58203L17.0625 9Z" fill="currentColor"/>
</svg>
