<svg xmlns="http://www.w3.org/2000/svg" viewBox="0 0 64 24" height="24" width="64">
<rect x="0" y="0" width="24" height="24" rx="4" fill="#4F8EF7"/>
<path d="M7 6l4 12h-2l-1-3H6l-1 3H3L7 6zm0 3.5L5.7 13h2.6L7 9.5z" fill="white"/>
<path d="M13 6h2v5l3-5h2l-3.5 5.5L20 18h-2l-2.5-4.5L14 16v2h-2V6z" fill="white"/>
<path d="M27 8h4v2h-1.5v8H28V10H27V8z" fill="#000"/>
<path d="M32 8h2v5.5c0 1 .5 1.5 1.5 1.5s1.5-.5 1.5-1.5V8h2v5.5c0 2.5-1.5 3.5-3.5 3.5S32 16 32 13.5V8z" fill="#000"/>
<path d="M41 10h-1.5V8h5V10H43v8h-2v-8z" fill="#000"/>
<path d="M46 8h2v8h-2V8zm1-1a1 1 0 1 1 0-2 1 1 0 0 1 0 2z" fill="#000"/>
<path d="M50 14.5c.2.8.8 1.5 2 1.5.8 0 1.3-.4 1.3-1 0-.7-.5-1-1.8-1.3-1.5-.4-2.5-1-2.5-2.5 0-1.5 1.2-2.5 3-2.5 1.7 0 2.8 1 3 2.3h-2c-.1-.6-.5-1-1.2-1-.6 0-1 .3-1 .8 0 .6.5.8 1.7 1.1 1.8.5 2.6 1.1 2.6 2.6 0 1.7-1.3 2.7-3.2 2.7-2 0-3.2-1.1-3.4-2.7h1.5z" fill="#4F8EF7"/>
<path d="M57 16a1 1 0 1 1 0 2 1 1 0 0 1 0-2z" fill="#4F8EF7"/>
</svg>