<svg width="24" height="24" viewBox="0 0 24 24" fill="none" xmlns="http://www.w3.org/2000/svg">
<g fill="none"><path fill="currentColor" d="M9 16a1 1 0 1 1-2 0a1 1 0 0 1 2 0m4 0a1 1 0 1 1-2 0a1 1 0 0 1 2 0m4 0a1 1 0 1 1-2 0a1 1 0 0 1 2 0"/><path stroke="currentColor" stroke-linecap="round" stroke-width="1.5" d="M6 10V8q0-.511.083-1M18 10V8A6 6 0 0 0 7.5 4.031M11 22H8c-2.828 0-4.243 0-5.121-.879C2 20.243 2 18.828 2 16s0-4.243.879-5.121C3.757 10 5.172 10 8 10h8c2.828 0 4.243 0 5.121.879C22 11.757 22 13.172 22 16s0 4.243-.879 5.121C20.243 22 18.828 22 16 22h-1"/></g>
</svg>