<svg width="24" height="24" viewBox="0 0 24 24" fill="none" xmlns="http://www.w3.org/2000/svg">
<g fill="none" stroke="currentColor" stroke-width="1.5"><path stroke-linecap="round" stroke-linejoin="round" d="M21.067 5c.592.958.933 2.086.933 3.293c0 3.476-2.83 6.294-6.32 6.294c-.636 0-2.086-.146-2.791-.732l-.882.878c-.735.732-.147.732.147 1.317c0 0 .735 1.025 0 2.05c-.441.585-1.676 1.404-3.086 0l-.294.292s.881 1.025.147 2.05c-.441.585-1.617 1.17-2.646.146l-1.028 1.024c-.706.703-1.568.293-1.91 0l-.883-.878c-.823-.82-.343-1.708 0-2.05l7.642-7.61s-.735-1.17-.735-2.78c0-3.476 2.83-6.294 6.32-6.294c.819 0 1.601.155 2.319.437"/><path d="M17.885 8.294a2.2 2.2 0 0 1-2.204 2.195a2.2 2.2 0 0 1-2.205-2.195a2.2 2.2 0 0 1 2.205-2.196a2.2 2.2 0 0 1 2.204 2.196Z"/></g>
</svg>