<svg width="24" height="24" viewBox="0 0 24 24" fill="none" xmlns="http://www.w3.org/2000/svg">
<path fill="currentColor" d="M2 16c0-2.828 0-4.243.879-5.121C3.757 10 5.172 10 8 10h8c2.828 0 4.243 0 5.121.879C22 11.757 22 13.172 22 16s0 4.243-.879 5.121C20.243 22 18.828 22 16 22H8c-2.828 0-4.243 0-5.121-.879C2 20.243 2 18.828 2 16" opacity=".5"/><path fill="currentColor" d="M8 17a1 1 0 1 0 0-2a1 1 0 0 0 0 2m4 0a1 1 0 1 0 0-2a1 1 0 0 0 0 2m5-1a1 1 0 1 1-2 0a1 1 0 0 1 2 0M6.75 8a5.25 5.25 0 0 1 10.5 0v2.004c.567.005 1.064.018 1.5.05V8a6.75 6.75 0 0 0-13.5 0v2.055a24 24 0 0 1 1.5-.051z"/>
</svg>