<svg width="24" height="24" viewBox="0 0 24 24" fill="none" xmlns="http://www.w3.org/2000/svg">
<g fill="none" stroke="currentColor"><path stroke-width="1.5" d="M2 16c0-2.828 0-4.243.879-5.121C3.757 10 5.172 10 8 10h8c2.828 0 4.243 0 5.121.879C22 11.757 22 13.172 22 16s0 4.243-.879 5.121C20.243 22 18.828 22 16 22H8c-2.828 0-4.243 0-5.121-.879C2 20.243 2 18.828 2 16Z"/><path stroke-linecap="round" stroke-width="1.5" d="M6 10V8a6 6 0 1 1 12 0v2"/><path stroke-linecap="round" stroke-linejoin="round" stroke-width="2" d="M8 16h.009m3.982 0H12m3.991 0H16"/></g>
</svg>