<svg width="24" height="24" viewBox="0 0 24 24" fill="none" xmlns="http://www.w3.org/2000/svg">
<path d="M24 4.54219C23.1013 4.94032 22.148 5.20166 21.1719 5.3175C22.1887 4.70813 22.9693 3.74316 23.3369 2.59341C22.3704 3.16696 21.3129 3.57106 20.2103 3.78825C19.312 2.83134 18.0324 2.23331 16.6162 2.23331C13.8968 2.23331 11.6921 4.43794 11.6921 7.15706C11.6921 7.54303 11.7357 7.91878 11.8196 8.27925C7.72744 8.07384 4.09931 6.11362 1.67072 3.13463C1.24697 3.86184 1.00416 4.70775 1.00416 5.61C1.00416 7.31831 1.8735 8.82534 3.19462 9.70837C2.4127 9.68389 1.64798 9.4727 0.964313 9.09244C0.964031 9.11306 0.964031 9.13369 0.964031 9.15441C0.964031 11.5401 2.66128 13.5302 4.91372 13.9825C4.18864 14.1797 3.42809 14.2086 2.69016 14.0669C3.31669 16.0231 5.13516 17.4466 7.28972 17.4864C5.60456 18.807 3.48141 19.5942 1.17459 19.5942C0.777094 19.5942 0.385219 19.5709 0 19.5254C2.17903 20.9225 4.76719 21.7376 7.54781 21.7376C16.6047 21.7376 21.5573 14.2347 21.5573 7.72809C21.5573 7.51453 21.5526 7.30219 21.543 7.09106C22.507 6.3942 23.339 5.53108 24 4.54219Z" fill="#55ACEE"/>
</svg>
