<svg width="21" height="24" viewBox="0 0 21 24" fill="none" xmlns="http://www.w3.org/2000/svg">
<path d="M18.915 10.7451C23.0272 4.1109 14.7839 -2.72371 8.92522 1.1041L3.35347 4.65638C0.655397 6.41358 -0.516057 9.7898 1.12926 13.2594C-2.98454 19.4999 5.02012 26.8076 11.1191 22.9044L16.6908 19.3522C19.7224 17.3561 20.4179 13.9138 18.915 10.7452V10.7451ZM4.96541 6.95358L10.529 3.40332C14.184 1.21524 18.3926 5.04122 16.8753 8.60607C15.9741 7.8901 14.9698 7.4499 14.2071 7.25166C14.497 6.09994 13.1601 5.2456 12.2301 5.84044L6.65437 9.37857C5.27572 10.3314 6.74558 12.2913 8.10815 11.469L10.233 10.1146C15.0013 7.42379 19.5142 13.8845 15.0789 17.0509L9.51524 20.6011C6.16255 22.7449 1.59951 19.3106 3.16897 15.3984C4.00269 16.0295 4.88821 16.4935 5.83724 16.7528C5.62771 18.0757 6.96252 18.7189 7.8283 18.1762L13.39 14.6259C14.7625 13.5968 13.2892 11.7341 11.9383 12.5355L9.80526 13.8899C5.09151 16.6448 0.473569 10.1202 4.96541 6.95358Z" fill="black"/>
</svg>
