<svg width="24" height="24" viewBox="0 0 24 24" fill="none" xmlns="http://www.w3.org/2000/svg">
<path d="M18.2301 11.1217C21.1087 6.47773 15.3383 1.6935 11.2372 4.37297L7.337 6.85957C5.44834 8.08961 4.62832 10.453 5.78004 12.8817C2.90038 17.2501 8.50365 22.3655 12.7729 19.6332L16.6732 17.1466C18.7952 15.7494 19.2821 13.3398 18.2301 11.1217V11.1217ZM8.46536 8.46761L12.3599 5.98242C14.9184 4.45077 17.8644 7.12896 16.8023 9.62435C16.1715 9.12318 15.4685 8.81503 14.9345 8.67627C15.1375 7.87006 14.2016 7.27202 13.5507 7.68841L9.64763 10.1651C8.68258 10.8321 9.71148 12.204 10.6653 11.6284L12.1527 10.6803C15.4905 8.79676 18.6495 13.3192 15.5448 15.5357L11.6502 18.0209C9.30336 19.5215 6.10922 17.1175 7.20785 14.379C7.79145 14.8207 8.41131 15.1456 9.07564 15.3271C8.92896 16.2531 9.86333 16.7033 10.4694 16.3234L14.3626 13.8382C15.3233 13.1178 14.292 11.814 13.3464 12.375L11.8533 13.3231C8.55362 15.2514 5.32106 10.6843 8.46536 8.46761Z" fill="black"/>
</svg>
