<svg width="24" height="24" viewBox="0 0 24 24" fill="none" xmlns="http://www.w3.org/2000/svg">
<path fill-rule="evenodd" clip-rule="evenodd" d="M7.263 3.259C7.32245 2.70719 7.58374 2.19683 7.99666 1.82599C8.40959 1.45515 8.945 1.25001 9.5 1.25H14.5C15.055 1.25001 15.5904 1.45515 16.0033 1.82599C16.4163 2.19683 16.6776 2.70719 16.737 3.259C17.5 3.274 18.16 3.314 18.724 3.417C19.482 3.557 20.127 3.822 20.652 4.347C21.254 4.949 21.512 5.707 21.634 6.607C21.75 7.473 21.75 8.576 21.75 9.943V16.053C21.75 17.421 21.75 18.523 21.634 19.39C21.512 20.29 21.254 21.048 20.652 21.65C20.05 22.252 19.292 22.51 18.392 22.632C17.525 22.748 16.422 22.748 15.055 22.748H8.945C7.578 22.748 6.475 22.748 5.608 22.632C4.708 22.511 3.95 22.252 3.348 21.65C2.746 21.048 2.488 20.29 2.367 19.39C2.25 18.523 2.25 17.42 2.25 16.053V9.943C2.25 8.576 2.25 7.473 2.367 6.607C2.487 5.707 2.747 4.949 3.348 4.347C3.873 3.822 4.518 3.557 5.276 3.417C5.84 3.314 6.5 3.274 7.263 3.259ZM7.265 4.759C6.547 4.774 5.993 4.811 5.547 4.893C4.981 4.997 4.652 5.163 4.409 5.407C4.132 5.684 3.952 6.073 3.853 6.807C3.752 7.562 3.75 8.563 3.75 9.998V15.998C3.75 17.434 3.752 18.435 3.853 19.19C3.952 19.924 4.133 20.312 4.409 20.59C4.686 20.866 5.074 21.047 5.809 21.145C6.563 21.247 7.565 21.248 9 21.248H15C16.435 21.248 17.436 21.247 18.192 21.145C18.926 21.047 19.314 20.866 19.591 20.589C19.868 20.313 20.048 19.924 20.147 19.19C20.248 18.435 20.25 17.434 20.25 15.998V9.998C20.25 8.563 20.248 7.562 20.147 6.806C20.048 6.073 19.867 5.684 19.591 5.407C19.347 5.164 19.019 4.997 18.453 4.893C18.007 4.811 17.453 4.774 16.735 4.759C16.6715 5.30721 16.4087 5.81296 15.9966 6.18005C15.5845 6.54715 15.0519 6.74999 14.5 6.75H9.5C8.94827 6.75002 8.41577 6.54732 8.00371 6.18043C7.59165 5.81354 7.32876 5.30803 7.265 4.76M9.5 2.75C9.30109 2.75 9.11032 2.82902 8.96967 2.96967C8.82902 3.11032 8.75 3.30109 8.75 3.5V4.5C8.75 4.914 9.086 5.25 9.5 5.25H14.5C14.6989 5.25 14.8897 5.17098 15.0303 5.03033C15.171 4.88968 15.25 4.69891 15.25 4.5V3.5C15.25 3.30109 15.171 3.11032 15.0303 2.96967C14.8897 2.82902 14.6989 2.75 14.5 2.75H9.5ZM15.548 10.488C15.6838 10.6333 15.7563 10.8267 15.7495 11.0255C15.7428 11.2242 15.6573 11.4122 15.512 11.548L11.226 15.548C11.0871 15.6778 10.9041 15.75 10.714 15.75C10.5239 15.75 10.3409 15.6778 10.202 15.548L8.488 13.948C8.41494 13.881 8.35588 13.8003 8.31422 13.7104C8.27256 13.6204 8.24913 13.5232 8.24529 13.4241C8.24145 13.3251 8.25728 13.2263 8.29185 13.1334C8.32642 13.0406 8.37905 12.9555 8.44671 12.8831C8.51436 12.8106 8.59569 12.7524 8.68601 12.7116C8.77632 12.6708 8.87382 12.6483 8.97288 12.6454C9.07193 12.6425 9.17058 12.6593 9.26312 12.6947C9.35565 12.7302 9.44024 12.7837 9.512 12.852L10.714 13.974L14.488 10.452C14.6333 10.3162 14.8267 10.2437 15.0255 10.2505C15.2242 10.2572 15.4122 10.3427 15.548 10.488Z" fill="black"/>
</svg>
