<svg width="24" height="24" viewBox="0 0 24 24" fill="none" xmlns="http://www.w3.org/2000/svg">
<path fill-rule="evenodd" clip-rule="evenodd" d="M12 22C7.286 22 4.929 22 3.464 20.535C2 19.072 2 16.714 2 12C2 7.286 2 4.929 3.464 3.464C4.93 2 7.286 2 12 2C16.714 2 19.071 2 20.535 3.464C22 4.93 22 7.286 22 12C22 16.714 22 19.071 20.535 20.535C19.072 22 16.714 22 12 22ZM8.97 8.97C9.11063 8.82955 9.30125 8.75066 9.5 8.75066C9.69875 8.75066 9.88937 8.82955 10.03 8.97L12 10.94L13.97 8.97C14.1122 8.83752 14.3002 8.7654 14.4945 8.76882C14.6888 8.77225 14.8742 8.85097 15.0116 8.98838C15.149 9.12579 15.2277 9.31118 15.2312 9.50548C15.2346 9.69978 15.1625 9.88782 15.03 10.03L13.06 12L15.03 13.97C15.1037 14.0387 15.1628 14.1215 15.2038 14.2135C15.2448 14.3055 15.2668 14.4048 15.2686 14.5055C15.2704 14.6062 15.2518 14.7062 15.2141 14.7996C15.1764 14.893 15.1203 14.9778 15.049 15.049C14.9778 15.1203 14.893 15.1764 14.7996 15.2141C14.7062 15.2518 14.6062 15.2704 14.5055 15.2686C14.4048 15.2668 14.3055 15.2448 14.2135 15.2038C14.1215 15.1628 14.0387 15.1037 13.97 15.03L12 13.06L10.03 15.03C9.96134 15.1037 9.87854 15.1628 9.78654 15.2038C9.69454 15.2448 9.59522 15.2668 9.49452 15.2686C9.39382 15.2704 9.29379 15.2518 9.2004 15.2141C9.10701 15.1764 9.02218 15.1203 8.95096 15.049C8.87974 14.9778 8.8236 14.893 8.78588 14.7996C8.74816 14.7062 8.72963 14.6062 8.73141 14.5055C8.73318 14.4048 8.75523 14.3055 8.79622 14.2135C8.83721 14.1215 8.89631 14.0387 8.97 13.97L10.94 12L8.97 10.03C8.82955 9.88937 8.75066 9.69875 8.75066 9.5C8.75066 9.30125 8.82955 9.11063 8.97 8.97Z" fill="black"/>
</svg>
