<svg width="24" height="24" viewBox="0 0 24 24" fill="none" xmlns="http://www.w3.org/2000/svg">
<path fill-rule="evenodd" clip-rule="evenodd" d="M18.172 2H5C3.343 2 2 3.343 2 5V19C2 20.657 3.343 22 5 22H19C20.657 22 22 20.657 22 19V5.828C22 5.033 21.684 4.27 21.121 3.707L20.293 2.879C19.73 2.316 18.967 2 18.172 2ZM12 18C13.657 18 15 16.657 15 15C15 13.343 13.657 12 12 12C10.343 12 9 13.343 9 15C9 16.657 10.343 18 12 18ZM6 4H15V8C15 8.552 14.552 9 14 9H7C6.448 9 6 8.552 6 8V4Z" fill="black"/>
</svg>
