<svg width="24" height="24" viewBox="0 0 24 24" fill="none" xmlns="http://www.w3.org/2000/svg">
<path d="M12 2C6.47715 2 2 6.47715 2 12C2 17.5228 6.47715 22 12 22C17.5228 22 22 17.5228 22 12C22 6.47715 17.5228 2 12 2ZM12 20C7.58172 20 4 16.4183 4 12C4 7.58172 7.58172 4 12 4C16.4183 4 20 7.58172 20 12C20 16.4183 16.4183 20 12 20Z" fill="black"/>
<path d="M15.5355 8.46447C15.1449 8.07394 14.5118 8.07394 14.1213 8.46447L12 10.5858L9.87868 8.46447C9.48816 8.07394 8.85499 8.07394 8.46447 8.46447C8.07394 8.85499 8.07394 9.48816 8.46447 9.87868L10.5858 12L8.46447 14.1213C8.07394 14.5118 8.07394 15.1449 8.46447 15.5355C8.85499 15.926 9.48816 15.926 9.87868 15.5355L12 13.4142L14.1213 15.5355C14.5118 15.926 15.1449 15.926 15.5355 15.5355C15.926 15.1449 15.926 14.5118 15.5355 14.1213L13.4142 12L15.5355 9.87868C15.926 9.48816 15.926 8.85499 15.5355 8.46447Z" fill="black"/>
</svg>
