<svg width="24" height="24" viewBox="0 0 24 24" fill="none" xmlns="http://www.w3.org/2000/svg">
<path d="M9.00195 7C9.01395 4.825 9.11095 3.647 9.87895 2.879C10.758 2 12.172 2 15 2H16C18.829 2 20.243 2 21.122 2.879C22 3.757 22 5.172 22 8V16C22 18.828 22 20.243 21.122 21.121C20.242 22 18.829 22 16 22H15C12.172 22 10.758 22 9.87895 21.121C9.11095 20.353 9.01395 19.175 9.00195 17" stroke="black" stroke-width="1.5" stroke-linecap="round"/>
<path d="M15 12H2M2 12L5.5 9M2 12L5.5 15" stroke="black" stroke-width="1.5" stroke-linecap="round" stroke-linejoin="round"/>
</svg>
