<svg width="24" height="24" viewBox="0 0 24 24" fill="none" xmlns="http://www.w3.org/2000/svg">
<path d="M10.44 2.335C10.345 1.926 9.934 1.674 9.524 1.77C9.115 1.865 8.863 2.276 8.958 2.686L9.936 7H5.75C5.336 7 5 7.336 5 7.75C5 8.164 5.336 8.5 5.75 8.5H10.276L11.116 12.5H6.75C6.336 12.5 6 12.836 6 13.25C6 13.664 6.336 14 6.75 14H11.456L12.46 18.665C12.555 19.074 12.966 19.326 13.376 19.23C13.785 19.135 14.037 18.724 13.942 18.314L13.028 14H16.456L17.46 18.665C17.555 19.074 17.966 19.326 18.376 19.23C18.785 19.135 19.037 18.724 18.942 18.314L18.028 14H21.25C21.664 14 22 13.664 22 13.25C22 12.836 21.664 12.5 21.25 12.5H17.688L16.848 8.5H20.25C20.664 8.5 21 8.164 21 7.75C21 7.336 20.664 7 20.25 7H16.508L15.44 2.335C15.345 1.926 14.934 1.674 14.524 1.77C14.115 1.865 13.863 2.276 13.958 2.686L14.936 7H11.508L10.44 2.335ZM11.848 8.5L12.688 12.5H16.116L15.276 8.5H11.848Z" fill="black"/>
</svg>
