<svg width="24" height="24" viewBox="0 0 24 24" fill="none" xmlns="http://www.w3.org/2000/svg">
<path d="M12 4.89L14.07 9.075L14.415 9.825L15.165 9.9375L19.785 10.605L16.5 13.83L15.9375 14.3775L16.0725 15.1275L16.86 19.725L12.7275 17.5575L12 17.25L11.3025 17.6175L7.17001 19.755L7.92001 15.1575L8.05501 14.4075L7.50001 13.83L4.18501 10.5675L8.80501 9.9L9.55501 9.7875L9.90001 9.0375L12 4.89ZM12 1.5L8.58751 8.415L0.960007 9.5175L6.48001 14.9025L5.17501 22.5L12 18.915L18.825 22.5L17.52 14.9025L23.04 9.525L15.4125 8.415L12 1.5Z" fill="black"/>
</svg>
