<svg width="24" height="24" viewBox="0 0 24 24" fill="none" xmlns="http://www.w3.org/2000/svg">
<path fill-rule="evenodd" clip-rule="evenodd" d="M10 3C10.5304 3 11.0391 3.21071 11.4142 3.58579C11.7893 3.96086 12 4.46957 12 5V19C12 19.5304 11.7893 20.0391 11.4142 20.4142C11.0391 20.7893 10.5304 21 10 21H5C4.46957 21 3.96086 20.7893 3.58579 20.4142C3.21071 20.0391 3 19.5304 3 19V5C3 4.46957 3.21071 3.96086 3.58579 3.58579C3.96086 3.21071 4.46957 3 5 3H10ZM19.66 12.111C20.391 12.367 20.93 13.035 20.994 13.838L21 19C21.0002 19.5046 20.8096 19.9906 20.4665 20.3605C20.1234 20.7305 19.6532 20.9572 19.15 20.995L19 21H13V18.77L19.66 12.111ZM7.5 15C7.10218 15 6.72064 15.158 6.43934 15.4393C6.15804 15.7206 6 16.1022 6 16.5C6 16.8978 6.15804 17.2794 6.43934 17.5607C6.72064 17.842 7.10218 18 7.5 18C7.89782 18 8.27936 17.842 8.56066 17.5607C8.84196 17.2794 9 16.8978 9 16.5C9 16.1022 8.84196 15.7206 8.56066 15.4393C8.27936 15.158 7.89782 15 7.5 15ZM13.636 4C13.9899 3.64605 14.4637 3.43767 14.9637 3.41601C15.4638 3.39435 15.9538 3.56098 16.337 3.883L16.464 4L20 7.536C20.3366 7.87266 20.542 8.31832 20.5794 8.79288C20.6168 9.26745 20.4837 9.73979 20.204 10.125L13 17.357V4.636L13.636 4Z" fill="black"/>
</svg>
