<svg width="128" height="128" viewBox="0 0 128 128" fill="none" xmlns="http://www.w3.org/2000/svg">
<path d="M63.8661 97.314C84.7789 97.314 101.732 80.3608 101.732 59.448C101.732 38.5351 84.7789 21.5819 63.8661 21.5819C42.9532 21.5819 26 38.5351 26 59.448C26 80.3608 42.9532 97.314 63.8661 97.314Z" fill="#EF4444"/>
<path opacity="0.66" d="M61.187 73.1679C55.9101 72.0197 50.7028 75.3714 49.5547 80.6483C46.5741 94.3798 54.1705 105.432 50.1345 124C54.1705 105.432 65.6753 98.5318 68.6675 84.8002C69.8156 79.5234 66.4639 74.316 61.187 73.1679Z" fill="#FD9235"/>
<path d="M61.187 73.1678C57.6498 72.4024 54.1589 74.6407 53.3935 78.178C51.3987 87.3633 56.49 94.7625 53.7878 107.195C56.49 94.7625 64.2024 90.1467 66.1972 80.9614C66.9626 77.4242 64.7127 73.9333 61.187 73.1678Z" fill="white"/>
<path d="M67.9831 77.2502L53.0339 73.9217C52.9179 73.8985 52.8483 73.7825 52.8715 73.6666L53.6138 70.3265L68.9805 73.7478L68.2383 77.0879C68.2151 77.1922 68.0991 77.2734 67.9831 77.2502Z" fill="url(#paint0_linear_372_265)"/>
<path d="M50.1345 46.5746L39.0124 56.5601C37.6787 57.7547 36.9365 59.4827 36.9713 61.2688L37.3192 78.3636C37.3308 78.9203 37.9339 79.2566 38.421 78.9782L53.8341 70.1873L50.1345 46.5746Z" fill="url(#paint1_linear_372_265)"/>
<path d="M82.0511 53.5215L88.0122 67.2299C88.7313 68.8767 88.6965 70.7439 87.9194 72.3676L80.497 87.7692C80.2534 88.2679 79.5576 88.3258 79.2444 87.8735L68.8762 73.481L82.0511 53.5215Z" fill="url(#paint2_linear_372_265)"/>
<path d="M76.3914 4C59.2618 12.6866 43.06 48.3955 50.8883 68.7492C51.1319 69.3755 51.619 69.8278 52.2105 69.967L70.3491 74.0145C70.9405 74.1421 71.5668 73.9449 72.0539 73.481C87.7802 58.3694 88.2209 19.1464 76.3914 4Z" fill="url(#paint3_linear_372_265)"/>
<path d="M76.3914 4C70.1983 7.13134 64.2372 13.6608 59.3778 21.8602C61.8017 22.6953 84.7881 27.7054 84.243 27.5431C83.3152 18.0678 80.6593 9.46245 76.3914 4Z" fill="url(#paint4_linear_372_265)"/>
<path d="M74.0139 46.505C70.4534 49.6248 65.0374 49.2653 61.9176 45.7048C58.7979 42.1444 59.1574 36.7283 62.7179 33.6086C66.2783 30.4888 71.6944 30.8483 74.8141 34.4088C77.9339 37.9692 77.5743 43.3853 74.0139 46.505Z" fill="url(#paint5_linear_372_265)"/>
<path d="M75.2896 40.5207C75.0345 44.3479 71.7292 47.2473 67.902 46.9921C64.0748 46.737 61.1754 43.4317 61.4305 39.6045C61.6857 35.7773 64.991 32.8779 68.8182 33.1331C72.6454 33.3882 75.5448 36.6935 75.2896 40.5207Z" fill="#F15A29"/>
<path d="M75.2896 40.5207C75.394 38.9087 74.9417 37.3894 74.0835 36.1484C74.0487 36.334 74.0255 36.5196 74.0023 36.7051C73.9211 37.5633 73.9095 38.4564 73.492 39.2102C73.1093 39.906 72.3786 40.4047 71.59 40.5091C70.465 40.6599 69.3169 40.0452 68.1919 40.2888C66.835 40.5787 65.9652 42.0284 64.6199 42.3531C63.982 42.5039 63.3093 42.3879 62.6947 42.1444C62.2656 41.982 61.848 41.7385 61.5465 41.3905C62.138 44.4059 64.6779 46.7718 67.8904 46.9922C71.7292 47.2357 75.0461 44.3479 75.2896 40.5207Z" fill="#F15A29"/>
<g opacity="0.4">
<path d="M69.8039 34.4552C69.6532 34.4204 69.514 34.3972 69.3632 34.3856C69.2125 34.3624 69.0617 34.4088 68.9341 34.5016C68.8066 34.5944 68.737 34.7335 68.7138 34.8843C68.679 35.1858 68.8645 35.4526 69.1661 35.5222L69.2241 35.5338C69.34 35.5454 69.456 35.5686 69.572 35.5918C69.7228 35.6265 69.8735 35.5918 70.0127 35.5106C70.1403 35.4294 70.2331 35.3018 70.2678 35.1511C70.3142 34.8379 70.1171 34.5248 69.8039 34.4552Z" fill="white"/>
<path d="M67.8208 34.4552C67.6933 34.3624 67.5425 34.3276 67.3917 34.3508C65.8261 34.6176 64.4228 35.5222 63.5413 36.8559C63.3674 37.1226 63.437 37.4822 63.7037 37.6561C63.7617 37.6909 63.8313 37.7257 63.9009 37.7373C64.1328 37.7837 64.3764 37.6909 64.5039 37.4938C65.223 36.4152 66.3132 35.7077 67.5889 35.499C67.7397 35.4758 67.8788 35.3946 67.96 35.267C68.0528 35.1395 68.0876 34.9887 68.0644 34.8379C68.0296 34.6756 67.9484 34.548 67.8208 34.4552Z" fill="white"/>
</g>
<path d="M51.7698 65.6759C51.8974 67.114 52.0598 68.5521 52.2801 69.9902L60.2245 71.7182C60.1317 71.463 60.0505 71.2079 59.9577 70.9528C59.749 70.3033 59.5518 69.6306 59.3546 68.9464C58.9835 67.5895 58.682 66.1977 58.4036 64.7944C57.8817 61.9878 57.557 59.1232 57.4178 56.2354C57.1627 50.4599 57.6614 44.6031 58.9603 38.8739C59.6214 36.0093 60.3984 33.1679 61.4422 30.3845L61.8133 29.3407L62.2308 28.3085L63.0659 26.2441L63.9937 24.2146L64.4576 23.194L64.9679 22.1966C67.6585 16.8733 70.9638 11.8168 74.733 7.09656C70.4883 11.3877 66.6263 16.1079 63.3094 21.2456L62.6831 22.2082L62.1033 23.194L60.9319 25.1656L59.8417 27.1951L59.2966 28.2157L58.798 29.2595C57.4178 32.0197 56.2813 34.8959 55.2723 37.8301C53.2659 43.6985 52.0598 49.8916 51.677 56.1775C51.5031 59.3436 51.5263 62.5097 51.7698 65.6759Z" fill="white"/>
<path d="M57.8585 87.4793C56.5596 87.1894 55.7245 85.9136 55.9913 84.6031L59.2966 68.3317C59.7025 66.3137 60.3172 64.3538 61.1174 62.4634L64.4227 54.7742L65.8028 55.0757L65.5245 63.4376C65.4549 65.4903 65.1766 67.5315 64.6895 69.5263L60.7695 85.6701C60.4563 86.969 59.1574 87.7692 57.8585 87.4793Z" fill="url(#paint6_linear_372_265)"/>
<defs>
<linearGradient id="paint0_linear_372_265" x1="60.5371" y1="75.5908" x2="61.328" y2="71.956" gradientUnits="userSpaceOnUse">
<stop stop-color="white"/>
<stop offset="0.129" stop-color="#EFF6FF"/>
<stop offset="0.5153" stop-color="#C6DFFF"/>
<stop offset="0.8188" stop-color="#ACD0FF"/>
<stop offset="1" stop-color="#A2CBFF"/>
</linearGradient>
<linearGradient id="paint1_linear_372_265" x1="108.785" y1="37.6049" x2="39.3351" y2="64.7141" gradientUnits="userSpaceOnUse">
<stop offset="0.00765814" stop-color="#EF4136"/>
<stop offset="0.4196" stop-color="#EF4337"/>
<stop offset="0.568" stop-color="#F04A38"/>
<stop offset="0.6737" stop-color="#F1553C"/>
<stop offset="0.7593" stop-color="#F36641"/>
<stop offset="0.8326" stop-color="#F57C47"/>
<stop offset="0.8974" stop-color="#F7984F"/>
<stop offset="0.9547" stop-color="#FAB758"/>
<stop offset="1" stop-color="#FDD661"/>
</linearGradient>
<linearGradient id="paint2_linear_372_265" x1="32.4828" y1="20.9552" x2="84.4028" y2="74.4572" gradientUnits="userSpaceOnUse">
<stop offset="0.00765814" stop-color="#EF4136"/>
<stop offset="0.4196" stop-color="#EF4337"/>
<stop offset="0.568" stop-color="#F04A38"/>
<stop offset="0.6737" stop-color="#F1553C"/>
<stop offset="0.7593" stop-color="#F36641"/>
<stop offset="0.8326" stop-color="#F57C47"/>
<stop offset="0.8974" stop-color="#F7984F"/>
<stop offset="0.9547" stop-color="#FAB758"/>
<stop offset="1" stop-color="#FDD661"/>
</linearGradient>
<linearGradient id="paint3_linear_372_265" x1="52.599" y1="19.1373" x2="83.0239" y2="66.4717" gradientUnits="userSpaceOnUse">
<stop stop-color="white"/>
<stop offset="0.2088" stop-color="#FBFDFF"/>
<stop offset="0.416" stop-color="#EFF6FF"/>
<stop offset="0.6226" stop-color="#DBEBFF"/>
<stop offset="0.8275" stop-color="#BFDBFF"/>
<stop offset="1" stop-color="#A2CBFF"/>
</linearGradient>
<linearGradient id="paint4_linear_372_265" x1="78.8145" y1="-5.20861" x2="71.808" y2="24.7491" gradientUnits="userSpaceOnUse">
<stop stop-color="#FDD661"/>
<stop offset="0.6574" stop-color="#F47144"/>
<stop offset="1" stop-color="#EF4136"/>
</linearGradient>
<linearGradient id="paint5_linear_372_265" x1="63.7619" y1="32.8577" x2="72.9568" y2="47.3257" gradientUnits="userSpaceOnUse">
<stop stop-color="#FCC715"/>
<stop offset="0.0833177" stop-color="#FCC019"/>
<stop offset="0.4305" stop-color="#FDA729"/>
<stop offset="0.7462" stop-color="#FD9732"/>
<stop offset="1" stop-color="#FD9235"/>
</linearGradient>
<linearGradient id="paint6_linear_372_265" x1="54.7709" y1="60.9749" x2="68.1227" y2="81.749" gradientUnits="userSpaceOnUse">
<stop stop-color="#FDD661"/>
<stop offset="0.5015" stop-color="#FCA22E"/>
<stop offset="1" stop-color="#FC7200"/>
</linearGradient>
</defs>
</svg>
