<svg width="128" height="128" viewBox="0 0 128 128" fill="none" xmlns="http://www.w3.org/2000/svg">
<g clip-path="url(#clip0_372_265)">
<g filter="url(#filter0_d_372_265)">
<path d="M63 109C87.3005 109 107 89.3005 107 65C107 40.6995 87.3005 21 63 21C38.6995 21 19 40.6995 19 65C19 89.3005 38.6995 109 63 109Z" fill="#EF4444"/>
</g>
<g filter="url(#filter1_d_372_265)">
<path d="M61.2169 77.1679C55.94 76.0197 50.7327 79.3714 49.5846 84.6483C46.604 98.3798 54.2004 109.432 50.1645 128C54.2004 109.432 65.7052 102.532 68.6974 88.8002C69.8455 83.5234 66.4938 78.316 61.2169 77.1679Z" fill="#FD9235" fill-opacity="0.66"/>
<path d="M61.2169 77.1678C57.6797 76.4024 54.1888 78.6407 53.4234 82.178C51.4286 91.3633 56.5199 98.7625 53.8177 111.195C56.5199 98.7625 64.2323 94.1467 66.2271 84.9614C66.9925 81.4242 64.7426 77.9333 61.2169 77.1678Z" fill="white"/>
<path d="M68.013 81.2502L53.0638 77.9217C52.9478 77.8985 52.8782 77.7825 52.9014 77.6666L53.6437 74.3265L69.0104 77.7478L68.2682 81.0879C68.245 81.1922 68.129 81.2734 68.013 81.2502Z" fill="url(#paint0_linear_372_265)"/>
<path d="M50.1644 50.5746L39.0423 60.5601C37.7086 61.7547 36.9664 63.4827 37.0012 65.2688L37.3491 82.3636C37.3607 82.9203 37.9638 83.2566 38.4509 82.9782L53.864 74.1873L50.1644 50.5746Z" fill="url(#paint1_linear_372_265)"/>
<path d="M82.081 57.5215L88.0421 71.2299C88.7612 72.8767 88.7264 74.7439 87.9493 76.3676L80.5269 91.7692C80.2833 92.2679 79.5875 92.3258 79.2743 91.8735L68.9061 77.481L82.081 57.5215Z" fill="url(#paint2_linear_372_265)"/>
<path d="M76.4213 8C59.2917 16.6866 43.0899 52.3955 50.9182 72.7492C51.1618 73.3755 51.6489 73.8278 52.2404 73.967L70.379 78.0145C70.9704 78.1421 71.5967 77.9449 72.0838 77.481C87.8101 62.3694 88.2508 23.1464 76.4213 8Z" fill="url(#paint3_linear_372_265)"/>
<path d="M76.4213 8C70.2282 11.1313 64.2671 17.6608 59.4077 25.8602C61.8316 26.6953 84.818 31.7054 84.2729 31.5431C83.3451 22.0678 80.6892 13.4625 76.4213 8Z" fill="url(#paint4_linear_372_265)"/>
<path d="M74.0438 50.505C70.4834 53.6248 65.0673 53.2653 61.9475 49.7048C58.8278 46.1444 59.1873 40.7283 62.7478 37.6086C66.3082 34.4888 71.7243 34.8483 74.844 38.4088C77.9638 41.9692 77.6043 47.3853 74.0438 50.505Z" fill="url(#paint5_linear_372_265)"/>
<path d="M75.3195 44.5207C75.0644 48.3479 71.7591 51.2473 67.9319 50.9921C64.1047 50.737 61.2053 47.4317 61.4605 43.6045C61.7156 39.7773 65.0209 36.8779 68.8481 37.1331C72.6753 37.3882 75.5747 40.6935 75.3195 44.5207Z" fill="#F15A29"/>
<path d="M75.3195 44.5207C75.4239 42.9087 74.9716 41.3894 74.1134 40.1484C74.0786 40.334 74.0554 40.5196 74.0322 40.7051C73.951 41.5633 73.9394 42.4564 73.5219 43.2102C73.1392 43.906 72.4085 44.4047 71.6199 44.5091C70.4949 44.6599 69.3468 44.0452 68.2218 44.2888C66.8649 44.5787 65.9951 46.0284 64.6498 46.3531C64.0119 46.5039 63.3392 46.3879 62.7246 46.1444C62.2955 45.982 61.878 45.7385 61.5764 45.3905C62.1679 48.4059 64.7078 50.7718 67.9203 50.9922C71.7591 51.2357 75.076 48.3479 75.3195 44.5207Z" fill="#F15A29"/>
<g opacity="0.4">
<path d="M69.8338 38.4552C69.6831 38.4204 69.5439 38.3972 69.3931 38.3856C69.2424 38.3624 69.0916 38.4088 68.964 38.5016C68.8365 38.5944 68.7669 38.7335 68.7437 38.8843C68.7089 39.1858 68.8944 39.4526 69.196 39.5222L69.254 39.5338C69.3699 39.5454 69.4859 39.5686 69.6019 39.5918C69.7527 39.6265 69.9034 39.5918 70.0426 39.5106C70.1702 39.4294 70.263 39.3018 70.2978 39.1511C70.3441 38.8379 70.147 38.5248 69.8338 38.4552Z" fill="white"/>
<path d="M67.8508 38.4552C67.7232 38.3624 67.5724 38.3276 67.4216 38.3508C65.856 38.6176 64.4527 39.5222 63.5713 40.8559C63.3973 41.1226 63.4669 41.4822 63.7336 41.6561C63.7916 41.6909 63.8612 41.7257 63.9308 41.7373C64.1627 41.7837 64.4063 41.6909 64.5339 41.4938C65.2529 40.4152 66.3431 39.7077 67.6188 39.499C67.7696 39.4758 67.9087 39.3946 67.9899 39.267C68.0827 39.1395 68.1175 38.9887 68.0943 38.8379C68.0595 38.6756 67.9783 38.548 67.8508 38.4552Z" fill="white"/>
</g>
<path d="M51.7997 69.6759C51.9273 71.114 52.0897 72.5521 52.31 73.9902L60.2544 75.7182C60.1616 75.463 60.0804 75.2079 59.9876 74.9528C59.7789 74.3033 59.5817 73.6306 59.3845 72.9464C59.0134 71.5895 58.7119 70.1977 58.4335 68.7944C57.9116 65.9878 57.5869 63.1232 57.4477 60.2354C57.1926 54.4599 57.6913 48.6031 58.9902 42.8739C59.6513 40.0093 60.4283 37.1679 61.4721 34.3845L61.8432 33.3407L62.2607 32.3085L63.0958 30.2441L64.0236 28.2146L64.4875 27.194L64.9978 26.1966C67.6884 20.8733 70.9937 15.8168 74.7629 11.0966C70.5182 15.3877 66.6562 20.1079 63.3393 25.2456L62.713 26.2082L62.1332 27.194L60.9618 29.1656L59.8716 31.1951L59.3266 32.2157L58.8279 33.2595C57.4477 36.0197 56.3112 38.8959 55.3022 41.8301C53.2958 47.6985 52.0897 53.8916 51.707 60.1775C51.533 63.3436 51.5562 66.5097 51.7997 69.6759Z" fill="white"/>
<path d="M57.8884 91.4793C56.5895 91.1894 55.7544 89.9136 56.0212 88.6031L59.3265 72.3317C59.7324 70.3137 60.3471 68.3538 61.1473 66.4634L64.4526 58.7742L65.8327 59.0757L65.5544 67.4376C65.4848 69.4903 65.2065 71.5315 64.7194 73.5263L60.7994 89.6701C60.4863 90.969 59.1873 91.7692 57.8884 91.4793Z" fill="url(#paint6_linear_372_265)"/>
</g>
</g>
<defs>
<filter id="filter0_d_372_265" x="15" y="21" width="96" height="96" filterUnits="userSpaceOnUse" color-interpolation-filters="sRGB">
<feFlood flood-opacity="0" result="BackgroundImageFix"/>
<feColorMatrix in="SourceAlpha" type="matrix" values="0 0 0 0 0 0 0 0 0 0 0 0 0 0 0 0 0 0 127 0" result="hardAlpha"/>
<feOffset dy="4"/>
<feGaussianBlur stdDeviation="2"/>
<feComposite in2="hardAlpha" operator="out"/>
<feColorMatrix type="matrix" values="0 0 0 0 0 0 0 0 0 0 0 0 0 0 0 0 0 0 0.25 0"/>
<feBlend mode="normal" in2="BackgroundImageFix" result="effect1_dropShadow_372_265"/>
<feBlend mode="normal" in="SourceGraphic" in2="effect1_dropShadow_372_265" result="shape"/>
</filter>
<filter id="filter1_d_372_265" x="33" y="8" width="59.5577" height="128" filterUnits="userSpaceOnUse" color-interpolation-filters="sRGB">
<feFlood flood-opacity="0" result="BackgroundImageFix"/>
<feColorMatrix in="SourceAlpha" type="matrix" values="0 0 0 0 0 0 0 0 0 0 0 0 0 0 0 0 0 0 127 0" result="hardAlpha"/>
<feOffset dy="4"/>
<feGaussianBlur stdDeviation="2"/>
<feComposite in2="hardAlpha" operator="out"/>
<feColorMatrix type="matrix" values="0 0 0 0 0 0 0 0 0 0 0 0 0 0 0 0 0 0 0.25 0"/>
<feBlend mode="normal" in2="BackgroundImageFix" result="effect1_dropShadow_372_265"/>
<feBlend mode="normal" in="SourceGraphic" in2="effect1_dropShadow_372_265" result="shape"/>
</filter>
<linearGradient id="paint0_linear_372_265" x1="60.567" y1="79.5908" x2="61.3579" y2="75.956" gradientUnits="userSpaceOnUse">
<stop stop-color="white"/>
<stop offset="0.129" stop-color="#EFF6FF"/>
<stop offset="0.5153" stop-color="#C6DFFF"/>
<stop offset="0.8188" stop-color="#ACD0FF"/>
<stop offset="1" stop-color="#A2CBFF"/>
</linearGradient>
<linearGradient id="paint1_linear_372_265" x1="108.815" y1="41.6049" x2="39.365" y2="68.7141" gradientUnits="userSpaceOnUse">
<stop offset="0.00765814" stop-color="#EF4136"/>
<stop offset="0.4196" stop-color="#EF4337"/>
<stop offset="0.568" stop-color="#F04A38"/>
<stop offset="0.6737" stop-color="#F1553C"/>
<stop offset="0.7593" stop-color="#F36641"/>
<stop offset="0.8326" stop-color="#F57C47"/>
<stop offset="0.8974" stop-color="#F7984F"/>
<stop offset="0.9547" stop-color="#FAB758"/>
<stop offset="1" stop-color="#FDD661"/>
</linearGradient>
<linearGradient id="paint2_linear_372_265" x1="32.5127" y1="24.9552" x2="84.4327" y2="78.4572" gradientUnits="userSpaceOnUse">
<stop offset="0.00765814" stop-color="#EF4136"/>
<stop offset="0.4196" stop-color="#EF4337"/>
<stop offset="0.568" stop-color="#F04A38"/>
<stop offset="0.6737" stop-color="#F1553C"/>
<stop offset="0.7593" stop-color="#F36641"/>
<stop offset="0.8326" stop-color="#F57C47"/>
<stop offset="0.8974" stop-color="#F7984F"/>
<stop offset="0.9547" stop-color="#FAB758"/>
<stop offset="1" stop-color="#FDD661"/>
</linearGradient>
<linearGradient id="paint3_linear_372_265" x1="52.6289" y1="23.1373" x2="83.0538" y2="70.4717" gradientUnits="userSpaceOnUse">
<stop stop-color="white"/>
<stop offset="0.2088" stop-color="#FBFDFF"/>
<stop offset="0.416" stop-color="#EFF6FF"/>
<stop offset="0.6226" stop-color="#DBEBFF"/>
<stop offset="0.8275" stop-color="#BFDBFF"/>
<stop offset="1" stop-color="#A2CBFF"/>
</linearGradient>
<linearGradient id="paint4_linear_372_265" x1="78.8444" y1="-1.20861" x2="71.8379" y2="28.7491" gradientUnits="userSpaceOnUse">
<stop stop-color="#FDD661"/>
<stop offset="0.6574" stop-color="#F47144"/>
<stop offset="1" stop-color="#EF4136"/>
</linearGradient>
<linearGradient id="paint5_linear_372_265" x1="63.7918" y1="36.8577" x2="72.9867" y2="51.3257" gradientUnits="userSpaceOnUse">
<stop stop-color="#FCC715"/>
<stop offset="0.0833177" stop-color="#FCC019"/>
<stop offset="0.4305" stop-color="#FDA729"/>
<stop offset="0.7462" stop-color="#FD9732"/>
<stop offset="1" stop-color="#FD9235"/>
</linearGradient>
<linearGradient id="paint6_linear_372_265" x1="54.8008" y1="64.9749" x2="68.1526" y2="85.749" gradientUnits="userSpaceOnUse">
<stop stop-color="#FDD661"/>
<stop offset="0.5015" stop-color="#FCA22E"/>
<stop offset="1" stop-color="#FC7200"/>
</linearGradient>
<clipPath id="clip0_372_265">
<rect width="128" height="128" fill="white"/>
</clipPath>
</defs>
</svg>
