<svg width="501" height="158" viewBox="0 0 501 158" fill="none" xmlns="http://www.w3.org/2000/svg">
<path d="M30.5584 84.7184H49.5094C51.385 84.7184 53.3254 82.9721 54.0369 80.9024C55.2011 74.2404 56.6888 67.5785 58.1764 60.8518C58.5644 58.9761 58.9525 57.1005 59.3406 55.2248C59.7287 53.155 58.1764 51.4087 56.3007 51.4087C40.3896 51.4087 24.8019 51.4087 9.27894 51.4087L11.9308 40.0898H73.376C80.232 40.0898 84.3067 45.3935 82.8838 51.9261C80.5554 62.6629 78.4856 73.5289 76.0278 84.201C75.0576 88.4698 71.8237 92.2212 68.0723 94.291L71.8884 118.028H47.6337L44.2057 96.0373C38.902 96.0373 33.2102 96.0373 27.9065 96.0373L23.379 118.028H1L13.1597 60.2697L37.0263 54.2546L30.5584 84.7184Z" fill="#EF4444"/>
<path d="M125.895 54.1901C122.467 70.4246 118.651 86.5944 115.288 102.829C114.835 104.963 116.452 106.71 118.328 106.71C124.02 106.71 129.711 106.71 135.403 106.71C137.667 106.71 139.866 104.963 140.319 102.829C143.682 86.9178 147.175 71.0714 150.538 55.1603C150.991 53.0906 149.374 51.3442 147.11 51.3442C130.811 51.3442 114.512 51.3442 98.2126 51.3442L100.864 40.0254H164.573C171.041 40.0254 175.051 45.3291 173.693 51.8617C169.812 69.9718 165.867 88.0173 161.922 106.192C160.499 112.66 154.354 118.028 147.886 118.028C132.363 118.028 116.776 118.028 101.641 118.028C94.7846 118.028 90.8392 112.66 92.1328 106.192C95.3668 90.7985 98.9888 75.5342 101.964 60.2053L125.895 54.1901Z" fill="#EF4444"/>
<path d="M217.934 84.7187H211.078L203.898 118.028H181.52L193.679 60.27L217.546 54.1901L213.406 73.3998H220.262L243.741 40.0254H265.732L238.437 79.0269L249.433 117.446H227.442L217.934 84.7187ZM217.934 51.3442L220.586 40.0254L192.127 40.0901L189.863 51.4089H217.934V51.3442Z" fill="#EF4444"/>
<path d="M308.679 84.7187H301.887L294.708 118.028H272.329L284.489 60.27L308.355 54.1901L304.216 73.3998H310.943L334.421 40.0254H356.412L329.117 79.0269L340.113 117.446H318.122L308.679 84.7187ZM308.679 51.3442L311.331 40.0254L282.872 40.0901L280.608 51.4089H308.679V51.3442Z" fill="#EF4444"/>
<path d="M418.31 51.3442L420.961 40.0254H500.581L497.93 51.3442H418.31ZM455.5 118.028H433.121L445.281 60.27L469.147 54.2548L455.5 118.028Z" fill="#EF4444"/>
<path opacity="0.66" d="M381.96 103.799C376.333 102.829 370.964 106.645 370.059 112.272C367.601 126.954 376.203 138.208 372.905 158C376.203 138.208 388.039 130.318 390.497 115.635C391.403 110.073 387.587 104.769 381.96 103.799Z" fill="#FD9235"/>
<path d="M381.96 103.799C378.209 103.153 374.587 105.74 374.005 109.491C372.388 119.322 378.144 126.825 375.88 140.149C378.079 126.89 386.035 121.586 387.652 111.82C388.299 108.004 385.776 104.446 381.96 103.799Z" fill="white"/>
<path d="M388.428 107.615L374.393 105.222C373.746 105.093 373.293 104.511 373.423 103.799L373.875 101.212L390.304 104.058L389.851 106.645C389.657 107.292 389.075 107.745 388.428 107.615Z" fill="url(#paint0_linear_353_263)"/>
<path d="M368.96 76.3105L357.705 87.4353C356.347 88.7936 355.636 90.6046 355.765 92.545L356.994 110.59C357.059 111.173 357.705 111.496 358.158 111.173L374.005 101.083L368.96 76.3105Z" fill="url(#paint1_linear_353_263)"/>
<path d="M402.981 82.002L409.966 96.1667C410.807 97.8483 410.872 99.8534 410.095 101.6L403.045 118.222C402.787 118.74 402.075 118.869 401.752 118.416L390.045 103.734L402.981 82.002Z" fill="url(#paint2_linear_353_263)"/>
<path d="M394.508 30C376.85 40.0253 361.586 78.574 370.9 99.6594C371.158 100.306 371.741 100.759 372.323 100.888L391.662 104.252C392.308 104.381 392.955 104.122 393.408 103.605C409.319 86.853 407.767 45.3936 394.508 30Z" fill="url(#paint3_linear_353_263)"/>
<path d="M394.507 30C388.104 33.622 382.089 40.9954 377.368 49.9212C372.452 48.8216 404.015 54.5134 404.015 54.5134C402.528 44.4881 399.294 35.5624 394.507 30Z" fill="url(#paint4_linear_353_263)"/>
<path d="M394.185 75.016C390.563 78.5087 384.871 78.3793 381.379 74.7573C377.886 71.1352 378.015 65.4435 381.637 61.9508C385.259 58.4581 390.951 58.5875 394.444 62.2095C397.872 65.7669 397.742 71.5233 394.185 75.016Z" fill="url(#paint5_linear_353_263)"/>
<path d="M395.22 68.6127C395.155 72.6875 391.792 75.9215 387.782 75.7921C383.707 75.7275 380.473 72.3641 380.602 68.354C380.667 64.2793 384.03 61.0453 388.04 61.1746C392.051 61.2393 395.285 64.538 395.22 68.6127Z" fill="#F15A29"/>
<path d="M395.22 68.6127C395.22 66.9311 394.702 65.3141 393.732 64.0205C393.732 64.2145 393.667 64.4086 393.667 64.6026C393.603 65.5081 393.667 66.4783 393.279 67.2545C392.891 68.0306 392.18 68.548 391.339 68.7421C390.175 68.9361 388.881 68.354 387.717 68.6774C386.294 69.0655 385.453 70.6178 384.03 71.0705C383.383 71.2646 382.672 71.1999 381.96 70.9412C381.508 70.8118 381.055 70.5531 380.731 70.2297C381.508 73.399 384.289 75.7274 387.717 75.7921C391.792 75.9215 395.155 72.6875 395.22 68.6127Z" fill="#F15A29"/>
<g opacity="0.4">
<path d="M389.075 62.469C388.946 62.469 388.752 62.4043 388.622 62.4043C388.428 62.4043 388.299 62.469 388.17 62.5336C388.04 62.663 387.976 62.7924 387.976 62.9217C387.976 63.2451 388.17 63.5038 388.493 63.5685H388.558C388.687 63.5685 388.816 63.5685 388.946 63.6332C389.14 63.6332 389.269 63.6332 389.399 63.5038C389.528 63.4392 389.593 63.2451 389.657 63.1158C389.657 62.857 389.463 62.5336 389.075 62.469Z" fill="white"/>
<path d="M387.005 62.5983C386.876 62.5336 386.682 62.4689 386.553 62.5336C384.936 62.9217 383.448 63.9566 382.607 65.3795C382.413 65.6382 382.542 66.0263 382.801 66.2203C382.866 66.285 382.93 66.285 382.995 66.285C383.254 66.3497 383.513 66.2203 383.642 66.0263C384.353 64.8621 385.453 64.0212 386.811 63.7625C386.941 63.6978 387.135 63.6332 387.199 63.5038C387.264 63.3745 387.329 63.1804 387.264 63.0511C387.264 62.7924 387.135 62.663 387.005 62.5983Z" fill="white"/>
</g>
<path d="M371.676 96.3605C371.87 97.8482 372.129 99.4005 372.452 100.888L380.925 102.311C380.796 102.052 380.731 101.794 380.602 101.535C380.343 100.823 380.084 100.177 379.89 99.4651C379.437 98.0422 379.049 96.6192 378.661 95.1316C377.95 92.2211 377.497 89.1811 377.174 86.1412C376.592 80.0614 376.85 73.8522 377.885 67.7077C378.403 64.6678 379.114 61.6278 380.084 58.6526L380.408 57.5531L380.796 56.4535L381.572 54.2544L382.477 52.0553L382.93 50.9558L383.448 49.8562C386.035 44.0998 389.269 38.6021 393.02 33.4277C388.751 38.1493 384.935 43.3883 381.701 48.9507L381.054 49.9856L380.472 51.0851L379.308 53.2196L378.273 55.4186L377.756 56.5182L377.303 57.6177C376.009 60.593 374.91 63.6976 374.004 66.8669C372.193 73.1407 371.223 79.738 371.158 86.3999C371.029 89.6986 371.223 93.0619 371.676 96.3605Z" fill="white"/>
<path d="M379.179 119.128C377.756 118.869 376.851 117.575 377.045 116.152L379.697 98.8184C380.02 96.684 380.537 94.5496 381.314 92.5445L384.418 84.2656L385.906 84.5243L386.035 93.3854C386.1 95.5845 385.906 97.7189 385.453 99.8533L382.154 117.123C381.896 118.416 380.602 119.322 379.179 119.128Z" fill="url(#paint6_linear_353_263)"/>
<defs>
<linearGradient id="paint0_linear_353_263" x1="381.375" y1="106.263" x2="382.024" y2="102.389" gradientUnits="userSpaceOnUse">
<stop stop-color="white"/>
<stop offset="0.129" stop-color="#EFF6FF"/>
<stop offset="0.5153" stop-color="#C6DFFF"/>
<stop offset="0.8188" stop-color="#ACD0FF"/>
<stop offset="1" stop-color="#A2CBFF"/>
</linearGradient>
<linearGradient id="paint1_linear_353_263" x1="430.46" y1="63.8519" x2="358.492" y2="96.0188" gradientUnits="userSpaceOnUse">
<stop offset="0.00765814" stop-color="#EF4136"/>
<stop offset="0.4196" stop-color="#EF4337"/>
<stop offset="0.568" stop-color="#F04A38"/>
<stop offset="0.6737" stop-color="#F1553C"/>
<stop offset="0.7593" stop-color="#F36641"/>
<stop offset="0.8326" stop-color="#F57C47"/>
<stop offset="0.8974" stop-color="#F7984F"/>
<stop offset="0.9547" stop-color="#FAB758"/>
<stop offset="1" stop-color="#FDD661"/>
</linearGradient>
<linearGradient id="paint2_linear_353_263" x1="349.015" y1="50.1989" x2="406.573" y2="104.061" gradientUnits="userSpaceOnUse">
<stop offset="0.00765814" stop-color="#EF4136"/>
<stop offset="0.4196" stop-color="#EF4337"/>
<stop offset="0.568" stop-color="#F04A38"/>
<stop offset="0.6737" stop-color="#F1553C"/>
<stop offset="0.7593" stop-color="#F36641"/>
<stop offset="0.8326" stop-color="#F57C47"/>
<stop offset="0.8974" stop-color="#F7984F"/>
<stop offset="0.9547" stop-color="#FAB758"/>
<stop offset="1" stop-color="#FDD661"/>
</linearGradient>
<linearGradient id="paint3_linear_353_263" x1="370.18" y1="47.208" x2="404.723" y2="95.6504" gradientUnits="userSpaceOnUse">
<stop stop-color="white"/>
<stop offset="0.2088" stop-color="#FBFDFF"/>
<stop offset="0.416" stop-color="#EFF6FF"/>
<stop offset="0.6226" stop-color="#DBEBFF"/>
<stop offset="0.8275" stop-color="#BFDBFF"/>
<stop offset="1" stop-color="#A2CBFF"/>
</linearGradient>
<linearGradient id="paint4_linear_353_263" x1="396.335" y1="20.072" x2="390.441" y2="52.178" gradientUnits="userSpaceOnUse">
<stop stop-color="#FDD661"/>
<stop offset="0.6574" stop-color="#F47144"/>
<stop offset="1" stop-color="#EF4136"/>
</linearGradient>
<linearGradient id="paint5_linear_353_263" x1="382.716" y1="60.8435" x2="393.163" y2="75.6553" gradientUnits="userSpaceOnUse">
<stop stop-color="#FCC715"/>
<stop offset="0.0833177" stop-color="#FCC019"/>
<stop offset="0.4305" stop-color="#FDA729"/>
<stop offset="0.7462" stop-color="#FD9732"/>
<stop offset="1" stop-color="#FD9235"/>
</linearGradient>
<linearGradient id="paint6_linear_353_263" x1="374.739" y1="91.2485" x2="389.899" y2="112.507" gradientUnits="userSpaceOnUse">
<stop stop-color="#FDD661"/>
<stop offset="0.5015" stop-color="#FCA22E"/>
<stop offset="1" stop-color="#FC7200"/>
</linearGradient>
</defs>
</svg>
