<svg width="24" height="24" viewBox="0 0 24 24" fill="none" xmlns="http://www.w3.org/2000/svg">
<path d="M12.9375 16.875C12.9375 17.0604 12.8825 17.2417 12.7795 17.3958C12.6765 17.55 12.5301 17.6702 12.3588 17.7411C12.1875 17.8121 11.999 17.8307 11.8171 17.7945C11.6352 17.7583 11.4682 17.669 11.3371 17.5379C11.206 17.4068 11.1167 17.2398 11.0805 17.0579C11.0443 16.876 11.0629 16.6875 11.1339 16.5162C11.2048 16.3449 11.325 16.1985 11.4792 16.0955C11.6333 15.9925 11.8146 15.9375 12 15.9375C12.2486 15.9375 12.4871 16.0363 12.6629 16.2121C12.8387 16.3879 12.9375 16.6264 12.9375 16.875ZM12 6.9375C10.0313 6.9375 8.4375 8.36719 8.4375 10.125V10.5C8.4375 10.6492 8.49677 10.7923 8.60226 10.8977C8.70775 11.0032 8.85082 11.0625 9 11.0625C9.14919 11.0625 9.29226 11.0032 9.39775 10.8977C9.50324 10.7923 9.5625 10.6492 9.5625 10.5V10.125C9.5625 8.98781 10.6556 8.0625 12 8.0625C13.3444 8.0625 14.4375 8.98781 14.4375 10.125C14.4375 11.2622 13.3444 12.1875 12 12.1875C11.8508 12.1875 11.7077 12.2468 11.6023 12.3523C11.4968 12.4577 11.4375 12.6008 11.4375 12.75V13.5C11.4375 13.6492 11.4968 13.7923 11.6023 13.8977C11.7077 14.0032 11.8508 14.0625 12 14.0625C12.1492 14.0625 12.2923 14.0032 12.3978 13.8977C12.5032 13.7923 12.5625 13.6492 12.5625 13.5V13.2731C14.2603 13.0313 15.5625 11.7113 15.5625 10.125C15.5625 8.36719 13.9688 6.9375 12 6.9375ZM21.5625 12C21.5625 13.8913 21.0017 15.7401 19.9509 17.3126C18.9002 18.8852 17.4067 20.1108 15.6594 20.8346C13.9121 21.5584 11.9894 21.7477 10.1345 21.3788C8.27951 21.0098 6.57564 20.099 5.2383 18.7617C3.90096 17.4244 2.99022 15.7205 2.62125 13.8656C2.25227 12.0106 2.44164 10.0879 3.16541 8.34059C3.88917 6.59327 5.11482 5.09981 6.68736 4.04907C8.25991 2.99833 10.1087 2.4375 12 2.4375C14.5352 2.44048 16.9658 3.44891 18.7584 5.24158C20.5511 7.03425 21.5595 9.46478 21.5625 12ZM20.4375 12C20.4375 10.3312 19.9427 8.69992 19.0155 7.31238C18.0884 5.92484 16.7706 4.84338 15.2289 4.20477C13.6871 3.56615 11.9906 3.39906 10.3539 3.72462C8.71722 4.05019 7.2138 4.85378 6.03379 6.03379C4.85379 7.21379 4.05019 8.71721 3.72463 10.3539C3.39907 11.9906 3.56616 13.6871 4.20477 15.2289C4.84339 16.7706 5.92484 18.0884 7.31238 19.0155C8.69992 19.9426 10.3312 20.4375 12 20.4375C14.237 20.435 16.3817 19.5453 17.9635 17.9635C19.5453 16.3817 20.435 14.237 20.4375 12Z" fill="black"/>
</svg>
