<svg id="visual" viewBox="0 0 900 600" width="900" height="600" xmlns="http://www.w3.org/2000/svg" xmlns:xlink="http://www.w3.org/1999/xlink" version="1.1"><rect x="0" y="0" width="900" height="600" fill="#001220"></rect><defs><linearGradient id="grad1_0" x1="33.3%" y1="0%" x2="100%" y2="100%"><stop offset="20%" stop-color="#9a9a9a" stop-opacity="1"></stop><stop offset="80%" stop-color="#9a9a9a" stop-opacity="1"></stop></linearGradient></defs><defs><linearGradient id="grad1_1" x1="33.3%" y1="0%" x2="100%" y2="100%"><stop offset="20%" stop-color="#9a9a9a" stop-opacity="1"></stop><stop offset="80%" stop-color="#717579" stop-opacity="1"></stop></linearGradient></defs><defs><linearGradient id="grad1_2" x1="33.3%" y1="0%" x2="100%" y2="100%"><stop offset="20%" stop-color="#4b5159" stop-opacity="1"></stop><stop offset="80%" stop-color="#717579" stop-opacity="1"></stop></linearGradient></defs><defs><linearGradient id="grad1_3" x1="33.3%" y1="0%" x2="100%" y2="100%"><stop offset="20%" stop-color="#4b5159" stop-opacity="1"></stop><stop offset="80%" stop-color="#26303c" stop-opacity="1"></stop></linearGradient></defs><defs><linearGradient id="grad1_4" x1="33.3%" y1="0%" x2="100%" y2="100%"><stop offset="20%" stop-color="#001220" stop-opacity="1"></stop><stop offset="80%" stop-color="#26303c" stop-opacity="1"></stop></linearGradient></defs><defs><linearGradient id="grad2_0" x1="0%" y1="0%" x2="66.7%" y2="100%"><stop offset="20%" stop-color="#9a9a9a" stop-opacity="1"></stop><stop offset="80%" stop-color="#9a9a9a" stop-opacity="1"></stop></linearGradient></defs><defs><linearGradient id="grad2_1" x1="0%" y1="0%" x2="66.7%" y2="100%"><stop offset="20%" stop-color="#717579" stop-opacity="1"></stop><stop offset="80%" stop-color="#9a9a9a" stop-opacity="1"></stop></linearGradient></defs><defs><linearGradient id="grad2_2" x1="0%" y1="0%" x2="66.7%" y2="100%"><stop offset="20%" stop-color="#717579" stop-opacity="1"></stop><stop offset="80%" stop-color="#4b5159" stop-opacity="1"></stop></linearGradient></defs><defs><linearGradient id="grad2_3" x1="0%" y1="0%" x2="66.7%" y2="100%"><stop offset="20%" stop-color="#26303c" stop-opacity="1"></stop><stop offset="80%" stop-color="#4b5159" stop-opacity="1"></stop></linearGradient></defs><defs><linearGradient id="grad2_4" x1="0%" y1="0%" x2="66.7%" y2="100%"><stop offset="20%" stop-color="#26303c" stop-opacity="1"></stop><stop offset="80%" stop-color="#001220" stop-opacity="1"></stop></linearGradient></defs><g transform="translate(900, 0)"><path d="M0 540.8C-23.7 493 -47.3 445.3 -56.6 393.9C-66 342.6 -60.9 287.8 -92.7 315.7C-124.4 343.5 -193 454.1 -202.3 443C-211.6 431.9 -161.7 299.2 -177.3 275.9C-192.9 252.6 -274.1 338.7 -307.8 355.2C-341.5 371.7 -327.8 318.6 -345.4 299.3C-362.9 279.9 -411.7 294.2 -451.8 290.3C-491.8 286.4 -523 264.3 -492 224.7C-461 185 -367.8 127.8 -332 97.5C-296.2 67.2 -317.9 63.8 -362.3 52.1C-406.7 40.3 -473.7 20.2 -540.8 0L0 0Z" fill="#14212d"></path><path d="M0 432.7C-18.9 394.4 -37.9 356.2 -45.3 315.2C-52.8 274.1 -48.7 230.3 -74.2 252.5C-99.6 274.8 -154.4 363.3 -161.8 354.4C-169.3 345.5 -129.4 239.4 -141.9 220.7C-154.4 202.1 -219.3 271 -246.2 284.2C-273.2 297.4 -262.3 254.9 -276.3 239.4C-290.4 223.9 -329.4 235.4 -361.4 232.3C-393.4 229.1 -418.4 211.5 -393.6 179.7C-368.8 148 -294.2 102.2 -265.6 78C-237 53.8 -254.3 51.1 -289.8 41.7C-325.3 32.3 -379 16.1 -432.7 0L0 0Z" fill="#38404a"></path><path d="M0 324.5C-14.2 295.8 -28.4 267.2 -34 236.4C-39.6 205.6 -36.6 172.7 -55.6 189.4C-74.7 206.1 -115.8 272.4 -121.4 265.8C-127 259.2 -97 179.5 -106.4 165.6C-115.8 151.6 -164.4 203.2 -184.7 213.1C-204.9 223 -196.7 191.2 -207.2 179.6C-217.8 167.9 -247 176.5 -271.1 174.2C-295.1 171.9 -313.8 158.6 -295.2 134.8C-276.6 111 -220.7 76.7 -199.2 58.5C-177.7 40.3 -190.7 38.3 -217.4 31.3C-244 24.2 -284.2 12.1 -324.5 0L0 0Z" fill="#5e6369"></path><path d="M0 216.3C-9.5 197.2 -18.9 178.1 -22.7 157.6C-26.4 137.1 -24.4 115.1 -37.1 126.3C-49.8 137.4 -77.2 181.6 -80.9 177.2C-84.7 172.8 -64.7 119.7 -70.9 110.4C-77.2 101.1 -109.6 135.5 -123.1 142.1C-136.6 148.7 -131.1 127.5 -138.2 119.7C-145.2 112 -164.7 117.7 -180.7 116.1C-196.7 114.6 -209.2 105.7 -196.8 89.9C-184.4 74 -147.1 51.1 -132.8 39C-118.5 26.9 -127.2 25.5 -144.9 20.8C-162.7 16.1 -189.5 8.1 -216.3 0L0 0Z" fill="#858789"></path><path d="M0 108.2C-4.7 98.6 -9.5 89.1 -11.3 78.8C-13.2 68.5 -12.2 57.6 -18.5 63.1C-24.9 68.7 -38.6 90.8 -40.5 88.6C-42.3 86.4 -32.3 59.8 -35.5 55.2C-38.6 50.5 -54.8 67.7 -61.6 71C-68.3 74.3 -65.6 63.7 -69.1 59.9C-72.6 56 -82.3 58.8 -90.4 58.1C-98.4 57.3 -104.6 52.9 -98.4 44.9C-92.2 37 -73.6 25.6 -66.4 19.5C-59.2 13.4 -63.6 12.8 -72.5 10.4C-81.3 8.1 -94.7 4 -108.2 0L0 0Z" fill="#9a9a9a"></path></g><g transform="translate(0, 600)"><path d="M0 -540.8C16.7 -463.3 33.5 -385.8 52.4 -364.3C71.3 -342.7 92.3 -377.1 116.6 -397.2C140.9 -417.4 168.5 -423.3 191.9 -420.2C215.4 -417.2 234.7 -405.4 253 -393.7C271.4 -382.1 288.7 -370.7 313.7 -362C338.7 -353.4 371.3 -347.5 367.3 -318.3C363.3 -289.1 322.8 -236.6 339 -217.9C355.3 -199.2 428.3 -214.3 439.4 -200.6C450.4 -186.9 399.4 -144.4 412.6 -121.1C425.8 -97.9 503.2 -93.9 535.3 -77C567.4 -60 554.1 -30 540.8 0L0 0Z" fill="#14212d"></path><path d="M0 -432.7C13.4 -370.7 26.8 -308.6 41.9 -291.4C57 -274.2 73.9 -301.7 93.3 -317.8C112.8 -333.9 134.8 -338.6 153.5 -336.2C172.3 -333.8 187.7 -324.3 202.4 -315C217.1 -305.6 231 -296.5 250.9 -289.6C270.9 -282.7 297 -278 293.8 -254.6C290.7 -231.3 258.2 -189.2 271.2 -174.3C284.2 -159.4 342.7 -171.5 351.5 -160.5C360.3 -149.6 319.5 -115.5 330.1 -96.9C340.6 -78.3 402.6 -75.2 428.3 -61.6C453.9 -48 443.3 -24 432.7 0L0 0Z" fill="#38404a"></path><path d="M0 -324.5C10 -278 20.1 -231.5 31.4 -218.6C42.8 -205.6 55.4 -226.3 70 -238.3C84.6 -250.4 101.1 -254 115.2 -252.1C129.2 -250.3 140.8 -243.2 151.8 -236.2C162.8 -229.2 173.2 -222.4 188.2 -217.2C203.2 -212 222.8 -208.5 220.4 -191C218 -173.4 193.7 -141.9 203.4 -130.7C213.2 -119.5 257 -128.6 263.6 -120.4C270.2 -112.2 239.6 -86.6 247.5 -72.7C255.5 -58.7 301.9 -56.4 321.2 -46.2C340.4 -36 332.5 -18 324.5 0L0 0Z" fill="#5e6369"></path><path d="M0 -216.3C6.7 -185.3 13.4 -154.3 20.9 -145.7C28.5 -137.1 36.9 -150.8 46.7 -158.9C56.4 -166.9 67.4 -169.3 76.8 -168.1C86.1 -166.9 93.9 -162.1 101.2 -157.5C108.5 -152.8 115.5 -148.3 125.5 -144.8C135.5 -141.3 148.5 -139 146.9 -127.3C145.3 -115.6 129.1 -94.6 135.6 -87.2C142.1 -79.7 171.3 -85.7 175.7 -80.3C180.1 -74.8 159.7 -57.8 165 -48.5C170.3 -39.2 201.3 -37.6 214.1 -30.8C227 -24 221.6 -12 216.3 0L0 0Z" fill="#858789"></path><path d="M0 -108.2C3.3 -92.7 6.7 -77.2 10.5 -72.9C14.3 -68.5 18.5 -75.4 23.3 -79.4C28.2 -83.5 33.7 -84.7 38.4 -84C43.1 -83.4 46.9 -81.1 50.6 -78.7C54.3 -76.4 57.7 -74.1 62.7 -72.4C67.7 -70.7 74.3 -69.5 73.5 -63.7C72.7 -57.8 64.6 -47.3 67.8 -43.6C71.1 -39.8 85.7 -42.9 87.9 -40.1C90.1 -37.4 79.9 -28.9 82.5 -24.2C85.2 -19.6 100.6 -18.8 107.1 -15.4C113.5 -12 110.8 -6 108.2 0L0 0Z" fill="#9a9a9a"></path></g></svg>