<svg id="visual" viewBox="0 0 900 600" width="900" height="600" xmlns="http://www.w3.org/2000/svg" xmlns:xlink="http://www.w3.org/1999/xlink" version="1.1"><rect x="0" y="0" width="900" height="600" fill="#0f172a"></rect><defs><linearGradient id="grad1_0" x1="33.3%" y1="100%" x2="100%" y2="0%"><stop offset="20%" stop-color="#f8fafc" stop-opacity="1"></stop><stop offset="80%" stop-color="#f8fafc" stop-opacity="1"></stop></linearGradient></defs><defs><linearGradient id="grad1_1" x1="33.3%" y1="100%" x2="100%" y2="0%"><stop offset="20%" stop-color="#f8fafc" stop-opacity="1"></stop><stop offset="80%" stop-color="#d1d6db" stop-opacity="1"></stop></linearGradient></defs><defs><linearGradient id="grad1_2" x1="33.3%" y1="100%" x2="100%" y2="0%"><stop offset="20%" stop-color="#acb2bb" stop-opacity="1"></stop><stop offset="80%" stop-color="#d1d6db" stop-opacity="1"></stop></linearGradient></defs><defs><linearGradient id="grad1_3" x1="33.3%" y1="100%" x2="100%" y2="0%"><stop offset="20%" stop-color="#acb2bb" stop-opacity="1"></stop><stop offset="80%" stop-color="#89909b" stop-opacity="1"></stop></linearGradient></defs><defs><linearGradient id="grad1_4" x1="33.3%" y1="100%" x2="100%" y2="0%"><stop offset="20%" stop-color="#676f7d" stop-opacity="1"></stop><stop offset="80%" stop-color="#89909b" stop-opacity="1"></stop></linearGradient></defs><defs><linearGradient id="grad1_5" x1="33.3%" y1="100%" x2="100%" y2="0%"><stop offset="20%" stop-color="#676f7d" stop-opacity="1"></stop><stop offset="80%" stop-color="#485060" stop-opacity="1"></stop></linearGradient></defs><defs><linearGradient id="grad1_6" x1="33.3%" y1="100%" x2="100%" y2="0%"><stop offset="20%" stop-color="#2a3244" stop-opacity="1"></stop><stop offset="80%" stop-color="#485060" stop-opacity="1"></stop></linearGradient></defs><defs><linearGradient id="grad1_7" x1="33.3%" y1="100%" x2="100%" y2="0%"><stop offset="20%" stop-color="#2a3244" stop-opacity="1"></stop><stop offset="80%" stop-color="#0f172a" stop-opacity="1"></stop></linearGradient></defs><defs><linearGradient id="grad2_0" x1="0%" y1="100%" x2="66.7%" y2="0%"><stop offset="20%" stop-color="#f8fafc" stop-opacity="1"></stop><stop offset="80%" stop-color="#f8fafc" stop-opacity="1"></stop></linearGradient></defs><defs><linearGradient id="grad2_1" x1="0%" y1="100%" x2="66.7%" y2="0%"><stop offset="20%" stop-color="#d1d6db" stop-opacity="1"></stop><stop offset="80%" stop-color="#f8fafc" stop-opacity="1"></stop></linearGradient></defs><defs><linearGradient id="grad2_2" x1="0%" y1="100%" x2="66.7%" y2="0%"><stop offset="20%" stop-color="#d1d6db" stop-opacity="1"></stop><stop offset="80%" stop-color="#acb2bb" stop-opacity="1"></stop></linearGradient></defs><defs><linearGradient id="grad2_3" x1="0%" y1="100%" x2="66.7%" y2="0%"><stop offset="20%" stop-color="#89909b" stop-opacity="1"></stop><stop offset="80%" stop-color="#acb2bb" stop-opacity="1"></stop></linearGradient></defs><defs><linearGradient id="grad2_4" x1="0%" y1="100%" x2="66.7%" y2="0%"><stop offset="20%" stop-color="#89909b" stop-opacity="1"></stop><stop offset="80%" stop-color="#676f7d" stop-opacity="1"></stop></linearGradient></defs><defs><linearGradient id="grad2_5" x1="0%" y1="100%" x2="66.7%" y2="0%"><stop offset="20%" stop-color="#485060" stop-opacity="1"></stop><stop offset="80%" stop-color="#676f7d" stop-opacity="1"></stop></linearGradient></defs><defs><linearGradient id="grad2_6" x1="0%" y1="100%" x2="66.7%" y2="0%"><stop offset="20%" stop-color="#485060" stop-opacity="1"></stop><stop offset="80%" stop-color="#2a3244" stop-opacity="1"></stop></linearGradient></defs><defs><linearGradient id="grad2_7" x1="0%" y1="100%" x2="66.7%" y2="0%"><stop offset="20%" stop-color="#0f172a" stop-opacity="1"></stop><stop offset="80%" stop-color="#2a3244" stop-opacity="1"></stop></linearGradient></defs><g transform="translate(900, 600)"><path d="M-378.6 0C-333.1 -16.3 -287.7 -32.7 -287.4 -57.2C-287 -81.7 -331.8 -114.4 -340.9 -141.2C-350.1 -168.1 -323.6 -189 -291 -194.4C-258.4 -199.8 -219.7 -189.7 -201.5 -201.5C-183.4 -213.4 -185.9 -247.3 -173.9 -260.2C-161.9 -273.2 -135.3 -265.1 -117.9 -284.6C-100.4 -304 -92 -351 -73.9 -371.3C-55.7 -391.6 -27.9 -385.1 0 -378.6L0 0Z" fill="#1d2437"></path><path d="M-331.3 0C-291.5 -14.3 -251.8 -28.6 -251.4 -50C-251.1 -71.5 -290.3 -100.1 -298.3 -123.6C-306.3 -147 -283.2 -165.4 -254.6 -170.1C-226.1 -174.9 -192.2 -165.9 -176.3 -176.3C-160.5 -186.7 -162.7 -216.4 -152.2 -227.7C-141.6 -239 -118.4 -232 -103.1 -249C-87.8 -266 -80.5 -307.2 -64.6 -324.9C-48.8 -342.6 -24.4 -336.9 0 -331.3L0 0Z" fill="#394152"></path><path d="M-283.9 0C-249.9 -12.2 -215.8 -24.5 -215.5 -42.9C-215.3 -61.3 -248.8 -85.8 -255.7 -105.9C-262.5 -126 -242.7 -141.8 -218.3 -145.8C-193.8 -149.9 -164.7 -142.2 -151.1 -151.1C-137.5 -160 -139.4 -185.5 -130.4 -195.2C-121.4 -204.9 -101.5 -198.8 -88.4 -213.4C-75.3 -228 -69 -263.3 -55.4 -278.5C-41.8 -293.7 -20.9 -288.8 0 -283.9L0 0Z" fill="#575f6e"></path><path d="M-236.6 0C-208.2 -10.2 -179.8 -20.4 -179.6 -35.7C-179.4 -51 -207.4 -71.5 -213.1 -88.3C-218.8 -105 -202.3 -118.2 -181.9 -121.5C-161.5 -124.9 -137.3 -118.5 -126 -126C-114.6 -133.4 -116.2 -154.6 -108.7 -162.7C-101.2 -170.7 -84.6 -165.7 -73.7 -177.8C-62.7 -190 -57.5 -219.4 -46.2 -232.1C-34.8 -244.7 -17.4 -240.7 0 -236.6L0 0Z" fill="#787f8c"></path><path d="M-189.3 0C-166.6 -8.2 -143.9 -16.3 -143.7 -28.6C-143.5 -40.8 -165.9 -57.2 -170.5 -70.6C-175 -84 -161.8 -94.5 -145.5 -97.2C-129.2 -99.9 -109.8 -94.8 -100.8 -100.8C-91.7 -106.7 -93 -123.7 -86.9 -130.1C-80.9 -136.6 -67.7 -132.5 -58.9 -142.3C-50.2 -152 -46 -175.5 -36.9 -185.7C-27.9 -195.8 -13.9 -192.5 0 -189.3L0 0Z" fill="#9aa1ab"></path><path d="M-142 0C-124.9 -6.1 -107.9 -12.2 -107.8 -21.4C-107.6 -30.6 -124.4 -42.9 -127.8 -53C-131.3 -63 -121.4 -70.9 -109.1 -72.9C-96.9 -74.9 -82.4 -71.1 -75.6 -75.6C-68.8 -80 -69.7 -92.7 -65.2 -97.6C-60.7 -102.4 -50.8 -99.4 -44.2 -106.7C-37.6 -114 -34.5 -131.6 -27.7 -139.2C-20.9 -146.8 -10.4 -144.4 0 -142L0 0Z" fill="#bec4cb"></path><path d="M-94.6 0C-83.3 -4.1 -71.9 -8.2 -71.8 -14.3C-71.8 -20.4 -82.9 -28.6 -85.2 -35.3C-87.5 -42 -80.9 -47.3 -72.8 -48.6C-64.6 -50 -54.9 -47.4 -50.4 -50.4C-45.8 -53.3 -46.5 -61.8 -43.5 -65.1C-40.5 -68.3 -33.8 -66.3 -29.5 -71.1C-25.1 -76 -23 -87.8 -18.5 -92.8C-13.9 -97.9 -7 -96.3 0 -94.6L0 0Z" fill="#e4e8eb"></path><path d="M-47.3 0C-41.6 -2 -36 -4.1 -35.9 -7.1C-35.9 -10.2 -41.5 -14.3 -42.6 -17.7C-43.8 -21 -40.5 -23.6 -36.4 -24.3C-32.3 -25 -27.5 -23.7 -25.2 -25.2C-22.9 -26.7 -23.2 -30.9 -21.7 -32.5C-20.2 -34.1 -16.9 -33.1 -14.7 -35.6C-12.5 -38 -11.5 -43.9 -9.2 -46.4C-7 -48.9 -3.5 -48.1 0 -47.3L0 0Z" fill="#f8fafc"></path></g><g transform="translate(0, 0)"><path d="M378.6 0C341.9 17.1 305.2 34.2 308 61.3C310.7 88.4 352.9 125.5 343.7 142.4C334.5 159.2 274 155.9 242 161.7C210 167.4 206.5 182.3 203.6 203.6C200.8 225 198.5 253 190.6 285.2C182.7 317.4 169.2 353.8 144.9 349.8C120.6 345.7 85.5 301.1 59.5 299.1C33.6 297.2 16.8 337.9 0 378.6L0 0Z" fill="#1d2437"></path><path d="M331.3 0C299.2 14.9 267.1 29.9 269.5 53.6C271.9 77.3 308.8 109.8 300.7 124.6C292.7 139.3 239.7 136.4 211.7 141.5C183.7 146.5 180.7 159.5 178.2 178.2C175.7 196.9 173.7 221.4 166.7 249.5C159.8 277.7 148 309.6 126.8 306C105.5 302.5 74.8 263.5 52.1 261.7C29.4 260 14.7 295.7 0 331.3L0 0Z" fill="#394152"></path><path d="M283.9 0C256.4 12.8 228.9 25.6 231 45.9C233 66.3 264.7 94.1 257.8 106.8C250.9 119.4 205.5 116.9 181.5 121.3C157.5 125.6 154.9 136.7 152.7 152.7C150.6 168.8 148.8 189.7 142.9 213.9C137 238 126.9 265.4 108.7 262.3C90.4 259.3 64.1 225.8 44.6 224.4C25.2 222.9 12.6 253.4 0 283.9L0 0Z" fill="#575f6e"></path><path d="M236.6 0C213.7 10.7 190.8 21.4 192.5 38.3C194.2 55.2 220.5 78.4 214.8 89C209.1 99.5 171.2 97.4 151.2 101C131.2 104.6 129.1 113.9 127.3 127.3C125.5 140.6 124 158.1 119.1 178.2C114.2 198.4 105.7 221.2 90.5 218.6C75.4 216.1 53.4 188.2 37.2 187C21 185.7 10.5 211.2 0 236.6L0 0Z" fill="#787f8c"></path><path d="M189.3 0C171 8.5 152.6 17.1 154 30.6C155.4 44.2 176.4 62.7 171.8 71.2C167.2 79.6 137 78 121 80.8C105 83.7 103.3 91.1 101.8 101.8C100.4 112.5 99.2 126.5 95.3 142.6C91.3 158.7 84.6 176.9 72.4 174.9C60.3 172.8 42.7 150.5 29.8 149.6C16.8 148.6 8.4 168.9 0 189.3L0 0Z" fill="#9aa1ab"></path><path d="M142 0C128.2 6.4 114.5 12.8 115.5 23C116.5 33.1 132.3 47.1 128.9 53.4C125.4 59.7 102.7 58.5 90.7 60.6C78.7 62.8 77.4 68.3 76.4 76.4C75.3 84.4 74.4 94.9 71.5 106.9C68.5 119 63.4 132.7 54.3 131.2C45.2 129.6 32 112.9 22.3 112.2C12.6 111.4 6.3 126.7 0 142L0 0Z" fill="#bec4cb"></path><path d="M94.6 0C85.5 4.3 76.3 8.5 77 15.3C77.7 22.1 88.2 31.4 85.9 35.6C83.6 39.8 68.5 39 60.5 40.4C52.5 41.9 51.6 45.6 50.9 50.9C50.2 56.3 49.6 63.2 47.6 71.3C45.7 79.3 42.3 88.5 36.2 87.4C30.1 86.4 21.4 75.3 14.9 74.8C8.4 74.3 4.2 84.5 0 94.6L0 0Z" fill="#e4e8eb"></path><path d="M47.3 0C42.7 2.1 38.2 4.3 38.5 7.7C38.8 11 44.1 15.7 43 17.8C41.8 19.9 34.2 19.5 30.2 20.2C26.2 20.9 25.8 22.8 25.5 25.5C25.1 28.1 24.8 31.6 23.8 35.6C22.8 39.7 21.1 44.2 18.1 43.7C15.1 43.2 10.7 37.6 7.4 37.4C4.2 37.1 2.1 42.2 0 47.3L0 0Z" fill="#f8fafc"></path></g></svg>