<svg width="126" height="417" viewBox="0 0 126 417" fill="none" xmlns="http://www.w3.org/2000/svg">
<path d="M121.366 412.627C121.864 412.388 122.075 411.791 121.836 411.293L117.95 403.175C117.712 402.677 117.115 402.466 116.616 402.705C116.118 402.943 115.908 403.541 116.146 404.039L119.6 411.255L112.384 414.709C111.886 414.947 111.676 415.544 111.914 416.042C112.153 416.541 112.75 416.751 113.248 416.513L121.366 412.627ZM124.934 0.724609L124.245 0.000242131C82.6328 39.6042 25.136 122.646 6.27131 205.814C-3.16459 247.414 -2.95636 289.142 13.8466 325.495C30.6618 361.875 64.0268 392.723 120.602 412.668L120.934 411.725L121.267 410.782C65.0914 390.977 32.2063 360.449 15.6621 324.656C-0.89429 288.837 -1.15482 247.595 8.22176 206.257C26.9821 123.549 84.2352 40.8402 125.623 1.44898L124.934 0.724609Z" fill="currentColor"/>
</svg>
