<svg width="24" height="24" viewBox="0 0 24 24" fill="none" xmlns="http://www.w3.org/2000/svg">
<path fill-rule="evenodd" clip-rule="evenodd" d="M4.96967 12.0303C4.67678 11.7374 4.67678 11.2625 4.96967 10.9696L11.2197 4.71961C11.5126 4.42672 11.9874 4.42672 12.2803 4.71961L18.5303 10.9696C18.8232 11.2625 18.8232 11.7374 18.5303 12.0303C18.2374 12.3232 17.7626 12.3232 17.4697 12.0303L12.5 7.0606V16.5C12.5 16.9142 12.1642 17.25 11.75 17.25C11.3358 17.25 11 16.9141 11 16.4999V7.0606L6.03033 12.0303C5.73744 12.3232 5.26256 12.3232 4.96967 12.0303Z" fill="#24292E"/>
<circle cx="11.75" cy="18.75" r="0.75" transform="rotate(90 11.75 18.75)" fill="black"/>
</svg>
