<svg width="24" height="24" viewBox="0 0 24 24" fill="none" xmlns="http://www.w3.org/2000/svg">
<path fill-rule="evenodd" clip-rule="evenodd" d="M11.9697 19.0303C12.2626 19.3232 12.7375 19.3232 13.0304 19.0303L19.2804 12.7803C19.5733 12.4874 19.5733 12.0126 19.2804 11.7197L13.0304 5.46967C12.7375 5.17678 12.2626 5.17678 11.9697 5.46967C11.6768 5.76256 11.6768 6.23744 11.9697 6.53033L16.9394 11.5H7.5C7.08579 11.5 6.75 11.8358 6.75 12.25C6.75 12.6642 7.08585 13 7.50007 13H16.9394L11.9697 17.9697C11.6768 18.2626 11.6768 18.7374 11.9697 19.0303Z" fill="#24292E"/>
<circle cx="0.75" cy="0.75" r="0.75" transform="matrix(-1 0 0 1 6 11.5)" fill="black"/>
</svg>
