<svg width="24" height="24" viewBox="0 0 24 24" fill="none" xmlns="http://www.w3.org/2000/svg">
<path d="M12.0001 0C5.37347 0 0 5.50852 0 12.3038C0 17.74 3.43838 22.352 8.20641 23.9789C8.80613 24.0928 9.02634 23.712 9.02634 23.387C9.02634 23.0936 9.01509 22.1244 9.01003 21.0964C5.67159 21.8406 4.96716 19.6446 4.96716 19.6446C4.42125 18.2225 3.63469 17.8443 3.63469 17.8443C2.54597 17.0807 3.71681 17.0964 3.71681 17.0964C4.92178 17.1831 5.55628 18.3643 5.55628 18.3643C6.62663 20.2452 8.36362 19.7015 9.04838 19.387C9.15609 18.5919 9.46706 18.049 9.81028 17.7418C7.14487 17.4307 4.34297 16.3757 4.34297 11.6612C4.34297 10.3179 4.81172 9.2203 5.57934 8.35866C5.45475 8.04876 5.04403 6.79743 5.69559 5.10259C5.69559 5.10259 6.70331 4.77193 8.99653 6.36382C9.95372 6.09121 10.9803 5.95453 12.0001 5.94982C13.0199 5.95453 14.0473 6.09112 15.0063 6.36382C17.2967 4.77202 18.303 5.10268 18.303 5.10268C18.9562 6.79733 18.5452 8.04885 18.4207 8.35866C19.1901 9.2203 19.6556 10.3179 19.6556 11.6612C19.6556 16.3869 16.8484 17.4275 14.1762 17.7321C14.6066 18.1139 14.9902 18.8627 14.9902 20.0106C14.9902 21.6568 14.9763 22.9817 14.9763 23.387C14.9763 23.7145 15.1923 24.0981 15.8005 23.9772C20.5659 22.3486 24 17.7382 24 12.3039C24 5.50852 18.6273 0 12.0001 0ZM4.49447 17.5271C4.46803 17.5882 4.37419 17.6065 4.28878 17.5645C4.20169 17.5245 4.15284 17.4411 4.18097 17.3798C4.20684 17.3168 4.30087 17.2992 4.38769 17.3414C4.47487 17.3816 4.52456 17.4657 4.49447 17.5271ZM5.08472 18.0671C5.02753 18.1215 4.91559 18.0962 4.83966 18.0103C4.76119 17.9245 4.74647 17.8098 4.8045 17.7546C4.86356 17.7002 4.97203 17.7256 5.05069 17.8114C5.12925 17.8982 5.14444 18.0121 5.08472 18.0671ZM5.48972 18.758C5.41612 18.8104 5.29594 18.7613 5.22159 18.6519C5.14809 18.5425 5.14809 18.4113 5.22319 18.3587C5.29772 18.3061 5.41613 18.3534 5.49141 18.462C5.56472 18.5733 5.56472 18.7045 5.48962 18.7581L5.48972 18.758ZM6.17447 19.5582C6.10875 19.6326 5.96859 19.6126 5.86603 19.5111C5.76113 19.4119 5.73197 19.2712 5.79797 19.1968C5.86453 19.1222 6.00544 19.1432 6.10875 19.2439C6.21281 19.3429 6.24469 19.4847 6.17447 19.5582ZM7.05966 19.8283C7.03059 19.9247 6.89559 19.9686 6.75975 19.9276C6.624 19.8854 6.53522 19.7726 6.56259 19.6752C6.59081 19.5781 6.72638 19.5326 6.86325 19.5764C6.99881 19.6183 7.08788 19.7304 7.05966 19.8284V19.8283ZM8.06691 19.943C8.07028 20.0444 7.95506 20.1285 7.81238 20.1304C7.66894 20.1337 7.55278 20.0516 7.55119 19.9517C7.55119 19.8493 7.66388 19.7659 7.80741 19.7634C7.95009 19.7606 8.06691 19.8421 8.06691 19.943ZM9.05644 19.9041C9.0735 20.0031 8.97441 20.1048 8.83266 20.1319C8.69344 20.1579 8.56444 20.0968 8.54672 19.9987C8.52947 19.8972 8.63044 19.7955 8.76947 19.7692C8.91141 19.7439 9.03834 19.8034 9.05644 19.9041Z" fill="#161614"/>
</svg>
