<svg width="1629" height="779" viewBox="0 0 1629 779" fill="none" xmlns="http://www.w3.org/2000/svg">
<path d="M1552.53 445.459C1538.79 466.909 1541.25 492.069 1540.13 515.967C1539.01 539.866 1531.83 566.401 1506.32 580.016C1469.73 599.546 1417.13 582.088 1376.32 595.741C1340.76 607.644 1324.85 638.774 1307.81 665.629C1290.77 692.484 1261.16 720.958 1222.6 718.096C1162.99 713.689 1164.12 669.678 1104.27 652.729C1066.16 641.938 1044.44 663.124 1002.58 656.759C903.237 641.598 1094.88 347.266 1094.88 347.266L1074.73 334.766C1074.73 334.766 909.998 584.461 830.549 597.097C783.684 604.555 802.133 550.996 787 515.967C771.867 480.939 714.022 476.909 712.704 439.997C711.386 403.086 694.3 361.315 650.048 347.266C620.953 338.02 586.097 343.01 558.467 331.409C489.61 302.502 519.706 205.571 419.851 207.567C390.634 208.151 362.808 216.833 334.006 220.618C305.204 224.403 271.862 221.993 252.677 204.987C230.123 184.968 233.419 150.392 204.421 136.173C178.597 123.499 144.889 135.514 114.329 134.045C87.4313 132.746 61.9732 119.695 50.0375 101.051C29.8516 69.5631 67.4407 36.0979 31.2429 8.2447C23.2369 2.10532 10.8374 -0.983199 -4.31818e-09 0.278575L-1.20753e-05 779L1629 779L1629 424.385C1604.57 409.658 1566.27 424.027 1552.53 445.459Z" fill="url(#paint0_linear_32_1932)"/>
<path d="M1495.95 549.805C1459.99 547.884 1423.31 559.106 1397.45 579.893C1360.81 609.361 1348.62 674.754 1293.03 684.941C1242.86 694.129 1201.7 645.701 1150.35 643.893C1124.66 642.989 1100.89 653.967 1077.3 662.477C1053.72 670.988 1025.66 677.089 1003.05 666.94C972.56 653.27 966.136 616.61 936.012 602.375C897.988 584.412 849.34 612.731 807.117 603.185C778.991 596.821 760.194 575.13 746.415 553.815C732.636 532.501 720.627 509.19 697.699 494.259C670.753 476.691 634.092 474.15 599.836 474.037C565.558 473.905 529.85 475.242 498.682 463.455C450.896 445.379 450.465 401.997 442.701 364.659C434.052 323.047 414.507 274.882 365.519 263.396C341.796 257.823 316.19 262.605 291.968 258.783C253.944 252.777 225.523 227.019 201.755 201.693C177.988 176.368 154.106 148.803 118.534 136.168C89.0459 125.699 49.1379 131.329 31 151.288L31 711L1589 711L1589 590.08C1566.55 566.713 1531.88 551.706 1495.95 549.786L1495.95 549.805Z" fill="url(#paint1_linear_32_1932)"/>
<g style="mix-blend-mode:soft-light" opacity="0.66">
<path d="M1087.12 340.849C1068.13 327.569 1041.98 332.209 1028.7 351.197C994.179 400.584 1005.99 456.91 959.287 523.715C1005.99 456.91 1062.95 448.656 1097.49 399.281C1110.77 380.292 1106.13 354.141 1087.14 340.861L1087.12 340.849Z" fill="#FD9235"/>
</g>
<g style="mix-blend-mode:soft-light">
<path d="M1087.12 340.85C1074.41 331.954 1056.89 335.064 1047.99 347.771C1024.88 380.823 1032.8 418.529 1001.51 463.265C1032.79 418.553 1070.9 413.012 1094.01 379.961C1102.91 367.254 1099.8 349.734 1087.09 340.838L1087.12 340.85Z" fill="white"/>
</g>
<path d="M1061.83 317.09L1117 356.085L1110.81 364.848C1109.25 367.055 1106.18 367.582 1103.97 366.023L1056.81 332.692C1054.61 331.132 1054.08 328.06 1055.64 325.853L1061.83 317.09Z" fill="url(#paint2_linear_32_1932)"/>
<path d="M1087.41 217.346L1026.87 238.485C1019.62 241.02 1013.8 246.59 1011.01 253.745L984.109 321.984C983.225 324.208 985.077 326.542 987.442 326.215L1062.98 316.954L1087.41 217.346Z" fill="url(#paint3_linear_32_1932)"/>
<path d="M1202.22 297.619L1203.15 361.726C1203.26 369.423 1200.02 376.773 1194.26 381.873L1139.41 430.564C1137.61 432.148 1134.8 431.217 1134.27 428.903L1117.05 354.773L1202.21 297.642L1202.22 297.619Z" fill="url(#paint4_linear_32_1932)"/>
<path d="M1261.77 92.2793C1179.62 98.3117 1056.38 212.809 1053.69 306.315C1053.62 309.215 1054.77 311.798 1056.9 313.306L1122.02 359.348C1124.15 360.856 1126.97 361.094 1129.67 360.056C1216.87 326.299 1283.52 171.79 1261.78 92.3143L1261.77 92.2793Z" fill="url(#paint5_linear_32_1932)"/>
<path d="M1261.77 92.2788C1232.08 94.4518 1197.08 110.858 1164.29 135.237C1148.06 122.69 1253.88 198.42 1253.88 198.42C1265.89 159.387 1269.6 120.938 1261.76 92.2438L1261.77 92.2788Z" fill="url(#paint6_linear_32_1932)"/>
<path d="M1182.01 256.559C1162.76 263.001 1141.92 252.62 1135.47 233.393C1129.03 214.142 1139.41 193.309 1158.64 186.856C1177.89 180.414 1198.72 190.795 1205.17 210.022C1211.62 229.273 1201.24 250.107 1182.01 256.559Z" fill="url(#paint7_linear_32_1932)"/>
<path d="M1196.99 234.979C1189.66 249.709 1171.78 255.701 1157.06 248.347C1142.33 241.017 1136.34 223.142 1143.69 208.423C1151.02 193.693 1168.9 187.7 1183.62 195.054C1198.35 202.385 1204.34 220.26 1196.99 234.979Z" fill="#F15A29"/>
<path d="M1196.99 234.979C1200.09 228.757 1200.78 221.996 1199.46 215.672C1199.02 216.362 1198.63 217.05 1198.24 217.762C1196.49 220.999 1194.97 224.573 1192.08 226.859C1189.41 228.989 1185.7 229.753 1182.41 228.855C1177.7 227.573 1174.14 223.265 1169.34 222.372C1163.5 221.277 1157.64 225.58 1151.77 224.615C1148.99 224.164 1146.5 222.546 1144.46 220.614C1143.02 219.234 1141.76 217.615 1141.16 215.702C1138.5 228.616 1144.67 242.216 1157.03 248.36C1171.76 255.691 1189.63 249.698 1196.95 234.992L1196.99 234.979Z" fill="#F15A29"/>
<g style="mix-blend-mode:overlay" opacity="0.4">
<path d="M1185.29 201.922C1184.77 201.556 1184.23 201.215 1183.66 200.885C1183.09 200.556 1182.41 200.464 1181.78 200.629C1181.15 200.793 1180.61 201.203 1180.28 201.773C1179.63 202.889 1179.95 204.291 1180.99 205.045L1181.2 205.147C1181.62 205.432 1182.04 205.694 1182.46 205.979C1183.01 206.355 1183.67 206.495 1184.33 206.377C1184.98 206.247 1185.56 205.883 1185.93 205.336C1186.7 204.218 1186.41 202.686 1185.3 201.898L1185.29 201.922Z" fill="white"/>
<path d="M1177.42 198.613C1177.08 198.045 1176.51 197.657 1175.89 197.504C1169.24 195.967 1162.18 197.231 1156.51 201.038C1155.38 201.811 1155.06 203.343 1155.82 204.49C1155.99 204.745 1156.21 204.964 1156.45 205.135C1157.27 205.729 1158.39 205.743 1159.25 205.163C1163.85 202.092 1169.36 201.082 1174.75 202.338C1175.4 202.502 1176.06 202.383 1176.61 202.032C1177.18 201.693 1177.56 201.122 1177.72 200.497C1177.88 199.848 1177.76 199.181 1177.42 198.613Z" fill="white"/>
</g>
<g style="mix-blend-mode:soft-light">
<path d="M1062.26 295.631C1060.38 301.536 1058.66 307.484 1057.13 313.558L1085.71 333.552C1085.77 332.389 1085.85 331.237 1085.95 330.062C1086.18 327.123 1086.53 324.148 1086.9 321.159C1087.69 315.17 1088.77 309.176 1090 303.166C1092.59 291.204 1096.04 279.307 1100.27 267.665C1108.82 244.391 1120.48 222.042 1135.1 201.513C1142.44 191.29 1150.27 181.303 1158.95 172.038L1162.14 168.503L1165.49 165.128L1172.24 158.343L1179.27 151.868L1182.8 148.608L1186.47 145.532C1205.94 128.935 1227.37 114.376 1250.1 101.952C1226.19 111.899 1203.11 124.189 1181.46 139.022L1177.39 141.789L1173.43 144.729L1165.52 150.61L1157.87 156.85L1154.03 159.964L1150.34 163.263C1140.33 171.896 1131.07 181.406 1122.24 191.353C1104.61 211.295 1089.59 233.756 1077.65 258C1071.7 270.133 1066.56 282.709 1062.28 295.666L1062.26 295.631Z" fill="white"/>
</g>
<path d="M1050.29 391.982C1045.61 388.682 1044.43 382.25 1047.65 377.505L1087.66 318.587C1092.59 311.285 1098.26 304.509 1104.59 298.401L1130.37 273.418L1135.33 276.913L1120.41 309.559C1116.74 317.576 1112.25 325.174 1107.02 332.247L1064.85 389.646C1061.45 394.242 1054.99 395.295 1050.31 391.994L1050.29 391.982Z" fill="url(#paint8_linear_32_1932)"/>
<defs>
<linearGradient id="paint0_linear_32_1932" x1="530.934" y1="739.697" x2="698.792" y2="391.611" gradientUnits="userSpaceOnUse">
<stop stop-color="#B33CDB"/>
<stop offset="1" stop-color="white"/>
</linearGradient>
<linearGradient id="paint1_linear_32_1932" x1="283.296" y1="859.768" x2="489.689" y2="615.435" gradientUnits="userSpaceOnUse">
<stop stop-color="#C8FFFF"/>
<stop offset="1" stop-color="white"/>
</linearGradient>
<linearGradient id="paint2_linear_32_1932" x1="1080.99" y1="348.784" x2="1090.12" y2="335.734" gradientUnits="userSpaceOnUse">
<stop stop-color="white"/>
<stop offset="0.13" stop-color="#EFF6FF"/>
<stop offset="0.52" stop-color="#C5DEFF"/>
<stop offset="0.82" stop-color="#ABD0FF"/>
<stop offset="1" stop-color="#A2CBFF"/>
</linearGradient>
<linearGradient id="paint3_linear_32_1932" x1="1334.28" y1="278.915" x2="1014.62" y2="271.251" gradientUnits="userSpaceOnUse">
<stop stop-color="#EF4136"/>
<stop offset="0.42" stop-color="#EF4236"/>
<stop offset="0.57" stop-color="#EF4938"/>
<stop offset="0.67" stop-color="#F0553B"/>
<stop offset="0.76" stop-color="#F26640"/>
<stop offset="0.83" stop-color="#F47C47"/>
<stop offset="0.9" stop-color="#F7974E"/>
<stop offset="0.95" stop-color="#FAB758"/>
<stop offset="1" stop-color="#FDD661"/>
</linearGradient>
<linearGradient id="paint4_linear_32_1932" x1="1059.54" y1="86.9426" x2="1176.49" y2="384.562" gradientUnits="userSpaceOnUse">
<stop stop-color="#EF4136"/>
<stop offset="0.42" stop-color="#EF4236"/>
<stop offset="0.57" stop-color="#EF4938"/>
<stop offset="0.67" stop-color="#F0553B"/>
<stop offset="0.76" stop-color="#F26640"/>
<stop offset="0.83" stop-color="#F47C47"/>
<stop offset="0.9" stop-color="#F7974E"/>
<stop offset="0.95" stop-color="#FAB758"/>
<stop offset="1" stop-color="#FDD661"/>
</linearGradient>
<linearGradient id="paint5_linear_32_1932" x1="1142.51" y1="112.844" x2="1184.58" y2="350.52" gradientUnits="userSpaceOnUse">
<stop stop-color="white"/>
<stop offset="0.21" stop-color="#FBFCFF"/>
<stop offset="0.42" stop-color="#EFF6FF"/>
<stop offset="0.62" stop-color="#DBEAFF"/>
<stop offset="0.83" stop-color="#BFDBFF"/>
<stop offset="1" stop-color="#A2CBFF"/>
</linearGradient>
<linearGradient id="paint6_linear_32_1932" x1="1285.63" y1="59.0792" x2="1208.07" y2="166.393" gradientUnits="userSpaceOnUse">
<stop stop-color="#FDD661"/>
<stop offset="0.66" stop-color="#F37043"/>
<stop offset="1" stop-color="#EF4136"/>
</linearGradient>
<linearGradient id="paint7_linear_32_1932" x1="1165.05" y1="184.458" x2="1177.51" y2="256.932" gradientUnits="userSpaceOnUse">
<stop stop-color="#FCC715"/>
<stop offset="0.08" stop-color="#FCBF19"/>
<stop offset="0.43" stop-color="#FCA628"/>
<stop offset="0.75" stop-color="#FC9731"/>
<stop offset="1" stop-color="#FD9235"/>
</linearGradient>
<linearGradient id="paint8_linear_32_1932" x1="1080.63" y1="280.509" x2="1099.09" y2="384.806" gradientUnits="userSpaceOnUse">
<stop stop-color="#FDD661"/>
<stop offset="0.5" stop-color="#FCA12E"/>
<stop offset="1" stop-color="#FC7200"/>
</linearGradient>
</defs>
</svg>
