<svg width="24" height="24" viewBox="0 0 24 24" fill="none" xmlns="http://www.w3.org/2000/svg">
<g clip-path="url(#clip0_105_331)">
<path d="M18.375 12C18.375 13.2609 18.0011 14.4934 17.3006 15.5418C16.6001 16.5901 15.6045 17.4072 14.4396 17.8897C13.2747 18.3722 11.9929 18.4985 10.7563 18.2525C9.51967 18.0065 8.38375 17.3994 7.49219 16.5078C6.60063 15.6162 5.99347 14.4803 5.74749 13.2437C5.50151 12.0071 5.62776 10.7253 6.11027 9.56039C6.59278 8.39551 7.40988 7.39988 8.45824 6.69938C9.5066 5.99889 10.7391 5.625 12 5.625C13.69 5.62748 15.3101 6.29993 16.5051 7.49493C17.7001 8.68994 18.3725 10.31 18.375 12ZM12 4.125C12.1989 4.125 12.3897 4.04598 12.5303 3.90533C12.671 3.76468 12.75 3.57391 12.75 3.375V1.5C12.75 1.30109 12.671 1.11032 12.5303 0.96967C12.3897 0.829018 12.1989 0.75 12 0.75C11.8011 0.75 11.6103 0.829018 11.4697 0.96967C11.329 1.11032 11.25 1.30109 11.25 1.5V3.375C11.25 3.57391 11.329 3.76468 11.4697 3.90533C11.6103 4.04598 11.8011 4.125 12 4.125ZM5.37187 6.43125C5.51365 6.56926 5.7037 6.64649 5.90156 6.64649C6.09942 6.64649 6.28947 6.56926 6.43125 6.43125C6.57151 6.29065 6.65028 6.10016 6.65028 5.90156C6.65028 5.70296 6.57151 5.51247 6.43125 5.37187L5.10938 4.04062C5.04213 3.95869 4.95847 3.89174 4.86379 3.84408C4.76911 3.79643 4.6655 3.76912 4.55963 3.76392C4.45376 3.75872 4.34798 3.77574 4.24908 3.81389C4.15019 3.85204 4.06038 3.91047 3.98542 3.98542C3.91047 4.06038 3.85204 4.15019 3.81389 4.24908C3.77574 4.34798 3.75872 4.45376 3.76392 4.55963C3.76912 4.6655 3.79643 4.76911 3.84408 4.86379C3.89174 4.95847 3.95869 5.04213 4.04062 5.10938L5.37187 6.43125ZM4.125 12C4.125 11.8011 4.04598 11.6103 3.90533 11.4697C3.76468 11.329 3.57391 11.25 3.375 11.25H1.5C1.30109 11.25 1.11032 11.329 0.96967 11.4697C0.829018 11.6103 0.75 11.8011 0.75 12C0.75 12.1989 0.829018 12.3897 0.96967 12.5303C1.11032 12.671 1.30109 12.75 1.5 12.75H3.375C3.57391 12.75 3.76468 12.671 3.90533 12.5303C4.04598 12.3897 4.125 12.1989 4.125 12ZM5.37187 17.5687L4.04062 18.8906C3.89979 19.0328 3.82078 19.2249 3.82078 19.425C3.82078 19.6251 3.89979 19.8172 4.04062 19.9594C4.18562 20.0954 4.37621 20.1723 4.575 20.175C4.77416 20.1742 4.96541 20.097 5.10938 19.9594L6.43125 18.6281C6.56052 18.4855 6.62998 18.2985 6.62524 18.1061C6.6205 17.9136 6.54193 17.7303 6.40579 17.5942C6.26966 17.4581 6.08639 17.3795 5.89392 17.3748C5.70146 17.37 5.51454 17.4395 5.37187 17.5687ZM12 19.875C11.8011 19.875 11.6103 19.954 11.4697 20.0947C11.329 20.2353 11.25 20.4261 11.25 20.625V22.5C11.25 22.6989 11.329 22.8897 11.4697 23.0303C11.6103 23.171 11.8011 23.25 12 23.25C12.1989 23.25 12.3897 23.171 12.5303 23.0303C12.671 22.8897 12.75 22.6989 12.75 22.5V20.625C12.75 20.4261 12.671 20.2353 12.5303 20.0947C12.3897 19.954 12.1989 19.875 12 19.875ZM18.6281 17.5687C18.4855 17.4395 18.2985 17.37 18.1061 17.3748C17.9136 17.3795 17.7303 17.4581 17.5942 17.5942C17.4581 17.7303 17.3795 17.9136 17.3748 18.1061C17.37 18.2985 17.4395 18.4855 17.5687 18.6281L18.8906 19.9594C19.0346 20.097 19.2258 20.1742 19.425 20.175C19.6238 20.1723 19.8144 20.0954 19.9594 19.9594C20.1002 19.8172 20.1792 19.6251 20.1792 19.425C20.1792 19.2249 20.1002 19.0328 19.9594 18.8906L18.6281 17.5687ZM22.5 11.25H20.625C20.4261 11.25 20.2353 11.329 20.0947 11.4697C19.954 11.6103 19.875 11.8011 19.875 12C19.875 12.1989 19.954 12.3897 20.0947 12.5303C20.2353 12.671 20.4261 12.75 20.625 12.75H22.5C22.6989 12.75 22.8897 12.671 23.0303 12.5303C23.171 12.3897 23.25 12.1989 23.25 12C23.25 11.8011 23.171 11.6103 23.0303 11.4697C22.8897 11.329 22.6989 11.25 22.5 11.25ZM18.1031 6.64688C18.2006 6.64774 18.2972 6.6291 18.3874 6.59207C18.4776 6.55505 18.5594 6.50037 18.6281 6.43125L19.9594 5.10938C20.079 4.96365 20.1401 4.77866 20.1308 4.59037C20.1216 4.40208 20.0426 4.22396 19.9093 4.09066C19.776 3.95736 19.5979 3.8784 19.4096 3.86916C19.2213 3.85991 19.0363 3.92103 18.8906 4.04062L17.5687 5.37187C17.4285 5.51247 17.3497 5.70296 17.3497 5.90156C17.3497 6.10016 17.4285 6.29065 17.5687 6.43125C17.6386 6.50151 17.7219 6.55685 17.8138 6.59392C17.9057 6.63098 18.0041 6.649 18.1031 6.64688Z" fill="black"/>
</g>
<defs>
<clipPath id="clip0_105_331">
<rect width="24" height="24" fill="white"/>
</clipPath>
</defs>
</svg>
