<svg width="501" height="158" viewBox="0 0 501 158" fill="none" xmlns="http://www.w3.org/2000/svg">
<path d="M29.5434 84.69H48.4848C50.3596 84.69 52.299 82.9446 53.0101 80.876C54.1737 74.2174 55.6606 67.5588 57.1475 60.8356C57.5354 58.9608 57.9232 57.086 58.3111 55.2113C58.699 53.1426 57.1475 51.3971 55.2727 51.3971C39.3697 51.3971 23.7899 51.3971 8.27476 51.3971L10.9253 40.084H72.3394C79.1919 40.084 83.2647 45.385 81.8424 51.9143C79.5152 62.6456 77.4465 73.5063 74.9899 84.1729C74.0202 88.4396 70.7879 92.1891 67.0384 94.2577L70.8525 117.983H46.6101L43.1838 96.0032C37.8828 96.0032 32.194 96.0032 26.8929 96.0032L22.3677 117.983H0L12.1535 60.2537L36.0081 54.2416L29.5434 84.69Z" fill="white"/>
<path d="M124.832 54.2416C121.406 70.4678 117.592 86.6295 114.23 102.856C113.778 104.989 115.394 106.735 117.269 106.735C122.957 106.735 128.646 106.735 134.335 106.735C136.598 106.735 138.796 104.989 139.248 102.856C142.61 86.9527 146.101 71.1143 149.463 55.2113C149.915 53.1426 148.299 51.3971 146.036 51.3971C129.745 51.3971 113.454 51.3971 97.1635 51.3971L99.814 40.084H163.491C169.955 40.084 173.964 45.385 172.606 51.9143C168.727 70.0153 164.784 88.0517 160.84 106.217C159.418 112.682 153.277 118.048 146.812 118.048C131.297 118.048 115.717 118.048 100.59 118.048C93.7373 118.048 89.7938 112.682 91.0868 106.217C94.3191 90.8315 97.9393 75.5749 100.913 60.2537L124.832 54.2416Z" fill="white"/>
<path d="M216.824 84.6902H209.971L202.795 117.983H180.428L192.581 60.2539L216.436 54.1771L212.298 73.3771H219.151L242.618 40.0195H264.597L237.317 79.0014L248.307 117.401H226.327L216.824 84.6902ZM216.824 51.3973L219.474 40.0842L191.03 40.1489L188.767 51.462H216.824V51.3973Z" fill="white"/>
<path d="M307.523 84.6902H300.735L293.559 117.983H271.191L283.345 60.2539L307.199 54.1771L303.062 73.3771H309.785L333.252 40.0195H355.232L327.951 79.0014L338.941 117.401H316.961L307.523 84.6902ZM307.523 51.3973L310.173 40.0842L281.729 40.1489L279.466 51.462H307.523V51.3973Z" fill="white"/>
<path d="M417.099 51.3971L419.749 40.084H499.329L496.678 51.3971H417.099ZM454.27 118.048H431.903L444.056 60.3184L467.911 54.3062L454.27 118.048Z" fill="white"/>
<path opacity="0.66" d="M380.768 103.825C375.144 102.856 369.778 106.67 368.873 112.294C366.416 126.969 375.014 138.217 371.717 157.999C375.014 138.217 386.845 130.33 389.301 115.656C390.206 110.096 386.392 104.731 380.768 103.825Z" fill="#FD9235"/>
<path d="M380.768 103.826C377.018 103.179 373.398 105.765 372.816 109.515C371.2 119.341 376.953 126.84 374.691 140.157C376.889 126.904 384.84 121.603 386.456 111.842C387.103 108.028 384.582 104.472 380.768 103.826Z" fill="white"/>
<path d="M387.232 107.576L373.204 105.184C372.557 105.055 372.105 104.473 372.234 103.762L372.687 101.176L389.107 104.02L388.654 106.606C388.46 107.253 387.879 107.705 387.232 107.576Z" fill="url(#paint0_linear_353_262)"/>
<path d="M367.774 76.2871L356.526 87.4063C355.168 88.7639 354.457 90.574 354.586 92.5134L355.815 110.55C355.879 111.132 356.526 111.455 356.978 111.132L372.817 101.047L367.774 76.2871Z" fill="url(#paint1_linear_353_262)"/>
<path d="M401.778 82.041L408.76 96.1986C409.6 97.8794 409.665 99.8835 408.889 101.629L401.843 118.243C401.584 118.76 400.873 118.89 400.55 118.437L388.849 103.762L401.778 82.041Z" fill="url(#paint2_linear_353_262)"/>
<path d="M393.309 30C375.66 40.0202 360.404 78.5495 369.713 99.6243C369.971 100.271 370.553 100.723 371.135 100.852L390.464 104.214C391.111 104.343 391.757 104.085 392.21 103.568C408.113 86.8243 406.561 45.3859 393.309 30Z" fill="url(#paint3_linear_353_262)"/>
<path d="M393.309 30C386.909 33.6202 380.897 40.9899 376.178 49.9111C371.265 48.8121 402.812 54.501 402.812 54.501C401.325 44.5455 398.093 35.5596 393.309 30Z" fill="url(#paint4_linear_353_262)"/>
<path d="M392.986 74.9944C389.366 78.4853 383.677 78.3561 380.186 74.7359C376.695 71.1157 376.824 65.4267 380.444 61.9358C384.065 58.4449 389.753 58.5742 393.244 62.1944C396.671 65.8146 396.541 71.5681 392.986 74.9944Z" fill="url(#paint5_linear_353_262)"/>
<path d="M394.021 68.6588C393.956 72.7315 390.595 75.9638 386.587 75.8345C382.514 75.7699 379.282 72.4083 379.411 68.4002C379.476 64.3275 382.837 61.0952 386.845 61.2245C390.853 61.2245 394.086 64.5861 394.021 68.6588Z" fill="#F15A29"/>
<path d="M394.021 68.6582C394.021 66.9774 393.504 65.3613 392.534 64.0684C392.534 64.2623 392.469 64.4562 392.469 64.6501C392.405 65.5552 392.469 66.5249 392.081 67.3007C391.694 68.0764 390.982 68.5936 390.142 68.7875C388.978 68.9814 387.685 68.3996 386.522 68.7229C385.1 69.1108 384.259 70.6622 382.837 71.1148C382.191 71.3087 381.479 71.2441 380.768 70.9855C380.316 70.8562 379.863 70.5976 379.54 70.2744C380.316 73.4421 383.096 75.7693 386.522 75.834C390.595 75.8986 393.956 72.6663 394.021 68.6582Z" fill="#F15A29"/>
<g opacity="0.4">
<path d="M387.879 62.5178C387.75 62.5178 387.556 62.4531 387.427 62.4531C387.233 62.4531 387.104 62.5177 386.974 62.5824C386.845 62.7117 386.78 62.841 386.78 62.9702C386.78 63.2935 386.974 63.5521 387.297 63.6167H387.362C387.491 63.6167 387.621 63.6167 387.75 63.6813C387.944 63.6813 388.073 63.6814 388.203 63.5521C388.332 63.4874 388.396 63.2935 388.461 63.1642C388.461 62.9056 388.267 62.5824 387.879 62.5178Z" fill="white"/>
<path d="M385.811 62.5826C385.681 62.518 385.487 62.4533 385.358 62.518C383.742 62.9059 382.255 63.9402 381.415 65.3625C381.221 65.621 381.35 66.0089 381.609 66.2028C381.673 66.2675 381.738 66.2674 381.803 66.2674C382.061 66.3321 382.32 66.2029 382.449 66.0089C383.16 64.8453 384.259 64.0049 385.617 63.7463C385.746 63.6816 385.94 63.617 386.005 63.4877C386.069 63.3584 386.134 63.1644 386.069 63.0351C386.069 62.8412 385.94 62.7119 385.811 62.5826Z" fill="white"/>
</g>
<path d="M370.489 96.3922C370.683 97.8791 370.942 99.4306 371.265 100.917L379.734 102.34C379.604 102.081 379.54 101.823 379.41 101.564C379.152 100.853 378.893 100.206 378.699 99.4952C378.247 98.073 377.859 96.6508 377.471 95.1639C376.76 92.2549 376.307 89.2165 375.984 86.1781C375.402 80.1013 375.661 73.8952 376.695 67.7538C377.212 64.7154 377.923 61.6771 378.893 58.7033L379.216 57.6044L379.604 56.5053L380.38 54.3073L381.285 52.1094L381.738 51.0104L382.255 49.9114C384.841 44.1579 388.073 38.6629 391.822 33.4912C387.556 38.2104 383.742 43.4468 380.509 49.0064L379.863 50.0407L379.281 51.1397L378.117 53.273L377.083 55.471L376.566 56.57L376.113 57.669C374.82 60.6427 373.721 63.7457 372.816 66.9134C371.006 73.1841 370.037 79.7781 369.972 86.4367C369.843 89.7336 370.037 93.0306 370.489 96.3922Z" fill="white"/>
<path d="M377.988 119.083C376.565 118.824 375.66 117.531 375.854 116.109L378.505 98.7837C378.828 96.6504 379.345 94.5171 380.121 92.5131L383.224 84.2383L384.711 84.4969L384.84 93.3534C384.905 95.5514 384.711 97.6847 384.258 99.8181L380.961 117.079C380.703 118.436 379.41 119.341 377.988 119.083Z" fill="url(#paint6_linear_353_262)"/>
<defs>
<linearGradient id="paint0_linear_353_262" x1="380.161" y1="106.263" x2="380.81" y2="102.391" gradientUnits="userSpaceOnUse">
<stop stop-color="white"/>
<stop offset="0.129" stop-color="#EFF6FF"/>
<stop offset="0.5153" stop-color="#C6DFFF"/>
<stop offset="0.8188" stop-color="#ACD0FF"/>
<stop offset="1" stop-color="#A2CBFF"/>
</linearGradient>
<linearGradient id="paint1_linear_353_262" x1="429.249" y1="63.8884" x2="357.317" y2="96.0389" gradientUnits="userSpaceOnUse">
<stop offset="0.00765814" stop-color="#EF4136"/>
<stop offset="0.4196" stop-color="#EF4337"/>
<stop offset="0.568" stop-color="#F04A38"/>
<stop offset="0.6737" stop-color="#F1553C"/>
<stop offset="0.7593" stop-color="#F36641"/>
<stop offset="0.8326" stop-color="#F57C47"/>
<stop offset="0.8974" stop-color="#F7984F"/>
<stop offset="0.9547" stop-color="#FAB758"/>
<stop offset="1" stop-color="#FDD661"/>
</linearGradient>
<linearGradient id="paint2_linear_353_262" x1="347.844" y1="50.243" x2="405.374" y2="104.077" gradientUnits="userSpaceOnUse">
<stop offset="0.00765814" stop-color="#EF4136"/>
<stop offset="0.4196" stop-color="#EF4337"/>
<stop offset="0.568" stop-color="#F04A38"/>
<stop offset="0.6737" stop-color="#F1553C"/>
<stop offset="0.7593" stop-color="#F36641"/>
<stop offset="0.8326" stop-color="#F57C47"/>
<stop offset="0.8974" stop-color="#F7984F"/>
<stop offset="0.9547" stop-color="#FAB758"/>
<stop offset="1" stop-color="#FDD661"/>
</linearGradient>
<linearGradient id="paint3_linear_353_262" x1="368.999" y1="47.2529" x2="403.524" y2="95.6708" gradientUnits="userSpaceOnUse">
<stop stop-color="white"/>
<stop offset="0.2088" stop-color="#FBFDFF"/>
<stop offset="0.416" stop-color="#EFF6FF"/>
<stop offset="0.6226" stop-color="#DBEBFF"/>
<stop offset="0.8275" stop-color="#BFDBFF"/>
<stop offset="1" stop-color="#A2CBFF"/>
</linearGradient>
<linearGradient id="paint4_linear_353_262" x1="395.141" y1="20.1306" x2="389.25" y2="52.2204" gradientUnits="userSpaceOnUse">
<stop stop-color="#FDD661"/>
<stop offset="0.6574" stop-color="#F47144"/>
<stop offset="1" stop-color="#EF4136"/>
</linearGradient>
<linearGradient id="paint5_linear_353_262" x1="381.506" y1="60.8481" x2="391.947" y2="75.6523" gradientUnits="userSpaceOnUse">
<stop stop-color="#FCC715"/>
<stop offset="0.0833177" stop-color="#FCC019"/>
<stop offset="0.4305" stop-color="#FDA729"/>
<stop offset="0.7462" stop-color="#FD9732"/>
<stop offset="1" stop-color="#FD9235"/>
</linearGradient>
<linearGradient id="paint6_linear_353_262" x1="373.556" y1="91.232" x2="388.708" y2="112.48" gradientUnits="userSpaceOnUse">
<stop stop-color="#FDD661"/>
<stop offset="0.5015" stop-color="#FCA22E"/>
<stop offset="1" stop-color="#FC7200"/>
</linearGradient>
</defs>
</svg>
