<svg width="24" height="24" viewBox="0 0 24 24" fill="none" xmlns="http://www.w3.org/2000/svg">
<path fill="currentColor" fill-rule="evenodd" d="m16.219 4.838l2.964 2.967c2.012 2.014 3.018 3.021 2.784 4.107c-.235 1.085-1.567 1.585-4.23 2.586l-1.845.693c-.713.268-1.07.402-1.345.64q-.181.158-.322.352c-.212.297-.313.664-.515 1.4c-.46 1.672-.69 2.508-1.239 2.821c-.23.132-.492.2-.758.2c-.63 0-1.243-.614-2.469-1.84l-1.466-1.468l-1.079-1.08L5.285 14.8c-1.218-1.219-1.827-1.828-1.83-2.455a1.53 1.53 0 0 1 .203-.773c.313-.543 1.143-.772 2.803-1.23c.737-.203 1.105-.304 1.402-.517q.199-.144.36-.332c.236-.278.368-.637.63-1.355l.669-1.823c.987-2.693 1.48-4.04 2.568-4.28s2.102.774 4.129 2.803" clip-rule="evenodd" opacity=".5"/><path fill="currentColor" d="m3.302 21.776l4.476-4.48l-1.079-1.08l-4.476 4.48a.764.764 0 0 0 1.08 1.08"/>
</svg>