<svg width="24" height="24" viewBox="0 0 24 24" fill="none" xmlns="http://www.w3.org/2000/svg">
<path fill="currentColor" d="m15.99 4.95l.53-.53zm3.082 3.086l-.531.53zM8.738 19.429l-.53.53zm-4.116-4.12l.53-.53zm12.945-.315l-.264-.702zm-1.917.72l.264.703zM8.332 8.383l-.704-.258zm.695-1.896l.704.258zm-3.182 4.188l.2.723zm1.457-.539l-.439-.609zm.374-.345l.57.487zm6.575 6.59l.491.568zm-.87 1.821l-.724-.199zm.536-1.454l-.61-.438zM2.718 12.755l-.75.005zm.212-.803l-.65-.374zm8.375 9.391l.001-.75zm.788-.208l-.371-.652zm-.396-19.099l.162.732zM1.47 21.47a.75.75 0 0 0 1.062 1.06zm5.715-3.598a.75.75 0 0 0-1.061-1.06zM15.459 5.48l3.082 3.086l1.061-1.06L16.52 4.42zM9.269 18.9l-4.117-4.12l-1.06 1.06l4.116 4.12zm8.034-4.607l-1.917.72l.528 1.405l1.917-.72zM9.036 8.64l.695-1.896l-1.409-.516l-.694 1.896zm-2.992 2.756c.712-.196 1.253-.334 1.696-.652l-.877-1.218c-.172.125-.397.198-1.217.424zm1.584-3.272c-.293.8-.385 1.018-.523 1.18l1.142.973c.353-.415.535-.944.79-1.637zm.112 2.62q.281-.203.507-.467l-1.142-.973a1.4 1.4 0 0 1-.242.222zm7.646 4.268c-.689.26-1.214.445-1.626.801l.982 1.135c.16-.14.377-.233 1.172-.531zM14.104 18.4c.225-.819.298-1.043.422-1.216l-1.219-.875c-.317.443-.454.983-.65 1.693zm-.344-2.586q-.256.22-.453.495l1.22.875q.093-.132.215-.236zm-8.608-1.036c-.646-.647-1.084-1.087-1.368-1.444c-.286-.359-.315-.514-.316-.583l-1.5.009c.004.582.293 1.07.642 1.508c.35.44.861.95 1.481 1.57zm.494-4.828c-.846.234-1.542.424-2.063.634c-.52.208-1.012.49-1.302.994l1.3.748c.034-.06.136-.18.56-.35s1.022-.337 1.903-.58zm-2.178 2.8a.84.84 0 0 1 .112-.424l-1.3-.748a2.34 2.34 0 0 0-.312 1.182zm4.74 7.21c.624.624 1.137 1.139 1.578 1.49c.441.352.932.642 1.518.643l.002-1.5c-.07 0-.225-.029-.585-.316c-.36-.286-.802-.727-1.452-1.378zm4.45-1.958c-.245.888-.412 1.49-.583 1.917c-.172.428-.293.53-.353.564l.743 1.303c.509-.29.792-.786 1.002-1.309c.21-.524.402-1.225.637-2.077zm-1.354 4.091c.407 0 .807-.105 1.161-.307l-.743-1.303a.84.84 0 0 1-.416.11zm7.237-13.527c1.064 1.064 1.8 1.803 2.25 2.413c.444.598.495.917.441 1.167l1.466.317c.19-.878-.16-1.647-.701-2.377c-.534-.72-1.366-1.551-2.395-2.58zm-.71 7.13c1.361-.511 2.463-.923 3.246-1.358c.795-.44 1.431-.996 1.621-1.875l-1.466-.317c-.054.25-.232.52-.883.88c-.663.369-1.638.737-3.046 1.266zM16.52 4.42c-1.036-1.037-1.872-1.876-2.595-2.414c-.734-.544-1.508-.897-2.39-.702l.324 1.464c.25-.055.569-.005 1.171.443c.613.455 1.358 1.197 2.429 2.27zM9.73 6.744c.522-1.423.886-2.41 1.251-3.08c.36-.66.628-.84.878-.896l-.323-1.464c-.882.194-1.435.84-1.872 1.642c-.431.792-.837 1.906-1.342 3.282zM2.53 22.53l4.654-4.658l-1.061-1.06l-4.654 4.658z"/>
</svg>