<svg width="24" height="24" viewBox="0 0 24 24" fill="none" xmlns="http://www.w3.org/2000/svg">
<path fill="currentColor" fill-rule="evenodd" d="m12.951 8.595l-.364-.357C11.07 6.746 10.31 5.999 9.488 6c-.27 0-.535.054-.782.158c-.756.32-1.153 1.3-1.948 3.261l-.057.142c-.225.556-.338.834-.518 1.058c-.138.17-.303.317-.489.433c-.245.154-.538.236-1.124.4c-.908.252-1.362.38-1.563.65a.96.96 0 0 0-.185.696c.042.333.376.66 1.043 1.317l1.017 1l1.045 1.026l.018.018l1.027 1.009c.668.656 1.001.984 1.34 1.025c.251.031.505-.034.709-.18c.275-.199.404-.645.661-1.538c.167-.575.25-.863.406-1.104q.18-.276.441-.48c.228-.178.511-.289 1.077-.51l.144-.056c1.995-.78 2.993-1.17 3.318-1.914c.106-.243.16-.504.161-.768c0-.81-.758-1.556-2.277-3.048" clip-rule="evenodd"/><path fill="currentColor" d="m3.27 18.786l2.674-2.627l-.018-.018l-1.045-1.027l-2.663 2.637a.723.723 0 0 0 0 1.035a.753.753 0 0 0 1.053 0" opacity=".5"/><path fill="currentColor" fill-rule="evenodd" d="M22 8.377a.74.74 0 0 1-.744.731h-4.962a.74.74 0 0 1-.744-.731c0-.404.333-.731.744-.731h4.962c.411 0 .744.327.744.731m0 4.389a.74.74 0 0 1-.744.731h-3.97a.74.74 0 0 1-.744-.731c0-.404.333-.732.744-.732h3.97c.411 0 .744.328.744.732m0 4.389a.74.74 0 0 1-.744.731h-8.932a.74.74 0 0 1-.744-.731c0-.404.333-.732.744-.732h8.932c.411 0 .744.328.744.732" clip-rule="evenodd" opacity=".5"/>
</svg>