<svg width="24" height="24" viewBox="0 0 24 24" fill="none" xmlns="http://www.w3.org/2000/svg">
<path fill="currentColor" d="M7.375 7.875c0-.935 0-1.402.201-1.75a1.5 1.5 0 0 1 .549-.549c.348-.201.815-.201 1.75-.201h9c.935 0 1.402 0 1.75.201a1.5 1.5 0 0 1 .549.549c.201.348.201.815.201 1.75s0 1.402-.201 1.75a1.5 1.5 0 0 1-.549.549c-.348.201-.815.201-1.75.201h-9c-.935 0-1.402 0-1.75-.201a1.5 1.5 0 0 1-.549-.549c-.201-.348-.201-.815-.201-1.75m0 9c0-.935 0-1.402.201-1.75a1.5 1.5 0 0 1 .549-.549c.348-.201.815-.201 1.75-.201h6c.935 0 1.402 0 1.75.201a1.5 1.5 0 0 1 .549.549c.201.348.201.815.201 1.75s0 1.402-.201 1.75a1.5 1.5 0 0 1-.549.549c-.348.201-.815.201-1.75.201h-6c-.935 0-1.402 0-1.75-.201a1.5 1.5 0 0 1-.549-.549c-.201-.348-.201-.815-.201-1.75"/><path fill="currentColor" fill-rule="evenodd" d="M3.375 23.125a.75.75 0 0 0 .75-.75v-20a.75.75 0 0 0-1.5 0v20c0 .414.336.75.75.75" clip-rule="evenodd" opacity=".5"/>
</svg>