<svg width="24" height="24" viewBox="0 0 24 24" fill="none" xmlns="http://www.w3.org/2000/svg">
<path fill="currentColor" fill-rule="evenodd" d="M11.5 21h1c3.771 0 5.657 0 6.828-1.172S20.5 16.771 20.5 13V6.998C20.355 7 20.15 7 20 7H4c-.15 0-.355 0-.5-.002V13c0 3.771 0 5.657 1.172 6.828S7.729 21 11.5 21m-2.424-9.883C9 11.301 9 11.534 9 12s0 .699.076.883a1 1 0 0 0 .541.54c.184.077.417.077.883.077h3c.466 0 .699 0 .883-.076a1 1 0 0 0 .54-.541C15 12.699 15 12.466 15 12s0-.699-.076-.883a1 1 0 0 0-.541-.54c-.184-.077-.417-.077-.883-.077h-3c-.466 0-.699 0-.883.076a1 1 0 0 0-.54.541" clip-rule="evenodd"/><path fill="currentColor" d="M2 5c0-.943 0-1.414.293-1.707S3.057 3 4 3h16c.943 0 1.414 0 1.707.293S22 4.057 22 5s0 1.414-.293 1.707S20.943 7 20 7H4c-.943 0-1.414 0-1.707-.293S2 5.943 2 5" opacity=".5"/>
</svg>