<svg width="24" height="24" viewBox="0 0 24 24" fill="none" xmlns="http://www.w3.org/2000/svg">
<g fill="none" stroke="currentColor" stroke-width="1.5"><path d="M2 12c0-4.714 0-7.071 1.464-8.536C4.93 2 7.286 2 12 2s7.071 0 8.535 1.464C22 4.93 22 7.286 22 12s0 7.071-1.465 8.535C19.072 22 16.714 22 12 22s-7.071 0-8.536-1.465C2 19.072 2 16.714 2 12Z"/><circle cx="16" cy="8" r="2" opacity=".5"/><path stroke-linecap="round" d="m5 13.307l.81-.753a2.3 2.3 0 0 1 3.24.108l2.647 2.81c.539.572 1.42.649 2.049.18a2.32 2.32 0 0 1 2.986.181L19 18" opacity=".5"/></g>
</svg>