<svg width="24" height="24" viewBox="0 0 24 24" fill="none" xmlns="http://www.w3.org/2000/svg">
<path fill="currentColor" fill-rule="evenodd" d="M12 22c-4.714 0-7.071 0-8.536-1.465C2 19.072 2 16.714 2 12s0-7.071 1.464-8.536C4.93 2 7.286 2 12 2s7.071 0 8.535 1.464C22 4.93 22 7.286 22 12s0 7.071-1.465 8.535C19.072 22 16.714 22 12 22M8.97 8.97a.75.75 0 0 1 1.06 0L12 10.94l1.97-1.97a.75.75 0 0 1 1.06 1.06L13.06 12l1.97 1.97a.75.75 0 1 1-1.06 1.06L12 13.06l-1.97 1.97a.75.75 0 1 1-1.06-1.06L10.94 12l-1.97-1.97a.75.75 0 0 1 0-1.06" clip-rule="evenodd"/>
</svg>