<svg width="24" height="24" viewBox="0 0 24 24" fill="none" xmlns="http://www.w3.org/2000/svg">
<path fill="currentColor" d="M18 12a6 6 0 1 1-12 0a6 6 0 0 1 12 0"/><path fill="currentColor" fill-rule="evenodd" d="M12 1.25a.75.75 0 0 1 .75.75v1a.75.75 0 0 1-1.5 0V2a.75.75 0 0 1 .75-.75M1.25 12a.75.75 0 0 1 .75-.75h1a.75.75 0 0 1 0 1.5H2a.75.75 0 0 1-.75-.75m19 0a.75.75 0 0 1 .75-.75h1a.75.75 0 0 1 0 1.5h-1a.75.75 0 0 1-.75-.75M12 20.25a.75.75 0 0 1 .75.75v1a.75.75 0 0 1-1.5 0v-1a.75.75 0 0 1 .75-.75" clip-rule="evenodd"/><path fill="currentColor" d="M4.398 4.398a.75.75 0 0 1 1.061 0l.393.393a.75.75 0 0 1-1.06 1.06l-.394-.392a.75.75 0 0 1 0-1.06m15.202 0a.75.75 0 0 1 0 1.06l-.392.393a.75.75 0 0 1-1.06-1.06l.392-.393a.75.75 0 0 1 1.06 0m-1.453 13.748a.75.75 0 0 1 1.061 0l.393.393a.75.75 0 0 1-1.06 1.06l-.394-.392a.75.75 0 0 1 0-1.06m-12.295 0a.75.75 0 0 1 0 1.06l-.393.393a.75.75 0 1 1-1.06-1.06l.392-.393a.75.75 0 0 1 1.06 0" opacity=".5"/>
</svg>