<svg width="24" height="24" viewBox="0 0 24 24" fill="none" xmlns="http://www.w3.org/2000/svg">
<path fill="currentColor" fill-rule="evenodd" d="M22 12c0 5.523-4.477 10-10 10a10 10 0 0 1-3.321-.564A9 9 0 0 1 8 18a8.97 8.97 0 0 1 2.138-5.824A6.5 6.5 0 0 0 15.5 15a6.5 6.5 0 0 0 5.567-3.143c.24-.396.933-.32.933.143" clip-rule="evenodd" opacity=".5"/><path fill="currentColor" d="M2 12c0 4.359 2.789 8.066 6.679 9.435A9 9 0 0 1 8 18c0-2.221.805-4.254 2.138-5.824A6.47 6.47 0 0 1 9 8.5a6.5 6.5 0 0 1 3.143-5.567C12.54 2.693 12.463 2 12 2C6.477 2 2 6.477 2 12"/>
</svg>