<svg width="24" height="24" viewBox="0 0 24 24" fill="none" xmlns="http://www.w3.org/2000/svg">
<path fill="currentColor" d="M16.07 9.952c1.329 0 2.462 0 3.366.102q.23.025.458.064c.532.09 1.05.235 1.53.488v-.85c0-.91 0-1.663-.085-2.264c-.09-.635-.286-1.197-.756-1.66a3 3 0 0 0-.241-.214c-.512-.408-1.126-.575-1.82-.652c-.67-.074-1.512-.074-2.545-.074h-.353c-.982 0-1.335-.006-1.653-.087a2.7 2.7 0 0 1-.536-.196c-.285-.14-.532-.351-1.228-.968l-.474-.42a7 7 0 0 0-.48-.403a4.3 4.3 0 0 0-2.182-.803A8 8 0 0 0 8.413 2h-.116c-.641 0-1.064 0-1.431.061c-1.605.268-2.903 1.39-3.219 2.875c-.072.337-.071.724-.071 1.283v4.387c.48-.253.998-.399 1.53-.488q.227-.039.458-.064c.904-.102 2.037-.102 3.367-.102z"/><path fill="currentColor" fill-rule="evenodd" d="M3.358 12.779c-.61.941-.358 2.25.145 4.868c.363 1.885.544 2.827 1.172 3.452q.246.245.544.429C5.982 22 6.995 22 9.022 22h6.956c2.027 0 3.04 0 3.803-.472q.298-.184.544-.429c.628-.625.81-1.567 1.172-3.452c.503-2.618.755-3.927.145-4.868a3 3 0 0 0-.57-.646c-.87-.735-2.279-.735-5.094-.735H9.022c-2.815 0-4.223 0-5.094.735a3 3 0 0 0-.57.646m6.337 4.402c0-.4.343-.723.765-.723h4.08c.422 0 .765.324.765.723s-.343.723-.765.723h-4.08c-.422 0-.765-.324-.765-.723" clip-rule="evenodd"/>
</svg>