<svg width="24" height="24" viewBox="0 0 24 24" fill="none" xmlns="http://www.w3.org/2000/svg">
<g fill="none" stroke="currentColor" stroke-width="1.5"><path d="M4 11.5V5.712c0-.662 0-.993.055-1.268C4.3 3.23 5.312 2.28 6.607 2.052C6.9 2 7.254 2 7.96 2c.31 0 .464 0 .612.013c.641.056 1.25.292 1.745.677a7 7 0 0 1 .443.397l.44.413c.653.612.979.918 1.37 1.122q.323.168.678.263c.43.115.892.115 1.815.115h.299c2.106 0 3.158 0 3.843.577q.095.08.18.168C20 6.387 20 7.375 20 9.348V11.5"/><path stroke-linecap="round" d="M10 17h4"/><path d="M3.477 17.484C3 14.768 2.76 13.41 3.339 12.433q.223-.376.54-.67C4.704 11 6.038 11 8.705 11h6.59c2.667 0 4 0 4.826.763q.316.294.54.67c.578.977.34 2.335-.138 5.05c-.343 1.956-.515 2.934-1.11 3.582a3 3 0 0 1-.515.445c-.723.49-1.683.49-3.603.49h-6.59c-1.92 0-2.88 0-3.603-.49a3 3 0 0 1-.515-.445c-.595-.648-.767-1.626-1.11-3.581Z"/></g>
</svg>