<svg width="24" height="24" viewBox="0 0 24 24" fill="none" xmlns="http://www.w3.org/2000/svg">
<g fill="none" stroke="currentColor" stroke-linecap="round" stroke-width="1.5"><path d="M22 10h-4m4 3h-3m-3 8v1M2 22V8c0-2.828 0-4.243.879-5.121C3.757 2 5.172 2 8 2h3.935a3 3 0 0 1 1.883.682l.034.028l.079.065a3 3 0 0 0 2.069.66M18.5 2l-.523.523l-.073.072a3 3 0 0 1-1.904.84M16 2v1.436m0 0V6"/><path d="M22 16.507V10c0-1.886 0-2.828-.586-3.414S19.886 6 18 6h-4c-1.886 0-2.828 0-3.414.586S10 8.114 10 10v6.507c0 .657.277 1.284.763 1.726a7.78 7.78 0 0 0 10.474 0A2.33 2.33 0 0 0 22 16.507Z"/></g>
</svg>