<svg width="24" height="24" viewBox="0 0 24 24" fill="none" xmlns="http://www.w3.org/2000/svg">
<path fill="currentColor" fill-rule="evenodd" d="M17 20.75a.75.75 0 0 0 .75-.75V6.25l1.65 2.2a.75.75 0 1 0 1.2-.9l-3-4a.75.75 0 0 0-1.35.45v16c0 .414.336.75.75.75" clip-rule="evenodd"/><path fill="currentColor" d="M3.25 8c0 .414.336.75.75.75h9a.75.75 0 0 0 0-1.5H4a.75.75 0 0 0-.75.75"/><path fill="currentColor" d="M5.25 13c0 .414.336.75.75.75h7a.75.75 0 0 0 0-1.5H6a.75.75 0 0 0-.75.75" opacity=".7"/><path fill="currentColor" d="M7.25 18c0 .414.336.75.75.75h5a.75.75 0 0 0 0-1.5H8a.75.75 0 0 0-.75.75" opacity=".4"/>
</svg>