<svg width="24" height="24" viewBox="0 0 24 24" fill="none" xmlns="http://www.w3.org/2000/svg">
<path fill="currentColor" d="M17.293 2.293C17 2.586 17 3.057 17 4v13c0 .943 0 1.414.293 1.707S18.057 19 19 19s1.414 0 1.707-.293S21 17.943 21 17V4c0-.943 0-1.414-.293-1.707S19.943 2 19 2s-1.414 0-1.707.293M10 7c0-.943 0-1.414.293-1.707S11.057 5 12 5s1.414 0 1.707.293S14 6.057 14 7v10c0 .943 0 1.414-.293 1.707S12.943 19 12 19s-1.414 0-1.707-.293S10 17.943 10 17zM3.293 9.293C3 9.586 3 10.057 3 11v6c0 .943 0 1.414.293 1.707S4.057 19 5 19s1.414 0 1.707-.293S7 17.943 7 17v-6c0-.943 0-1.414-.293-1.707S5.943 9 5 9s-1.414 0-1.707.293" opacity=".5"/><path fill="currentColor" d="M3 21.25a.75.75 0 0 0 0 1.5h18a.75.75 0 0 0 0-1.5z"/>
</svg>
