<svg width="24" height="24" viewBox="0 0 24 24" fill="none" xmlns="http://www.w3.org/2000/svg">
<path fill="currentColor" fill-rule="evenodd" d="M2.919 6.605a1 1 0 0 0-1.838.79l.002.003l.003.007l.01.021l.032.072q.04.09.12.25c.105.21.262.506.47.857c.41.687 1.027 1.6 1.872 2.52l-.797.797a1 1 0 1 0 1.414 1.414l.84-.84c.565.455 1.197.885 1.897 1.256l-.782 1.202a1 1 0 0 0 1.676 1.091l.985-1.514c.677.208 1.402.355 2.177.425V16.5a1 1 0 0 0 1 1V13c-2.748 0-4.819-1.199-6.304-2.59l-.024-.022a12 12 0 0 1-.564-.569a13.4 13.4 0 0 1-1.67-2.237a12 12 0 0 1-.516-.968zm-1.838.79L2 7c-.92.394-.919.395-.919.395" clip-rule="evenodd"/><path fill="currentColor" d="M15.22 12.398A8.7 8.7 0 0 1 12 13v4.5a1 1 0 0 0 1-1v-1.544c.772-.07 1.497-.217 2.176-.425l.986 1.515a1 1 0 0 0 1.676-1.091l-.782-1.203c.701-.37 1.332-.8 1.897-1.256l.84.84a1 1 0 1 0 1.414-1.414l-.797-.798a15.4 15.4 0 0 0 2.302-3.296a10 10 0 0 0 .19-.395l.011-.026l.004-.008l.002-.005a1 1 0 1 0-1.838-.788l-.005.011a5 5 0 0 1-.146.302a13 13 0 0 1-2.614 3.48c-.841.79-1.87 1.517-3.095 2" opacity=".5"/>
</svg>