<svg width="24" height="24" viewBox="0 0 24 24" fill="none" xmlns="http://www.w3.org/2000/svg">
<path fill-rule="evenodd" clip-rule="evenodd" d="M11 9.5C11 9.22386 11.2239 9 11.5 9H22.5C22.7761 9 23 9.22386 23 9.5C23 9.77614 22.7761 10 22.5 10H11.5C11.2239 10 11 9.77614 11 9.5ZM11 12C11 11.7239 11.2239 11.5 11.5 11.5H22.5C22.7761 11.5 23 11.7239 23 12C23 12.2761 22.7761 12.5 22.5 12.5H11.5C11.2239 12.5 11 12.2761 11 12ZM11.5 14C11.2239 14 11 14.2239 11 14.5C11 14.7761 11.2239 15 11.5 15H22.5C22.7761 15 23 14.7761 23 14.5C23 14.2239 22.7761 14 22.5 14H11.5Z" fill="black"/>
<path d="M2.44444 8C2.06135 8 1.69395 8.15218 1.42307 8.42307C1.15218 8.69395 1 9.06135 1 9.44444V14.5556C1 14.9386 1.15218 15.306 1.42307 15.5769C1.69395 15.8478 2.06135 16 2.44444 16H7.55556C7.93865 16 8.30605 15.8478 8.57693 15.5769C8.84782 15.306 9 14.9386 9 14.5556V9.44444C9 9.06135 8.84782 8.69395 8.57693 8.42307C8.30605 8.15218 7.93865 8 7.55556 8H2.44444ZM1.66667 9.44444C1.66667 9.01511 2.01511 8.66667 2.44444 8.66667H7.55556C7.98489 8.66667 8.33333 9.01511 8.33333 9.44444V14.5556C8.33333 14.7618 8.25139 14.9597 8.10553 15.1055C7.95967 15.2514 7.76184 15.3333 7.55556 15.3333H2.44444C2.23817 15.3333 2.04033 15.2514 1.89447 15.1055C1.74861 14.9597 1.66667 14.7618 1.66667 14.5556V9.44444ZM7.34667 10.7911C7.37942 10.7606 7.40568 10.7238 7.4239 10.6829C7.44212 10.642 7.45192 10.5979 7.45271 10.5531C7.4535 10.5084 7.44526 10.4639 7.4285 10.4224C7.41173 10.3809 7.38678 10.3432 7.35513 10.3115C7.32348 10.2799 7.28577 10.2549 7.24427 10.2382C7.20276 10.2214 7.1583 10.2132 7.11355 10.214C7.06879 10.2147 7.02465 10.2245 6.98376 10.2428C6.94287 10.261 6.90607 10.2873 6.87556 10.32L4.10978 13.0827L3.12444 12.0978C3.06126 12.0389 2.97768 12.0068 2.89132 12.0084C2.80497 12.0099 2.72257 12.0449 2.6615 12.1059C2.60043 12.167 2.56545 12.2494 2.56392 12.3358C2.5624 12.4221 2.59445 12.5057 2.65333 12.5689L3.87333 13.7893C3.93583 13.8518 4.02056 13.8868 4.10889 13.8868C4.19722 13.8868 4.28194 13.8518 4.34444 13.7893L7.34622 10.7916L7.34667 10.7911Z" fill="black"/>
</svg>
