<svg width="24" height="24" viewBox="0 0 24 24" fill="none" xmlns="http://www.w3.org/2000/svg">
<rect x="2" y="6" width="20" height="12" rx="2" stroke="black" stroke-width="1.5"/>
<path fill-rule="evenodd" clip-rule="evenodd" d="M17 8.20001C17 8.08954 17.0895 8 17.2 8H17.8C17.9105 8 18 8.08954 18 8.20001V9H19C19.5523 9 20 9.44772 20 10V15C20 15.5523 19.5523 16 19 16H13C12.4477 16 12 15.5523 12 15V10C12 9.44772 12.4477 9 13 9H14V8.20001C14 8.08954 14.0895 8 14.2 8H14.8C14.9105 8 15 8.08954 15 8.20001V9H17V8.20001ZM14 10V10.8C14 10.9105 14.0895 11 14.2 11H14.8C14.9105 11 15 10.9105 15 10.8V10H17V10.8C17 10.9105 17.0895 11 17.2 11H17.8C17.9105 11 18 10.9105 18 10.8V10H19V15H13V10H14Z" fill="black"/>
</svg>
