<svg width="24" height="24" viewBox="0 0 24 24" fill="none" xmlns="http://www.w3.org/2000/svg">
<path d="M12 3.59999C10.8969 3.59999 9.80459 3.81727 8.78545 4.23941C7.76632 4.66155 6.84031 5.28028 6.0603 6.0603C5.28028 6.84031 4.66155 7.76632 4.23941 8.78545C3.81727 9.80459 3.59999 10.8969 3.59999 12C3.59999 13.1031 3.81727 14.1954 4.23941 15.2145C4.66155 16.2337 5.28028 17.1597 6.0603 17.9397C6.84031 18.7197 7.76632 19.3384 8.78545 19.7606C9.80459 20.1827 10.8969 20.4 12 20.4C14.2278 20.4 16.3644 19.515 17.9397 17.9397C19.515 16.3644 20.4 14.2278 20.4 12C20.4 9.77218 19.515 7.6356 17.9397 6.0603C16.3644 4.48499 14.2278 3.59999 12 3.59999ZM2.39999 12C2.39999 9.45392 3.41142 7.01212 5.21177 5.21177C7.01212 3.41142 9.45392 2.39999 12 2.39999C14.5461 2.39999 16.9879 3.41142 18.7882 5.21177C20.5886 7.01212 21.6 9.45392 21.6 12C21.6 14.5461 20.5886 16.9879 18.7882 18.7882C16.9879 20.5886 14.5461 21.6 12 21.6C9.45392 21.6 7.01212 20.5886 5.21177 18.7882C3.41142 16.9879 2.39999 14.5461 2.39999 12Z" fill="black"/>
</svg>
