<svg width="24" height="24" viewBox="0 0 24 24" fill="none" xmlns="http://www.w3.org/2000/svg">
<rect x="2" y="6" width="20" height="12" rx="2" stroke="black" stroke-width="1.5"/>
<path d="M18.8333 8H14.1667C13.8572 8 13.5605 8.10536 13.3417 8.29289C13.1229 8.48043 13 8.73478 13 9V15C13 15.2652 13.1229 15.5196 13.3417 15.7071C13.5605 15.8946 13.8572 16 14.1667 16H18.8333C19.1428 16 19.4395 15.8946 19.6583 15.7071C19.8771 15.5196 20 15.2652 20 15V9C20 8.73478 19.8771 8.48043 19.6583 8.29289C19.4395 8.10536 19.1428 8 18.8333 8V8ZM16.2083 11.3535L15.5398 11.927C15.4851 11.9739 15.4108 12.0003 15.3333 12.0003C15.2559 12.0003 15.1816 11.9739 15.1268 11.927C15.0721 11.8801 15.0413 11.8164 15.0413 11.75C15.0413 11.6836 15.0721 11.6199 15.1268 11.573L16.2935 10.573C16.3206 10.5497 16.3528 10.5312 16.3882 10.5186C16.4236 10.506 16.4616 10.4996 16.5 10.4996C16.5384 10.4996 16.5764 10.506 16.6118 10.5186C16.6472 10.5312 16.6794 10.5497 16.7065 10.573L17.8732 11.573C17.9003 11.5962 17.9218 11.6238 17.9365 11.6542C17.9511 11.6846 17.9587 11.7171 17.9587 11.75C17.9587 11.7829 17.9511 11.8154 17.9365 11.8458C17.9218 11.8762 17.9003 11.9038 17.8732 11.927C17.846 11.9502 17.8139 11.9687 17.7784 11.9813C17.743 11.9938 17.705 12.0003 17.6667 12.0003C17.6283 12.0003 17.5903 11.9938 17.5549 11.9813C17.5195 11.9687 17.4873 11.9502 17.4602 11.927L16.7917 11.3535V13.25C16.7917 13.3163 16.7609 13.3799 16.7062 13.4268C16.6515 13.4737 16.5774 13.5 16.5 13.5C16.4226 13.5 16.3485 13.4737 16.2938 13.4268C16.2391 13.3799 16.2083 13.3163 16.2083 13.25V11.3535Z" fill="black"/>
</svg>
