<svg width="24" height="24" viewBox="0 0 24 24" fill="none" xmlns="http://www.w3.org/2000/svg">
<rect x="2" y="6" width="20" height="12" rx="2" stroke="black" stroke-width="1.5"/>
<path d="M6.3517 13.3608V11.017H6.74942V13.3608H6.3517ZM5.37868 12.3878V11.9901H7.72243V12.3878H5.37868ZM9.73282 10.3139C9.88197 10.3151 10.0311 10.3435 10.1803 10.3991C10.3294 10.4548 10.4655 10.5471 10.5886 10.6761C10.7118 10.804 10.8106 10.9786 10.8852 11.1999C10.9597 11.4213 10.997 11.6989 10.997 12.0327C10.997 12.3558 10.9662 12.6429 10.9047 12.8938C10.8443 13.1436 10.7567 13.3543 10.6419 13.5259C10.5283 13.6976 10.3898 13.8278 10.2264 13.9165C10.0643 14.0053 9.88079 14.0497 9.676 14.0497C9.4724 14.0497 9.2907 14.0095 9.1309 13.929C8.97229 13.8473 8.84208 13.7343 8.74028 13.5898C8.63966 13.4442 8.57515 13.2756 8.54674 13.0838H8.97998C9.01904 13.2507 9.09658 13.3886 9.21258 13.4975C9.32977 13.6052 9.48424 13.6591 9.676 13.6591C9.95654 13.6591 10.1779 13.5366 10.3401 13.2915C10.5034 13.0465 10.5851 12.7003 10.5851 12.2528H10.5567C10.4904 12.3523 10.4117 12.4381 10.3205 12.5103C10.2294 12.5825 10.1282 12.6381 10.0169 12.6772C9.90564 12.7163 9.78727 12.7358 9.6618 12.7358C9.45347 12.7358 9.2623 12.6843 9.08829 12.5813C8.91547 12.4772 8.77697 12.3345 8.67281 12.1534C8.56982 11.9711 8.51833 11.7628 8.51833 11.5284C8.51833 11.3059 8.56805 11.1023 8.66748 10.9176C8.7681 10.7318 8.90896 10.5838 9.09007 10.4737C9.27236 10.3636 9.48661 10.3104 9.73282 10.3139ZM9.73282 10.7045C9.58367 10.7045 9.44932 10.7418 9.32977 10.8164C9.2114 10.8898 9.11729 10.9892 9.04745 11.1147C8.9788 11.239 8.94447 11.3769 8.94447 11.5284C8.94447 11.6799 8.97761 11.8178 9.0439 11.9421C9.11137 12.0652 9.20311 12.1635 9.31911 12.2369C9.4363 12.3091 9.56947 12.3452 9.71862 12.3452C9.83107 12.3452 9.93583 12.3233 10.0329 12.2795C10.13 12.2345 10.2146 12.1735 10.2868 12.0966C10.3602 12.0185 10.4176 11.9303 10.459 11.832C10.5005 11.7326 10.5212 11.629 10.5212 11.5213C10.5212 11.3793 10.4868 11.2461 10.4182 11.1218C10.3507 10.9975 10.2572 10.8969 10.1377 10.82C10.0193 10.743 9.88434 10.7045 9.73282 10.7045ZM12.9737 10.3636V14H12.5333V10.8253H12.512L11.6242 11.4148V10.9673L12.5333 10.3636H12.9737ZM15.5891 11.9865V12.3771H13.9982V11.9865H15.5891ZM17.6829 14L18.2795 10.3636H18.6346L18.038 14H17.6829ZM16.0281 12.9915L16.0849 12.6364H18.798L18.7412 12.9915H16.0281ZM16.4045 14L17.0011 10.3636H17.3562L16.7596 14H16.4045ZM16.2412 11.7273L16.298 11.3722H19.0111L18.9542 11.7273H16.2412Z" fill="black"/>
</svg>
