<svg width="24" height="24" viewBox="0 0 24 24" fill="none" xmlns="http://www.w3.org/2000/svg">
<path d="M2.90909 7.5H21.0909C21.593 7.5 22 7.05228 22 6.5V3.5C22 2.94772 21.593 2.5 21.0909 2.5H2.90909C2.40701 2.5 2 2.94772 2 3.5V6.5C2 7.05228 2.40701 7.5 2.90909 7.5Z" stroke="black" stroke-linecap="round"/>
<path d="M4.27273 12H19.7273M2.90909 14.5H21.0909C21.593 14.5 22 14.0523 22 13.5V10.5C22 9.94772 21.593 9.5 21.0909 9.5H2.90909C2.40701 9.5 2 9.94772 2 10.5V13.5C2 14.0523 2.40701 14.5 2.90909 14.5Z" stroke="black" stroke-linecap="round"/>
<path d="M4.27273 19H19.7273M2.90909 21.5H21.0909C21.593 21.5 22 21.0523 22 20.5V17.5C22 16.9477 21.593 16.5 21.0909 16.5H2.90909C2.40701 16.5 2 16.9477 2 17.5V20.5C2 21.0523 2.40701 21.5 2.90909 21.5Z" stroke="black" stroke-linecap="round"/>
</svg>
