<svg width="24" height="24" viewBox="0 0 24 24" fill="none" xmlns="http://www.w3.org/2000/svg">
<path fill="currentColor" fill-rule="evenodd" d="M1.25 21a.75.75 0 0 1 .75-.75h20a.75.75 0 0 1 0 1.5H2a.75.75 0 0 1-.75-.75m0-18A.75.75 0 0 1 2 2.25h20a.75.75 0 0 1 0 1.5H2A.75.75 0 0 1 1.25 3" clip-rule="evenodd"/><path fill="currentColor" d="M4 12c0 1.886 0 2.828.586 3.414S6.114 16 8 16h8c1.886 0 2.828 0 3.414-.586S20 13.886 20 12s0-2.828-.586-3.414S17.886 8 16 8H8c-1.886 0-2.828 0-3.414.586S4 10.114 4 12"/>
</svg>