<svg width="24" height="24" viewBox="0 0 24 24" fill="none" xmlns="http://www.w3.org/2000/svg">
<g fill="none" stroke="currentColor" stroke-width="1.5"><path d="M20.942 3.058c2.47 2.469.468 8.474-4.47 13.413c-4.94 4.939-10.945 6.94-13.414 4.471c-2.47-2.47-.468-8.474 4.471-13.413S18.473.589 20.942 3.058Zm-17.884 0c-2.47 2.47-.468 8.475 4.47 13.413c4.94 4.939 10.945 6.94 13.414 4.471c2.47-2.469.468-8.474-4.471-13.413S5.527.589 3.058 3.058Z"/><path d="M14.5 12a2.5 2.5 0 1 1-5 0a2.5 2.5 0 0 1 5 0Z" opacity=".5"/></g>
</svg>