<svg width="24" height="24" viewBox="0 0 24 24" fill="none" xmlns="http://www.w3.org/2000/svg">
<path fill="none" stroke="currentColor" stroke-width="1.5" d="m5.67 9.914l3.062-4.143c1.979-2.678 2.969-4.017 3.892-3.734s.923 1.925.923 5.21v.31c0 1.185 0 1.777.379 2.148l.02.02c.387.363 1.003.363 2.236.363c2.22 0 3.329 0 3.704.673l.018.034c.354.683-.289 1.553-1.574 3.29l-3.062 4.144c-1.98 2.678-2.969 4.017-3.892 3.734s-.923-1.925-.923-5.21v-.31c0-1.185 0-1.777-.379-2.148l-.02-.02c-.387-.363-1.003-.363-2.236-.363c-2.22 0-3.329 0-3.703-.673l-.019-.034c-.354-.683.289-1.552 1.574-3.29Z"/>
</svg>