<svg width="24" height="24" viewBox="0 0 24 24" fill="none" xmlns="http://www.w3.org/2000/svg">
<path fill="currentColor" d="M21.194 2.806a2.753 2.753 0 0 1 0 3.893l-.496.496a5 5 0 0 1-.533-.151a5.2 5.2 0 0 1-1.968-1.241a5.2 5.2 0 0 1-1.241-1.968a5 5 0 0 1-.15-.533l.495-.496a2.753 2.753 0 0 1 3.893 0M14.58 13.313c-.404.404-.606.606-.829.78a4.6 4.6 0 0 1-.848.524c-.255.121-.526.211-1.068.392l-2.858.953a.742.742 0 0 1-.939-.94l.953-2.857c.18-.542.27-.813.392-1.068q.217-.453.524-.848c.174-.223.376-.425.78-.83l4.916-4.915a6.7 6.7 0 0 0 1.533 2.36a6.7 6.7 0 0 0 2.36 1.533z"/><path fill="currentColor" d="M12 22c5.523 0 10-4.477 10-10a10 10 0 0 0-.591-3.395l-5.823 5.823c-.351.352-.615.616-.912.847a6 6 0 0 1-1.125.696c-.34.162-.694.28-1.166.437l-2.932.977a2.242 2.242 0 0 1-2.836-2.836l.977-2.932c.157-.472.275-.826.437-1.166q.287-.6.696-1.125c.231-.297.495-.56.847-.912l5.823-5.823A10 10 0 0 0 12 2C6.477 2 2 6.477 2 12s4.477 10 10 10"/>
</svg>