<svg width="24" height="24" viewBox="0 0 24 24" fill="none" xmlns="http://www.w3.org/2000/svg">
<g clip-path="url(#clip0_2122_2652)">
<path opacity="0.1" fill-rule="evenodd" clip-rule="evenodd" d="M1.4064 22.242C2.8116 24 5.0748 24 9.6 24H14.4C18.9252 24 21.1884 24 22.5936 22.242C23.9988 20.484 24 17.6565 24 12C24 6.3435 24 3.5145 22.5936 1.758C21.1872 0.00149989 18.9252 0 14.4 0H9.6C5.0748 0 2.8116 -1.78814e-07 1.4064 1.758C0.00119991 3.516 0 6.3435 0 12C0 17.6565 -1.43051e-07 20.4855 1.4064 22.242Z" fill="black"/>
<path d="M6.94024 2C7.35624 2 7.69324 2.324 7.69324 2.724V4.184C8.36124 4.172 9.11024 4.172 9.95324 4.172H13.9682C14.8102 4.172 15.5592 4.172 16.2272 4.185V2.725C16.2272 2.325 16.5642 2 16.9802 2C17.3962 2 17.7332 2.324 17.7332 2.724V4.25C19.1782 4.361 20.1272 4.634 20.8232 5.305C21.5212 5.975 21.8052 6.887 21.9202 8.277L22.0002 9H2.00024V8.276C2.11624 6.886 2.40024 5.974 3.09724 5.304C3.79424 4.634 4.74224 4.36 6.18724 4.249V2.724C6.18724 2.324 6.52424 2 6.94024 2Z" fill="black"/>
<path opacity="0.5" d="M22.0003 14V12C22.0003 11.161 21.9963 9.665 21.9833 9H2.0103C1.9973 9.665 2.0003 11.161 2.0003 12V14C2.0003 17.771 2.0003 19.657 3.1723 20.828C4.3443 21.999 6.2283 22 10.0003 22H14.0003C17.7703 22 19.6563 22 20.8283 20.828C22.0003 19.656 22.0003 17.772 22.0003 14Z" fill="black"/>
<path d="M18.0002 17C18.0002 17.2652 17.8949 17.5196 17.7074 17.7071C17.5198 17.8946 17.2655 18 17.0002 18C16.735 18 16.4807 17.8946 16.2931 17.7071C16.1056 17.5196 16.0002 17.2652 16.0002 17C16.0002 16.7348 16.1056 16.4804 16.2931 16.2929C16.4807 16.1054 16.735 16 17.0002 16C17.2655 16 17.5198 16.1054 17.7074 16.2929C17.8949 16.4804 18.0002 16.7348 18.0002 17ZM18.0002 13C18.0002 13.2652 17.8949 13.5196 17.7074 13.7071C17.5198 13.8946 17.2655 14 17.0002 14C16.735 14 16.4807 13.8946 16.2931 13.7071C16.1056 13.5196 16.0002 13.2652 16.0002 13C16.0002 12.7348 16.1056 12.4804 16.2931 12.2929C16.4807 12.1054 16.735 12 17.0002 12C17.2655 12 17.5198 12.1054 17.7074 12.2929C17.8949 12.4804 18.0002 12.7348 18.0002 13ZM13.0002 17C13.0002 17.2652 12.8949 17.5196 12.7074 17.7071C12.5198 17.8946 12.2655 18 12.0002 18C11.735 18 11.4807 17.8946 11.2931 17.7071C11.1056 17.5196 11.0002 17.2652 11.0002 17C11.0002 16.7348 11.1056 16.4804 11.2931 16.2929C11.4807 16.1054 11.735 16 12.0002 16C12.2655 16 12.5198 16.1054 12.7074 16.2929C12.8949 16.4804 13.0002 16.7348 13.0002 17ZM13.0002 13C13.0002 13.2652 12.8949 13.5196 12.7074 13.7071C12.5198 13.8946 12.2655 14 12.0002 14C11.735 14 11.4807 13.8946 11.2931 13.7071C11.1056 13.5196 11.0002 13.2652 11.0002 13C11.0002 12.7348 11.1056 12.4804 11.2931 12.2929C11.4807 12.1054 11.735 12 12.0002 12C12.2655 12 12.5198 12.1054 12.7074 12.2929C12.8949 12.4804 13.0002 12.7348 13.0002 13ZM8.00024 17C8.00024 17.2652 7.89489 17.5196 7.70735 17.7071C7.51981 17.8946 7.26546 18 7.00024 18C6.73503 18 6.48067 17.8946 6.29314 17.7071C6.1056 17.5196 6.00024 17.2652 6.00024 17C6.00024 16.7348 6.1056 16.4804 6.29314 16.2929C6.48067 16.1054 6.73503 16 7.00024 16C7.26546 16 7.51981 16.1054 7.70735 16.2929C7.89489 16.4804 8.00024 16.7348 8.00024 17ZM8.00024 13C8.00024 13.2652 7.89489 13.5196 7.70735 13.7071C7.51981 13.8946 7.26546 14 7.00024 14C6.73503 14 6.48067 13.8946 6.29314 13.7071C6.1056 13.5196 6.00024 13.2652 6.00024 13C6.00024 12.7348 6.1056 12.4804 6.29314 12.2929C6.48067 12.1054 6.73503 12 7.00024 12C7.26546 12 7.51981 12.1054 7.70735 12.2929C7.89489 12.4804 8.00024 12.7348 8.00024 13Z" fill="black"/>
</g>
<defs>
<clipPath id="clip0_2122_2652">
<rect width="24" height="24" fill="white"/>
</clipPath>
</defs>
</svg>
