<svg width="24" height="24" viewBox="0 0 24 24" fill="none" xmlns="http://www.w3.org/2000/svg">
<g fill="none" stroke="currentColor" stroke-width="1.5"><path d="M2 14c0-3.771 0-5.657 1.172-6.828S6.229 6 10 6h4c3.771 0 5.657 0 6.828 1.172S22 10.229 22 14s0 5.657-1.172 6.828S17.771 22 14 22h-4c-3.771 0-5.657 0-6.828-1.172S2 17.771 2 14Z"/><path d="m4 7l-.012-1c.112-.931.347-1.574.837-2.063C5.765 3 7.279 3 10.307 3h3.211c3.028 0 4.541 0 5.482.937c.49.489.725 1.132.837 2.063v1"/><circle cx="17.5" cy="10.5" r="1.5"/><path stroke-linecap="round" d="m2 14.5l1.752-1.533a2.3 2.3 0 0 1 3.14.105l4.29 4.29a2 2 0 0 0 2.564.222l.299-.21a3 3 0 0 1 3.731.225L21 20.5"/></g>
</svg>