<svg width="24" height="24" viewBox="0 0 24 24" fill="none" xmlns="http://www.w3.org/2000/svg">
<g fill="none" stroke="currentColor" stroke-width="1.5"><path stroke-linecap="round" stroke-linejoin="round" d="M3 22h18" opacity=".5"/><path d="M3 11c0-.943 0-1.414.293-1.707S4.057 9 5 9s1.414 0 1.707.293S7 10.057 7 11v6c0 .943 0 1.414-.293 1.707S5.943 19 5 19s-1.414 0-1.707-.293S3 17.943 3 17zm7-4c0-.943 0-1.414.293-1.707S11.057 5 12 5s1.414 0 1.707.293S14 6.057 14 7v10c0 .943 0 1.414-.293 1.707S12.943 19 12 19s-1.414 0-1.707-.293S10 17.943 10 17zm7-3c0-.943 0-1.414.293-1.707S18.057 2 19 2s1.414 0 1.707.293S21 3.057 21 4v13c0 .943 0 1.414-.293 1.707S19.943 19 19 19s-1.414 0-1.707-.293S17 17.943 17 17z"/></g>
</svg>