<svg width="24" height="24" viewBox="0 0 24 24" fill="none" xmlns="http://www.w3.org/2000/svg">
<path fill="currentColor" fill-rule="evenodd" d="M3.464 3.464C2 4.93 2 7.286 2 12s0 7.071 1.464 8.535C4.93 22 7.286 22 12 22s7.071 0 8.535-1.465C22 19.072 22 16.714 22 12s0-7.071-1.465-8.536C19.072 2 16.714 2 12 2S4.929 2 3.464 3.464M17 12.25a.75.75 0 0 1 .75.75v5a.75.75 0 0 1-1.5 0v-5a.75.75 0 0 1 .75-.75M12.75 6a.75.75 0 0 0-1.5 0v12a.75.75 0 0 0 1.5 0zM7 8.25a.75.75 0 0 1 .75.75v9a.75.75 0 0 1-1.5 0V9A.75.75 0 0 1 7 8.25" clip-rule="evenodd"/>
</svg>