<svg width="24" height="24" viewBox="0 0 24 24" fill="none" xmlns="http://www.w3.org/2000/svg">
<path fill="currentColor" d="m13.792 21.319l-.597 1.008c-.531.897-1.859.897-2.39 0l-.597-1.008c-.462-.781-.693-1.172-1.065-1.388c-.371-.216-.84-.224-1.774-.24c-1.381-.024-2.247-.109-2.974-.41a5.5 5.5 0 0 1-2.976-2.976C1 15.294 1 14.013 1 11.45v-1.1c0-3.6 0-5.401.81-6.724A5.5 5.5 0 0 1 3.626 1.81C4.95 1 6.75 1 10.35 1h3.3c3.6 0 5.401 0 6.724.81a5.5 5.5 0 0 1 1.816 1.816C23 4.95 23 6.75 23 10.35v1.1c0 2.563 0 3.844-.419 4.855a5.5 5.5 0 0 1-2.976 2.976c-.727.301-1.593.386-2.974.41c-.935.016-1.403.024-1.774.24c-.372.216-.603.607-1.065 1.388" opacity=".5"/><path fill="currentColor" fill-rule="evenodd" d="M15.267 6.83a.825.825 0 0 1 1.167 0l.188.188l.04.04c.7.7 1.283 1.282 1.683 1.807c.423.554.72 1.14.72 1.848s-.297 1.294-.72 1.848c-.4.524-.983 1.107-1.682 1.806l-.23.23a.825.825 0 0 1-1.166-1.167l.189-.19c.75-.749 1.252-1.254 1.577-1.68c.31-.407.381-.644.381-.847s-.07-.44-.38-.847c-.326-.426-.828-.931-1.578-1.681l-.189-.189a.825.825 0 0 1 0-1.166m-1.63-2.226c.44.118.701.57.583 1.01L11.373 16.24a.825.825 0 1 1-1.594-.427l2.847-10.625a.825.825 0 0 1 1.01-.584M8.733 6.83a.825.825 0 0 0-1.167 0l-.188.188l-.04.04c-.7.7-1.283 1.282-1.683 1.807c-.423.554-.72 1.14-.72 1.848s.297 1.294.72 1.848c.4.524.983 1.107 1.682 1.806l.23.23a.825.825 0 0 0 1.166-1.167l-.189-.19c-.75-.749-1.252-1.254-1.577-1.68c-.31-.407-.381-.644-.381-.847s.07-.44.38-.847c.326-.426.828-.931 1.578-1.681l.189-.189a.825.825 0 0 0 0-1.166" clip-rule="evenodd"/>
</svg>