<svg width="24" height="24" viewBox="0 0 24 24" fill="none" xmlns="http://www.w3.org/2000/svg">
<path fill="currentColor" d="M8 3.5A1.5 1.5 0 0 1 9.5 2h5A1.5 1.5 0 0 1 16 3.5v1A1.5 1.5 0 0 1 14.5 6h-5A1.5 1.5 0 0 1 8 4.5z"/><path fill="currentColor" fill-rule="evenodd" d="M6.5 4.037c-1.258.07-2.052.27-2.621.84C3 5.756 3 7.17 3 9.998v6c0 2.829 0 4.243.879 5.122c.878.878 2.293.878 5.121.878h6c2.828 0 4.243 0 5.121-.878c.879-.88.879-2.293.879-5.122v-6c0-2.828 0-4.242-.879-5.121c-.569-.57-1.363-.77-2.621-.84V4.5a3 3 0 0 1-3 3h-5a3 3 0 0 1-3-3zM6.25 10.5A.75.75 0 0 1 7 9.75h10a.75.75 0 0 1 0 1.5H7a.75.75 0 0 1-.75-.75m1 3.5a.75.75 0 0 1 .75-.75h8a.75.75 0 0 1 0 1.5H8a.75.75 0 0 1-.75-.75m1 3.5a.75.75 0 0 1 .75-.75h6a.75.75 0 0 1 0 1.5H9a.75.75 0 0 1-.75-.75" clip-rule="evenodd"/>
</svg>