<svg width="24" height="24" viewBox="0 0 24 24" fill="none" xmlns="http://www.w3.org/2000/svg">
<g fill="none" stroke="currentColor" stroke-width="1.5"><path stroke-linecap="round" d="m15.5 9l.172.172c1.333 1.333 2 2 2 2.828s-.667 1.495-2 2.828L15.5 15m-2.206-7.83L12 12l-1.294 4.83M8.5 9l-.171.172c-1.334 1.333-2 2-2 2.828s.666 1.495 2 2.828L8.5 15"/><path d="M2 12c0-4.714 0-7.071 1.464-8.536C4.93 2 7.286 2 12 2s7.071 0 8.535 1.464C22 4.93 22 7.286 22 12s0 7.071-1.465 8.535C19.072 22 16.714 22 12 22s-7.071 0-8.536-1.465C2 19.072 2 16.714 2 12Z"/></g>
</svg>