<svg width="24" height="24" viewBox="0 0 24 24" fill="none" xmlns="http://www.w3.org/2000/svg">
<path fill="currentColor" fill-rule="evenodd" d="M12 22c5.523 0 10-4.477 10-10S17.523 2 12 2S2 6.477 2 12s4.477 10 10 10m1.956-7.905c-.193.17-.44.268-.932.465c-2.31.924-3.465 1.386-4.124.938a1.5 1.5 0 0 1-.398-.398c-.448-.66.014-1.814.938-4.124c.197-.493.295-.74.465-.933q.065-.073.139-.138c.193-.17.44-.268.932-.465c2.31-.924 3.464-1.386 4.124-.938a1.5 1.5 0 0 1 .398.398c.448.66-.014 1.814-.938 4.124c-.197.493-.295.739-.465.932q-.065.075-.139.139" clip-rule="evenodd"/>
</svg>