<svg width="24" height="24" viewBox="0 0 24 24" fill="none" xmlns="http://www.w3.org/2000/svg">
<g fill="none" stroke="currentColor" stroke-width="1.5"><path d="M7 10c0-1.414 0-2.121.44-2.56C7.878 7 8.585 7 10 7h4c1.414 0 2.121 0 2.56.44c.44.439.44 1.146.44 2.56v4c0 1.414 0 2.121-.44 2.56c-.439.44-1.146.44-2.56.44h-4c-1.414 0-2.121 0-2.56-.44C7 16.122 7 15.415 7 14z"/><path stroke-linecap="round" stroke-linejoin="round" d="M12.429 10L11 12h2l-1.429 2"/><path d="M4 12c0-3.771 0-5.657 1.172-6.828S8.229 4 12 4s5.657 0 6.828 1.172S20 8.229 20 12s0 5.657-1.172 6.828S15.771 20 12 20s-5.657 0-6.828-1.172S4 15.771 4 12Z"/><path stroke-linecap="round" d="M4 12H2m20 0h-2M4 9H2m20 0h-2M4 15H2m20 0h-2m-8 5v2m0-20v2M9 20v2M9 2v2m6 16v2m0-20v2"/></g>
</svg>