<svg width="24" height="24" viewBox="0 0 24 24" fill="none" xmlns="http://www.w3.org/2000/svg">
<g fill="currentColor" fill-rule="evenodd" clip-rule="evenodd"><path d="M9.632 9.022c-.303.04-.398.106-.45.16c-.054.052-.12.147-.16.45c-.044.322-.045.76-.045 1.438v1.86c0 .678.001 1.116.045 1.438c.04.303.106.398.16.45c.052.054.147.12.45.16c.322.044.76.045 1.438.045h1.86c.678 0 1.116-.001 1.438-.045c.303-.04.398-.106.45-.16c.054-.052.12-.147.16-.45c.044-.322.045-.76.045-1.438v-1.86c0-.678-.001-1.116-.045-1.438c-.04-.303-.106-.398-.16-.45c-.052-.054-.147-.12-.45-.16c-.322-.044-.76-.045-1.438-.045h-1.86c-.678 0-1.116.001-1.438.045m3.334 1.523a.698.698 0 0 0-1.135-.81l-1.329 1.86a.698.698 0 0 0 .568 1.103h.505l-.541.757a.698.698 0 0 0 1.135.811l1.329-1.86a.698.698 0 0 0-.568-1.104h-.505z"/><path d="M12.698 2.698a.698.698 0 0 0-1.396 0v2.79q-.764 0-1.395.017V2.698a.698.698 0 0 0-1.395 0v2.79q0 .056.008.108c-.936.115-1.585.353-2.078.846s-.731 1.142-.846 2.078a1 1 0 0 0-.108-.008h-2.79a.698.698 0 0 0 0 1.395h2.807q-.016.63-.016 1.395H2.698a.698.698 0 0 0 0 1.396h2.79q0 .764.017 1.395H2.698a.698.698 0 0 0 0 1.395h2.79a1 1 0 0 0 .108-.008c.115.936.353 1.585.846 2.078s1.142.731 2.078.846a1 1 0 0 0-.008.108v2.79a.698.698 0 0 0 1.395 0v-2.807q.63.016 1.395.016v2.791a.698.698 0 0 0 1.396 0v-2.79q.764 0 1.395-.017v2.807a.698.698 0 0 0 1.395 0v-2.79a1 1 0 0 0-.008-.108c.936-.115 1.585-.353 2.078-.846s.731-1.142.846-2.078q.053.009.108.008h2.79a.698.698 0 0 0 0-1.395h-2.807q.016-.63.016-1.395h2.791a.698.698 0 0 0 0-1.396h-2.79q0-.764-.017-1.395h2.807a.698.698 0 0 0 0-1.395h-2.79a1 1 0 0 0-.108.008c-.115-.936-.353-1.585-.846-2.078s-1.142-.731-2.078-.846a1 1 0 0 0 .008-.108v-2.79a.698.698 0 0 0-1.395 0v2.807a56 56 0 0 0-1.395-.016zm-3.252 4.94c.426-.057.96-.057 1.578-.057h1.952c.619 0 1.151 0 1.578.058c.458.061.896.2 1.252.555c.355.356.494.794.555 1.252c.058.426.058.96.058 1.578v1.952c0 .619 0 1.151-.058 1.578c-.061.458-.2.896-.555 1.252c-.356.355-.794.494-1.252.555c-.427.058-.96.058-1.578.058h-1.952c-.619 0-1.152 0-1.578-.058c-.458-.061-.896-.2-1.252-.555c-.355-.356-.494-.794-.555-1.252c-.058-.427-.058-.96-.058-1.578v-1.952c0-.619 0-1.152.058-1.578c.061-.458.2-.896.555-1.252c.356-.355.794-.494 1.252-.555"/></g>
</svg>