<svg width="24" height="24" viewBox="0 0 24 24" fill="none" xmlns="http://www.w3.org/2000/svg">
<g fill="none" stroke="currentColor" stroke-width="1.5"><path d="M3.464 20.536C4.93 22 7.286 22 12 22s7.071 0 8.535-1.465C22 19.072 22 16.714 22 12c0-.341 0-.512-.015-.686a4.04 4.04 0 0 0-.921-2.224a8 8 0 0 0-.483-.504l-5.167-5.167a9 9 0 0 0-.504-.483a4.04 4.04 0 0 0-2.224-.92C12.512 2 12.342 2 12 2C7.286 2 4.929 2 3.464 3.464C2 4.93 2 7.286 2 12s0 7.071 1.464 8.535Z"/><path d="M17 22v-1c0-1.886 0-2.828-.586-3.414S14.886 17 13 17h-2c-1.886 0-2.828 0-3.414.586S7 19.114 7 21v1"/><path stroke-linecap="round" d="M7 8h6" opacity=".5"/></g>
</svg>