<svg width="24" height="24" viewBox="0 0 24 24" fill="none" xmlns="http://www.w3.org/2000/svg">
<path fill="currentColor" fill-rule="evenodd" d="M3.464 3.464C2 4.93 2 7.286 2 12s0 7.071 1.464 8.535C4.93 22 7.286 22 12 22s7.071 0 8.535-1.465C22 19.072 22 16.714 22 12s0-7.071-1.465-8.536C19.072 2 16.714 2 12 2S4.929 2 3.464 3.464m10.024 2.982a.75.75 0 0 1 .53.918l-2.588 9.66a.75.75 0 0 1-1.449-.389l2.589-9.659a.75.75 0 0 1 .918-.53M14.97 8.47a.75.75 0 0 1 1.06 0l.209.208c.635.635 1.165 1.165 1.529 1.642c.384.504.654 1.036.654 1.68s-.27 1.176-.654 1.68c-.364.477-.894 1.007-1.53 1.642l-.208.208a.75.75 0 1 1-1.06-1.06l.171-.172c.682-.682 1.139-1.14 1.434-1.528c.283-.37.347-.586.347-.77s-.064-.4-.347-.77c-.295-.387-.752-.846-1.434-1.528l-.171-.172a.75.75 0 0 1 0-1.06m-7 0a.75.75 0 0 1 1.06 1.06l-.171.172c-.682.682-1.138 1.14-1.434 1.528c-.283.37-.346.586-.346.77s.063.4.346.77c.296.387.752.846 1.434 1.528l.172.172a.75.75 0 1 1-1.061 1.06l-.208-.208c-.636-.635-1.166-1.165-1.53-1.642c-.384-.504-.653-1.036-.653-1.68s.27-1.176.653-1.68c.364-.477.894-1.007 1.53-1.642z" clip-rule="evenodd"/>
</svg>