<svg width="24" height="24" viewBox="0 0 24 24" fill="none" xmlns="http://www.w3.org/2000/svg">
<path fill="currentColor" d="M8.502 5.387a.75.75 0 0 0-1.004-1.115L5.761 5.836c-.737.663-1.347 1.212-1.767 1.71c-.44.525-.754 1.088-.754 1.784c0 .695.313 1.258.754 1.782c.42.499 1.03 1.049 1.767 1.711l1.737 1.564a.75.75 0 1 0 1.004-1.115l-1.697-1.527c-.788-.709-1.319-1.19-1.663-1.598c-.33-.393-.402-.622-.402-.817c0-.196.072-.425.402-.818c.344-.409.875-.889 1.663-1.598zm5.678-1.112a.75.75 0 0 1 .532.918l-3.987 15a.75.75 0 1 1-1.45-.386l3.987-15a.75.75 0 0 1 .918-.532m1.263 6.223a.75.75 0 0 1 1.059-.055l1.737 1.563c.737.663 1.347 1.213 1.767 1.711c.44.524.754 1.088.754 1.783s-.313 1.259-.754 1.783c-.42.498-1.03 1.048-1.767 1.71l-1.737 1.565a.75.75 0 1 1-1.004-1.116l1.697-1.526c.788-.71 1.319-1.19 1.663-1.599c.33-.392.402-.622.402-.817s-.072-.425-.402-.817c-.344-.41-.875-.89-1.663-1.599l-1.697-1.527a.75.75 0 0 1-.055-1.059"/>
</svg>