<svg width="24" height="24" viewBox="0 0 24 24" fill="none" xmlns="http://www.w3.org/2000/svg">
<path fill="currentColor" fill-rule="evenodd" d="M14 22h-4c-3.771 0-5.657 0-6.828-1.172S2 17.771 2 14v-4c0-3.771 0-5.657 1.172-6.828S6.239 2 10.03 2c.606 0 1.091 0 1.5.017q-.02.12-.02.244l-.01 2.834c0 1.097 0 2.067.105 2.848c.114.847.375 1.694 1.067 2.386c.69.69 1.538.952 2.385 1.066c.781.105 1.751.105 2.848.105h4.052c.043.534.043 1.19.043 2.063V14c0 3.771 0 5.657-1.172 6.828S17.771 22 14 22" clip-rule="evenodd" opacity=".5"/><path fill="currentColor" d="M6 13.75a.75.75 0 0 0 0 1.5h8a.75.75 0 0 0 0-1.5zm0 3.5a.75.75 0 0 0 0 1.5h5.5a.75.75 0 0 0 0-1.5zm5.51-14.99l-.01 2.835c0 1.097 0 2.066.105 2.848c.114.847.375 1.694 1.067 2.385c.69.691 1.538.953 2.385 1.067c.781.105 1.751.105 2.848.105h4.052q.02.232.028.5H22c0-.268 0-.402-.01-.56a5.3 5.3 0 0 0-.958-2.641c-.094-.128-.158-.204-.285-.357C19.954 7.494 18.91 6.312 18 5.5c-.81-.724-1.921-1.515-2.89-2.161c-.832-.556-1.248-.834-1.819-1.04a6 6 0 0 0-.506-.154c-.384-.095-.758-.128-1.285-.14z"/>
</svg>