<svg width="24" height="24" viewBox="0 0 24 24" fill="none" xmlns="http://www.w3.org/2000/svg">
<path fill="currentColor" fill-rule="evenodd" d="M3.358 12.779c-.61.941-.358 2.25.145 4.868c.363 1.885.544 2.827 1.172 3.452q.246.244.544.429C5.982 22 6.995 22 9.022 22h6.956c2.027 0 3.04 0 3.803-.472q.298-.185.544-.429c.628-.625.81-1.567 1.172-3.452c.503-2.618.755-3.927.145-4.868a3 3 0 0 0-.57-.646c-.87-.735-2.279-.735-5.094-.735H9.022c-2.815 0-4.223 0-5.094.735a3 3 0 0 0-.57.646m6.337 4.402c0-.4.343-.723.765-.723h4.08c.422 0 .765.323.765.723s-.343.723-.765.723h-4.08c-.422 0-.765-.324-.765-.723" clip-rule="evenodd"/><path fill="currentColor" d="M3.576 12.485q.16-.19.352-.352c.87-.735 2.279-.735 5.094-.735h6.956c2.815 0 4.223 0 5.094.735q.192.162.353.353v-2.73c0-.91 0-1.663-.086-2.264c-.09-.635-.286-1.197-.755-1.66a3 3 0 0 0-.242-.214c-.512-.408-1.125-.575-1.82-.652c-.669-.074-1.512-.074-2.545-.074h-.353c-.982 0-1.334-.006-1.653-.087a2.7 2.7 0 0 1-.536-.196c-.284-.14-.532-.351-1.227-.968l-.474-.42c-.2-.176-.335-.296-.48-.403a4.3 4.3 0 0 0-2.183-.803A8 8 0 0 0 8.414 2h-.117c-.64 0-1.063 0-1.43.061c-1.605.268-2.903 1.39-3.22 2.875c-.071.337-.071.724-.07 1.283z" opacity=".5"/>
</svg>