<svg width="24" height="24" viewBox="0 0 24 24" fill="none" xmlns="http://www.w3.org/2000/svg">
<path fill="currentColor" d="M18.512 10.077c0 .738-.625 1.337-1.396 1.337s-1.395-.599-1.395-1.337c0-.739.625-1.338 1.395-1.338s1.396.599 1.396 1.338"/><path fill="currentColor" fill-rule="evenodd" d="M18.036 5.532c-1.06-.137-2.414-.137-4.123-.136h-3.826c-1.71 0-3.064 0-4.123.136c-1.09.14-1.974.437-2.67 1.104S2.29 8.149 2.142 9.195C2 10.21 2 11.508 2 13.147v.1c0 1.64 0 2.937.142 3.953c.147 1.046.456 1.892 1.152 2.559s1.58.963 2.67 1.104c1.06.136 2.414.136 4.123.136h3.826c1.71 0 3.064 0 4.123-.136c1.09-.14 1.974-.437 2.67-1.104s1.005-1.514 1.152-2.559C22 16.184 22 14.886 22 13.248v-.1c0-1.64 0-2.937-.142-3.953c-.147-1.046-.456-1.892-1.152-2.559s-1.58-.963-2.67-1.104M6.15 6.858c-.936.12-1.475.346-1.87.724c-.393.377-.629.894-.755 1.791c-.1.72-.123 1.619-.128 2.795l.47-.395c1.125-.942 2.819-.888 3.875.124l3.99 3.825a1.2 1.2 0 0 0 1.491.124l.278-.187a3.606 3.606 0 0 1 4.34.25l2.407 2.077c.098-.264.173-.579.227-.964c.128-.916.13-2.124.13-3.824s-.002-2.909-.13-3.825c-.126-.897-.362-1.414-.756-1.791c-.393-.378-.933-.604-1.869-.724c-.956-.124-2.216-.125-3.99-.125h-3.72c-1.774 0-3.034.001-3.99.125" clip-rule="evenodd"/><path fill="currentColor" d="M17.087 2.61c-.86-.11-1.955-.11-3.32-.11h-3.09c-1.364 0-2.459 0-3.318.11c-.89.115-1.633.358-2.222.92a2.9 2.9 0 0 0-.724 1.12c.504-.23 1.074-.366 1.714-.45c1.085-.14 2.47-.14 4.22-.14h3.915c1.749 0 3.134 0 4.219.14c.559.073 1.064.186 1.52.366a2.9 2.9 0 0 0-.693-1.035c-.589-.563-1.331-.806-2.221-.92" opacity=".5"/>
</svg>