<svg width="24" height="24" viewBox="0 0 24 24" fill="none" xmlns="http://www.w3.org/2000/svg">
<path fill="currentColor" d="M22 5a3 3 0 1 1-6 0a3 3 0 0 1 6 0"/><path fill="currentColor" fill-rule="evenodd" d="M15.612 2.038C14.59 2 13.399 2 12 2C7.286 2 4.929 2 3.464 3.464C2 4.93 2 7.286 2 12s0 7.071 1.464 8.535C4.93 22 7.286 22 12 22s7.071 0 8.535-1.465C22 19.072 22 16.714 22 12c0-1.399 0-2.59-.038-3.612a4.5 4.5 0 0 1-6.35-6.35m1.868 7.386a.75.75 0 0 1 .096 1.056l-1.829 2.195c-.328.394-.624.75-.9 1c-.302.27-.68.513-1.18.513s-.879-.242-1.18-.514c-.276-.25-.572-.605-.901-1l-.292-.35c-.371-.445-.599-.716-.787-.885a.8.8 0 0 0-.163-.122l-.01-.005l-.005.002l-.007.003a.8.8 0 0 0-.163.122c-.187.17-.415.44-.786.885L7.576 14.48a.75.75 0 0 1-1.152-.96l1.829-2.195c.328-.394.624-.75.9-1c.302-.27.68-.513 1.18-.513s.879.242 1.18.514c.276.25.572.605.901 1l.292.35c.371.445.599.716.787.885c.086.078.138.11.163.122l.003.001l.008.004l.01-.005a.8.8 0 0 0 .164-.122c.187-.17.415-.44.786-.885l1.797-2.156a.75.75 0 0 1 1.056-.096" clip-rule="evenodd"/>
</svg>