<svg width="24" height="24" viewBox="0 0 24 24" fill="none" xmlns="http://www.w3.org/2000/svg">
<g fill="none" stroke="currentColor" stroke-width="1.5"><path stroke-linecap="round" d="M22 10.5V12c0 4.714 0 7.071-1.465 8.535C19.072 22 16.714 22 12 22s-7.071 0-8.536-1.465C2 19.072 2 16.714 2 12s0-7.071 1.464-8.536C4.93 2 7.286 2 12 2h1.5"/><path stroke-linecap="round" d="m7 14l1.797-2.156c.712-.855 1.068-1.282 1.536-1.282c.469 0 .825.427 1.537 1.282l.26.312c.712.855 1.068 1.282 1.537 1.282s.824-.427 1.536-1.282L17 10"/><circle cx="19" cy="5" r="3"/></g>
</svg>