<svg width="24" height="24" viewBox="0 0 24 24" fill="none" xmlns="http://www.w3.org/2000/svg">
<path fill="currentColor" fill-rule="evenodd" d="M12 2C7.867 2 5.8 2 5.198 3.3a2.5 2.5 0 0 0-.13.346c-.41 1.387 1.052 2.995 3.974 6.21L11 12h2l1.958-2.143c2.922-3.216 4.383-4.824 3.974-6.21a2.5 2.5 0 0 0-.13-.348C18.2 2 16.133 2 12 2" clip-rule="evenodd"/><path fill="currentColor" d="M5.198 20.7C5.8 22 7.867 22 12 22s6.2 0 6.802-1.3a2.5 2.5 0 0 0 .13-.346c.41-1.387-1.052-2.995-3.974-6.21L13 12h-2l-1.958 2.143c-2.922 3.216-4.383 4.824-3.974 6.21q.052.18.13.348" opacity=".5"/>
</svg>