<svg width="24" height="24" viewBox="0 0 24 24" fill="none" xmlns="http://www.w3.org/2000/svg">
<path fill="currentColor" d="M3.464 20.536C4.93 22 7.286 22 12 22s7.071 0 8.535-1.465c1.271-1.27 1.44-3.213 1.462-6.785H18.84c-.974 0-1.229.016-1.442.114c-.214.099-.392.282-1.026 1.02l-.605.707l-.088.102c-.502.587-.9 1.052-1.45 1.305s-1.162.253-1.934.252h-.589c-.773 0-1.385.002-1.935-.252c-.55-.253-.948-.718-1.45-1.305l-.088-.102l-.605-.706c-.634-.74-.812-.922-1.026-1.02c-.213-.099-.468-.115-1.442-.115H2.003c.023 3.572.19 5.515 1.461 6.785"/><path fill="currentColor" d="M20.536 3.464C19.07 2 16.714 2 12 2S4.929 2 3.464 3.464C2 4.93 2 7.286 2 12v.25h3.295c.772 0 1.384-.002 1.934.252c.55.253.948.718 1.45 1.305l.088.102l.605.706c.634.74.812.922 1.026 1.02c.213.099.468.115 1.442.115h.32c.974 0 1.229-.016 1.442-.114c.214-.099.392-.282 1.026-1.02l.605-.707l.088-.102c.502-.587.9-1.052 1.45-1.305c.55-.254 1.162-.253 1.935-.252H22V12c0-4.714 0-7.071-1.465-8.536"/>
</svg>