<svg width="24" height="24" viewBox="0 0 24 24" fill="none" xmlns="http://www.w3.org/2000/svg">
<rect x="2" y="6" width="20" height="12" rx="2" stroke="black" stroke-width="1.5"/>
<path d="M6.60511 14.0909L6.66193 12.5284L5.34091 13.3665L5 12.7699L6.39205 12.0455L5 11.321L5.34091 10.7244L6.66193 11.5625L6.60511 10H7.28693L7.23011 11.5625L8.55114 10.7244L8.89205 11.321L7.5 12.0455L8.89205 12.7699L8.55114 13.3665L7.23011 12.5284L7.28693 14.0909H6.60511Z" fill="black"/>
<path d="M11.6051 14.0909L11.6619 12.5284L10.3409 13.3665L10 12.7699L11.392 12.0455L10 11.321L10.3409 10.7244L11.6619 11.5625L11.6051 10H12.2869L12.2301 11.5625L13.5511 10.7244L13.892 11.321L12.5 12.0455L13.892 12.7699L13.5511 13.3665L12.2301 12.5284L12.2869 14.0909H11.6051Z" fill="black"/>
<path d="M16.6051 14.0909L16.6619 12.5284L15.3409 13.3665L15 12.7699L16.392 12.0455L15 11.321L15.3409 10.7244L16.6619 11.5625L16.6051 10H17.2869L17.2301 11.5625L18.5511 10.7244L18.892 11.321L17.5 12.0455L18.892 12.7699L18.5511 13.3665L17.2301 12.5284L17.2869 14.0909H16.6051Z" fill="black"/>
</svg>
