<svg width="24" height="24" viewBox="0 0 24 24" fill="none" xmlns="http://www.w3.org/2000/svg">
<rect x="2" y="6" width="20" height="12" rx="2" stroke="black" stroke-width="1.5"/>
<path d="M15.8515 8.00093C15.3448 7.99779 14.8426 8.09526 14.3739 8.28769C13.9052 8.48013 13.4794 8.7637 13.1211 9.12197C12.7628 9.48023 12.4793 9.90606 12.2868 10.3748C12.0944 10.8434 11.9969 11.3457 12.0001 11.8523V12.1486C12.0001 13.1701 12.4058 14.1497 13.1281 14.872C13.8504 15.5942 14.83 16 15.8515 16H17.9253V15.4075H15.8515C14.9872 15.4075 14.1583 15.0641 13.5471 14.453C12.9359 13.8418 12.5926 13.0129 12.5926 12.1486V11.8523C12.5902 11.4237 12.6729 10.9989 12.8359 10.6024C12.9988 10.206 13.2388 9.84579 13.5418 9.54271C13.8449 9.23962 14.2051 8.99966 14.6016 8.83672C14.998 8.67378 15.4229 8.5911 15.8515 8.59346C16.2834 8.57858 16.7139 8.65269 17.116 8.8112C17.5181 8.96971 17.8833 9.20922 18.189 9.51485C18.4946 9.82049 18.7341 10.1857 18.8926 10.5878C19.0511 10.9899 19.1252 11.4204 19.1104 11.8523C19.1104 12.9159 18.6956 13.3336 18.026 13.3336C17.5579 13.3336 17.3328 12.9515 17.3328 12.4449V10.0748H16.7403V10.6495C16.637 10.4677 16.4855 10.3178 16.3026 10.2164C16.1197 10.115 15.9123 10.066 15.7033 10.0748C15.2738 10.0732 14.8611 10.2419 14.5557 10.544C14.2503 10.8461 14.077 11.2569 14.0739 11.6864V12.3145C14.077 12.7441 14.2503 13.1549 14.5557 13.4569C14.8611 13.759 15.2738 13.9277 15.7033 13.9262C15.9504 13.9334 16.1942 13.8683 16.4047 13.7388C16.6153 13.6093 16.7834 13.4211 16.8884 13.1974C16.9936 13.4154 17.158 13.5993 17.3628 13.7282C17.5677 13.8571 17.8047 13.9257 18.0468 13.9262C18.9563 13.9262 19.7029 13.3336 19.7029 11.8523C19.7142 11.3435 19.6223 10.8376 19.4328 10.3652C19.2433 9.89277 18.96 9.46367 18.6001 9.10375C18.2401 8.74383 17.811 8.46056 17.3386 8.27102C16.8662 8.08148 16.3604 7.9896 15.8515 8.00093ZM16.7403 12.3145C16.7403 12.5895 16.631 12.8533 16.4366 13.0477C16.2421 13.2422 15.9784 13.3514 15.7033 13.3514C15.4283 13.3514 15.1646 13.2422 14.9701 13.0477C14.7757 12.8533 14.6664 12.5895 14.6664 12.3145V11.6864C14.6664 11.4114 14.7757 11.1477 14.9701 10.9532C15.1646 10.7588 15.4283 10.6495 15.7033 10.6495C15.9784 10.6495 16.2421 10.7588 16.4366 10.9532C16.631 11.1477 16.7403 11.4114 16.7403 11.6864V12.3145Z" fill="black"/>
</svg>
