<svg width="24" height="24" viewBox="0 0 24 24" fill="none" xmlns="http://www.w3.org/2000/svg">
<path fill="currentColor" d="M16.519 16.501c.175-.136.334-.295.651-.612l3.957-3.958c.096-.095.052-.26-.075-.305a4.3 4.3 0 0 1-1.644-1.034a4.3 4.3 0 0 1-1.034-1.644c-.045-.127-.21-.171-.305-.075L14.11 12.83c-.317.317-.476.476-.612.651q-.243.311-.412.666c-.095.2-.166.414-.308.84l-.184.55l-.292.875l-.273.82a.584.584 0 0 0 .738.738l.82-.273l.875-.292l.55-.184c.426-.142.64-.212.84-.308q.355-.17.666-.412m5.849-5.809a2.163 2.163 0 1 0-3.06-3.059l-.126.128a.52.52 0 0 0-.148.465c.02.107.055.265.12.452c.13.375.376.867.839 1.33s.955.709 1.33.839c.188.065.345.1.452.12a.53.53 0 0 0 .465-.148z"/><path fill="currentColor" fill-rule="evenodd" d="M4.172 3.172C3 4.343 3 6.229 3 10v4c0 3.771 0 5.657 1.172 6.828S7.229 22 11 22h2c3.771 0 5.657 0 6.828-1.172C20.981 19.676 21 17.832 21 14.18l-2.818 2.818c-.27.27-.491.491-.74.686a5 5 0 0 1-.944.583a8 8 0 0 1-.944.355l-2.312.771a2.083 2.083 0 0 1-2.635-2.635l.274-.82l.475-1.426l.021-.066c.121-.362.22-.658.356-.944q.24-.504.583-.943c.195-.25.416-.47.686-.74l4.006-4.007L18.12 6.7l.127-.127A3.65 3.65 0 0 1 20.838 5.5c-.151-1.03-.444-1.763-1.01-2.328C18.657 2 16.771 2 13 2h-2C7.229 2 5.343 2 4.172 3.172M7.25 9A.75.75 0 0 1 8 8.25h6.5a.75.75 0 0 1 0 1.5H8A.75.75 0 0 1 7.25 9m0 4a.75.75 0 0 1 .75-.75h2.5a.75.75 0 0 1 0 1.5H8a.75.75 0 0 1-.75-.75m0 4a.75.75 0 0 1 .75-.75h1.5a.75.75 0 0 1 0 1.5H8a.75.75 0 0 1-.75-.75" clip-rule="evenodd"/>
</svg>