<svg width="24" height="24" viewBox="0 0 24 24" fill="none" xmlns="http://www.w3.org/2000/svg">
<g fill="none" stroke="currentColor" stroke-width="1.5"><path d="M4.979 9.685C2.993 8.891 2 8.494 2 8s.993-.89 2.979-1.685l2.808-1.123C9.773 4.397 10.767 4 12 4s2.227.397 4.213 1.192l2.808 1.123C21.007 7.109 22 7.506 22 8s-.993.89-2.979 1.685l-2.808 1.124C14.227 11.603 13.233 12 12 12s-2.227-.397-4.213-1.191z"/><path d="m5.766 10l-.787.315C2.993 11.109 2 11.507 2 12s.993.89 2.979 1.685l2.808 1.124C9.773 15.603 10.767 16 12 16s2.227-.397 4.213-1.191l2.808-1.124C21.007 12.891 22 12.493 22 12s-.993-.89-2.979-1.685L18.234 10M5.766 14l-.787.315C2.993 15.109 2 15.507 2 16s.993.89 2.979 1.685l2.808 1.124C9.773 19.603 10.767 20 12 20s2.227-.397 4.213-1.192l2.808-1.123C21.007 16.891 22 16.494 22 16c0-.493-.993-.89-2.979-1.685L18.234 14" opacity=".5"/></g>
</svg>