<svg width="24" height="24" viewBox="0 0 24 24" fill="none" xmlns="http://www.w3.org/2000/svg">
<path fill="currentColor" d="M4.979 9.685C2.993 8.891 2 8.494 2 8s.993-.89 2.979-1.685l2.808-1.123C9.773 4.397 10.767 4 12 4s2.227.397 4.213 1.192l2.808 1.123C21.007 7.109 22 7.506 22 8s-.993.89-2.979 1.685l-2.808 1.124C14.227 11.603 13.233 12 12 12s-2.227-.397-4.213-1.191z"/><path fill="currentColor" fill-rule="evenodd" d="M2 8c0 .494.993.89 2.979 1.685l2.808 1.124C9.773 11.603 10.767 12 12 12s2.227-.397 4.213-1.191l2.808-1.124C21.007 8.891 22 8.494 22 8s-.993-.89-2.979-1.685l-2.808-1.123C14.227 4.397 13.233 4 12 4s-2.227.397-4.213 1.192L4.98 6.315C2.993 7.109 2 7.506 2 8" clip-rule="evenodd"/><path fill="currentColor" d="m19.021 13.685l-2.808 1.124C14.227 15.603 13.233 16 12 16s-2.227-.397-4.213-1.191L4.98 13.685C2.993 12.891 2 12.493 2 12c0-.445.807-.812 2.42-1.461l3.141 1.256C9.411 12.535 10.572 13 12 13s2.59-.465 4.439-1.205l3.14-1.256C21.194 11.189 22 11.555 22 12c0 .493-.993.89-2.979 1.685"/><path fill="currentColor" d="m19.021 17.685l-2.808 1.123C14.227 19.603 13.233 20 12 20s-2.227-.397-4.213-1.192L4.98 17.685C2.993 16.89 2 16.493 2 16c0-.445.807-.812 2.42-1.461l3.141 1.256C9.411 16.535 10.572 17 12 17s2.59-.465 4.439-1.205l3.14-1.256c1.614.65 2.421 1.016 2.421 1.46c0 .494-.993.891-2.979 1.686"/>
</svg>