<svg width="24" height="24" viewBox="0 0 24 24" fill="none" xmlns="http://www.w3.org/2000/svg">
<path fill="currentColor" d="M11.25 2.083a3.5 3.5 0 0 0-.713.243C6.553 4.188 4 9.395 4 13.856c0 4.24 3.183 7.724 7.25 8.109zm1.5 19.882c4.067-.385 7.25-3.868 7.25-8.108q0-.61-.063-1.234l-7.187 7.188zM18.26 7.18a13.4 13.4 0 0 0-1.34-2.04l-4.17 4.17v3.38zm-2.352-3.15a9.2 9.2 0 0 0-2.445-1.704a3.5 3.5 0 0 0-.713-.243v5.106zm3.028 4.594l-6.186 6.187v2.878l6.75-6.75l.132-.132a15 15 0 0 0-.696-2.183"/>
</svg>