<svg width="24" height="24" viewBox="0 0 24 24" fill="none" xmlns="http://www.w3.org/2000/svg">
<g fill="none" stroke="currentColor"><path stroke-width="1.5" d="M3.845 7.922a2.883 2.883 0 1 1 4.077-4.077l12.234 12.233a2.884 2.884 0 0 1-4.078 4.078z"/><path stroke-linecap="round" stroke-width="1.5" d="m6 10l4-4" opacity=".5"/><path d="M16.1 2.307a.483.483 0 0 1 .9 0l.43 1.095a.48.48 0 0 0 .272.274l1.091.432a.486.486 0 0 1 0 .903l-1.09.432a.5.5 0 0 0-.273.273L17 6.81a.483.483 0 0 1-.9 0l-.43-1.095a.5.5 0 0 0-.273-.273l-1.09-.432a.486.486 0 0 1 0-.903l1.09-.432a.5.5 0 0 0 .273-.274z"/><path d="M19.967 9.13a.483.483 0 0 1 .9 0l.156.399c.05.125.148.224.273.273l.398.158a.486.486 0 0 1 0 .902l-.398.158a.5.5 0 0 0-.273.273l-.156.4a.483.483 0 0 1-.9 0l-.157-.4a.5.5 0 0 0-.272-.273l-.398-.158a.486.486 0 0 1 0-.902l.398-.158a.5.5 0 0 0 .272-.273zM5.133 15.307a.483.483 0 0 1 .9 0l.157.4a.48.48 0 0 0 .272.273l.398.157a.486.486 0 0 1 0 .903l-.398.158a.48.48 0 0 0-.272.273l-.157.4a.483.483 0 0 1-.9 0l-.157-.4a.48.48 0 0 0-.272-.273l-.398-.158a.486.486 0 0 1 0-.903l.398-.157a.48.48 0 0 0 .272-.274z" opacity=".5"/></g>
</svg>