<svg width="24" height="24" viewBox="0 0 24 24" fill="none" xmlns="http://www.w3.org/2000/svg">
<path fill="currentColor" d="M3.845 3.845a2.883 2.883 0 0 0 0 4.077L5.432 9.51l.038-.04l4-4l.04-.038l-1.588-1.587a2.883 2.883 0 0 0-4.077 0m6.723 2.645l-.038.04l-4 4l-.04.038l9.588 9.588a2.884 2.884 0 0 0 4.078-4.078zM16.1 2.307a.483.483 0 0 1 .9 0l.43 1.095a.48.48 0 0 0 .272.274l1.091.432a.486.486 0 0 1 0 .903l-1.09.432a.5.5 0 0 0-.273.273L17 6.81a.483.483 0 0 1-.9 0l-.43-1.095a.5.5 0 0 0-.273-.273l-1.09-.432a.486.486 0 0 1 0-.903l1.09-.432a.5.5 0 0 0 .273-.274zm3.867 6.823a.483.483 0 0 1 .9 0l.156.399c.05.125.148.224.273.273l.398.158a.486.486 0 0 1 0 .902l-.398.158a.5.5 0 0 0-.273.273l-.156.4a.483.483 0 0 1-.9 0l-.157-.4a.5.5 0 0 0-.272-.273l-.398-.158a.486.486 0 0 1 0-.902l.398-.158a.5.5 0 0 0 .272-.273zM5.133 15.307a.483.483 0 0 1 .9 0l.157.4a.48.48 0 0 0 .272.273l.398.157a.486.486 0 0 1 0 .903l-.398.158a.48.48 0 0 0-.272.273l-.157.4a.483.483 0 0 1-.9 0l-.157-.4a.48.48 0 0 0-.272-.273l-.398-.158a.486.486 0 0 1 0-.903l.398-.157a.48.48 0 0 0 .272-.274z"/>
</svg>