<svg width="24" height="24" viewBox="0 0 24 24" fill="none" xmlns="http://www.w3.org/2000/svg">
<path fill="currentColor" d="M3.845 3.845a2.883 2.883 0 0 0 0 4.077L5.432 9.51c.012-.014.555.503.568.49l4-4c.013-.013-.504-.556-.49-.568L7.922 3.845a2.883 2.883 0 0 0-4.077 0m1.288 11.462a.483.483 0 0 1 .9 0l.157.4a.48.48 0 0 0 .272.273l.398.157a.486.486 0 0 1 0 .903l-.398.158a.48.48 0 0 0-.272.273l-.157.4a.483.483 0 0 1-.9 0l-.157-.4a.48.48 0 0 0-.272-.273l-.398-.158a.486.486 0 0 1 0-.903l.398-.157a.48.48 0 0 0 .272-.274z" opacity=".5"/><path fill="currentColor" d="M19.967 9.13a.483.483 0 0 1 .9 0l.156.399c.05.125.148.224.273.273l.398.158a.486.486 0 0 1 0 .902l-.398.158a.5.5 0 0 0-.273.273l-.156.4a.483.483 0 0 1-.9 0l-.157-.4a.5.5 0 0 0-.272-.273l-.398-.158a.486.486 0 0 1 0-.902l.398-.158a.5.5 0 0 0 .272-.273z" opacity=".2"/><path fill="currentColor" d="M16.1 2.307a.483.483 0 0 1 .9 0l.43 1.095a.48.48 0 0 0 .272.274l1.091.432a.486.486 0 0 1 0 .903l-1.09.432a.5.5 0 0 0-.273.273L17 6.81a.483.483 0 0 1-.9 0l-.43-1.095a.5.5 0 0 0-.273-.273l-1.09-.432a.486.486 0 0 1 0-.903l1.09-.432a.5.5 0 0 0 .273-.274z" opacity=".7"/><path fill="currentColor" d="M10.568 6.49c-.012.014-.555-.503-.568-.49l-4 4c-.013.013.504.556.49.568l9.588 9.587a2.883 2.883 0 1 0 4.078-4.077z"/>
</svg>