<svg width="24" height="24" viewBox="0 0 24 24" fill="none" xmlns="http://www.w3.org/2000/svg">
<path fill="currentColor" d="M15.5 7.5a3.5 3.5 0 1 1-7 0a3.5 3.5 0 0 1 7 0m2.5 9c0 1.933-2.686 3.5-6 3.5s-6-1.567-6-3.5S8.686 13 12 13s6 1.567 6 3.5M7.122 5q.267 0 .518.05A5 5 0 0 0 7 7.5c0 .868.221 1.685.61 2.396q-.237.045-.488.045c-1.414 0-2.561-1.106-2.561-2.47S5.708 5 7.122 5M5.447 18.986C4.88 18.307 4.5 17.474 4.5 16.5c0-.944.357-1.756.896-2.423C3.49 14.225 2 15.267 2 16.529c0 1.275 1.517 2.325 3.447 2.457M17 7.5c0 .868-.221 1.685-.61 2.396q.236.045.488.045c1.414 0 2.56-1.106 2.56-2.47S18.293 5 16.879 5q-.267 0-.518.05c.407.724.64 1.56.64 2.45m1.552 11.486c1.93-.132 3.447-1.182 3.447-2.457c0-1.263-1.491-2.304-3.396-2.452c.54.667.896 1.479.896 2.423c0 .974-.38 1.807-.947 2.486"/>
</svg>