<svg width="24" height="24" viewBox="0 0 24 24" fill="none" xmlns="http://www.w3.org/2000/svg">
<g clip-path="url(#clip0_2128_2779)">
<path opacity="0.1" fill-rule="evenodd" clip-rule="evenodd" d="M1.4064 22.242C2.8116 24 5.0748 24 9.6 24H14.4C18.9252 24 21.1884 24 22.5936 22.242C23.9988 20.484 24 17.6565 24 12C24 6.3435 24 3.5145 22.5936 1.758C21.1872 0.00149989 18.9252 0 14.4 0H9.6C5.0748 0 2.8116 -1.78814e-07 1.4064 1.758C0.00119991 3.516 0 6.3435 0 12C0 17.6565 -1.43051e-07 20.4855 1.4064 22.242Z" fill="black"/>
<path d="M8.60005 17.6C8.60005 17.7591 8.53684 17.9117 8.42432 18.0243C8.31179 18.1368 8.15918 18.2 8.00005 18.2H6.40005C6.24092 18.2 6.08831 18.1368 5.97578 18.0243C5.86326 17.9117 5.80005 17.7591 5.80005 17.6C5.80005 17.4409 5.86326 17.2883 5.97578 17.1757C6.08831 17.0632 6.24092 17 6.40005 17H8.00005C8.15918 17 8.31179 17.0632 8.42432 17.1757C8.53684 17.2883 8.60005 17.4409 8.60005 17.6Z" fill="black"/>
<path opacity="0.4" d="M10.4 16.8V7.2C10.4 6.08 10.4 5.52 10.1824 5.092C9.99063 4.71548 9.68452 4.40938 9.30801 4.2176C8.88001 4 8.32001 4 7.2 4C6.08 4 5.52 4 5.092 4.2176C4.71548 4.40938 4.40938 4.71548 4.2176 5.092C4 5.52 4 6.08 4 7.2V16.8C4 17.92 4 18.48 4.2176 18.908C4.40952 19.2842 4.71561 19.59 5.092 19.7816C5.52 20 6.08 20 7.2 20C8.32001 20 8.88001 20 9.30801 19.7816C9.6844 19.59 9.99049 19.2842 10.1824 18.908C10.4 18.48 10.4 17.92 10.4 16.8Z" fill="black"/>
<path opacity="0.7" d="M10.4001 8.99441V16.8C10.4001 17.5352 10.4001 18.0288 10.3385 18.4024L12.9777 15.7632L17.6481 10.8912C18.4265 10.0888 18.8161 9.68721 18.9569 9.22721C19.0773 8.83499 19.0743 8.41522 18.9481 8.02481C18.8001 7.56641 18.4001 7.16641 17.6001 6.36721C16.8801 5.65841 16.5185 5.30321 16.0961 5.15601C15.7484 5.03408 15.3738 5.01055 15.0137 5.08801C14.5761 5.18241 14.1745 5.48961 13.3713 6.10401L12.8001 6.59441L10.4001 8.99441ZM8.80245 19.9384H8.80005V19.9408L8.80245 19.9384Z" fill="black"/>
<path d="M15.0512 13.6H16.72C17.84 13.6 18.4 13.6 18.828 13.8184C19.2044 14.01 19.5105 14.3158 19.7024 14.692C19.92 15.12 19.92 15.68 19.92 16.8C19.92 17.92 19.92 18.48 19.7024 18.908C19.5105 19.2842 19.2044 19.59 18.828 19.7816C18.4 20 17.84 20 16.72 20H7.19995C7.93355 20 8.42715 20 8.79995 19.9384V19.9408L8.80235 19.9384C8.99835 19.9064 9.16075 19.8568 9.30795 19.7824C9.68447 19.5906 9.99057 19.2845 10.1824 18.908C10.2568 18.7608 10.3064 18.5984 10.3384 18.4024L12.9776 15.7632L15.0512 13.6Z" fill="black"/>
</g>
<defs>
<clipPath id="clip0_2128_2779">
<rect width="24" height="24" fill="white"/>
</clipPath>
</defs>
</svg>
