<svg width="24" height="24" viewBox="0 0 24 24" fill="none" xmlns="http://www.w3.org/2000/svg">
<mask id="SVGIHQypetX" fill="#fff"><path d="M11.085 7a1.5 1.5 0 1 1-3 0a1.5 1.5 0 0 1 3 0"/></mask><mask id="SVGjXBqqeYj" fill="#fff"><path d="M16 7a1.5 1.5 0 1 1-3 0a1.5 1.5 0 0 1 3 0"/></mask><g fill="none" stroke="currentColor"><path stroke-width="1.5" d="M2 12.026c0 5.146 3.867 9.387 8.847 9.96c.735.085 1.447-.228 1.97-.753a1.68 1.68 0 0 0 0-2.372c-.523-.525-.95-1.307-.555-1.934c1.576-2.508 9.738 3.251 9.738-4.9C22 6.488 17.523 2 12 2S2 6.489 2 12.026Z"/><circle cx="17.5" cy="11.5" r=".75" stroke-width="1.5"/><circle cx="6.5" cy="11.5" r=".75" stroke-width="1.5"/><path stroke-width="3" d="M11.085 7a1.5 1.5 0 1 1-3 0a1.5 1.5 0 0 1 3 0Z" mask="url(#SVGIHQypetX)"/><path stroke-width="3" d="M16 7a1.5 1.5 0 1 1-3 0a1.5 1.5 0 0 1 3 0Z" mask="url(#SVGjXBqqeYj)"/></g>
</svg>