<svg width="24" height="24" viewBox="0 0 24 24" fill="none" xmlns="http://www.w3.org/2000/svg">
<path fill="currentColor" d="m18.636 15.67l1.716-5.15c1.5-4.498 2.25-6.747 1.062-7.934s-3.436-.438-7.935 1.062L8.33 5.364C4.7 6.574 2.885 7.18 2.37 8.067a2.72 2.72 0 0 0 0 2.73c.515.888 2.33 1.493 5.96 2.704c.45.15.957.042 1.294-.291l5.506-5.455a.79.79 0 1 1 1.11 1.122l-5.416 5.366a1.4 1.4 0 0 0-.324 1.427c1.21 3.63 1.816 5.446 2.703 5.962a2.72 2.72 0 0 0 2.731 0c.887-.516 1.492-2.331 2.703-5.962"/>
</svg>