<svg width="24" height="24" viewBox="0 0 24 24" fill="none" xmlns="http://www.w3.org/2000/svg">
<g fill="none" stroke="currentColor" stroke-width="1.5"><path stroke-linecap="round" d="M14.5 6.5h3m0 0h3m-3 0v3m0-3v-3"/><path d="M2.5 6.5c0-1.886 0-2.828.586-3.414S4.614 2.5 6.5 2.5s2.828 0 3.414.586s.586 1.528.586 3.414s0 2.828-.586 3.414s-1.528.586-3.414.586s-2.828 0-3.414-.586S2.5 8.386 2.5 6.5Zm11 11c0-1.886 0-2.828.586-3.414s1.528-.586 3.414-.586s2.828 0 3.414.586s.586 1.528.586 3.414s0 2.828-.586 3.414s-1.528.586-3.414.586s-2.828 0-3.414-.586s-.586-1.528-.586-3.414Zm-11 0c0-1.886 0-2.828.586-3.414S4.614 13.5 6.5 13.5s2.828 0 3.414.586s.586 1.528.586 3.414s0 2.828-.586 3.414s-1.528.586-3.414.586s-2.828 0-3.414-.586S2.5 19.386 2.5 17.5Z"/></g>
</svg>