<svg width="24" height="24" viewBox="0 0 24 24" fill="none" xmlns="http://www.w3.org/2000/svg">
<path fill="currentColor" d="m7.58 15.008l.53-.531zm0-5.477L7.05 9zm6.867 6.846l-.53-.531zm-5.494 0l-.53.531zm2.747 1.936v.75zm8.594-7.765l.53.53zM13.427 3.7l.53.532zm-1.208 14.52l.26.704zm-6.47-6.512l.697.28zm14.015-1.69l-5.847 5.829l1.06 1.062l5.846-5.83zM9.483 15.846l-1.374-1.37L7.05 15.54l1.374 1.37zm-1.374-5.784l5.847-5.83l-1.059-1.062L7.05 9zm9.438-7.312h.569v-1.5h-.57zm3.703 3.123v.567h1.5v-.567zM18.116 2.75c.936 0 1.564.002 2.031.064c.446.06.633.163.755.284l1.059-1.062c-.447-.446-1.003-.626-1.614-.708c-.59-.08-1.337-.078-2.231-.078zm4.634 3.123c0-.892.002-1.636-.078-2.225c-.082-.611-.264-1.166-.711-1.612L20.9 3.098c.122.121.225.307.285.75c.063.466.064 1.09.064 2.025zM8.11 14.477c-.663-.66-1.105-1.104-1.391-1.478c-.273-.356-.331-.56-.331-.73h-1.5c0 .632.265 1.152.64 1.642c.361.472.89.997 1.522 1.628zm.314 2.431c.632.63 1.159 1.158 1.632 1.518c.492.374 1.013.637 1.644.637v-1.5c-.173 0-.378-.059-.735-.33c-.375-.286-.82-.727-1.482-1.387zm12.4-5.83c.798-.795 1.354-1.332 1.647-2.036l-1.385-.575c-.151.364-.436.667-1.322 1.55zm.426-4.638c0 1.249-.013 1.663-.164 2.027l1.385.575c.292-.704.28-1.476.28-2.602zm-7.294-2.207c.886-.883 1.19-1.168 1.556-1.319l-.573-1.386c-.705.291-1.243.846-2.042 1.642zm3.59-2.983c-1.129 0-1.902-.013-2.607.278l.572 1.386c.366-.15.784-.164 2.036-.164zm-3.629 14.596c-.511.51-.896.893-1.226 1.178c-.332.287-.556.426-.731.491l.518 1.408c.428-.158.814-.436 1.193-.764s.808-.755 1.305-1.25zm-1.957 1.669a.7.7 0 0 1-.26.048v1.5q.404-.001.778-.14zM7.05 9c-.485.484-.904.901-1.23 1.272c-.324.37-.6.745-.766 1.156l1.392.56c.07-.177.216-.4.502-.727c.285-.325.663-.702 1.161-1.2zm-1.996 2.428a2.2 2.2 0 0 0-.166.841h1.5c0-.09.016-.179.058-.282z"/><path fill="currentColor" d="m5.573 11.532l.53-.53V11zm4.347-4.11a.75.75 0 0 0 .811-1.261zm-.224-1.035l.406-.63zm-2.57-1.319l.11-.742zm-4.9 2.956l.529.53zm3.113-2.727l.288.692zm-2.476 4.13l-.276.697zm.123.049l.286-.694zm1.627 1.098l.53-.531zm-.095-.094l-.522.539zM2.484 9.276l.277-.697zM12.5 18.5l-.53.53l.036.034zm5.324-5.268a.75.75 0 1 0-1.26.816zm-.224 1.035l-.63.408zm1.323 2.562l.742-.11zm-2.964 4.887l.53.531zm2.735-3.105l.692.289zm-3.945 2.964l.697-.278zm-.474-1.092l.657-.36zm-1.252-1.524l.53-.531l-.018-.017l-.018-.016zm.818.866l.59-.462zm2.034 1.975l-.53-.531zM10.73 6.16l-.629-.405l-.812 1.261l.63.405zm-.629-.405c-.621-.4-1.123-.723-1.554-.956c-.442-.238-.855-.406-1.312-.474L7.017 5.81c.22.033.46.117.819.31c.368.2.814.485 1.454.897zm-7.346 2.8a57 57 0 0 1 1.71-1.659c.27-.247.518-.46.73-.623c.223-.172.365-.256.432-.284l-.575-1.385c-.257.107-.527.291-.773.481c-.258.2-.54.442-.826.703c-.572.522-1.2 1.149-1.757 1.705zm4.481-4.229a4.13 4.13 0 0 0-2.184.278l.575 1.385a2.63 2.63 0 0 1 1.39-.179zM2.208 9.974l.379.15l.552-1.395l-.378-.15zm1.875 1.13l.96.959L6.104 11l-.96-.958zm-1.496-.98l.114.045l.571-1.387l-.133-.053zm2.555-.081l-.101-.1l-1.045 1.076c.02.018.039.038.087.086zm-2.441.126a4.1 4.1 0 0 1 1.295.85l1.045-1.077a5.6 5.6 0 0 0-1.769-1.16zM1.696 7.493a1.514 1.514 0 0 0 .512 2.48l.553-1.394l-.007-.004l-.003-.007V8.56l.004-.005zm14.869 6.554l.406.628l1.259-.815l-.406-.628zm-1.136 7.138l-.084.084l1.06 1.062l.083-.084zm1.542-6.51c.414.639.7 1.082.9 1.45c.193.358.278.597.31.814l1.484-.22c-.068-.457-.238-.87-.476-1.31c-.233-.43-.558-.93-.959-1.55zm-.483 7.572a58 58 0 0 0 1.71-1.753c.261-.285.505-.565.705-.822c.19-.246.376-.515.483-.772l-1.384-.578a2.3 2.3 0 0 1-.285.43c-.163.212-.376.458-.624.728c-.497.541-1.1 1.143-1.664 1.705zm1.693-5.308c.068.456.008.935-.18 1.383l1.385.578a4.1 4.1 0 0 0 .279-2.181zm-4.664 1.456l-.523-.459l-.988 1.128l.522.459zm1.929 2.902c-.215-.538-.344-.865-.514-1.175l-1.315.722c.116.21.208.438.435 1.009zm-2.953-1.807c.436.434.61.61.758.798l1.18-.925c-.217-.278-.467-.526-.879-.935zm2.44.633a5.6 5.6 0 0 0-.502-.76l-1.18.925q.206.263.366.556zm.412 1.146a.1.1 0 0 1 .028-.016l.023-.002l.024.012q.018.016.026.034l-1.394.556c.384.963 1.632 1.196 2.352.478zM13.03 17.97l-.28-.281l-1.062 1.06l.282.282zm-7.987-5.908l.176.176l1.06-1.06L6.105 11zm5.813 2.108a.75.75 0 0 0-1.059-1.062zm-2.06 2.054l2.06-2.054l-1.059-1.062l-2.06 2.054zM16.664 9a1.196 1.196 0 0 1-1.688 0l-1.059 1.062a2.696 2.696 0 0 0 3.806 0zm-1.688 0a1.18 1.18 0 0 1 0-1.676l-1.059-1.062a2.68 2.68 0 0 0 0 3.8zm0-1.676a1.196 1.196 0 0 1 1.688 0l1.059-1.062a2.696 2.696 0 0 0-3.806 0zm1.688 0a1.18 1.18 0 0 1 0 1.676l1.059 1.062a2.68 2.68 0 0 0 0-3.8z" opacity=".5"/>
</svg>