<svg width="24" height="24" viewBox="0 0 24 24" fill="none" xmlns="http://www.w3.org/2000/svg">
<path fill="currentColor" d="m7.58 15.008l.53-.531zm0-5.477L7.05 9zm6.867 6.846l-.53-.531zm-5.494 0l-.53.531zm2.747 1.936v.75zm8.593-7.765l.53.53zM13.427 3.7l.53.532zm-2.571 10.47a.75.75 0 1 0-1.059-1.063zm-5.283-2.64l.53-.53zM9.92 7.422a.75.75 0 0 0 .811-1.261zm-.224-1.036l.406-.63zm-2.57-1.318l.11-.742zm-4.9 2.955l.529.531zm3.113-2.727l.288.693zm-2.476 4.13l-.276.697zm.123.05l.286-.694zm1.627 1.097l.53-.53zm-.095-.093l-.522.538zM2.484 9.276l.277-.697zM12.5 18.5l-.53.53l.036.034zm5.324-5.268a.75.75 0 1 0-1.26.815zm-.224 1.035l-.63.408zm1.323 2.562l.742-.11zm-2.964 4.886l.53.532zm2.735-3.104l.692.288zm-3.945 2.964l.697-.278zm-.474-1.092l.657-.36zm-1.252-1.525l.53-.53l-.018-.018l-.018-.015zm.818.867l.59-.463zm2.034 1.974l-.53-.53zM5.75 11.708l.695.28zm14.014-1.691l-5.847 5.829l1.06 1.062l5.846-5.83zM9.483 15.846l-1.374-1.37L7.05 15.54l1.374 1.37zm-1.374-5.784l5.847-5.83l-1.059-1.062L7.05 9zm9.438-7.312h.569v-1.5h-.57zm3.703 3.123v.567h1.5v-.567zM18.116 2.75c.936 0 1.564.002 2.031.064c.446.06.633.163.755.284l1.059-1.062c-.447-.446-1.003-.626-1.615-.708c-.59-.08-1.336-.078-2.23-.078zm4.634 3.123c0-.892.002-1.636-.078-2.225c-.082-.611-.264-1.166-.711-1.612L20.9 3.098c.122.121.225.307.285.75c.062.466.064 1.09.064 2.025zM8.11 14.477c-.663-.66-1.105-1.104-1.391-1.478c-.273-.356-.331-.56-.331-.73h-1.5c0 .632.265 1.152.64 1.642c.361.472.89.997 1.522 1.628zm.314 2.431c.632.63 1.159 1.158 1.632 1.518c.491.374 1.012.637 1.644.637v-1.5c-.173 0-.378-.059-.736-.33c-.374-.286-.819-.727-1.481-1.387zm12.399-5.83c.799-.795 1.355-1.332 1.648-2.036l-1.385-.575c-.151.364-.437.667-1.322 1.55zm.427-4.638c0 1.249-.013 1.663-.164 2.027l1.385.575c.292-.704.279-1.476.279-2.602zm-7.294-2.207c.885-.883 1.19-1.168 1.555-1.319l-.572-1.386c-.705.291-1.243.846-2.042 1.642zm3.59-2.983c-1.13 0-1.902-.013-2.607.278l.572 1.386c.366-.15.784-.164 2.036-.164zm-8.75 14.973l2.06-2.053l-1.059-1.063l-2.06 2.054zm1.935-10.062l-.629-.405l-.812 1.261l.63.405zm-.629-.405c-.621-.4-1.123-.724-1.554-.956c-.442-.238-.855-.407-1.312-.474L7.017 5.81c.22.032.46.117.819.31c.368.199.814.485 1.454.897zM2.755 8.554a57 57 0 0 1 1.71-1.658a12 12 0 0 1 .73-.623c.223-.172.365-.256.432-.284l-.575-1.386c-.257.107-.527.292-.773.482c-.258.199-.54.442-.826.703c-.572.522-1.2 1.149-1.757 1.704zm4.481-4.228a4.13 4.13 0 0 0-2.184.277l.575 1.386a2.63 2.63 0 0 1 1.39-.18zM2.208 9.973l.379.15l.552-1.394l-.378-.15zm1.875 1.131l.96.958L6.104 11l-.96-.958zm-1.496-.98l.114.045l.571-1.387l-.133-.053zm2.555-.082l-.101-.1l-1.045 1.076l.087.086zm-2.441.127c.482.198.921.487 1.295.85l1.045-1.077a5.6 5.6 0 0 0-1.769-1.16zM1.696 7.492a1.514 1.514 0 0 0 .512 2.481l.553-1.394l-.007-.004l-.003-.008V8.56l.004-.006zm14.869 6.555l.406.627l1.259-.815l-.406-.627zm-1.136 7.137l-.084.084l1.06 1.062l.083-.083zm1.542-6.51c.414.64.7 1.083.9 1.45c.193.358.278.597.31.815l1.484-.22c-.068-.457-.238-.87-.476-1.31c-.233-.43-.558-.93-.959-1.55zm-.483 7.573c.557-.556 1.186-1.183 1.71-1.753c.261-.285.505-.566.705-.823c.19-.245.376-.514.483-.771l-1.384-.578a2.3 2.3 0 0 1-.285.43a12 12 0 0 1-.624.728a57 57 0 0 1-1.664 1.704zm1.693-5.308c.068.456.008.934-.18 1.383l1.385.578a4.1 4.1 0 0 0 .279-2.182zm-4.664 1.456l-.523-.459l-.988 1.128l.522.458zm1.929 2.902c-.215-.539-.344-.866-.514-1.175l-1.315.721c.116.21.208.438.435 1.01zm-2.953-1.807c.436.434.61.609.758.798l1.18-.926c-.217-.277-.467-.525-.879-.935zm2.44.632a5.6 5.6 0 0 0-.502-.76l-1.18.926q.206.262.366.555zM16.662 9a1.196 1.196 0 0 1-1.687 0l-1.059 1.062a2.696 2.696 0 0 0 3.806 0zm-1.687 0a1.18 1.18 0 0 1 0-1.677l-1.059-1.062a2.68 2.68 0 0 0 0 3.8zm0-1.677a1.196 1.196 0 0 1 1.688 0l1.059-1.062a2.696 2.696 0 0 0-3.806 0zm1.688 0a1.18 1.18 0 0 1 0 1.677l1.059 1.062a2.68 2.68 0 0 0 0-3.8zm-1.319 13.945a.1.1 0 0 1 .028-.016l.023-.001l.024.012q.018.015.026.034l-1.394.555c.384.963 1.632 1.196 2.352.478zm-1.428-5.422c-.511.51-.896.893-1.227 1.178c-.331.287-.555.426-.73.491l.518 1.408c.428-.158.814-.436 1.193-.764s.808-.755 1.305-1.25zm-1.957 1.669a.7.7 0 0 1-.26.048v1.5q.404-.001.778-.14zm1.07.455l-.28-.281l-1.062 1.06l.282.281zM7.05 9c-.485.484-.904.901-1.23 1.272c-.324.37-.601.745-.766 1.156l1.391.56c.071-.177.217-.4.503-.727c.285-.325.663-.702 1.161-1.2zm-1.996 2.428a2.2 2.2 0 0 0-.166.841h1.5c0-.09.016-.179.057-.282zm-.011.634l.176.176l1.06-1.06L6.105 11z"/>
</svg>