<svg width="24" height="24" viewBox="0 0 24 24" fill="none" xmlns="http://www.w3.org/2000/svg">
<g clip-path="url(#clip0_2129_6595)">
<path opacity="0.1" fill-rule="evenodd" clip-rule="evenodd" d="M1.4064 22.242C2.8116 24 5.0748 24 9.6 24H14.4C18.9252 24 21.1884 24 22.5936 22.242C23.9988 20.484 24 17.6565 24 12C24 6.3435 24 3.5145 22.5936 1.758C21.1872 0.00149989 18.9252 0 14.4 0H9.6C5.0748 0 2.8116 -1.78814e-07 1.4064 1.758C0.00119991 3.516 0 6.3435 0 12C0 17.6565 -1.43051e-07 20.4855 1.4064 22.242Z" fill="black"/>
<path opacity="0.5" fill-rule="evenodd" clip-rule="evenodd" d="M13.4235 4.1216C13.1275 4 12.7515 4 12.0003 4C11.2491 4 10.8739 4 10.5771 4.1216C10.3818 4.2014 10.2042 4.31903 10.0546 4.46772C9.9049 4.61641 9.78613 4.79323 9.70508 4.988C9.62988 5.1664 9.60108 5.3752 9.58908 5.6784C9.58337 5.898 9.52193 6.11255 9.41054 6.30188C9.29915 6.49122 9.14146 6.64914 8.95228 6.7608C8.75927 6.86808 8.54231 6.92492 8.3215 6.92603C8.10068 6.92715 7.88316 6.87252 7.68908 6.7672C7.41868 6.6248 7.22268 6.5464 7.02908 6.5208C6.60554 6.46554 6.17729 6.57936 5.83708 6.8376C5.58268 7.0312 5.39468 7.3544 5.01948 8C4.64348 8.6456 4.45628 8.968 4.41388 9.284C4.35788 9.7048 4.47308 10.1304 4.73388 10.4672C4.85228 10.6208 5.01948 10.7496 5.27788 10.9112C5.65948 11.1488 5.90428 11.5536 5.90428 12C5.90428 12.4464 5.65948 12.8512 5.27868 13.088C5.01948 13.2504 4.85228 13.3792 4.73308 13.5328C4.60473 13.6994 4.51048 13.8896 4.45571 14.0926C4.40093 14.2957 4.38672 14.5075 4.41388 14.716C4.45628 15.0312 4.64348 15.3544 5.01948 16C5.39548 16.6456 5.58268 16.968 5.83708 17.1624C6.17628 17.4208 6.60508 17.5344 7.02908 17.4792C7.22268 17.4536 7.41868 17.3752 7.68908 17.2328C7.88326 17.1273 8.10093 17.0726 8.3219 17.0737C8.54287 17.0749 8.75997 17.1318 8.95308 17.2392C9.34188 17.4632 9.57228 17.8752 9.58908 18.3216C9.60108 18.6256 9.62988 18.8336 9.70508 19.012C9.86828 19.404 10.1819 19.716 10.5771 19.8784C10.8731 20 11.2491 20 12.0003 20C12.7515 20 13.1275 20 13.4235 19.8784C13.6188 19.7986 13.7963 19.681 13.946 19.5323C14.0957 19.3836 14.2144 19.2068 14.2955 19.012C14.3707 18.8336 14.3995 18.6256 14.4115 18.3216C14.4275 17.8752 14.6587 17.4624 15.0483 17.2392C15.2413 17.1319 15.4582 17.0751 15.6791 17.074C15.8999 17.0728 16.1174 17.1275 16.3115 17.2328C16.5819 17.3752 16.7779 17.4536 16.9715 17.4792C17.3955 17.5352 17.8243 17.4208 18.1635 17.1624C18.4179 16.9688 18.6059 16.6456 18.9811 16C19.3571 15.3544 19.5443 15.032 19.5867 14.716C19.6137 14.5074 19.5994 14.2956 19.5445 14.0925C19.4896 13.8895 19.3952 13.6993 19.2667 13.5328C19.1483 13.3792 18.9811 13.2504 18.7227 13.0888C18.3411 12.8512 18.0963 12.4464 18.0963 12C18.0963 11.5536 18.3411 11.1488 18.7219 10.912C18.9811 10.7496 19.1483 10.6208 19.2675 10.4672C19.3958 10.3006 19.4901 10.1104 19.5448 9.90737C19.5996 9.70435 19.6138 9.49252 19.5867 9.284C19.5443 8.9688 19.3571 8.6456 18.9811 8C18.6051 7.3544 18.4179 7.032 18.1635 6.8376C17.8233 6.57936 17.395 6.46554 16.9715 6.5208C16.7779 6.5464 16.5819 6.6248 16.3115 6.7672C16.1173 6.87266 15.8996 6.92737 15.6787 6.92625C15.4577 6.92514 15.2406 6.86822 15.0475 6.7608C14.8584 6.64904 14.7009 6.49108 14.5897 6.30175C14.4784 6.11242 14.4171 5.89792 14.4115 5.6784C14.3995 5.3744 14.3707 5.1664 14.2955 4.988C14.2144 4.79323 14.0957 4.61641 13.946 4.46772C13.7963 4.31903 13.6188 4.2014 13.4235 4.1216Z" fill="black"/>
<path d="M14.4186 12C14.4186 13.3256 13.3354 14.4 12.0002 14.4C10.665 14.4 9.58185 13.3256 9.58185 12C9.58185 10.6744 10.6642 9.60001 12.0002 9.60001C13.3362 9.60001 14.4186 10.6744 14.4186 12Z" fill="black"/>
</g>
<defs>
<clipPath id="clip0_2129_6595">
<rect width="24" height="24" fill="white"/>
</clipPath>
</defs>
</svg>
