<svg width="24" height="24" viewBox="0 0 24 24" fill="none" xmlns="http://www.w3.org/2000/svg">
<path fill="currentColor" fill-rule="evenodd" d="M13.803 5.333c0-1.84 1.5-3.333 3.348-3.333A3.34 3.34 0 0 1 20.5 5.333c0 1.841-1.5 3.334-3.349 3.334a3.35 3.35 0 0 1-2.384-.994l-4.635 3.156a3.34 3.34 0 0 1-.182 1.917l5.082 3.34a3.35 3.35 0 0 1 2.12-.753a3.34 3.34 0 0 1 3.348 3.334C20.5 20.507 19 22 17.151 22a3.34 3.34 0 0 1-3.348-3.333a3.3 3.3 0 0 1 .289-1.356L9.05 14a3.35 3.35 0 0 1-2.202.821A3.34 3.34 0 0 1 3.5 11.487a3.34 3.34 0 0 1 3.348-3.333c1.064 0 2.01.493 2.623 1.261l4.493-3.059a3.3 3.3 0 0 1-.161-1.023" clip-rule="evenodd"/>
</svg>