<svg width="24" height="24" viewBox="0 0 24 24" fill="none" xmlns="http://www.w3.org/2000/svg">
<g fill="none" stroke="currentColor" stroke-width="1.5"><path d="M3 10.417c0-3.198 0-4.797.378-5.335c.377-.537 1.88-1.052 4.887-2.081l.573-.196C10.405 2.268 11.188 2 12 2s1.595.268 3.162.805l.573.196c3.007 1.029 4.51 1.544 4.887 2.081C21 5.62 21 7.22 21 10.417v1.574c0 5.638-4.239 8.375-6.899 9.536C13.38 21.842 13.02 22 12 22s-1.38-.158-2.101-.473C7.239 20.365 3 17.63 3 11.991z" opacity=".5"/><path stroke-linecap="round" d="m3 11l9-3l9 3m-9-9v19.5"/></g>
</svg>