<svg width="24" height="24" viewBox="0 0 24 24" fill="none" xmlns="http://www.w3.org/2000/svg">
<path d="M6.28571 2C5.14907 2 4.05898 2.45153 3.25526 3.25526C2.45153 4.05898 2 5.14907 2 6.28571V17.7143C2 18.8509 2.45153 19.941 3.25526 20.7447C4.05898 21.5485 5.14907 22 6.28571 22H17.7143C18.8509 22 19.941 21.5485 20.7447 20.7447C21.5485 19.941 22 18.8509 22 17.7143V6.28571C22 5.14907 21.5485 4.05898 20.7447 3.25526C19.941 2.45153 18.8509 2 17.7143 2H6.28571ZM7.71429 3.42857V20.5714H6.28571C5.52795 20.5714 4.80123 20.2704 4.26541 19.7346C3.72959 19.1988 3.42857 18.472 3.42857 17.7143V6.28571C3.42857 5.52795 3.72959 4.80123 4.26541 4.26541C4.80123 3.72959 5.52795 3.42857 6.28571 3.42857H7.71429ZM9.14286 20.5714V16.2857H20.5714V17.7143C20.5714 18.472 20.2704 19.1988 19.7346 19.7346C19.1988 20.2704 18.472 20.5714 17.7143 20.5714H9.14286ZM20.5714 14.8571H9.14286V3.42857H17.7143C18.472 3.42857 19.1988 3.72959 19.7346 4.26541C20.2704 4.80123 20.5714 5.52795 20.5714 6.28571V14.8571Z" fill="black"/>
</svg>
