<svg width="24" height="24" viewBox="0 0 24 24" fill="none" xmlns="http://www.w3.org/2000/svg">
<path fill="currentColor" d="M15.252 10.689c-.987-1.18-1.48-1.77-2.048-1.68c-.567.091-.832.803-1.362 2.227l-.138.368c-.15.405-.226.607-.373.756c-.146.149-.348.228-.75.386l-.367.143c-1.417.555-2.126.833-2.207 1.4s.52 1.049 1.721 2.011l.31.25c.342.273.513.41.611.597c.1.187.115.404.146.837l.029.394c.11 1.523.166 2.285.683 2.545s1.154-.155 2.427-.983l.329-.215c.362-.235.543-.353.75-.387c.208-.033.42.022.841.132l.385.1c1.485.386 2.228.58 2.629.173s.193-1.144-.221-2.62l-.108-.38c-.117-.42-.176-.63-.147-.837c.03-.208.145-.39.374-.756l.21-.332c.807-1.285 1.21-1.927.94-2.438c-.269-.511-1.033-.553-2.562-.635l-.396-.022c-.434-.023-.652-.035-.841-.13c-.19-.095-.33-.263-.61-.599z"/><path fill="currentColor" d="M10.331 4.252c1.316-1.574 1.974-2.361 2.73-2.24s1.11 1.07 1.817 2.969l.183.491c.201.54.302.81.497 1.008c.196.199.464.304 1.001.514l.489.192c1.89.74 2.835 1.11 2.942 1.866c.108.757-.693 1.398-2.294 2.682l-.414.332c-.455.365-.683.547-.815.797s-.152.538-.194 1.115l-.038.526c-.148 2.031-.222 3.047-.911 3.393c-.69.347-1.538-.206-3.236-1.311l-.439-.286c-.482-.314-.723-.47-1-.515s-.558.028-1.121.175l-.513.133c-1.98.516-2.971.773-3.505.231s-.258-1.526.295-3.492l.142-.509c.157-.559.236-.838.197-1.115c-.04-.277-.193-.52-.499-1.008l-.278-.443C4.29 8.044 3.752 7.187 4.11 6.507c.36-.682 1.379-.737 3.418-.848l.527-.028c.58-.031.869-.047 1.122-.174c.252-.127.439-.35.813-.798z" opacity=".5"/>
</svg>