<svg width="24" height="24" viewBox="0 0 24 24" fill="none" xmlns="http://www.w3.org/2000/svg">
<g clip-path="url(#clip0_2119_2008)">
<path opacity="0.1" fill-rule="evenodd" clip-rule="evenodd" d="M1.4064 22.242C2.8116 24 5.0748 24 9.6 24H14.4C18.9252 24 21.1884 24 22.5936 22.242C23.9988 20.484 24 17.6565 24 12C24 6.3435 24 3.5145 22.5936 1.758C21.1872 0.00149989 18.9252 0 14.4 0H9.6C5.0748 0 2.8116 -1.78814e-07 1.4064 1.758C0.00119991 3.516 0 6.3435 0 12C0 17.6565 -1.43051e-07 20.4855 1.4064 22.242Z" fill="black"/>
<path opacity="0.5" d="M11 5.5C11 5.22386 11.2239 5 11.5 5H15.5C15.7761 5 16 5.22386 16 5.5V8H11V5.5Z" fill="black"/>
<path d="M5 5.5C5 5.22386 5.22386 5 5.5 5H9.5C9.77614 5 10 5.22386 10 5.5V8H5V5.5Z" fill="black"/>
<path d="M5 8H19.5C19.7761 8 20 8.22386 20 8.5V8.5C20 8.77614 19.7761 9 19.5 9H5.5C5.22386 9 5 8.77614 5 8.5V8Z" fill="black"/>
<path opacity="0.5" d="M5 10H20V18C20 18.5523 19.5523 19 19 19H6C5.44772 19 5 18.5523 5 18V10Z" fill="black"/>
</g>
<defs>
<clipPath id="clip0_2119_2008">
<rect width="24" height="24" fill="white"/>
</clipPath>
</defs>
</svg>
