<svg width="24" height="24" viewBox="0 0 24 24" fill="none" xmlns="http://www.w3.org/2000/svg">
<path fill="currentColor" fill-rule="evenodd" d="M2.123 12.816c.287 1.003 1.06 1.775 2.605 3.32l1.83 1.83C9.248 20.657 10.592 22 12.262 22c1.671 0 3.015-1.344 5.704-4.033c2.69-2.69 4.034-4.034 4.034-5.705c0-1.67-1.344-3.015-4.033-5.704l-1.83-1.83c-1.546-1.545-2.318-2.318-3.321-2.605c-1.003-.288-2.068-.042-4.197.45l-1.228.283c-1.792.413-2.688.62-3.302 1.233S3.27 5.6 2.856 7.391l-.284 1.228c-.491 2.13-.737 3.194-.45 4.197m8-5.545a2.017 2.017 0 1 1-2.852 2.852a2.017 2.017 0 0 1 2.852-2.852m8.928 4.78l-6.979 6.98a.75.75 0 0 1-1.06-1.061l6.978-6.98a.75.75 0 0 1 1.061 1.061" clip-rule="evenodd"/>
</svg>