<svg width="24" height="24" viewBox="0 0 24 24" fill="none" xmlns="http://www.w3.org/2000/svg">
<path fill="currentColor" d="M7.624 4.449C9.501 3.698 10.621 3.25 12 3.25s2.499.448 4.376 1.199l2.97 1.188c.954.382 1.727.69 2.258.969c.268.14.528.3.729.493c.206.198.417.498.417.901s-.21.703-.417.901c-.2.193-.46.352-.73.493c-.53.278-1.303.587-2.258.97l-2.97 1.187C14.5 12.302 13.38 12.75 12 12.75s-2.499-.448-4.376-1.199l-2.969-1.188c-.955-.382-1.728-.69-2.259-.969a3.2 3.2 0 0 1-.729-.493C1.461 8.703 1.25 8.403 1.25 8s.21-.703.417-.901c.2-.193.46-.352.73-.493c.53-.278 1.303-.587 2.258-.97z"/><path fill="currentColor" d="M2.502 11.443L2.5 11.44a.75.75 0 0 0-1 1.119L2 12l-.5.559l.002.002l.005.004l.014.012l.045.039q.057.047.161.129c.14.108.343.256.61.429c.533.346 1.32.79 2.363 1.207l2.809 1.124l.115.046c1.877.751 2.997 1.199 4.376 1.199s2.499-.448 4.375-1.199l.116-.046L19.3 14.38a13.7 13.7 0 0 0 2.363-1.207a9 9 0 0 0 .771-.558l.045-.039l.014-.012l.005-.004l.001-.002h.002a.75.75 0 0 0-1-1.119l-.002.002l-.002.001l-.024.021l-.118.094a8 8 0 0 1-.508.357c-.46.299-1.161.697-2.105 1.074l-2.808 1.123c-2.025.81-2.874 1.138-3.934 1.138s-1.91-.328-3.934-1.138L5.257 12.99a12 12 0 0 1-2.104-1.074a8 8 0 0 1-.65-.472" opacity=".7"/><path fill="currentColor" d="M2.499 15.5a.75.75 0 0 0-1 1.118H1.5l.002.002l.005.004l.014.012l.045.039l.161.13c.14.107.343.255.61.428c.533.346 1.32.79 2.363 1.207l2.809 1.124l.115.046c1.877.751 2.997 1.2 4.376 1.2s2.499-.449 4.375-1.2l.116-.046L19.3 18.44a13.7 13.7 0 0 0 2.363-1.208a9 9 0 0 0 .771-.558l.045-.039l.014-.012l.005-.004l.001-.001l.002-.002a.75.75 0 0 0-1-1.118l-.002.002l-.002.001l-.024.021l-.118.094a8 8 0 0 1-.508.357c-.46.299-1.161.697-2.105 1.074l-2.808 1.123c-2.025.81-2.874 1.138-3.934 1.138s-1.91-.328-3.934-1.138l-2.809-1.123a12 12 0 0 1-2.104-1.073a8 8 0 0 1-.626-.452l-.025-.02z" opacity=".4"/>
</svg>