<svg width="24" height="24" viewBox="0 0 24 24" fill="none" xmlns="http://www.w3.org/2000/svg">
<path fill="none" stroke="currentColor" stroke-width="1.5" d="M13.5 15.5c0-1.886 0-2.828.586-3.414s1.528-.586 3.414-.586s2.828 0 3.414.586s.586 1.528.586 3.414v2c0 1.886 0 2.828-.586 3.414s-1.528.586-3.414.586s-2.828 0-3.414-.586s-.586-1.528-.586-3.414zM2 8.5c0 1.886 0 2.828.586 3.414S4.114 12.5 6 12.5s2.828 0 3.414-.586S10 10.386 10 8.5v-2c0-1.886 0-2.828-.586-3.414S7.886 2.5 6 2.5s-2.828 0-3.414.586S2 4.614 2 6.5zm11.5-3c0-.932 0-1.398.152-1.765a2 2 0 0 1 1.083-1.083c.367-.152.833-.152 1.765-.152h2c.932 0 1.398 0 1.765.152a2 2 0 0 1 1.083 1.083c.152.367.152.833.152 1.765s0 1.398-.152 1.765a2 2 0 0 1-1.083 1.083c-.367.152-.833.152-1.765.152h-2c-.932 0-1.398 0-1.765-.152a2 2 0 0 1-1.083-1.083C13.5 6.898 13.5 6.432 13.5 5.5ZM2 18.5c0 .932 0 1.398.152 1.765a2 2 0 0 0 1.083 1.083c.367.152.833.152 1.765.152h2c.932 0 1.398 0 1.765-.152a2 2 0 0 0 1.083-1.083C10 19.898 10 19.432 10 18.5s0-1.398-.152-1.765a2 2 0 0 0-1.083-1.083C8.398 15.5 7.932 15.5 7 15.5H5c-.932 0-1.398 0-1.765.152a2 2 0 0 0-1.083 1.083C2 17.102 2 17.568 2 18.5Z"/>
</svg>