<svg width="24" height="24" viewBox="0 0 24 24" fill="none" xmlns="http://www.w3.org/2000/svg">
<path fill="currentColor" d="M13 15.4c0-2.074 0-3.111.659-3.756S15.379 11 17.5 11s3.182 0 3.841.644C22 12.29 22 13.326 22 15.4v2.2c0 2.074 0 3.111-.659 3.756S19.621 22 17.5 22s-3.182 0-3.841-.644C13 20.71 13 19.674 13 17.6z" opacity=".5"/><path fill="currentColor" d="M2 8.6c0 2.074 0 3.111.659 3.756S4.379 13 6.5 13s3.182 0 3.841-.644C11 11.71 11 10.674 11 8.6V6.4c0-2.074 0-3.111-.659-3.756S8.621 2 6.5 2s-3.182 0-3.841.644C2 3.29 2 4.326 2 6.4zm11-3.1c0-1.087 0-1.63.171-2.06a2.3 2.3 0 0 1 1.218-1.262C14.802 2 15.327 2 16.375 2h2.25c1.048 0 1.573 0 1.986.178c.551.236.99.69 1.218 1.262c.171.43.171.973.171 2.06s0 1.63-.171 2.06a2.3 2.3 0 0 1-1.218 1.262C20.198 9 19.673 9 18.625 9h-2.25c-1.048 0-1.573 0-1.986-.178a2.3 2.3 0 0 1-1.218-1.262C13 7.13 13 6.587 13 5.5"/><path fill="currentColor" d="M2 18.5c0 1.087 0 1.63.171 2.06a2.3 2.3 0 0 0 1.218 1.262c.413.178.938.178 1.986.178h2.25c1.048 0 1.573 0 1.986-.178c.551-.236.99-.69 1.218-1.262c.171-.43.171-.973.171-2.06s0-1.63-.171-2.06a2.3 2.3 0 0 0-1.218-1.262C9.198 15 8.673 15 7.625 15h-2.25c-1.048 0-1.573 0-1.986.178c-.551.236-.99.69-1.218 1.262C2 16.87 2 17.413 2 18.5" opacity=".5"/>
</svg>