<svg width="24" height="24" viewBox="0 0 24 24" fill="none" xmlns="http://www.w3.org/2000/svg">
<path d="M10 2.5C11.398 2.49994 12.7681 2.89061 13.9559 3.62792C15.1436 4.36523 16.1016 5.41983 16.7218 6.6727C17.342 7.92558 17.5997 9.32686 17.4658 10.7184C17.3319 12.11 16.8117 13.4364 15.964 14.548L20.707 19.293C20.8864 19.473 20.9905 19.7144 20.9982 19.9684C21.006 20.2223 20.9168 20.4697 20.7488 20.6603C20.5807 20.8508 20.3464 20.9703 20.0935 20.9944C19.8406 21.0185 19.588 20.9454 19.387 20.79L19.293 20.707L14.548 15.964C13.601 16.6861 12.4957 17.1723 11.3234 17.3824C10.1512 17.5925 8.94583 17.5204 7.807 17.1721C6.66817 16.8238 5.62865 16.2094 4.77446 15.3795C3.92026 14.5497 3.27595 13.5285 2.89483 12.4002C2.51371 11.2719 2.40675 10.0691 2.5828 8.89131C2.75884 7.7135 3.21283 6.59454 3.9072 5.62703C4.60156 4.65951 5.51634 3.87126 6.57585 3.32749C7.63535 2.78372 8.80911 2.50006 10 2.5ZM10 4.5C8.54131 4.5 7.14236 5.07946 6.11091 6.11091C5.07946 7.14236 4.5 8.54131 4.5 10C4.5 11.4587 5.07946 12.8576 6.11091 13.8891C7.14236 14.9205 8.54131 15.5 10 15.5C11.4587 15.5 12.8576 14.9205 13.8891 13.8891C14.9205 12.8576 15.5 11.4587 15.5 10C15.5 8.54131 14.9205 7.14236 13.8891 6.11091C12.8576 5.07946 11.4587 4.5 10 4.5Z" fill="black"/>
</svg>
