<svg id="visual" viewBox="0 0 900 600" width="900" height="600" xmlns="http://www.w3.org/2000/svg" xmlns:xlink="http://www.w3.org/1999/xlink" version="1.1"><rect x="0" y="0" width="900" height="600" fill="#001220"></rect><defs><linearGradient id="grad1_0" x1="33.3%" y1="0%" x2="100%" y2="100%"><stop offset="20%" stop-color="#9a9a9a" stop-opacity="1"></stop><stop offset="80%" stop-color="#9a9a9a" stop-opacity="1"></stop></linearGradient></defs><defs><linearGradient id="grad1_1" x1="33.3%" y1="0%" x2="100%" y2="100%"><stop offset="20%" stop-color="#9a9a9a" stop-opacity="1"></stop><stop offset="80%" stop-color="#717579" stop-opacity="1"></stop></linearGradient></defs><defs><linearGradient id="grad1_2" x1="33.3%" y1="0%" x2="100%" y2="100%"><stop offset="20%" stop-color="#4b5159" stop-opacity="1"></stop><stop offset="80%" stop-color="#717579" stop-opacity="1"></stop></linearGradient></defs><defs><linearGradient id="grad1_3" x1="33.3%" y1="0%" x2="100%" y2="100%"><stop offset="20%" stop-color="#4b5159" stop-opacity="1"></stop><stop offset="80%" stop-color="#26303c" stop-opacity="1"></stop></linearGradient></defs><defs><linearGradient id="grad1_4" x1="33.3%" y1="0%" x2="100%" y2="100%"><stop offset="20%" stop-color="#001220" stop-opacity="1"></stop><stop offset="80%" stop-color="#26303c" stop-opacity="1"></stop></linearGradient></defs><defs><linearGradient id="grad2_0" x1="0%" y1="0%" x2="66.7%" y2="100%"><stop offset="20%" stop-color="#9a9a9a" stop-opacity="1"></stop><stop offset="80%" stop-color="#9a9a9a" stop-opacity="1"></stop></linearGradient></defs><defs><linearGradient id="grad2_1" x1="0%" y1="0%" x2="66.7%" y2="100%"><stop offset="20%" stop-color="#717579" stop-opacity="1"></stop><stop offset="80%" stop-color="#9a9a9a" stop-opacity="1"></stop></linearGradient></defs><defs><linearGradient id="grad2_2" x1="0%" y1="0%" x2="66.7%" y2="100%"><stop offset="20%" stop-color="#717579" stop-opacity="1"></stop><stop offset="80%" stop-color="#4b5159" stop-opacity="1"></stop></linearGradient></defs><defs><linearGradient id="grad2_3" x1="0%" y1="0%" x2="66.7%" y2="100%"><stop offset="20%" stop-color="#26303c" stop-opacity="1"></stop><stop offset="80%" stop-color="#4b5159" stop-opacity="1"></stop></linearGradient></defs><defs><linearGradient id="grad2_4" x1="0%" y1="0%" x2="66.7%" y2="100%"><stop offset="20%" stop-color="#26303c" stop-opacity="1"></stop><stop offset="80%" stop-color="#001220" stop-opacity="1"></stop></linearGradient></defs><g transform="translate(900, 0)"><path d="M0 540.8C-27 518.5 -54 496.1 -87.9 498.3C-121.7 500.5 -162.5 527.3 -185 508.2C-207.5 489.1 -211.8 424.2 -222.5 385.4C-233.2 346.6 -250.3 334 -264.2 314.8C-278.1 295.7 -288.8 269.8 -288.8 242.3C-288.8 214.8 -278.2 185.6 -294.4 170C-310.7 154.4 -353.7 152.4 -386.2 140.6C-418.8 128.7 -440.8 107 -464.8 82C-488.9 56.9 -514.8 28.4 -540.8 0L0 0Z" fill="#14212d"></path><path d="M0 432.7C-21.6 414.8 -43.2 396.9 -70.3 398.7C-97.4 400.4 -130 421.8 -148 406.6C-166 391.3 -169.4 339.3 -178 308.3C-186.6 277.3 -200.2 267.2 -211.3 251.9C-222.5 236.5 -231 215.9 -231 193.9C-231.1 171.9 -222.6 148.5 -235.6 136C-248.5 123.5 -282.9 121.9 -309 112.5C-335 103 -352.6 85.6 -371.9 65.6C-391.1 45.5 -411.9 22.8 -432.7 0L0 0Z" fill="#38404a"></path><path d="M0 324.5C-16.2 311.1 -32.4 297.7 -52.7 299C-73 300.3 -97.5 316.4 -111 304.9C-124.5 293.5 -127.1 254.5 -133.5 231.2C-139.9 208 -150.2 200.4 -158.5 188.9C-166.8 177.4 -173.3 161.9 -173.3 145.4C-173.3 128.9 -166.9 111.4 -176.7 102C-186.4 92.6 -212.2 91.4 -231.7 84.3C-251.3 77.2 -264.5 64.2 -278.9 49.2C-293.3 34.1 -308.9 17.1 -324.5 0L0 0Z" fill="#5e6369"></path><path d="M0 216.3C-10.8 207.4 -21.6 198.4 -35.1 199.3C-48.7 200.2 -65 210.9 -74 203.3C-83 195.6 -84.7 169.7 -89 154.2C-93.3 138.6 -100.1 133.6 -105.7 125.9C-111.2 118.3 -115.5 107.9 -115.5 96.9C-115.5 85.9 -111.3 74.2 -117.8 68C-124.3 61.8 -141.5 61 -154.5 56.2C-167.5 51.5 -176.3 42.8 -185.9 32.8C-195.5 22.8 -205.9 11.4 -216.3 0L0 0Z" fill="#858789"></path><path d="M0 108.2C-5.4 103.7 -10.8 99.2 -17.6 99.7C-24.3 100.1 -32.5 105.5 -37 101.6C-41.5 97.8 -42.4 84.8 -44.5 77.1C-46.6 69.3 -50.1 66.8 -52.8 63C-55.6 59.1 -57.8 54 -57.8 48.5C-57.8 43 -55.6 37.1 -58.9 34C-62.1 30.9 -70.7 30.5 -77.2 28.1C-83.8 25.7 -88.2 21.4 -93 16.4C-97.8 11.4 -103 5.7 -108.2 0L0 0Z" fill="#9a9a9a"></path></g><g transform="translate(0, 600)"><path d="M0 -540.8C23.9 -489.3 47.9 -437.7 74.3 -421.5C100.8 -405.3 129.8 -424.5 155.3 -426.6C180.8 -428.7 202.8 -413.6 239.5 -414.8C276.2 -416 327.8 -433.6 347.6 -414.3C367.5 -395 355.8 -339 364.6 -306C373.5 -272.9 403 -262.8 416.6 -240.5C430.1 -218.2 427.8 -183.7 424.7 -154.6C421.7 -125.5 418 -102 437.3 -77.1C456.5 -52.2 498.7 -26.1 540.8 0L0 0Z" fill="#14212d"></path><path d="M0 -432.7C19.1 -391.4 38.3 -350.1 59.5 -337.2C80.6 -324.3 103.8 -339.6 124.2 -341.3C144.6 -343 162.2 -330.9 191.6 -331.9C221 -332.8 262.2 -346.8 278.1 -331.4C294 -316 284.6 -271.2 291.7 -244.8C298.8 -218.3 322.4 -210.3 333.2 -192.4C344.1 -174.5 342.2 -146.9 339.8 -123.7C337.4 -100.4 334.4 -81.6 349.8 -61.7C365.2 -41.8 398.9 -20.9 432.7 0L0 0Z" fill="#38404a"></path><path d="M0 -324.5C14.4 -293.6 28.7 -262.6 44.6 -252.9C60.5 -243.2 77.9 -254.7 93.2 -256C108.5 -257.2 121.7 -248.2 143.7 -248.9C165.7 -249.6 196.7 -260.1 208.6 -248.6C220.5 -237 213.5 -203.4 218.8 -183.6C224.1 -163.7 241.8 -157.7 249.9 -144.3C258.1 -130.9 256.7 -110.2 254.8 -92.8C253 -75.3 250.8 -61.2 262.4 -46.3C273.9 -31.3 299.2 -15.7 324.5 0L0 0Z" fill="#5e6369"></path><path d="M0 -216.3C9.6 -195.7 19.1 -175.1 29.7 -168.6C40.3 -162.1 51.9 -169.8 62.1 -170.6C72.3 -171.5 81.1 -165.4 95.8 -165.9C110.5 -166.4 131.1 -173.4 139.1 -165.7C147 -158 142.3 -135.6 145.9 -122.4C149.4 -109.2 161.2 -105.1 166.6 -96.2C172 -87.3 171.1 -73.5 169.9 -61.8C168.7 -50.2 167.2 -40.8 174.9 -30.8C182.6 -20.9 199.5 -10.4 216.3 0L0 0Z" fill="#858789"></path><path d="M0 -108.2C4.8 -97.9 9.6 -87.5 14.9 -84.3C20.2 -81.1 26 -84.9 31.1 -85.3C36.2 -85.7 40.6 -82.7 47.9 -83C55.2 -83.2 65.6 -86.7 69.5 -82.9C73.5 -79 71.2 -67.8 72.9 -61.2C74.7 -54.6 80.6 -52.6 83.3 -48.1C86 -43.6 85.6 -36.7 84.9 -30.9C84.3 -25.1 83.6 -20.4 87.5 -15.4C91.3 -10.4 99.7 -5.2 108.2 0L0 0Z" fill="#9a9a9a"></path></g></svg>