<svg id="visual" viewBox="0 0 900 600" width="900" height="600" xmlns="http://www.w3.org/2000/svg" xmlns:xlink="http://www.w3.org/1999/xlink" version="1.1"><rect x="0" y="0" width="900" height="600" fill="#001220"></rect><defs><linearGradient id="grad1_0" x1="33.3%" y1="0%" x2="100%" y2="100%"><stop offset="20%" stop-color="#9a9a9a" stop-opacity="1"></stop><stop offset="80%" stop-color="#9a9a9a" stop-opacity="1"></stop></linearGradient></defs><defs><linearGradient id="grad1_1" x1="33.3%" y1="0%" x2="100%" y2="100%"><stop offset="20%" stop-color="#9a9a9a" stop-opacity="1"></stop><stop offset="80%" stop-color="#717579" stop-opacity="1"></stop></linearGradient></defs><defs><linearGradient id="grad1_2" x1="33.3%" y1="0%" x2="100%" y2="100%"><stop offset="20%" stop-color="#4b5159" stop-opacity="1"></stop><stop offset="80%" stop-color="#717579" stop-opacity="1"></stop></linearGradient></defs><defs><linearGradient id="grad1_3" x1="33.3%" y1="0%" x2="100%" y2="100%"><stop offset="20%" stop-color="#4b5159" stop-opacity="1"></stop><stop offset="80%" stop-color="#26303c" stop-opacity="1"></stop></linearGradient></defs><defs><linearGradient id="grad1_4" x1="33.3%" y1="0%" x2="100%" y2="100%"><stop offset="20%" stop-color="#001220" stop-opacity="1"></stop><stop offset="80%" stop-color="#26303c" stop-opacity="1"></stop></linearGradient></defs><defs><linearGradient id="grad2_0" x1="0%" y1="0%" x2="66.7%" y2="100%"><stop offset="20%" stop-color="#9a9a9a" stop-opacity="1"></stop><stop offset="80%" stop-color="#9a9a9a" stop-opacity="1"></stop></linearGradient></defs><defs><linearGradient id="grad2_1" x1="0%" y1="0%" x2="66.7%" y2="100%"><stop offset="20%" stop-color="#717579" stop-opacity="1"></stop><stop offset="80%" stop-color="#9a9a9a" stop-opacity="1"></stop></linearGradient></defs><defs><linearGradient id="grad2_2" x1="0%" y1="0%" x2="66.7%" y2="100%"><stop offset="20%" stop-color="#717579" stop-opacity="1"></stop><stop offset="80%" stop-color="#4b5159" stop-opacity="1"></stop></linearGradient></defs><defs><linearGradient id="grad2_3" x1="0%" y1="0%" x2="66.7%" y2="100%"><stop offset="20%" stop-color="#26303c" stop-opacity="1"></stop><stop offset="80%" stop-color="#4b5159" stop-opacity="1"></stop></linearGradient></defs><defs><linearGradient id="grad2_4" x1="0%" y1="0%" x2="66.7%" y2="100%"><stop offset="20%" stop-color="#26303c" stop-opacity="1"></stop><stop offset="80%" stop-color="#001220" stop-opacity="1"></stop></linearGradient></defs><g transform="translate(900, 0)"><path d="M0 540.8C-32 541.5 -64.1 542.2 -93.9 532.6C-123.7 523.1 -151.4 503.3 -177.2 486.8C-203 470.2 -227 456.9 -256.5 444.3C-286 431.6 -321.1 419.7 -318.2 379.2C-315.3 338.7 -274.4 269.5 -295.7 248.1C-317 226.7 -400.6 253.1 -411.4 237.5C-422.1 221.9 -360.1 164.3 -374 136.1C-387.9 107.9 -477.6 109.1 -518 91.3C-558.5 73.5 -549.6 36.8 -540.8 0L0 0Z" fill="#14212d"></path><path d="M0 432.7C-25.6 433.2 -51.3 433.7 -75.1 426.1C-99 418.5 -121.1 402.6 -141.7 389.4C-162.4 376.2 -181.6 365.5 -205.2 355.4C-228.8 345.3 -256.9 335.8 -254.5 303.4C-252.2 270.9 -219.5 215.6 -236.6 198.5C-253.6 181.4 -320.5 202.5 -329.1 190C-337.7 177.5 -288.1 131.5 -299.2 108.9C-310.3 86.3 -382 87.3 -414.4 73.1C-446.8 58.8 -439.7 29.4 -432.7 0L0 0Z" fill="#38404a"></path><path d="M0 324.5C-19.2 324.9 -38.5 325.3 -56.3 319.6C-74.2 313.8 -90.8 302 -106.3 292.1C-121.8 282.1 -136.2 274.1 -153.9 266.6C-171.6 259 -192.7 251.8 -190.9 227.5C-189.2 203.2 -164.6 161.7 -177.4 148.9C-190.2 136 -240.3 151.9 -246.8 142.5C-253.3 133.1 -216.1 98.6 -224.4 81.7C-232.7 64.8 -286.5 65.5 -310.8 54.8C-335.1 44.1 -329.8 22.1 -324.5 0L0 0Z" fill="#5e6369"></path><path d="M0 216.3C-12.8 216.6 -25.6 216.9 -37.6 213C-49.5 209.2 -60.5 201.3 -70.9 194.7C-81.2 188.1 -90.8 182.8 -102.6 177.7C-114.4 172.7 -128.4 167.9 -127.3 151.7C-126.1 135.5 -109.7 107.8 -118.3 99.2C-126.8 90.7 -160.2 101.2 -164.5 95C-168.9 88.8 -144.1 65.7 -149.6 54.4C-155.1 43.2 -191 43.7 -207.2 36.5C-223.4 29.4 -219.9 14.7 -216.3 0L0 0Z" fill="#858789"></path><path d="M0 108.2C-6.4 108.3 -12.8 108.4 -18.8 106.5C-24.7 104.6 -30.3 100.7 -35.4 97.4C-40.6 94 -45.4 91.4 -51.3 88.9C-57.2 86.3 -64.2 83.9 -63.6 75.8C-63.1 67.7 -54.9 53.9 -59.1 49.6C-63.4 45.3 -80.1 50.6 -82.3 47.5C-84.4 44.4 -72 32.9 -74.8 27.2C-77.6 21.6 -95.5 21.8 -103.6 18.3C-111.7 14.7 -109.9 7.4 -108.2 0L0 0Z" fill="#9a9a9a"></path></g><g transform="translate(0, 600)"><path d="M0 -540.8C37.9 -556.4 75.8 -572 93.6 -530.8C111.4 -489.6 109 -391.6 135.1 -371.2C161.2 -350.7 215.8 -407.9 228.5 -395.8C241.2 -383.7 212 -302.3 240.4 -286.5C268.8 -270.7 354.8 -320.5 364.6 -306C374.5 -291.5 308.1 -212.7 318.7 -184C329.3 -155.3 416.8 -176.7 466.1 -169.6C515.4 -162.5 526.5 -126.9 532.6 -93.9C538.7 -60.9 539.8 -30.4 540.8 0L0 0Z" fill="#14212d"></path><path d="M0 -432.7C30.3 -445.1 60.7 -457.6 74.9 -424.6C89.1 -391.7 87.2 -313.3 108.1 -296.9C129 -280.6 172.6 -326.3 182.8 -316.6C193 -306.9 169.6 -241.8 192.3 -229.2C215 -216.6 283.8 -256.4 291.7 -244.8C299.6 -233.2 246.5 -170.1 255 -147.2C263.4 -124.3 333.4 -141.4 372.9 -135.7C412.3 -130 421.2 -101.6 426.1 -75.1C431 -48.7 431.8 -24.4 432.7 0L0 0Z" fill="#38404a"></path><path d="M0 -324.5C22.7 -333.9 45.5 -343.2 56.2 -318.5C66.8 -293.8 65.4 -235 81.1 -222.7C96.7 -210.4 129.5 -244.7 137.1 -237.5C144.7 -230.2 127.2 -181.4 144.2 -171.9C161.3 -162.4 212.9 -192.3 218.8 -183.6C224.7 -174.9 184.9 -127.6 191.2 -110.4C197.6 -93.2 250.1 -106 279.7 -101.8C309.2 -97.5 315.9 -76.2 319.6 -56.3C323.2 -36.5 323.9 -18.3 324.5 0L0 0Z" fill="#5e6369"></path><path d="M0 -216.3C15.2 -222.6 30.3 -228.8 37.4 -212.3C44.5 -195.8 43.6 -156.6 54 -148.5C64.5 -140.3 86.3 -163.2 91.4 -158.3C96.5 -153.5 84.8 -120.9 96.2 -114.6C107.5 -108.3 141.9 -128.2 145.9 -122.4C149.8 -116.6 123.2 -85.1 127.5 -73.6C131.7 -62.1 166.7 -70.7 186.4 -67.9C206.2 -65 210.6 -50.8 213 -37.6C215.5 -24.4 215.9 -12.2 216.3 0L0 0Z" fill="#858789"></path><path d="M0 -108.2C7.6 -111.3 15.2 -114.4 18.7 -106.2C22.3 -97.9 21.8 -78.3 27 -74.2C32.2 -70.1 43.2 -81.6 45.7 -79.2C48.2 -76.7 42.4 -60.5 48.1 -57.3C53.8 -54.1 71 -64.1 72.9 -61.2C74.9 -58.3 61.6 -42.5 63.7 -36.8C65.9 -31.1 83.4 -35.3 93.2 -33.9C103.1 -32.5 105.3 -25.4 106.5 -18.8C107.7 -12.2 108 -6.1 108.2 0L0 0Z" fill="#9a9a9a"></path></g></svg>