<svg width="128" height="128" viewBox="0 0 128 128" fill="none" xmlns="http://www.w3.org/2000/svg">
<path d="M120.037 14.698C77.9015 -0.249803 53.5145 -1.53566 8 14.698C8 81.9199 24.1831 111.796 62.7734 123C101.364 111.796 120.037 80.6751 120.037 14.698Z" fill="#FF3E00"/>
<path d="M117.952 14.8293C76.6952 0.192901 52.8163 -1.06617 8.25 14.8293C8.25 80.6508 24.0959 109.905 61.8823 120.875C99.6687 109.905 117.952 79.4319 117.952 14.8293Z" fill="white"/>
<path fill-rule="evenodd" clip-rule="evenodd" d="M91.9204 31.1767C84.7783 20.9545 70.6727 17.9246 60.4737 24.4228L42.5617 35.8389C37.669 38.917 34.2989 43.9135 33.278 49.603C32.4235 54.3428 33.1745 59.2322 35.4121 63.497C33.8789 65.8228 32.8331 68.4353 32.3381 71.1767C31.3073 76.9755 32.6557 82.9452 36.079 87.7379C43.2226 97.961 57.3282 100.99 67.5257 94.4918L85.4376 83.0757C90.3307 79.9979 93.7009 75.0013 94.7214 69.3115C95.5757 64.5718 94.8253 59.6826 92.5889 55.4172C94.1217 53.0915 95.167 50.4791 95.6615 47.7379C96.693 41.939 95.3445 35.9691 91.9206 31.1767L91.9204 31.1767ZM56.28 53.8962C56.651 54.4784 56.4796 55.2511 55.8974 55.622C55.3152 55.993 54.5425 55.8217 54.1715 55.2394C53.8006 54.6572 53.9719 53.8845 54.5542 53.5136C55.1364 53.1426 55.9091 53.3139 56.28 53.8962ZM73.2144 65.5885C73.7966 65.2176 73.9679 64.4449 73.597 63.8626C73.2261 63.2804 72.4534 63.1091 71.8711 63.48C71.2889 63.8509 71.1176 64.6236 71.4885 65.2059C71.8594 65.7881 72.6321 65.9594 73.2144 65.5885Z" fill="#FF3E00"/>
<path d="M58.6877 88.805C52.9123 90.3067 46.8134 88.046 43.4121 83.1429C41.3525 80.26 40.5411 76.6689 41.1613 73.1805C41.2653 72.6136 41.4083 72.0545 41.5895 71.5073L41.9269 70.4784L42.8449 71.1527C44.9648 72.7103 47.3352 73.8946 49.8537 74.6545L50.5196 74.8566L50.4583 75.5212C50.3769 76.4667 50.6329 77.4104 51.181 78.1852C52.2046 79.6621 54.0408 80.3437 55.7802 79.8923C56.1696 79.7882 56.5407 79.6251 56.8807 79.4086L73.4425 68.8545L73.8872 69.5526C74.2364 70.1007 75.0699 69.9755 75.2427 69.349L77.1925 62.2784C77.3106 61.85 77.0325 61.4135 76.5944 61.3395L69.3622 60.1185C68.7214 60.0103 68.2556 60.7128 68.6048 61.261L69.0412 61.9458L63.2662 65.6272C62.1419 66.3421 60.9149 66.8809 59.6278 67.225C53.8525 68.7266 47.7536 66.4659 44.3524 61.5628C42.2927 58.6799 41.4813 55.0888 42.1016 51.6005C42.7156 48.1781 44.743 45.1728 47.6864 43.322L65.6026 31.9028C66.7274 31.1868 67.9552 30.6473 69.2434 30.3031C75.0187 28.8016 81.1174 31.0622 84.5187 35.9653C86.5783 38.8482 87.3897 42.4393 86.7695 45.9277C86.6651 46.4945 86.522 47.0535 86.3413 47.6008L86.0039 48.6297L85.0864 47.9565C82.9666 46.398 80.596 45.2131 78.0771 44.4531L77.4112 44.251L77.4725 43.5864C77.5532 42.641 77.2972 41.6975 76.7498 40.9225C75.7263 39.4455 73.89 38.764 72.1506 39.2154C71.7612 39.3195 71.3901 39.4826 71.0501 39.6991L54.3741 50.3229L53.902 49.5817C53.5528 49.0336 52.7192 49.1588 52.5464 49.7853L50.5966 56.8559C50.4785 57.2843 50.7566 57.7208 51.1948 57.7948L58.4269 59.0158C59.0678 59.124 59.5335 58.4215 59.1843 57.8733L58.7772 57.2343L64.6651 53.4819C65.7889 52.7661 67.0158 52.2268 68.3031 51.8828C74.0784 50.3812 80.1772 52.6419 83.5784 57.5451C85.6382 60.4279 86.4495 64.019 85.8293 67.5073C85.2149 70.9298 83.1876 73.9354 80.2444 75.7872L62.3282 87.2054C61.2034 87.9214 59.9756 88.4609 58.6874 88.805L58.6877 88.805Z" fill="white"/>
</svg>
