<svg width="24" height="24" viewBox="0 0 24 24" fill="none" xmlns="http://www.w3.org/2000/svg">
<path fill-rule="evenodd" clip-rule="evenodd" d="M12 22C7.286 22 4.929 22 3.464 20.535C2 19.072 2 16.714 2 12C2 7.286 2 4.929 3.464 3.464C4.93 2 7.286 2 12 2C16.714 2 19.071 2 20.535 3.464C22 4.93 22 7.286 22 12C22 16.714 22 19.071 20.535 20.535C19.072 22 16.714 22 12 22ZM16.03 9.97C16.1705 9.82937 16.2493 9.63875 16.2493 9.44C16.2493 9.24125 16.1705 9.05063 16.03 8.91C15.8894 8.76955 15.6988 8.69066 15.5 8.69066C15.3012 8.69066 15.1106 8.76955 14.97 8.91L10.5 13.38L9.03 11.91C8.88937 11.7696 8.69875 11.6907 8.5 11.6907C8.30125 11.6907 8.11063 11.7696 7.97 11.91C7.82955 12.0506 7.75066 12.2413 7.75066 12.44C7.75066 12.6388 7.82955 12.8294 7.97 12.97L9.97 14.97C10.1106 15.1105 10.3012 15.1893 10.5 15.1893C10.6988 15.1893 10.8894 15.1105 11.03 14.97L16.03 9.97Z" fill="black"/>
</svg>
