<svg width="24" height="24" viewBox="0 0 24 24" fill="none" xmlns="http://www.w3.org/2000/svg">
<path d="M6.25 3C5.38805 3 4.5614 3.34241 3.9519 3.9519C3.34241 4.5614 3 5.38805 3 6.25V17.75C3 18.612 3.34241 19.4386 3.9519 20.0481C4.5614 20.6576 5.38805 21 6.25 21H17.75C18.612 21 19.4386 20.6576 20.0481 20.0481C20.6576 19.4386 21 18.612 21 17.75V6.25C21 5.38805 20.6576 4.5614 20.0481 3.9519C19.4386 3.34241 18.612 3 17.75 3H6.25ZM4.5 6.25C4.5 5.284 5.284 4.5 6.25 4.5H17.75C18.716 4.5 19.5 5.284 19.5 6.25V17.75C19.5 18.2141 19.3156 18.6592 18.9874 18.9874C18.6592 19.3156 18.2141 19.5 17.75 19.5H6.25C5.78587 19.5 5.34075 19.3156 5.01256 18.9874C4.68437 18.6592 4.5 18.2141 4.5 17.75V6.25ZM7.25 6C6.56 6 6 6.56 6 7.25V16.75C6 17.44 6.56 18 7.25 18H16.75C17.44 18 18 17.44 18 16.75V7.25C18 6.56 17.44 6 16.75 6H7.25Z" fill="black"/>
</svg>
