<svg width="24" height="24" viewBox="0 0 24 24" fill="none" xmlns="http://www.w3.org/2000/svg">
<path d="M4 20C3.45 20 2.97933 19.8043 2.588 19.413C2.196 19.021 2 18.55 2 18V6C2 5.45 2.196 4.97933 2.588 4.588C2.97933 4.196 3.45 4 4 4H9.175C9.44167 4 9.696 4.05 9.938 4.15C10.1793 4.25 10.3917 4.39167 10.575 4.575L12 6H20C20.55 6 21.021 6.196 21.413 6.588C21.8043 6.97933 22 7.45 22 8H6C5.45 8 4.97933 8.19567 4.588 8.587C4.196 8.979 4 9.45 4 10V18L5.975 11.425C6.10833 10.9917 6.35433 10.6457 6.713 10.387C7.071 10.129 7.46667 10 7.9 10H20.8C21.4833 10 22.021 10.2707 22.413 10.812C22.8043 11.354 22.9083 11.9417 22.725 12.575L20.925 18.575C20.7917 19.0083 20.546 19.3543 20.188 19.613C19.8293 19.871 19.4333 20 19 20H4Z" fill="black"/>
</svg>
