<svg width="24" height="24" viewBox="0 0 24 24" fill="none" xmlns="http://www.w3.org/2000/svg">
<path d="M12 9.00372C12.5933 9.00372 13.1734 9.17967 13.6667 9.50931C14.1601 9.83896 14.5446 10.3075 14.7716 10.8557C14.9987 11.4039 15.0581 12.0071 14.9424 12.589C14.8266 13.1709 14.5409 13.7055 14.1213 14.125C13.7018 14.5446 13.1672 14.8303 12.5853 14.9461C12.0033 15.0618 11.4001 15.0024 10.8519 14.7754C10.3038 14.5483 9.83524 14.1638 9.50559 13.6704C9.17595 13.1771 9 12.5971 9 12.0037C9.00099 11.2084 9.31738 10.4459 9.87978 9.8835C10.4422 9.3211 11.2047 9.00472 12 9.00372ZM12 7.50372C11.11 7.50372 10.24 7.76764 9.49993 8.26211C8.75991 8.75658 8.18314 9.45938 7.84254 10.2816C7.50195 11.1039 7.41283 12.0087 7.58647 12.8816C7.7601 13.7545 8.18868 14.5564 8.81802 15.1857C9.44736 15.815 10.2492 16.2436 11.1221 16.4173C11.995 16.5909 12.8998 16.5018 13.7221 16.1612C14.5443 15.8206 15.2471 15.2438 15.7416 14.5038C16.2361 13.7638 16.5 12.8937 16.5 12.0037C16.5 10.8102 16.0259 9.66566 15.182 8.82174C14.3381 7.97783 13.1935 7.50372 12 7.50372ZM4.0455 5.10972L5.1075 4.04922L7.73625 6.67872L6.675 7.73922L4.0455 5.10972ZM1.5 11.2537H5.25V12.7537H1.5V11.2537ZM4.0455 18.8985L6.675 16.269L7.7355 17.3295L5.10675 19.959L4.0455 18.8985ZM11.25 18.7537H12.75V22.5037H11.25V18.7537ZM16.2653 17.3287L17.3258 16.2682L19.9552 18.8977L18.8948 19.9582L16.2653 17.3287ZM18.75 11.2537H22.5V12.7537H18.75V11.2537ZM16.2653 6.67797L18.8948 4.04847L19.9552 5.10897L17.3258 7.73847L16.2653 6.67797ZM11.25 1.50372H12.75V5.25372H11.25V1.50372Z" fill="black"/>
</svg>
