<svg width="24" height="24" viewBox="0 0 24 24" fill="none" xmlns="http://www.w3.org/2000/svg">
<path d="M12 18C13.5913 18 15.1174 17.3679 16.2426 16.2426C17.3679 15.1174 18 13.5913 18 12C18 10.4087 17.3679 8.88257 16.2426 7.75735C15.1174 6.63213 13.5913 5.99999 12 5.99999C10.4087 5.99999 8.88257 6.63213 7.75735 7.75735C6.63213 8.88257 5.99999 10.4087 5.99999 12C5.99999 13.5913 6.63213 15.1174 7.75735 16.2426C8.88257 17.3679 10.4087 18 12 18ZM12 2.39999C9.45392 2.39999 7.01212 3.41142 5.21177 5.21177C3.41142 7.01212 2.39999 9.45392 2.39999 12C2.39999 14.5461 3.41142 16.9879 5.21177 18.7882C7.01212 20.5886 9.45392 21.6 12 21.6C14.5461 21.6 16.9879 20.5886 18.7882 18.7882C20.5886 16.9879 21.6 14.5461 21.6 12C21.6 9.45392 20.5886 7.01212 18.7882 5.21177C16.9879 3.41142 14.5461 2.39999 12 2.39999ZM3.59999 12C3.59999 10.8969 3.81727 9.80459 4.23941 8.78545C4.66155 7.76632 5.28028 6.84031 6.0603 6.0603C6.84031 5.28028 7.76632 4.66155 8.78545 4.23941C9.80459 3.81727 10.8969 3.59999 12 3.59999C13.1031 3.59999 14.1954 3.81727 15.2145 4.23941C16.2337 4.66155 17.1597 5.28028 17.9397 6.0603C18.7197 6.84031 19.3384 7.76632 19.7606 8.78545C20.1827 9.80459 20.4 10.8969 20.4 12C20.4 14.2278 19.515 16.3644 17.9397 17.9397C16.3644 19.515 14.2278 20.4 12 20.4C9.77218 20.4 7.6356 19.515 6.0603 17.9397C4.48499 16.3644 3.59999 14.2278 3.59999 12Z" fill="black"/>
</svg>
