<svg id="visual" viewBox="0 0 900 600" width="900" height="600" xmlns="http://www.w3.org/2000/svg" xmlns:xlink="http://www.w3.org/1999/xlink" version="1.1">
<rect x="0" y="0" width="900" height="600" fill="#0f172a"></rect>
<defs>
<linearGradient id="grad1_0" x1="33.3%" y1="100%" x2="100%" y2="0%">
<stop offset="20%" stop-color="#f8fafc" stop-opacity="1"></stop>
<stop offset="80%" stop-color="#f8fafc" stop-opacity="1"></stop>
</linearGradient></defs>
<defs><linearGradient id="grad1_1" x1="33.3%" y1="100%" x2="100%" y2="0%">
<stop offset="20%" stop-color="#f8fafc" stop-opacity="1"></stop>
<stop offset="80%" stop-color="#d1d6db" stop-opacity="1"></stop>
</linearGradient></defs>
<defs><linearGradient id="grad1_2" x1="33.3%" y1="100%" x2="100%" y2="0%">
<stop offset="20%" stop-color="#acb2bb" stop-opacity="1"></stop>
<stop offset="80%" stop-color="#d1d6db" stop-opacity="1"></stop>
</linearGradient></defs><defs>
<linearGradient id="grad1_3" x1="33.3%" y1="100%" x2="100%" y2="0%">
<stop offset="20%" stop-color="#acb2bb" stop-opacity="1"></stop>
<stop offset="80%" stop-color="#89909b" stop-opacity="1"></stop>
</linearGradient></defs><defs>
<linearGradient id="grad1_4" x1="33.3%" y1="100%" x2="100%" y2="0%">
<stop offset="20%" stop-color="#676f7d" stop-opacity="1"></stop>
<stop offset="80%" stop-color="#89909b" stop-opacity="1"></stop>
</linearGradient></defs><defs>
<linearGradient id="grad1_5" x1="33.3%" y1="100%" x2="100%" y2="0%">
<stop offset="20%" stop-color="#676f7d" stop-opacity="1"></stop>
<stop offset="80%" stop-color="#485060" stop-opacity="1"></stop></linearGradient>
</defs><defs><linearGradient id="grad1_6" x1="33.3%" y1="100%" x2="100%" y2="0%">
<stop offset="20%" stop-color="#2a3244" stop-opacity="1"></stop>
<stop offset="80%" stop-color="#485060" stop-opacity="1"></stop></linearGradient>
</defs><defs><linearGradient id="grad1_7" x1="33.3%" y1="100%" x2="100%" y2="0%">
<stop offset="20%" stop-color="#2a3244" stop-opacity="1"></stop><stop offset="80%" stop-color="#0f172a" stop-opacity="1"></stop></linearGradient></defs><defs><linearGradient id="grad2_0" x1="0%" y1="100%" x2="66.7%" y2="0%"><stop offset="20%" stop-color="#f8fafc" stop-opacity="1"></stop><stop offset="80%" stop-color="#f8fafc" stop-opacity="1"></stop></linearGradient></defs><defs><linearGradient id="grad2_1" x1="0%" y1="100%" x2="66.7%" y2="0%"><stop offset="20%" stop-color="#d1d6db" stop-opacity="1"></stop><stop offset="80%" stop-color="#f8fafc" stop-opacity="1"></stop></linearGradient></defs><defs><linearGradient id="grad2_2" x1="0%" y1="100%" x2="66.7%" y2="0%"><stop offset="20%" stop-color="#d1d6db" stop-opacity="1"></stop><stop offset="80%" stop-color="#acb2bb" stop-opacity="1"></stop></linearGradient></defs><defs><linearGradient id="grad2_3" x1="0%" y1="100%" x2="66.7%" y2="0%"><stop offset="20%" stop-color="#89909b" stop-opacity="1"></stop><stop offset="80%" stop-color="#acb2bb" stop-opacity="1"></stop></linearGradient></defs><defs><linearGradient id="grad2_4" x1="0%" y1="100%" x2="66.7%" y2="0%"><stop offset="20%" stop-color="#89909b" stop-opacity="1"></stop><stop offset="80%" stop-color="#676f7d" stop-opacity="1"></stop></linearGradient></defs><defs><linearGradient id="grad2_5" x1="0%" y1="100%" x2="66.7%" y2="0%"><stop offset="20%" stop-color="#485060" stop-opacity="1"></stop><stop offset="80%" stop-color="#676f7d" stop-opacity="1"></stop></linearGradient></defs><defs><linearGradient id="grad2_6" x1="0%" y1="100%" x2="66.7%" y2="0%"><stop offset="20%" stop-color="#485060" stop-opacity="1"></stop><stop offset="80%" stop-color="#2a3244" stop-opacity="1"></stop></linearGradient></defs><defs><linearGradient id="grad2_7" x1="0%" y1="100%" x2="66.7%" y2="0%"><stop offset="20%" stop-color="#0f172a" stop-opacity="1"></stop><stop offset="80%" stop-color="#2a3244" stop-opacity="1"></stop></linearGradient></defs><g transform="translate(900, 600)"><path d="M-324.5 0C-291.9 -18.5 -259.3 -36.9 -259.8 -69.6C-260.3 -102.3 -293.9 -149.2 -271.1 -156.5C-248.2 -163.8 -168.8 -131.6 -142.1 -142.1C-115.4 -152.6 -141.4 -205.9 -140.5 -243.4C-139.6 -280.8 -111.9 -302.5 -84 -313.4C-56.1 -324.3 -28 -324.4 0 -324.5L0 0Z" fill="#1d2437"></path><path d="M-283.9 0C-255.4 -16.2 -226.9 -32.3 -227.4 -60.9C-227.8 -89.5 -257.2 -130.5 -237.2 -136.9C-217.2 -143.4 -147.7 -115.2 -124.4 -124.4C-101 -133.6 -123.7 -180.1 -122.9 -212.9C-122.2 -245.7 -97.9 -264.7 -73.5 -274.3C-49.1 -283.8 -24.5 -283.9 0 -283.9L0 0Z" fill="#394152"></path><path d="M-243.4 0C-218.9 -13.9 -194.5 -27.7 -194.9 -52.2C-195.3 -76.7 -220.5 -111.9 -203.3 -117.4C-186.1 -122.9 -126.6 -98.7 -106.6 -106.6C-86.6 -114.5 -106 -154.4 -105.4 -182.5C-104.7 -210.6 -83.9 -226.9 -63 -235.1C-42.1 -243.3 -21 -243.3 0 -243.4L0 0Z" fill="#575f6e"></path><path d="M-202.8 0C-182.4 -11.5 -162.1 -23.1 -162.4 -43.5C-162.7 -63.9 -183.7 -93.2 -169.4 -97.8C-155.1 -102.4 -105.5 -82.3 -88.8 -88.8C-72.1 -95.4 -88.4 -128.7 -87.8 -152.1C-87.3 -175.5 -69.9 -189.1 -52.5 -195.9C-35.1 -202.7 -17.5 -202.8 0 -202.8L0 0Z" fill="#787f8c"></path><path d="M-162.2 0C-146 -9.2 -129.7 -18.5 -129.9 -34.8C-130.2 -51.1 -147 -74.6 -135.5 -78.3C-124.1 -81.9 -84.4 -65.8 -71.1 -71.1C-57.7 -76.3 -70.7 -102.9 -70.3 -121.7C-69.8 -140.4 -55.9 -151.3 -42 -156.7C-28 -162.2 -14 -162.2 0 -162.2L0 0Z" fill="#9aa1ab"></path><path d="M-121.7 0C-109.5 -6.9 -97.2 -13.9 -97.4 -26.1C-97.6 -38.4 -110.2 -55.9 -101.6 -58.7C-93.1 -61.4 -63.3 -49.4 -53.3 -53.3C-43.3 -57.2 -53 -77.2 -52.7 -91.3C-52.4 -105.3 -42 -113.5 -31.5 -117.5C-21 -121.6 -10.5 -121.7 0 -121.7L0 0Z" fill="#bec4cb"></path><path d="M-81.1 0C-73 -4.6 -64.8 -9.2 -65 -17.4C-65.1 -25.6 -73.5 -37.3 -67.8 -39.1C-62 -41 -42.2 -32.9 -35.5 -35.5C-28.9 -38.2 -35.3 -51.5 -35.1 -60.8C-34.9 -70.2 -28 -75.6 -21 -78.4C-14 -81.1 -7 -81.1 0 -81.1L0 0Z" fill="#e4e8eb"></path><path d="M-40.6 0C-36.5 -2.3 -32.4 -4.6 -32.5 -8.7C-32.5 -12.8 -36.7 -18.6 -33.9 -19.6C-31 -20.5 -21.1 -16.5 -17.8 -17.8C-14.4 -19.1 -17.7 -25.7 -17.6 -30.4C-17.5 -35.1 -14 -37.8 -10.5 -39.2C-7 -40.5 -3.5 -40.6 0 -40.6L0 0Z" fill="#f8fafc"></path></g><g transform="translate(0, 0)"><path d="M324.5 0C254.8 10.1 185 20.2 187.4 50.2C189.8 80.3 264.3 130.3 281 162.2C297.8 194.2 256.7 208.1 227 227C197.2 245.8 178.7 269.6 150.5 260.7C122.3 251.8 84.4 210.2 57.7 215.4C31 220.6 15.5 272.5 0 324.5L0 0Z" fill="#1d2437"></path><path d="M283.9 0C222.9 8.8 161.9 17.6 164 43.9C166 70.2 231.2 114 245.9 142C260.5 169.9 224.7 182.1 198.6 198.6C172.6 215.1 156.4 235.9 131.7 228.1C107 220.3 73.9 183.9 50.5 188.5C27.1 193 13.6 238.5 0 283.9L0 0Z" fill="#394152"></path><path d="M243.4 0C191.1 7.6 138.8 15.1 140.5 37.7C142.3 60.2 198.2 97.7 210.8 121.7C223.3 145.7 192.6 156.1 170.2 170.2C147.9 184.4 134 202.2 112.9 195.5C91.7 188.8 63.3 157.7 43.3 161.6C23.3 165.4 11.6 204.4 0 243.4L0 0Z" fill="#575f6e"></path><path d="M202.8 0C159.2 6.3 115.6 12.6 117.1 31.4C118.6 50.2 165.2 81.4 175.6 101.4C186.1 121.4 160.5 130.1 141.9 141.9C123.3 153.6 111.7 168.5 94.1 162.9C76.4 157.4 52.8 131.4 36.1 134.6C19.4 137.9 9.7 170.3 0 202.8L0 0Z" fill="#787f8c"></path><path d="M162.2 0C127.4 5 92.5 10.1 93.7 25.1C94.9 40.1 132.1 65.1 140.5 81.1C148.9 97.1 128.4 104.1 113.5 113.5C98.6 122.9 89.3 134.8 75.3 130.3C61.2 125.9 42.2 105.1 28.9 107.7C15.5 110.3 7.8 136.3 0 162.2L0 0Z" fill="#9aa1ab"></path><path d="M121.7 0C95.5 3.8 69.4 7.6 70.3 18.8C71.2 30.1 99.1 48.9 105.4 60.8C111.7 72.8 96.3 78.1 85.1 85.1C74 92.2 67 101.1 56.4 97.8C45.9 94.4 31.7 78.8 21.6 80.8C11.6 82.7 5.8 102.2 0 121.7L0 0Z" fill="#bec4cb"></path><path d="M81.1 0C63.7 2.5 46.3 5 46.8 12.6C47.4 20.1 66.1 32.6 70.3 40.6C74.4 48.6 64.2 52 56.7 56.7C49.3 61.5 44.7 67.4 37.6 65.2C30.6 62.9 21.1 52.6 14.4 53.9C7.8 55.1 3.9 68.1 0 81.1L0 0Z" fill="#e4e8eb"></path><path d="M40.6 0C31.8 1.3 23.1 2.5 23.4 6.3C23.7 10 33 16.3 35.1 20.3C37.2 24.3 32.1 26 28.4 28.4C24.7 30.7 22.3 33.7 18.8 32.6C15.3 31.5 10.6 26.3 7.2 26.9C3.9 27.6 1.9 34.1 0 40.6L0 0Z" fill="#f8fafc"></path></g></svg>