<svg width="24" height="24" viewBox="0 0 24 24" fill="none" xmlns="http://www.w3.org/2000/svg">
<rect x="6" y="3" width="16" height="3" rx="0.5" stroke="black" stroke-width="0.5"/>
<rect x="9" y="8" width="13" height="3" rx="0.5" stroke="black" stroke-width="0.5"/>
<rect x="12" y="13" width="10" height="3" rx="0.5" stroke="black" stroke-width="0.5"/>
<rect x="6" y="18" width="16" height="3" rx="0.5" stroke="black" stroke-width="0.5"/>
<path d="M9.5 14.5H8.5M10 15.1667V13.8333C10 13.7449 9.96488 13.6601 9.90237 13.5976C9.83986 13.5351 9.75507 13.5 9.66667 13.5H8.33333C8.24493 13.5 8.16014 13.5351 8.09763 13.5976C8.03512 13.6601 8 13.7449 8 13.8333V15.1667C8 15.2551 8.03512 15.3399 8.09763 15.4024C8.16014 15.4649 8.24493 15.5 8.33333 15.5H9.66667C9.75507 15.5 9.83986 15.4649 9.90237 15.4024C9.96488 15.3399 10 15.2551 10 15.1667ZM9 14V15.0093V14Z" stroke="black" stroke-width="0.25" stroke-linecap="round" stroke-linejoin="round"/>
<path d="M3.5 19.5H2.5M4 20.1667V18.8333C4 18.7449 3.96488 18.6601 3.90237 18.5976C3.83986 18.5351 3.75507 18.5 3.66667 18.5H2.33333C2.24493 18.5 2.16014 18.5351 2.09763 18.5976C2.03512 18.6601 2 18.7449 2 18.8333V20.1667C2 20.2551 2.03512 20.3399 2.09763 20.4024C2.16014 20.4649 2.24493 20.5 2.33333 20.5H3.66667C3.75507 20.5 3.83986 20.4649 3.90237 20.4024C3.96488 20.3399 4 20.2551 4 20.1667ZM3 19V20.0093V19Z" stroke="black" stroke-width="0.25" stroke-linecap="round" stroke-linejoin="round"/>
<path d="M6.5 9.5H5.5M7 10.1667V8.83333C7 8.74493 6.96488 8.66014 6.90237 8.59763C6.83986 8.53512 6.75507 8.5 6.66667 8.5H5.33333C5.24493 8.5 5.16014 8.53512 5.09763 8.59763C5.03512 8.66014 5 8.74493 5 8.83333V10.1667C5 10.2551 5.03512 10.3399 5.09763 10.4024C5.16014 10.4649 5.24493 10.5 5.33333 10.5H6.66667C6.75507 10.5 6.83986 10.4649 6.90237 10.4024C6.96488 10.3399 7 10.2551 7 10.1667Z" stroke="black" stroke-width="0.25" stroke-linecap="round" stroke-linejoin="round"/>
<path d="M3.5 4.5H2.5M4 5.16667V3.83333C4 3.74493 3.96488 3.66014 3.90237 3.59763C3.83986 3.53512 3.75507 3.5 3.66667 3.5H2.33333C2.24493 3.5 2.16014 3.53512 2.09763 3.59763C2.03512 3.66014 2 3.74493 2 3.83333V5.16667C2 5.25507 2.03512 5.33986 2.09763 5.40237C2.16014 5.46488 2.24493 5.5 2.33333 5.5H3.66667C3.75507 5.5 3.83986 5.46488 3.90237 5.40237C3.96488 5.33986 4 5.25507 4 5.16667Z" stroke="black" stroke-width="0.25" stroke-linecap="round" stroke-linejoin="round"/>
</svg>
