<svg width="24" height="24" viewBox="0 0 24 24" fill="none" xmlns="http://www.w3.org/2000/svg">
<path fill-rule="evenodd" clip-rule="evenodd" d="M3 17C2.44771 17 2 17.4477 2 18V21C2 21.5523 2.44771 22 3 22H21C21.5523 22 22 21.5523 22 21V18C22 17.4477 21.5523 17 21 17H3ZM19.1333 19.4916L18 18.409L18.6677 17.71L20.5 19.4604L18.7499 21.2924L18.0509 20.6248L19.1333 19.4916Z" fill="black"/>
<path d="M2 7H22V14.5C22 15.0523 21.5523 15.5 21 15.5H3C2.44772 15.5 2 15.0523 2 14.5V7Z" fill="black" fill-opacity="0.5"/>
<path fill-rule="evenodd" clip-rule="evenodd" d="M3 2C2.44772 2 2 2.44772 2 3V7H22V3C22 2.44772 21.5523 2 21 2H3ZM18.8008 4.38335L19.8835 3.25L20.5824 3.91769L18.8321 5.75L17 3.99988L17.6677 3.30092L18.8008 4.38335Z" fill="black"/>
</svg>
