<svg width="24" height="24" viewBox="0 0 24 24" fill="none" xmlns="http://www.w3.org/2000/svg">
<path fill-rule="evenodd" clip-rule="evenodd" d="M3 16.5C2.44771 16.5 2 16.9477 2 17.5V20.5C2 21.0523 2.44771 21.5 3 21.5H21C21.5523 21.5 22 21.0523 22 20.5V17.5C22 16.9477 21.5523 16.5 21 16.5H3ZM19.1333 18.9916L18 17.909L18.6677 17.21L20.5 18.9604L18.7499 20.7924L18.0509 20.1248L19.1333 18.9916Z" fill="black"/>
<path d="M2 7.5H22V15C22 15.5523 21.5523 16 21 16H3C2.44772 16 2 15.5523 2 15V7.5Z" fill="black" fill-opacity="0.5"/>
<path fill-rule="evenodd" clip-rule="evenodd" d="M3 2.5C2.44772 2.5 2 2.94772 2 3.5V7.5H22V3.5C22 2.94772 21.5523 2.5 21 2.5H3ZM18.8008 4.88335L19.8835 3.75L20.5824 4.41769L18.8321 6.25L17 4.49988L17.6677 3.80092L18.8008 4.88335Z" fill="black"/>
</svg>
