<svg width="24" height="24" viewBox="0 0 24 24" fill="none" xmlns="http://www.w3.org/2000/svg">
<g clip-path="url(#clip0_2128_2758)">
<path opacity="0.1" fill-rule="evenodd" clip-rule="evenodd" d="M1.4064 22.242C2.8116 24 5.0748 24 9.6 24H14.4C18.9252 24 21.1884 24 22.5936 22.242C23.9988 20.484 24 17.6565 24 12C24 6.3435 24 3.5145 22.5936 1.758C21.1872 0.00149989 18.9252 0 14.4 0H9.6C5.0748 0 2.8116 -1.78814e-07 1.4064 1.758C0.00119991 3.516 0 6.3435 0 12C0 17.6565 -1.43051e-07 20.4855 1.4064 22.242Z" fill="black"/>
<path d="M12 10.2C15.3135 10.2 18 9.70775 18 9.1C18 8.49225 15.3135 8 12 8C8.6865 8 6 8.49225 6 9.1C6 9.70775 8.6865 10.2 12 10.2Z" fill="black"/>
<path opacity="0.5" d="M4 11V14.6C4 15.926 7.582 17 12 17C16.418 17 20 15.926 20 14.6V11C20 12.326 16.418 13.4 12 13.4C7.582 13.4 4 12.326 4 11Z" fill="black"/>
<path opacity="0.7" d="M6 9V10.8C6 11.463 8.6865 12 12 12C15.3135 12 18 11.463 18 10.8V9C18 9.663 15.3135 10.2 12 10.2C8.6865 10.2 6 9.663 6 9Z" fill="black"/>
</g>
<defs>
<clipPath id="clip0_2128_2758">
<rect width="24" height="24" fill="white"/>
</clipPath>
</defs>
</svg>
