<svg width="24" height="24" viewBox="0 0 24 24" fill="none" xmlns="http://www.w3.org/2000/svg">
<g clip-path="url(#clip0_2129_2808)">
<path opacity="0.1" fill-rule="evenodd" clip-rule="evenodd" d="M1.4064 22.242C2.8116 24 5.0748 24 9.6 24H14.4C18.9252 24 21.1884 24 22.5936 22.242C23.9988 20.484 24 17.6565 24 12C24 6.3435 24 3.5145 22.5936 1.758C21.1872 0.00149989 18.9252 0 14.4 0H9.6C5.0748 0 2.8116 -1.78814e-07 1.4064 1.758C0.00119991 3.516 0 6.3435 0 12C0 17.6565 -1.43051e-07 20.4855 1.4064 22.242Z" fill="black"/>
<path fill-rule="evenodd" clip-rule="evenodd" d="M16.8508 4.06167C15.9582 3.78209 15.1413 4.4945 15.1413 5.36439V8.41782C14.05 8.63003 12.7801 8.75214 11.421 8.75214C10.0618 8.75214 8.79193 8.63003 7.69973 8.41782V5.36439C7.69973 4.4945 6.8829 3.78209 5.99196 4.06167C5.16503 4.32019 4.45009 4.64861 3.92883 5.04692C3.41684 5.43597 3 5.96901 3 6.63595V16.699C3.00112 16.8803 3.03032 17.0527 3.08758 17.216C3.13867 17.3631 3.20716 17.5015 3.29305 17.6312C3.56589 18.0447 4.00125 18.384 4.50567 18.6611C5.0185 18.9423 5.64334 19.1832 6.34564 19.3785C7.74942 19.7701 9.51529 20 11.421 20C13.0209 20 14.5215 19.8383 15.7906 19.5545C17.0478 19.2741 18.1257 18.864 18.8474 18.3377C19.0225 18.2097 19.1884 18.0665 19.3324 17.9074C19.6356 17.5722 19.8419 17.1689 19.8419 16.6981V6.63595C19.8419 5.96901 19.4259 5.43597 18.9131 5.04523C18.3918 4.64777 17.6769 4.31935 16.8499 4.06082M18.6663 8.40098L18.5981 8.44477C17.9051 8.87929 16.9544 9.22792 15.8579 9.47802C14.5746 9.77023 13.0496 9.93865 11.4201 9.93865C9.79065 9.93865 8.26646 9.77023 6.98227 9.47802C5.88586 9.22792 4.93513 8.88013 4.24209 8.44477L4.17472 8.40098V16.1163L6.55785 13.8637L7.63236 12.9542C8.01243 12.6348 8.49712 12.4672 8.99329 12.4835C9.48945 12.4998 9.96208 12.699 10.3203 13.0426L12.9224 15.5563C13.0317 15.6584 13.1724 15.7204 13.3215 15.7324C13.4706 15.7443 13.6193 15.7054 13.7434 15.6219L13.9245 15.4998C14.3705 15.198 14.9036 15.0516 15.4412 15.0831C15.9788 15.1146 16.4911 15.3223 16.8988 15.6742L18.4988 17.0661C18.631 16.9078 18.6663 16.7824 18.6663 16.6973V8.40098Z" fill="black"/>
<path opacity="0.5" d="M17.4924 12.2864C17.4924 12.9416 16.9661 13.4738 16.3168 13.4738C15.6676 13.4738 15.1421 12.9416 15.1421 12.2864C15.1421 11.6313 15.6684 11.0991 16.3168 11.0991C16.9652 11.0991 17.4924 11.6313 17.4924 12.2864Z" fill="black"/>
</g>
<defs>
<clipPath id="clip0_2129_2808">
<rect width="24" height="24" fill="white"/>
</clipPath>
</defs>
</svg>
