<svg width="24" height="24" viewBox="0 0 24 24" fill="none" xmlns="http://www.w3.org/2000/svg">
<g clip-path="url(#clip0_2127_2708)">
<path opacity="0.1" fill-rule="evenodd" clip-rule="evenodd" d="M1.4064 22.242C2.8116 24 5.0748 24 9.6 24H14.4C18.9252 24 21.1884 24 22.5936 22.242C23.9988 20.484 24 17.6565 24 12C24 6.3435 24 3.5145 22.5936 1.758C21.1872 0.00149989 18.9252 0 14.4 0H9.6C5.0748 0 2.8116 -1.78814e-07 1.4064 1.758C0.00119991 3.516 0 6.3435 0 12C0 17.6565 -1.43051e-07 20.4855 1.4064 22.242Z" fill="black"/>
<path d="M12.8574 4C15.0841 4 16.198 4.00003 17.127 4.50098C18.0569 5.00297 18.6472 5.92084 19.8281 7.75977L20.5088 8.82031C21.5027 10.3662 22 11.14 22 12C22 12.86 21.5027 13.6338 20.5098 15.1797L19.8301 16.2402C18.6491 18.0781 18.0589 18.997 17.1289 19.499C16.199 20.0009 15.0851 20 12.8584 20H10.9756C13.1736 20 14.2734 20.0009 15.1914 19.499C16.1094 18.997 16.6917 18.0779 17.8574 16.2402L18.5293 15.1797C19.5095 13.6339 20 12.8599 20 12C20 11.1401 19.5095 10.3661 18.5283 8.82031L17.8555 7.75977C16.6898 5.92105 16.1074 5.00296 15.1895 4.50098C14.2724 4.00005 13.1727 4 10.9746 4H12.8574ZM9.25684 4.00098C11.2852 4.00174 12.3342 4.01996 13.2148 4.50098C14.1329 5.00297 14.716 5.92084 15.8818 7.75977L16.5537 8.82031C17.5349 10.3662 18.0254 11.14 18.0254 12C18.0254 12.86 17.5349 13.6338 16.5547 15.1797L15.8838 16.2402C14.718 18.0781 14.1349 18.997 13.2168 19.499C12.3352 19.981 11.2862 19.9974 9.25781 19.998C8.97558 19.9973 8.70496 19.9948 8.44531 19.9922C9.76014 19.9699 10.5684 19.8785 11.2715 19.499C12.2015 18.997 12.7917 18.0781 13.9727 16.2402L14.6523 15.1797C15.6453 13.6338 16.1426 12.86 16.1426 12C16.1426 11.14 15.6453 10.3662 14.6514 8.82031L13.9707 7.75977C12.7897 5.92084 12.1995 5.00297 11.2695 4.50098C10.5672 4.12223 9.75913 4.02938 8.44434 4.00684C8.70398 4.00424 8.97461 4.00169 9.25684 4.00098ZM7.19336 4.0332C8.08636 4.08117 8.71137 4.19998 9.26953 4.50098C10.1995 5.00297 10.7897 5.92084 11.9707 7.75977L12.6514 8.82031C13.6453 10.3662 14.1426 11.14 14.1426 12C14.1426 12.86 13.6453 13.6338 12.6523 15.1797L11.9727 16.2402C10.7917 18.0781 10.2015 18.997 9.27148 19.499C8.71273 19.8006 8.08741 19.918 7.19434 19.9658C5.23732 19.8906 4.04266 19.6443 3.2041 18.8281C2.0001 17.6561 2 15.771 2 12C2 8.229 2.0001 6.34288 3.2041 5.17188C4.04257 4.35647 5.23703 4.10866 7.19336 4.0332Z" fill="black"/>
</g>
<defs>
<clipPath id="clip0_2127_2708">
<rect width="24" height="24" fill="white"/>
</clipPath>
</defs>
</svg>
