<svg width="24" height="24" viewBox="0 0 24 24" fill="none" xmlns="http://www.w3.org/2000/svg">
<path opacity="0.5" d="M2.5 6.5C2.5 4.614 2.5 3.672 3.086 3.086C3.672 2.5 4.614 2.5 6.5 2.5C8.386 2.5 9.328 2.5 9.914 3.086C10.5 3.672 10.5 4.614 10.5 6.5V17.5C10.5 19.386 10.5 20.328 9.914 20.914C9.328 21.5 8.386 21.5 6.5 21.5C4.614 21.5 3.672 21.5 3.086 20.914C2.5 20.328 2.5 19.386 2.5 17.5V6.5Z" stroke="black" stroke-width="1.5"/>
<path d="M13.5 15.5C13.5 13.614 13.5 12.672 14.086 12.086C14.672 11.5 15.614 11.5 17.5 11.5C19.386 11.5 20.328 11.5 20.914 12.086C21.5 12.672 21.5 13.614 21.5 15.5V17.5C21.5 19.386 21.5 20.328 20.914 20.914C20.328 21.5 19.386 21.5 17.5 21.5C15.614 21.5 14.672 21.5 14.086 20.914C13.5 20.328 13.5 19.386 13.5 17.5V15.5ZM13.5 5.5C13.5 4.568 13.5 4.102 13.652 3.735C13.7525 3.49218 13.8999 3.27155 14.0857 3.08572C14.2716 2.8999 14.4922 2.75251 14.735 2.652C15.102 2.5 15.568 2.5 16.5 2.5H18.5C19.432 2.5 19.898 2.5 20.265 2.652C20.5078 2.75251 20.7284 2.8999 20.9143 3.08572C21.1001 3.27155 21.2475 3.49218 21.348 3.735C21.5 4.102 21.5 4.568 21.5 5.5C21.5 6.432 21.5 6.898 21.348 7.265C21.2475 7.50782 21.1001 7.72845 20.9143 7.91428C20.7284 8.1001 20.5078 8.24749 20.265 8.348C19.898 8.5 19.432 8.5 18.5 8.5H16.5C15.568 8.5 15.102 8.5 14.735 8.348C14.4922 8.24749 14.2716 8.1001 14.0857 7.91428C13.8999 7.72845 13.7525 7.50782 13.652 7.265C13.5 6.898 13.5 6.432 13.5 5.5Z" stroke="black" stroke-width="1.5"/>
</svg>
