<svg width="24" height="24" viewBox="0 0 24 24" fill="none" xmlns="http://www.w3.org/2000/svg">
<g clip-path="url(#clip0_2127_2709)">
<path opacity="0.1" fill-rule="evenodd" clip-rule="evenodd" d="M1.4064 22.242C2.8116 24 5.0748 24 9.6 24H14.4C18.9252 24 21.1884 24 22.5936 22.242C23.9988 20.484 24 17.6565 24 12C24 6.3435 24 3.5145 22.5936 1.758C21.1872 0.00149989 18.9252 0 14.4 0H9.6C5.0748 0 2.8116 -1.78814e-07 1.4064 1.758C0.00119991 3.516 0 6.3435 0 12C0 17.6565 -1.43051e-07 20.4855 1.4064 22.242Z" fill="black"/>
<path opacity="0.5" fill-rule="evenodd" clip-rule="evenodd" d="M4.50626 15.2H19.4935C19.5575 14.6248 19.6183 13.9784 19.6871 13.2496L19.8711 11.3008C20.0151 9.7712 20.0871 9.0056 19.8247 8.6896C19.7585 8.60748 19.6767 8.53926 19.584 8.48887C19.4913 8.43848 19.3896 8.40692 19.2847 8.396C18.9039 8.3624 18.4263 8.9064 17.4703 9.9944C16.9759 10.5576 16.7287 10.8384 16.4535 10.8824C16.2997 10.9065 16.1423 10.8813 16.0039 10.8104C15.7487 10.6824 15.5799 10.3344 15.2399 9.6392L13.4503 5.972C12.8087 4.6576 12.4879 4 11.9999 4C11.5119 4 11.1911 4.6576 10.5495 5.972L8.75986 9.6392C8.42066 10.3352 8.25106 10.6824 7.99586 10.8104C7.8572 10.8808 7.69997 10.906 7.54626 10.8824C7.27106 10.8384 7.02386 10.5576 6.52946 9.9944C5.57346 8.9064 5.09586 8.3624 4.71506 8.396C4.61014 8.40692 4.50841 8.43848 4.41574 8.48887C4.32306 8.53926 4.24127 8.60748 4.17506 8.6896C3.91346 9.0056 3.98546 9.7712 4.12946 11.3008L4.31266 13.2496C4.38146 13.9784 4.44226 14.6256 4.50626 15.2Z" fill="black"/>
<path d="M13.0879 20C15.9239 20 17.3415 20 18.2879 19.032C19.0191 18.284 19.2751 17.156 19.4935 15.2H4.50635C4.72475 17.156 4.98075 18.284 5.71195 19.032C6.65755 20 8.07595 20 10.9119 20H13.0879Z" fill="black"/>
</g>
<defs>
<clipPath id="clip0_2127_2709">
<rect width="24" height="24" fill="white"/>
</clipPath>
</defs>
</svg>
