<svg width="24" height="24" viewBox="0 0 24 24" fill="none" xmlns="http://www.w3.org/2000/svg">
<rect x="2" y="6" width="20" height="12" rx="2" stroke="black" stroke-width="1.5"/>
<path fill-rule="evenodd" clip-rule="evenodd" d="M16.202 15.3069C16.154 15.5789 16.3356 15.8382 16.6076 15.8861C16.8795 15.9341 17.1389 15.7525 17.1868 15.4806L17.4526 13.973H19C19.2761 13.973 19.5 13.7491 19.5 13.473C19.5 13.1968 19.2761 12.973 19 12.973H17.629L17.9816 10.973H19.6C19.8761 10.973 20.1 10.7491 20.1 10.473C20.1 10.1968 19.8761 9.97297 19.6 9.97297H18.1579L18.4023 8.58691C18.4503 8.31496 18.2687 8.05563 17.9968 8.00768C17.7248 7.95973 17.4655 8.14131 17.4175 8.41326L17.1425 9.97297H15.1579L15.4023 8.58691C15.4503 8.31496 15.2687 8.05563 14.9968 8.00768C14.7248 7.95973 14.4655 8.14132 14.4175 8.41326L14.1425 9.97297H12.6C12.3238 9.97297 12.1 10.1968 12.1 10.473C12.1 10.7491 12.3238 10.973 12.6 10.973H13.9662L13.6135 12.973H12C11.7239 12.973 11.5 13.1968 11.5 13.473C11.5 13.7491 11.7239 13.973 12 13.973H13.4372L13.202 15.3069C13.154 15.5789 13.3356 15.8382 13.6076 15.8861C13.8795 15.9341 14.1388 15.7525 14.1868 15.4806L14.4526 13.973H16.4372L16.202 15.3069ZM16.6135 12.973L16.9662 10.973H14.9816L14.629 12.973H16.6135Z" fill="black"/>
</svg>
