<svg width="24" height="24" viewBox="0 0 24 24" fill="none" xmlns="http://www.w3.org/2000/svg">
<g clip-path="url(#clip0_2128_2740)">
<path opacity="0.1" fill-rule="evenodd" clip-rule="evenodd" d="M1.4064 22.242C2.8116 24 5.0748 24 9.6 24H14.4C18.9252 24 21.1884 24 22.5936 22.242C23.9988 20.484 24 17.6565 24 12C24 6.3435 24 3.5145 22.5936 1.758C21.1872 0.00149989 18.9252 0 14.4 0H9.6C5.0748 0 2.8116 -1.78814e-07 1.4064 1.758C0.00119991 3.516 0 6.3435 0 12C0 17.6565 -1.43051e-07 20.4855 1.4064 22.242Z" fill="black"/>
<path d="M11.608 4.208L11.6 6.476C11.6 7.3536 11.6 8.1288 11.684 8.7544C11.7752 9.432 11.984 10.1096 12.5376 10.6624C13.0896 11.2152 13.768 11.4248 14.4456 11.516C15.0704 11.6 15.8464 11.6 16.724 11.6H19.9656C19.9762 11.7237 19.9837 11.8571 19.988 12H20C20 11.7856 20 11.6784 19.992 11.552C19.9312 10.7916 19.6664 10.0617 19.2256 9.4392C19.1504 9.3368 19.0992 9.276 18.9976 9.1536C18.3632 8.3952 17.528 7.4496 16.8 6.8C16.152 6.2208 15.2632 5.588 14.488 5.0712C13.8224 4.6264 13.4896 4.404 13.0328 4.2392C12.8997 4.1922 12.7647 4.15109 12.628 4.116C12.3208 4.04 12.0216 4.0136 11.6 4.004L11.608 4.208Z" fill="black"/>
<path opacity="0.5" d="M4 13.3296V10.22C4 7.288 4 5.8216 4.9376 4.9112C5.8744 4 7.3912 4 10.424 4C10.8968 4 11.2784 4 11.6 4.012L11.608 4.2072L11.6 6.4064V6.5504C11.6 7.3976 11.6024 8.1464 11.684 8.7544C11.7752 9.432 11.984 10.1096 12.5376 10.6624C13.0896 11.2152 13.768 11.4248 14.4456 11.516C15.0704 11.6 15.8464 11.6 16.724 11.6H19.9656C19.9763 11.7237 19.9837 11.8571 19.988 12H19.9944C20 12.2856 20 12.612 20 12.9904V13.8752L19.9904 13.88C19.918 13.9168 19.8468 13.9557 19.7768 13.9968C19.3676 14.26 18.8913 14.4 18.4048 14.4C17.9183 14.4 17.442 14.26 17.0328 13.9968C16.7259 13.7997 16.3688 13.6949 16.004 13.6949C15.6392 13.6949 15.2821 13.7997 14.9752 13.9968C14.566 14.26 14.0897 14.4 13.6032 14.4C13.1167 14.4 12.6404 14.26 12.2312 13.9968C11.9243 13.7997 11.5672 13.6949 11.2024 13.6949C10.8376 13.6949 10.4805 13.7997 10.1736 13.9968C9.76441 14.26 9.28814 14.4 8.8016 14.4C8.31506 14.4 7.83879 14.26 7.4296 13.9968C7.12266 13.7997 6.76557 13.6949 6.4008 13.6949C6.03603 13.6949 5.67894 13.7997 5.372 13.9968C5.2616 14.0672 5.2072 14.1032 5.1672 14.1232C4.8584 14.2784 4.3536 14.1448 4 13.8912V13.3296Z" fill="black"/>
<path d="M10.4 20H13.6C16.6168 20 18.1256 20 19.0632 19.2536C19.94 18.5544 19.996 17.4568 20 15.3488L19.9904 15.3528C19.9183 15.3827 19.8471 15.4147 19.7768 15.4488C18.9456 15.8888 17.8632 15.8888 17.0328 15.4488C16.7144 15.2856 16.3618 15.2006 16.004 15.2006C15.6462 15.2006 15.2936 15.2856 14.9752 15.4488C14.144 15.8888 13.0616 15.8888 12.2312 15.4488C11.9127 15.2855 11.5599 15.2004 11.202 15.2004C10.8441 15.2004 10.4913 15.2855 10.1728 15.4488C9.3424 15.8888 8.2608 15.8888 7.4288 15.4488C7.1104 15.2856 6.75777 15.2006 6.4 15.2006C6.04224 15.2006 5.6896 15.2856 5.3712 15.4488C5.30445 15.4856 5.23641 15.52 5.1672 15.552C4.8584 15.6792 4.3536 15.5696 4 15.3616C4.004 17.4616 4.0616 18.556 4.9368 19.2536C5.8744 20 7.384 20 10.4 20Z" fill="black"/>
</g>
<defs>
<clipPath id="clip0_2128_2740">
<rect width="24" height="24" fill="white"/>
</clipPath>
</defs>
</svg>
