<svg width="24" height="24" viewBox="0 0 24 24" fill="none" xmlns="http://www.w3.org/2000/svg">
<path fill-rule="evenodd" clip-rule="evenodd" d="M11 17C10.4477 17 10 17.4477 10 18V21C10 21.5523 10.4477 22 11 22H21C21.5523 22 22 21.5523 22 21V18C22 17.4477 21.5523 17 21 17H11ZM13.5 18.5C13.5 18.2239 13.2761 18 13 18C12.7239 18 12.5 18.2239 12.5 18.5V19H12C11.7239 19 11.5 19.2239 11.5 19.5C11.5 19.7762 11.7239 20 12 20H12.5V20.5C12.5 20.7762 12.7239 21 13 21C13.2761 21 13.5 20.7762 13.5 20.5V20H14C14.2761 20 14.5 19.7762 14.5 19.5C14.5 19.2239 14.2761 19 14 19H13.5V18.5Z" fill="black"/>
<path fill-rule="evenodd" clip-rule="evenodd" d="M7 9.5C6.44772 9.5 6 9.94772 6 10.5V13.5C6 14.0523 6.44772 14.5 7 14.5H21C21.5523 14.5 22 14.0523 22 13.5V10.5C22 9.94772 21.5523 9.5 21 9.5H7ZM8 11.5C7.72386 11.5 7.5 11.7239 7.5 12C7.5 12.2761 7.72386 12.5 8 12.5H10C10.2761 12.5 10.5 12.2761 10.5 12C10.5 11.7239 10.2761 11.5 10 11.5H8Z" fill="black"/>
<path fill-rule="evenodd" clip-rule="evenodd" d="M3 2C2.44772 2 2 2.44772 2 3V6C2 6.55228 2.44772 7 3 7H21C21.5523 7 22 6.55228 22 6V3C22 2.44772 21.5523 2 21 2H3ZM4 4C3.72386 4 3.5 4.22386 3.5 4.5C3.5 4.77614 3.72386 5 4 5H6C6.27614 5 6.5 4.77614 6.5 4.5C6.5 4.22386 6.27614 4 6 4H4Z" fill="black"/>
</svg>
