<svg width="24" height="24" viewBox="0 0 24 24" fill="none" xmlns="http://www.w3.org/2000/svg">
<g clip-path="url(#clip0_2129_6582)">
<path opacity="0.1" fill-rule="evenodd" clip-rule="evenodd" d="M1.4064 22.242C2.8116 24 5.0748 24 9.6 24H14.4C18.9252 24 21.1884 24 22.5936 22.242C23.9988 20.484 24 17.6565 24 12C24 6.3435 24 3.5145 22.5936 1.758C21.1872 0.00149989 18.9252 0 14.4 0H9.6C5.0748 0 2.8116 -1.78814e-07 1.4064 1.758C0.00119991 3.516 0 6.3435 0 12C0 17.6565 -1.43051e-07 20.4855 1.4064 22.242Z" fill="black"/>
<path opacity="0.5" d="M15 8H19C19.5523 8 20 8.44772 20 9V15C20 15.5523 19.5523 16 19 16H15V8Z" fill="black"/>
<path d="M4 9C4 8.44772 4.44772 8 5 8H15V16H5C4.44771 16 4 15.5523 4 15V9Z" fill="black"/>
</g>
<defs>
<clipPath id="clip0_2129_6582">
<rect width="24" height="24" fill="white"/>
</clipPath>
</defs>
</svg>
