<svg width="24" height="24" viewBox="0 0 24 24" fill="none" xmlns="http://www.w3.org/2000/svg">
<g clip-path="url(#clip0_2129_6594)">
<path opacity="0.1" fill-rule="evenodd" clip-rule="evenodd" d="M1.4064 22.242C2.8116 24 5.0748 24 9.6 24H14.4C18.9252 24 21.1884 24 22.5936 22.242C23.9988 20.484 24 17.6565 24 12C24 6.3435 24 3.5145 22.5936 1.758C21.1872 0.00149989 18.9252 0 14.4 0H9.6C5.0748 0 2.8116 -1.78814e-07 1.4064 1.758C0.00119991 3.516 0 6.3435 0 12C0 17.6565 -1.43051e-07 20.4855 1.4064 22.242Z" fill="black"/>
<rect x="5" y="15" width="3" height="3" rx="1.5" fill="black"/>
<rect opacity="0.5" x="9" y="15" width="3" height="3" rx="1.5" fill="black"/>
<rect opacity="0.25" x="13" y="15" width="3" height="3" rx="1.5" fill="black"/>
<path opacity="0.5" fill-rule="evenodd" clip-rule="evenodd" d="M14.4884 7.24419C14.4884 7.17942 14.4626 7.11731 14.4169 7.07152C14.3711 7.02573 14.309 7 14.2442 7C14.1794 7 14.1173 7.02573 14.0715 7.07152C14.0257 7.11731 14 7.17942 14 7.24419V13.7558C14 13.8206 14.0257 13.8827 14.0715 13.9285C14.1173 13.9743 14.1794 14 14.2442 14C14.309 14 14.3711 13.9743 14.4169 13.9285C14.4626 13.8827 14.4884 13.8206 14.4884 13.7558V7.24419Z" fill="black"/>
<path d="M16.7864 7.9354L16.6519 7.88167C16.143 7.67859 15.5861 7.62748 15.0487 7.73451L14.4884 7.84651V11.1023L15.0484 10.9903C15.5859 10.8832 16.1429 10.9343 16.6519 11.1375C17.2033 11.3579 17.8102 11.399 18.3863 11.255L18.4188 11.2469C18.4632 11.2357 18.5043 11.2144 18.5389 11.1845C18.5735 11.1546 18.6007 11.1171 18.6182 11.0748C18.6357 11.0326 18.643 10.9868 18.6397 10.9412C18.6363 10.8956 18.6224 10.8515 18.5989 10.8122L18.091 9.9654C17.9796 9.77981 17.924 9.68735 17.9109 9.58674C17.9054 9.5446 17.9054 9.50191 17.9109 9.45977C17.924 9.35916 17.9796 9.26637 18.091 9.08112L18.5071 8.38763C18.5313 8.34732 18.543 8.30074 18.5407 8.25377C18.5384 8.20681 18.5223 8.16157 18.4943 8.12379C18.4663 8.08601 18.4278 8.05738 18.3835 8.04152C18.3392 8.02566 18.2913 8.02329 18.2456 8.0347C17.7609 8.15581 17.2503 8.12106 16.7864 7.9354Z" fill="black"/>
</g>
<defs>
<clipPath id="clip0_2129_6594">
<rect width="24" height="24" fill="white"/>
</clipPath>
</defs>
</svg>
