<svg width="24" height="24" viewBox="0 0 24 24" fill="none" xmlns="http://www.w3.org/2000/svg">
<g clip-path="url(#clip0_2119_2005)">
<path opacity="0.1" fill-rule="evenodd" clip-rule="evenodd" d="M1.4064 22.242C2.8116 24 5.0748 24 9.6 24H14.4C18.9252 24 21.1884 24 22.5936 22.242C23.9988 20.484 24 17.6565 24 12C24 6.3435 24 3.5145 22.5936 1.758C21.1872 0.00149989 18.9252 0 14.4 0H9.6C5.0748 0 2.8116 -1.78814e-07 1.4064 1.758C0.00119991 3.516 0 6.3435 0 12C0 17.6565 -1.43051e-07 20.4855 1.4064 22.242Z" fill="black"/>
<path d="M15 7H9C6.23858 7 4 9.23858 4 12C4 14.7614 6.23858 17 9 17H15C17.7614 17 20 14.7614 20 12C20 9.23858 17.7614 7 15 7Z" fill="black" fill-opacity="0.4"/>
<path d="M19 12C19 9.79086 17.2091 8 15 8C12.7909 8 11 9.79086 11 12C11 14.2091 12.7909 16 15 16C17.2091 16 19 14.2091 19 12Z" fill="black"/>
</g>
<defs>
<clipPath id="clip0_2119_2005">
<rect width="24" height="24" fill="white"/>
</clipPath>
</defs>
</svg>
