<svg id="visual" viewBox="0 0 900 600" width="900" height="600" xmlns="http://www.w3.org/2000/svg" xmlns:xlink="http://www.w3.org/1999/xlink" version="1.1"><rect x="0" y="0" width="900" height="600" fill="#001220"></rect><defs><linearGradient id="grad1_0" x1="33.3%" y1="0%" x2="100%" y2="100%"><stop offset="20%" stop-color="#9a9a9a" stop-opacity="1"></stop><stop offset="80%" stop-color="#9a9a9a" stop-opacity="1"></stop></linearGradient></defs><defs><linearGradient id="grad1_1" x1="33.3%" y1="0%" x2="100%" y2="100%"><stop offset="20%" stop-color="#9a9a9a" stop-opacity="1"></stop><stop offset="80%" stop-color="#828487" stop-opacity="1"></stop></linearGradient></defs><defs><linearGradient id="grad1_2" x1="33.3%" y1="0%" x2="100%" y2="100%"><stop offset="20%" stop-color="#6c6f74" stop-opacity="1"></stop><stop offset="80%" stop-color="#828487" stop-opacity="1"></stop></linearGradient></defs><defs><linearGradient id="grad1_3" x1="33.3%" y1="0%" x2="100%" y2="100%"><stop offset="20%" stop-color="#6c6f74" stop-opacity="1"></stop><stop offset="80%" stop-color="#555b62" stop-opacity="1"></stop></linearGradient></defs><defs><linearGradient id="grad1_4" x1="33.3%" y1="0%" x2="100%" y2="100%"><stop offset="20%" stop-color="#404851" stop-opacity="1"></stop><stop offset="80%" stop-color="#555b62" stop-opacity="1"></stop></linearGradient></defs><defs><linearGradient id="grad1_5" x1="33.3%" y1="0%" x2="100%" y2="100%"><stop offset="20%" stop-color="#404851" stop-opacity="1"></stop><stop offset="80%" stop-color="#2b3540" stop-opacity="1"></stop></linearGradient></defs><defs><linearGradient id="grad1_6" x1="33.3%" y1="0%" x2="100%" y2="100%"><stop offset="20%" stop-color="#17232f" stop-opacity="1"></stop><stop offset="80%" stop-color="#2b3540" stop-opacity="1"></stop></linearGradient></defs><defs><linearGradient id="grad1_7" x1="33.3%" y1="0%" x2="100%" y2="100%"><stop offset="20%" stop-color="#17232f" stop-opacity="1"></stop><stop offset="80%" stop-color="#001220" stop-opacity="1"></stop></linearGradient></defs><defs><linearGradient id="grad2_0" x1="0%" y1="0%" x2="66.7%" y2="100%"><stop offset="20%" stop-color="#9a9a9a" stop-opacity="1"></stop><stop offset="80%" stop-color="#9a9a9a" stop-opacity="1"></stop></linearGradient></defs><defs><linearGradient id="grad2_1" x1="0%" y1="0%" x2="66.7%" y2="100%"><stop offset="20%" stop-color="#828487" stop-opacity="1"></stop><stop offset="80%" stop-color="#9a9a9a" stop-opacity="1"></stop></linearGradient></defs><defs><linearGradient id="grad2_2" x1="0%" y1="0%" x2="66.7%" y2="100%"><stop offset="20%" stop-color="#828487" stop-opacity="1"></stop><stop offset="80%" stop-color="#6c6f74" stop-opacity="1"></stop></linearGradient></defs><defs><linearGradient id="grad2_3" x1="0%" y1="0%" x2="66.7%" y2="100%"><stop offset="20%" stop-color="#555b62" stop-opacity="1"></stop><stop offset="80%" stop-color="#6c6f74" stop-opacity="1"></stop></linearGradient></defs><defs><linearGradient id="grad2_4" x1="0%" y1="0%" x2="66.7%" y2="100%"><stop offset="20%" stop-color="#555b62" stop-opacity="1"></stop><stop offset="80%" stop-color="#404851" stop-opacity="1"></stop></linearGradient></defs><defs><linearGradient id="grad2_5" x1="0%" y1="0%" x2="66.7%" y2="100%"><stop offset="20%" stop-color="#2b3540" stop-opacity="1"></stop><stop offset="80%" stop-color="#404851" stop-opacity="1"></stop></linearGradient></defs><defs><linearGradient id="grad2_6" x1="0%" y1="0%" x2="66.7%" y2="100%"><stop offset="20%" stop-color="#2b3540" stop-opacity="1"></stop><stop offset="80%" stop-color="#17232f" stop-opacity="1"></stop></linearGradient></defs><defs><linearGradient id="grad2_7" x1="0%" y1="0%" x2="66.7%" y2="100%"><stop offset="20%" stop-color="#001220" stop-opacity="1"></stop><stop offset="80%" stop-color="#17232f" stop-opacity="1"></stop></linearGradient></defs><g transform="translate(900, 0)"><path d="M0 540.8C-23.6 487.8 -47.2 434.8 -88 442.3C-128.8 449.8 -186.9 517.8 -207 499.7C-227 481.5 -209 377.4 -227.8 340.9C-246.5 304.5 -302 335.8 -333.8 333.8C-365.5 331.8 -373.6 296.5 -409.1 273.3C-444.5 250.2 -507.4 239.3 -498 206.3C-488.6 173.2 -407 118.1 -402.1 80C-397.2 41.9 -469 21 -540.8 0L0 0Z" fill="#0d1b28"></path><path d="M0 473.2C-20.6 426.9 -41.3 380.5 -77 387C-112.7 393.6 -163.5 453.1 -181.1 437.2C-198.6 421.4 -182.9 330.2 -199.3 298.3C-215.7 266.4 -264.2 293.8 -292 292C-319.8 290.3 -326.9 259.4 -357.9 239.2C-389 219 -443.9 209.4 -435.7 180.5C-427.5 151.6 -356.1 103.3 -351.9 70C-347.6 36.7 -410.4 18.3 -473.2 0L0 0Z" fill="#212c38"></path><path d="M0 405.6C-17.7 365.9 -35.4 326.1 -66 331.8C-96.6 337.4 -140.2 388.3 -155.2 374.7C-170.3 361.2 -156.8 283 -170.8 255.7C-184.9 228.3 -226.5 251.8 -250.3 250.3C-274.1 248.8 -280.2 222.3 -306.8 205C-333.4 187.7 -380.5 179.5 -373.5 154.7C-366.4 129.9 -305.3 88.5 -301.6 60C-297.9 31.4 -351.8 15.7 -405.6 0L0 0Z" fill="#353e48"></path><path d="M0 338C-14.7 304.9 -29.5 271.8 -55 276.5C-80.5 281.1 -116.8 323.6 -129.4 312.3C-141.9 301 -130.7 235.8 -142.4 213.1C-154.1 190.3 -188.7 209.8 -208.6 208.6C-228.5 207.3 -233.5 185.3 -255.7 170.8C-277.8 156.4 -317.1 149.6 -311.2 128.9C-305.4 108.3 -254.4 73.8 -251.3 50C-248.3 26.2 -293.1 13.1 -338 0L0 0Z" fill="#4b5159"></path><path d="M0 270.4C-11.8 243.9 -23.6 217.4 -44 221.2C-64.4 224.9 -93.5 258.9 -103.5 249.8C-113.5 240.8 -104.5 188.7 -113.9 170.5C-123.3 152.2 -151 167.9 -166.9 166.9C-182.8 165.9 -186.8 148.2 -204.5 136.7C-222.3 125.1 -253.7 119.7 -249 103.1C-244.3 86.6 -203.5 59 -201.1 40C-198.6 21 -234.5 10.5 -270.4 0L0 0Z" fill="#60656b"></path><path d="M0 202.8C-8.8 182.9 -17.7 163.1 -33 165.9C-48.3 168.7 -70.1 194.2 -77.6 187.4C-85.1 180.6 -78.4 141.5 -85.4 127.8C-92.4 114.2 -113.2 125.9 -125.2 125.2C-137.1 124.4 -140.1 111.2 -153.4 102.5C-166.7 93.8 -190.3 89.7 -186.7 77.3C-183.2 65 -152.6 44.3 -150.8 30C-149 15.7 -175.9 7.9 -202.8 0L0 0Z" fill="#777a7e"></path><path d="M0 135.2C-5.9 122 -11.8 108.7 -22 110.6C-32.2 112.5 -46.7 129.4 -51.7 124.9C-56.8 120.4 -52.3 94.3 -56.9 85.2C-61.6 76.1 -75.5 83.9 -83.4 83.4C-91.4 82.9 -93.4 74.1 -102.3 68.3C-111.1 62.6 -126.8 59.8 -124.5 51.6C-122.1 43.3 -101.8 29.5 -100.5 20C-99.3 10.5 -117.3 5.2 -135.2 0L0 0Z" fill="#8e8f90"></path><path d="M0 67.6C-2.9 61 -5.9 54.4 -11 55.3C-16.1 56.2 -23.4 64.7 -25.9 62.5C-28.4 60.2 -26.1 47.2 -28.5 42.6C-30.8 38.1 -37.7 42 -41.7 41.7C-45.7 41.5 -46.7 37.1 -51.1 34.2C-55.6 31.3 -63.4 29.9 -62.2 25.8C-61.1 21.7 -50.9 14.8 -50.3 10C-49.7 5.2 -58.6 2.6 -67.6 0L0 0Z" fill="#9a9a9a"></path></g><g transform="translate(0, 600)"><path d="M0 -540.8C36.7 -542.8 73.5 -544.9 105.5 -530.4C137.6 -516 165 -485.2 189.4 -457.3C213.9 -429.5 235.4 -404.7 251.1 -375.8C266.8 -347 276.6 -314.1 287.8 -287.8C299 -261.5 311.5 -241.8 335.1 -223.9C358.7 -206 393.4 -189.9 400 -165.7C406.7 -141.5 385.3 -109.3 404.1 -80.4C422.9 -51.4 481.9 -25.7 540.8 0L0 0Z" fill="#0d1b28"></path><path d="M0 -473.2C32.1 -475 64.3 -476.8 92.3 -464.1C120.4 -451.5 144.3 -424.5 165.7 -400.2C187.2 -375.8 206 -354.1 219.7 -328.8C233.4 -303.6 242 -274.8 251.8 -251.8C261.6 -228.8 272.5 -211.6 293.2 -195.9C313.9 -180.2 344.2 -166.1 350 -145C355.9 -123.8 337.1 -95.7 353.6 -70.3C370 -45 421.6 -22.5 473.2 0L0 0Z" fill="#212c38"></path><path d="M0 -405.6C27.5 -407.1 55.1 -408.6 79.1 -397.8C103.2 -387 123.7 -363.9 142.1 -343C160.4 -322.1 176.6 -303.5 188.3 -281.9C200.1 -260.2 207.5 -235.6 215.8 -215.8C224.2 -196.1 233.6 -181.4 251.3 -167.9C269 -154.5 295 -142.4 300 -124.3C305 -106.2 289 -82 303.1 -60.3C317.2 -38.6 361.4 -19.3 405.6 0L0 0Z" fill="#353e48"></path><path d="M0 -338C23 -339.3 45.9 -340.5 65.9 -331.5C86 -322.5 103.1 -303.2 118.4 -285.8C133.7 -268.4 147.1 -252.9 156.9 -234.9C166.7 -216.9 172.9 -196.3 179.9 -179.9C186.9 -163.4 194.7 -151.1 209.4 -139.9C224.2 -128.7 245.9 -118.7 250 -103.6C254.2 -88.5 240.8 -68.3 252.6 -50.2C264.3 -32.1 301.2 -16.1 338 0L0 0Z" fill="#4b5159"></path><path d="M0 -270.4C18.4 -271.4 36.7 -272.4 52.8 -265.2C68.8 -258 82.5 -242.6 94.7 -228.7C106.9 -214.7 117.7 -202.3 125.6 -187.9C133.4 -173.5 138.3 -157 143.9 -143.9C149.5 -130.7 155.7 -120.9 167.5 -111.9C179.3 -103 196.7 -94.9 200 -82.9C203.3 -70.8 192.6 -54.7 202 -40.2C211.4 -25.7 240.9 -12.9 270.4 0L0 0Z" fill="#60656b"></path><path d="M0 -202.8C13.8 -203.6 27.5 -204.3 39.6 -198.9C51.6 -193.5 61.9 -181.9 71 -171.5C80.2 -161.1 88.3 -151.8 94.2 -140.9C100 -130.1 103.7 -117.8 107.9 -107.9C112.1 -98.1 116.8 -90.7 125.7 -84C134.5 -77.2 147.5 -71.2 150 -62.1C152.5 -53.1 144.5 -41 151.5 -30.1C158.6 -19.3 180.7 -9.6 202.8 0L0 0Z" fill="#777a7e"></path><path d="M0 -135.2C9.2 -135.7 18.4 -136.2 26.4 -132.6C34.4 -129 41.2 -121.3 47.4 -114.3C53.5 -107.4 58.9 -101.2 62.8 -94C66.7 -86.7 69.2 -78.5 71.9 -71.9C74.7 -65.4 77.9 -60.5 83.8 -56C89.7 -51.5 98.3 -47.5 100 -41.4C101.7 -35.4 96.3 -27.3 101 -20.1C105.7 -12.9 120.5 -6.4 135.2 0L0 0Z" fill="#8e8f90"></path><path d="M0 -67.6C4.6 -67.9 9.2 -68.1 13.2 -66.3C17.2 -64.5 20.6 -60.6 23.7 -57.2C26.7 -53.7 29.4 -50.6 31.4 -47C33.3 -43.4 34.6 -39.3 36 -36C37.4 -32.7 38.9 -30.2 41.9 -28C44.8 -25.7 49.2 -23.7 50 -20.7C50.8 -17.7 48.2 -13.7 50.5 -10C52.9 -6.4 60.2 -3.2 67.6 0L0 0Z" fill="#9a9a9a"></path></g></svg>