<svg id="visual" viewBox="0 0 900 600" width="900" height="600" xmlns="http://www.w3.org/2000/svg" xmlns:xlink="http://www.w3.org/1999/xlink" version="1.1"><rect x="0" y="0" width="900" height="600" fill="#0f172a"></rect><defs><linearGradient id="grad1_0" x1="33.3%" y1="0%" x2="100%" y2="100%"><stop offset="20%" stop-color="#f8fafc" stop-opacity="1"></stop><stop offset="80%" stop-color="#f8fafc" stop-opacity="1"></stop></linearGradient></defs><defs><linearGradient id="grad1_1" x1="33.3%" y1="0%" x2="100%" y2="100%"><stop offset="20%" stop-color="#f8fafc" stop-opacity="1"></stop><stop offset="80%" stop-color="#d1d6db" stop-opacity="1"></stop></linearGradient></defs><defs><linearGradient id="grad1_2" x1="33.3%" y1="0%" x2="100%" y2="100%"><stop offset="20%" stop-color="#acb2bb" stop-opacity="1"></stop><stop offset="80%" stop-color="#d1d6db" stop-opacity="1"></stop></linearGradient></defs><defs><linearGradient id="grad1_3" x1="33.3%" y1="0%" x2="100%" y2="100%"><stop offset="20%" stop-color="#acb2bb" stop-opacity="1"></stop><stop offset="80%" stop-color="#89909b" stop-opacity="1"></stop></linearGradient></defs><defs><linearGradient id="grad1_4" x1="33.3%" y1="0%" x2="100%" y2="100%"><stop offset="20%" stop-color="#676f7d" stop-opacity="1"></stop><stop offset="80%" stop-color="#89909b" stop-opacity="1"></stop></linearGradient></defs><defs><linearGradient id="grad1_5" x1="33.3%" y1="0%" x2="100%" y2="100%"><stop offset="20%" stop-color="#676f7d" stop-opacity="1"></stop><stop offset="80%" stop-color="#485060" stop-opacity="1"></stop></linearGradient></defs><defs><linearGradient id="grad1_6" x1="33.3%" y1="0%" x2="100%" y2="100%"><stop offset="20%" stop-color="#2a3244" stop-opacity="1"></stop><stop offset="80%" stop-color="#485060" stop-opacity="1"></stop></linearGradient></defs><defs><linearGradient id="grad1_7" x1="33.3%" y1="0%" x2="100%" y2="100%"><stop offset="20%" stop-color="#2a3244" stop-opacity="1"></stop><stop offset="80%" stop-color="#0f172a" stop-opacity="1"></stop></linearGradient></defs><defs><linearGradient id="grad2_0" x1="0%" y1="0%" x2="66.7%" y2="100%"><stop offset="20%" stop-color="#f8fafc" stop-opacity="1"></stop><stop offset="80%" stop-color="#f8fafc" stop-opacity="1"></stop></linearGradient></defs><defs><linearGradient id="grad2_1" x1="0%" y1="0%" x2="66.7%" y2="100%"><stop offset="20%" stop-color="#d1d6db" stop-opacity="1"></stop><stop offset="80%" stop-color="#f8fafc" stop-opacity="1"></stop></linearGradient></defs><defs><linearGradient id="grad2_2" x1="0%" y1="0%" x2="66.7%" y2="100%"><stop offset="20%" stop-color="#d1d6db" stop-opacity="1"></stop><stop offset="80%" stop-color="#acb2bb" stop-opacity="1"></stop></linearGradient></defs><defs><linearGradient id="grad2_3" x1="0%" y1="0%" x2="66.7%" y2="100%"><stop offset="20%" stop-color="#89909b" stop-opacity="1"></stop><stop offset="80%" stop-color="#acb2bb" stop-opacity="1"></stop></linearGradient></defs><defs><linearGradient id="grad2_4" x1="0%" y1="0%" x2="66.7%" y2="100%"><stop offset="20%" stop-color="#89909b" stop-opacity="1"></stop><stop offset="80%" stop-color="#676f7d" stop-opacity="1"></stop></linearGradient></defs><defs><linearGradient id="grad2_5" x1="0%" y1="0%" x2="66.7%" y2="100%"><stop offset="20%" stop-color="#485060" stop-opacity="1"></stop><stop offset="80%" stop-color="#676f7d" stop-opacity="1"></stop></linearGradient></defs><defs><linearGradient id="grad2_6" x1="0%" y1="0%" x2="66.7%" y2="100%"><stop offset="20%" stop-color="#485060" stop-opacity="1"></stop><stop offset="80%" stop-color="#2a3244" stop-opacity="1"></stop></linearGradient></defs><defs><linearGradient id="grad2_7" x1="0%" y1="0%" x2="66.7%" y2="100%"><stop offset="20%" stop-color="#0f172a" stop-opacity="1"></stop><stop offset="80%" stop-color="#2a3244" stop-opacity="1"></stop></linearGradient></defs><g transform="translate(900, 0)"><path d="M0 540.8C-26.9 498.2 -53.8 455.7 -90.7 456.1C-127.7 456.5 -174.6 499.9 -207 499.7C-239.3 499.4 -257 455.5 -289.5 433.2C-321.9 410.9 -369.1 410.1 -374.8 374.8C-380.5 339.5 -344.7 269.7 -343.4 229.5C-342.1 189.2 -375.4 178.4 -378.8 156.9C-382.2 135.4 -355.6 103.1 -377.6 75.1C-399.6 47.2 -470.2 23.6 -540.8 0L0 0Z" fill="#1d2437"></path><path d="M0 473.2C-23.5 436 -47.1 398.7 -79.4 399.1C-111.7 399.4 -152.8 437.4 -181.1 437.2C-209.4 437 -224.9 398.6 -253.3 379C-281.7 359.5 -322.9 358.8 -327.9 327.9C-332.9 297 -301.6 236 -300.5 200.8C-299.4 165.5 -328.5 156.1 -331.4 137.3C-334.4 118.4 -311.1 90.2 -330.4 65.7C-349.7 41.3 -411.4 20.6 -473.2 0L0 0Z" fill="#394152"></path><path d="M0 405.6C-20.2 373.7 -40.3 341.7 -68 342C-95.7 342.4 -131 374.9 -155.2 374.7C-179.5 374.6 -192.8 341.7 -217.1 324.9C-241.4 308.1 -276.8 307.5 -281.1 281.1C-285.3 254.6 -258.5 202.3 -257.5 172.1C-256.6 141.9 -281.6 133.8 -284.1 117.7C-286.6 101.5 -266.7 77.3 -283.2 56.3C-299.7 35.4 -352.7 17.7 -405.6 0L0 0Z" fill="#575f6e"></path><path d="M0 338C-16.8 311.4 -33.6 284.8 -56.7 285C-79.8 285.3 -109.1 312.4 -129.4 312.3C-149.6 312.1 -160.6 284.7 -180.9 270.7C-201.2 256.8 -230.7 256.3 -234.2 234.2C-237.8 212.2 -215.4 168.6 -214.6 143.4C-213.8 118.2 -234.6 111.5 -236.7 98.1C-238.8 84.6 -222.2 64.4 -236 46.9C-249.8 29.5 -293.9 14.7 -338 0L0 0Z" fill="#787f8c"></path><path d="M0 270.4C-13.4 249.1 -26.9 227.8 -45.4 228C-63.8 228.2 -87.3 249.9 -103.5 249.8C-119.7 249.7 -128.5 227.8 -144.7 216.6C-160.9 205.4 -184.5 205 -187.4 187.4C-190.2 169.7 -172.3 134.9 -171.7 114.7C-171.1 94.6 -187.7 89.2 -189.4 78.5C-191.1 67.7 -177.8 51.5 -188.8 37.6C-199.8 23.6 -235.1 11.8 -270.4 0L0 0Z" fill="#9aa1ab"></path><path d="M0 202.8C-10.1 186.8 -20.2 170.9 -34 171C-47.9 171.2 -65.5 187.5 -77.6 187.4C-89.7 187.3 -96.4 170.8 -108.5 162.4C-120.7 154.1 -138.4 153.8 -140.5 140.5C-142.7 127.3 -129.2 101.1 -128.8 86C-128.3 70.9 -140.8 66.9 -142 58.8C-143.3 50.8 -133.3 38.6 -141.6 28.2C-149.9 17.7 -176.3 8.8 -202.8 0L0 0Z" fill="#bec4cb"></path><path d="M0 135.2C-6.7 124.6 -13.4 113.9 -22.7 114C-31.9 114.1 -43.7 125 -51.7 124.9C-59.8 124.9 -64.3 113.9 -72.4 108.3C-80.5 102.7 -92.3 102.5 -93.7 93.7C-95.1 84.9 -86.2 67.4 -85.8 57.4C-85.5 47.3 -93.9 44.6 -94.7 39.2C-95.5 33.8 -88.9 25.8 -94.4 18.8C-99.9 11.8 -117.6 5.9 -135.2 0L0 0Z" fill="#e4e8eb"></path><path d="M0 67.6C-3.4 62.3 -6.7 57 -11.3 57C-16 57.1 -21.8 62.5 -25.9 62.5C-29.9 62.4 -32.1 56.9 -36.2 54.1C-40.2 51.4 -46.1 51.3 -46.8 46.8C-47.6 42.4 -43.1 33.7 -42.9 28.7C-42.8 23.6 -46.9 22.3 -47.3 19.6C-47.8 16.9 -44.4 12.9 -47.2 9.4C-50 5.9 -58.8 2.9 -67.6 0L0 0Z" fill="#f8fafc"></path></g><g transform="translate(0, 600)"><path d="M0 -540.8C21.3 -468.6 42.5 -396.5 79.4 -399.2C116.3 -401.9 168.8 -479.6 204.7 -494.3C240.6 -509 259.9 -460.8 291.7 -436.5C323.4 -412.3 367.6 -412 382.4 -382.4C397.2 -352.9 382.7 -294 380.8 -254.5C378.9 -214.9 389.8 -194.5 420.4 -174.1C451 -153.8 501.3 -133.4 524.7 -104.4C548.1 -75.4 544.5 -37.7 540.8 0L0 0Z" fill="#1d2437"></path><path d="M0 -473.2C18.6 -410.1 37.2 -346.9 69.5 -349.3C101.8 -351.7 147.7 -419.6 179.1 -432.5C210.6 -445.4 227.4 -403.2 255.2 -382C283 -360.7 321.7 -360.5 334.6 -334.6C347.6 -308.8 334.8 -257.3 333.2 -222.6C331.6 -188 341 -170.2 367.8 -152.4C394.6 -134.5 438.7 -116.7 459.1 -91.3C479.6 -65.9 476.4 -33 473.2 0L0 0Z" fill="#394152"></path><path d="M0 -405.6C15.9 -351.5 31.9 -297.3 59.6 -299.4C87.2 -301.4 126.6 -359.7 153.6 -370.7C180.5 -381.7 194.9 -345.6 218.8 -327.4C242.6 -309.2 275.7 -309 286.8 -286.8C297.9 -264.7 287 -220.5 285.6 -190.8C284.2 -161.1 292.3 -145.9 315.3 -130.6C338.2 -115.3 376 -100 393.5 -78.3C411.1 -56.5 408.3 -28.3 405.6 0L0 0Z" fill="#575f6e"></path><path d="M0 -338C13.3 -292.9 26.6 -247.8 49.6 -249.5C72.7 -251.2 105.5 -299.7 128 -308.9C150.4 -318.1 162.5 -288 182.3 -272.8C202.1 -257.7 229.8 -257.5 239 -239C248.3 -220.5 239.2 -183.8 238 -159C236.8 -134.3 243.6 -121.6 262.7 -108.8C281.9 -96.1 313.3 -83.4 328 -65.2C342.6 -47.1 340.3 -23.5 338 0L0 0Z" fill="#787f8c"></path><path d="M0 -270.4C10.6 -234.3 21.3 -198.2 39.7 -199.6C58.1 -201 84.4 -239.8 102.4 -247.1C120.3 -254.5 130 -230.4 145.8 -218.3C161.7 -206.1 183.8 -206 191.2 -191.2C198.6 -176.4 191.3 -147 190.4 -127.2C189.5 -107.4 194.9 -97.2 210.2 -87.1C225.5 -76.9 250.7 -66.7 262.4 -52.2C274 -37.7 272.2 -18.8 270.4 0L0 0Z" fill="#9aa1ab"></path><path d="M0 -202.8C8 -175.7 15.9 -148.7 29.8 -149.7C43.6 -150.7 63.3 -179.8 76.8 -185.4C90.2 -190.9 97.5 -172.8 109.4 -163.7C121.3 -154.6 137.9 -154.5 143.4 -143.4C149 -132.3 143.5 -110.3 142.8 -95.4C142.1 -80.6 146.2 -72.9 157.6 -65.3C169.1 -57.7 188 -50 196.8 -39.1C205.5 -28.3 204.2 -14.1 202.8 0L0 0Z" fill="#bec4cb"></path><path d="M0 -135.2C5.3 -117.2 10.6 -99.1 19.9 -99.8C29.1 -100.5 42.2 -119.9 51.2 -123.6C60.2 -127.2 65 -115.2 72.9 -109.1C80.9 -103.1 91.9 -103 95.6 -95.6C99.3 -88.2 95.7 -73.5 95.2 -63.6C94.7 -53.7 97.4 -48.6 105.1 -43.5C112.7 -38.4 125.3 -33.3 131.2 -26.1C137 -18.8 136.1 -9.4 135.2 0L0 0Z" fill="#e4e8eb"></path><path d="M0 -67.6C2.7 -58.6 5.3 -49.6 9.9 -49.9C14.5 -50.2 21.1 -59.9 25.6 -61.8C30.1 -63.6 32.5 -57.6 36.5 -54.6C40.4 -51.5 46 -51.5 47.8 -47.8C49.7 -44.1 47.8 -36.8 47.6 -31.8C47.4 -26.9 48.7 -24.3 52.5 -21.8C56.4 -19.2 62.7 -16.7 65.6 -13C68.5 -9.4 68.1 -4.7 67.6 0L0 0Z" fill="#f8fafc"></path></g></svg>