<svg width="314" height="157" viewBox="0 0 314 157" fill="none" xmlns="http://www.w3.org/2000/svg">
<g clip-path="url(#clip0_292_373)">
<path d="M302 0H12C5.37258 0 0 5.37258 0 12V145C0 151.627 5.37258 157 12 157H302C308.627 157 314 151.627 314 145V12C314 5.37258 308.627 0 302 0Z" fill="url(#paint0_linear_292_373)"/>
<g filter="url(#filter0_dd_292_373)">
<path d="M302 0H11.9997C5.37247 0 0 5.37247 0 11.9997V145C0 151.628 5.37247 157 11.9997 157H302C308.628 157 314 151.628 314 145V11.9997C314 5.37247 308.628 0 302 0Z" fill="url(#paint1_linear_292_373)"/>
<rect x="90" y="106" width="134" height="21" rx="4" fill="white"/>
<path d="M213 118.999L215.032 117.032L213.065 115" stroke="#D1D5DB" stroke-width="1.5" stroke-linecap="round" stroke-linejoin="round"/>
</g>
<g filter="url(#filter1_dd_292_373)">
<path d="M218 27H96C92.6863 27 90 29.7174 90 33.0694V45.2083C90 48.5604 92.6863 51.2778 96 51.2778H218C221.314 51.2778 224 48.5604 224 45.2083V33.0694C224 29.7174 221.314 27 218 27Z" fill="white"/>
<rect x="90" y="27" width="134" height="76" rx="4" fill="white"/>
</g>
<path d="M210 36L212 38L214 36" stroke="#D1D5DB" stroke-width="1.5" stroke-linecap="round" stroke-linejoin="round"/>
<path d="M101 37H150" stroke="#4B5563" stroke-width="3" stroke-linecap="round" stroke-linejoin="round"/>
<path d="M101 46H214" stroke="#4B5563" stroke-width="0.5" stroke-linecap="round" stroke-linejoin="round"/>
<path d="M90 68H224V85H90V68Z" fill="#CDC7FB"/>
<path d="M116 77H180" stroke="#7462F3" stroke-width="3" stroke-linecap="round" stroke-linejoin="round"/>
<path d="M116 92H157M116 57H165" stroke="#D1D5DB" stroke-width="3" stroke-linecap="round" stroke-linejoin="round"/>
<path d="M116 117H173" stroke="#D1D5DB" stroke-width="3" stroke-linecap="round" stroke-linejoin="round"/>
</g>
<defs>
<filter id="filter0_dd_292_373" x="-6" y="-3" width="326" height="169" filterUnits="userSpaceOnUse" color-interpolation-filters="sRGB">
<feFlood flood-opacity="0" result="BackgroundImageFix"/>
<feColorMatrix in="SourceAlpha" type="matrix" values="0 0 0 0 0 0 0 0 0 0 0 0 0 0 0 0 0 0 127 0" result="hardAlpha"/>
<feOffset dy="2"/>
<feGaussianBlur stdDeviation="2"/>
<feColorMatrix type="matrix" values="0 0 0 0 0 0 0 0 0 0 0 0 0 0 0 0 0 0 0.06 0"/>
<feBlend mode="normal" in2="BackgroundImageFix" result="effect1_dropShadow_292_373"/>
<feColorMatrix in="SourceAlpha" type="matrix" values="0 0 0 0 0 0 0 0 0 0 0 0 0 0 0 0 0 0 127 0" result="hardAlpha"/>
<feOffset dy="3"/>
<feGaussianBlur stdDeviation="3"/>
<feColorMatrix type="matrix" values="0 0 0 0 0 0 0 0 0 0 0 0 0 0 0 0 0 0 0.1 0"/>
<feBlend mode="normal" in2="effect1_dropShadow_292_373" result="effect2_dropShadow_292_373"/>
<feBlend mode="normal" in="SourceGraphic" in2="effect2_dropShadow_292_373" result="shape"/>
</filter>
<filter id="filter1_dd_292_373" x="84" y="24" width="146" height="88" filterUnits="userSpaceOnUse" color-interpolation-filters="sRGB">
<feFlood flood-opacity="0" result="BackgroundImageFix"/>
<feColorMatrix in="SourceAlpha" type="matrix" values="0 0 0 0 0 0 0 0 0 0 0 0 0 0 0 0 0 0 127 0" result="hardAlpha"/>
<feOffset dy="2"/>
<feGaussianBlur stdDeviation="2"/>
<feColorMatrix type="matrix" values="0 0 0 0 0 0 0 0 0 0 0 0 0 0 0 0 0 0 0.06 0"/>
<feBlend mode="normal" in2="BackgroundImageFix" result="effect1_dropShadow_292_373"/>
<feColorMatrix in="SourceAlpha" type="matrix" values="0 0 0 0 0 0 0 0 0 0 0 0 0 0 0 0 0 0 127 0" result="hardAlpha"/>
<feOffset dy="3"/>
<feGaussianBlur stdDeviation="3"/>
<feColorMatrix type="matrix" values="0 0 0 0 0 0 0 0 0 0 0 0 0 0 0 0 0 0 0.1 0"/>
<feBlend mode="normal" in2="effect1_dropShadow_292_373" result="effect2_dropShadow_292_373"/>
<feBlend mode="normal" in="SourceGraphic" in2="effect2_dropShadow_292_373" result="shape"/>
</filter>
<linearGradient id="paint0_linear_292_373" x1="0" y1="0" x2="314.69" y2="1.396" gradientUnits="userSpaceOnUse">
<stop stop-color="#FACC15"/>
<stop offset="1" stop-color="#F97316"/>
</linearGradient>
<linearGradient id="paint1_linear_292_373" x1="0" y1="0" x2="314.69" y2="1.39606" gradientUnits="userSpaceOnUse">
<stop stop-color="#A855F7"/>
<stop offset="1" stop-color="#6366F1"/>
</linearGradient>
<clipPath id="clip0_292_373">
<rect width="314" height="157" fill="white"/>
</clipPath>
</defs>
</svg>
