<svg width="24" height="24" viewBox="0 0 24 24" fill="none" xmlns="http://www.w3.org/2000/svg">
<rect x="2" y="6" width="20" height="12" rx="2" stroke="black" stroke-width="1.5"/>
<path d="M5.41905 12.1662V13.8068H5.00002V10.1705H5.41905V11.5057H5.45456C5.51848 11.3648 5.61436 11.253 5.7422 11.1701C5.87123 11.0861 6.04287 11.044 6.25712 11.044C6.44296 11.044 6.60572 11.0813 6.7454 11.1559C6.88508 11.2293 6.99339 11.3423 7.07033 11.495C7.14845 11.6465 7.18752 11.8395 7.18752 12.0739V13.8068H6.76848V12.1023C6.76848 11.8857 6.71226 11.7182 6.5998 11.5998C6.48853 11.4802 6.33406 11.4205 6.13638 11.4205C5.99907 11.4205 5.87596 11.4495 5.76706 11.5075C5.65934 11.5655 5.57412 11.6501 5.51138 11.7614C5.44983 11.8726 5.41905 12.0076 5.41905 12.1662Z" fill="black"/>
<path d="M9.1402 11.0795V11.4347H7.72684V11.0795H9.1402ZM8.13878 10.4261H8.55781V13.0256C8.55781 13.1439 8.57497 13.2327 8.6093 13.2919C8.64481 13.3499 8.68979 13.389 8.74424 13.4091C8.79988 13.428 8.85847 13.4375 8.92003 13.4375C8.96619 13.4375 9.00407 13.4351 9.03366 13.4304C9.06326 13.4245 9.08693 13.4197 9.10468 13.4162L9.18991 13.7926C9.1615 13.8033 9.12185 13.8139 9.07095 13.8246C9.02005 13.8364 8.95554 13.8423 8.87741 13.8423C8.75904 13.8423 8.64304 13.8169 8.5294 13.766C8.41695 13.7151 8.32344 13.6375 8.24886 13.5334C8.17547 13.4292 8.13878 13.2978 8.13878 13.1392V10.4261Z" fill="black"/>
<path d="M10.9566 11.0795V11.4347H9.54325V11.0795H10.9566ZM9.95518 10.4261H10.3742V13.0256C10.3742 13.1439 10.3914 13.2327 10.4257 13.2919C10.4612 13.3499 10.5062 13.389 10.5607 13.4091C10.6163 13.428 10.6749 13.4375 10.7364 13.4375C10.7826 13.4375 10.8205 13.4351 10.8501 13.4304C10.8797 13.4245 10.9033 13.4197 10.9211 13.4162L11.0063 13.7926C10.9779 13.8033 10.9383 13.8139 10.8874 13.8246C10.8365 13.8364 10.7719 13.8423 10.6938 13.8423C10.5754 13.8423 10.4594 13.8169 10.3458 13.766C10.2334 13.7151 10.1398 13.6375 10.0653 13.5334C9.99188 13.4292 9.95518 13.2978 9.95518 13.1392V10.4261Z" fill="black"/>
<path d="M11.5869 14.8295V11.0795H11.9918V11.5128H12.0415C12.0723 11.4654 12.1149 11.4051 12.1693 11.3317C12.225 11.2571 12.3043 11.1908 12.4072 11.1328C12.5114 11.0736 12.6523 11.044 12.8298 11.044C13.0595 11.044 13.2619 11.1014 13.4371 11.2163C13.6123 11.3311 13.749 11.4938 13.8472 11.7045C13.9455 11.9152 13.9946 12.1638 13.9946 12.4503C13.9946 12.7391 13.9455 12.9895 13.8472 13.2013C13.749 13.412 13.6129 13.5754 13.4388 13.6914C13.2648 13.8062 13.0642 13.8636 12.8369 13.8636C12.6617 13.8636 12.5215 13.8346 12.4161 13.7766C12.3108 13.7174 12.2297 13.6506 12.1729 13.576C12.116 13.5002 12.0723 13.4375 12.0415 13.3878H12.006V14.8295H11.5869ZM11.9989 12.4432C11.9989 12.6491 12.029 12.8308 12.0894 12.9883C12.1498 13.1445 12.238 13.267 12.354 13.3558C12.47 13.4434 12.612 13.4872 12.7801 13.4872C12.9553 13.4872 13.1015 13.441 13.2187 13.3487C13.337 13.2552 13.4258 13.1297 13.485 12.9723C13.5454 12.8137 13.5756 12.6373 13.5756 12.4432C13.5756 12.2514 13.546 12.0786 13.4868 11.9247C13.4288 11.7696 13.3406 11.6471 13.2222 11.5572C13.105 11.466 12.9577 11.4205 12.7801 11.4205C12.6097 11.4205 12.4664 11.4637 12.3504 11.5501C12.2344 11.6353 12.1468 11.7549 12.0876 11.9087C12.0285 12.0614 11.9989 12.2396 11.9989 12.4432Z" fill="black"/>
<path d="M14.9392 13.8352C14.8516 13.8352 14.7764 13.8039 14.7137 13.7411C14.651 13.6784 14.6196 13.6032 14.6196 13.5156C14.6196 13.428 14.651 13.3529 14.7137 13.2901C14.7764 13.2274 14.8516 13.196 14.9392 13.196C15.0268 13.196 15.102 13.2274 15.1647 13.2901C15.2274 13.3529 15.2588 13.428 15.2588 13.5156C15.2588 13.5736 15.244 13.6269 15.2144 13.6754C15.186 13.724 15.1475 13.763 15.099 13.7926C15.0517 13.821 14.9984 13.8352 14.9392 13.8352ZM14.9392 11.8111C14.8516 11.8111 14.7764 11.7797 14.7137 11.717C14.651 11.6542 14.6196 11.5791 14.6196 11.4915C14.6196 11.4039 14.651 11.3287 14.7137 11.266C14.7764 11.2032 14.8516 11.1719 14.9392 11.1719C15.0268 11.1719 15.102 11.2032 15.1647 11.266C15.2274 11.3287 15.2588 11.4039 15.2588 11.4915C15.2588 11.5495 15.244 11.6027 15.2144 11.6513C15.186 11.6998 15.1475 11.7389 15.099 11.7685C15.0517 11.7969 14.9984 11.8111 14.9392 11.8111Z" fill="black"/>
<path d="M17.2963 10L16.1244 14.3537H15.7409L16.9127 10H17.2963Z" fill="black"/>
<path d="M19.0785 10L17.9066 14.3537H17.5231L18.695 10H19.0785Z" fill="black"/>
</svg>
