<svg width="24" height="24" viewBox="0 0 24 24" fill="none" xmlns="http://www.w3.org/2000/svg">
<path d="M3.13849 12.4716V11.9432C3.61292 11.9432 3.94389 11.8438 4.13139 11.6449C4.32173 11.446 4.4169 11.1136 4.4169 10.6477V9.28409C4.4169 8.89205 4.45383 8.55256 4.52769 8.26562C4.6044 7.97869 4.72798 7.74148 4.89843 7.55398C5.06889 7.36648 5.29616 7.22727 5.58025 7.13636C5.86434 7.04545 6.21519 7 6.63281 7V7.83523C6.30326 7.83523 6.04332 7.88636 5.85298 7.98864C5.66548 8.09091 5.53195 8.25 5.45241 8.46591C5.3757 8.67898 5.33735 8.9517 5.33735 9.28409V10.9886C5.33735 11.2102 5.30752 11.4119 5.24786 11.5938C5.19105 11.7756 5.08451 11.9318 4.92826 12.0625C4.77201 12.1932 4.549 12.294 4.25923 12.3651C3.9723 12.4361 3.59872 12.4716 3.13849 12.4716ZM6.63281 17.9091C6.21519 17.9091 5.86434 17.8636 5.58025 17.7727C5.29616 17.6818 5.06889 17.5426 4.89843 17.3551C4.72798 17.1676 4.6044 16.9304 4.52769 16.6435C4.45383 16.3565 4.4169 16.017 4.4169 15.625V14.2614C4.4169 13.7955 4.32173 13.4631 4.13139 13.2642C3.94389 13.0653 3.61292 12.9659 3.13849 12.9659V12.4375C3.59872 12.4375 3.9723 12.473 4.25923 12.544C4.549 12.6151 4.77201 12.7159 4.92826 12.8466C5.08451 12.9773 5.19105 13.1335 5.24786 13.3153C5.30752 13.4972 5.33735 13.6989 5.33735 13.9205V15.625C5.33735 15.9574 5.3757 16.2301 5.45241 16.4432C5.53195 16.6562 5.66548 16.8139 5.85298 16.9162C6.04332 17.0213 6.30326 17.0739 6.63281 17.0739V17.9091ZM3.13849 12.9659V11.9432H4.14417V12.9659H3.13849Z" fill="black"/>
<path d="M8.69637 16.2045C8.48615 16.2045 8.30575 16.1293 8.15518 15.9787C8.00461 15.8281 7.92933 15.6477 7.92933 15.4375C7.92933 15.2273 8.00461 15.0469 8.15518 14.8963C8.30575 14.7457 8.48615 14.6705 8.69637 14.6705C8.9066 14.6705 9.087 14.7457 9.23757 14.8963C9.38813 15.0469 9.46342 15.2273 9.46342 15.4375C9.46342 15.5767 9.42791 15.7045 9.35688 15.821C9.2887 15.9375 9.19637 16.0312 9.0799 16.1023C8.96626 16.1705 8.83842 16.2045 8.69637 16.2045Z" fill="black"/>
<path d="M12.0011 16.2045C11.7908 16.2045 11.6104 16.1293 11.4599 15.9787C11.3093 15.8281 11.234 15.6477 11.234 15.4375C11.234 15.2273 11.3093 15.0469 11.4599 14.8963C11.6104 14.7457 11.7908 14.6705 12.0011 14.6705C12.2113 14.6705 12.3917 14.7457 12.5423 14.8963C12.6928 15.0469 12.7681 15.2273 12.7681 15.4375C12.7681 15.5767 12.7326 15.7045 12.6616 15.821C12.5934 15.9375 12.5011 16.0312 12.3846 16.1023C12.2709 16.1705 12.1431 16.2045 12.0011 16.2045Z" fill="black"/>
<path d="M15.3057 16.2045C15.0955 16.2045 14.9151 16.1293 14.7646 15.9787C14.614 15.8281 14.5387 15.6477 14.5387 15.4375C14.5387 15.2273 14.614 15.0469 14.7646 14.8963C14.9151 14.7457 15.0955 14.6705 15.3057 14.6705C15.516 14.6705 15.6964 14.7457 15.8469 14.8963C15.9975 15.0469 16.0728 15.2273 16.0728 15.4375C16.0728 15.5767 16.0373 15.7045 15.9663 15.821C15.8981 15.9375 15.8057 16.0312 15.6893 16.1023C15.5756 16.1705 15.4478 16.2045 15.3057 16.2045Z" fill="black"/>
<path d="M20.8604 12.4375V12.9659C20.386 12.9659 20.0536 13.0653 19.8633 13.2642C19.6758 13.4631 19.582 13.7955 19.582 14.2614V15.625C19.582 16.017 19.5437 16.3565 19.467 16.6435C19.3931 16.9304 19.2709 17.1676 19.1005 17.3551C18.93 17.5426 18.7028 17.6818 18.4187 17.7727C18.1346 17.8636 17.7837 17.9091 17.3661 17.9091V17.0739C17.6957 17.0739 17.9542 17.0213 18.1417 16.9162C18.332 16.8139 18.4655 16.6562 18.5423 16.4432C18.6218 16.2301 18.6616 15.9574 18.6616 15.625V13.9205C18.6616 13.6989 18.69 13.4972 18.7468 13.3153C18.8065 13.1335 18.9144 12.9773 19.0707 12.8466C19.2269 12.7159 19.4485 12.6151 19.7354 12.544C20.0252 12.473 20.4002 12.4375 20.8604 12.4375ZM17.3661 7C17.7837 7 18.1346 7.04545 18.4187 7.13636C18.7028 7.22727 18.93 7.36648 19.1005 7.55398C19.2709 7.74148 19.3931 7.97869 19.467 8.26562C19.5437 8.55256 19.582 8.89205 19.582 9.28409V10.6477C19.582 11.1136 19.6758 11.446 19.8633 11.6449C20.0536 11.8438 20.386 11.9432 20.8604 11.9432V12.4716C20.4002 12.4716 20.0252 12.4361 19.7354 12.3651C19.4485 12.294 19.2269 12.1932 19.0707 12.0625C18.9144 11.9318 18.8065 11.7756 18.7468 11.5938C18.69 11.4119 18.6616 11.2102 18.6616 10.9886V9.28409C18.6616 8.9517 18.6218 8.67898 18.5423 8.46591C18.4655 8.25 18.332 8.09091 18.1417 7.98864C17.9542 7.88636 17.6957 7.83523 17.3661 7.83523V7ZM20.8604 11.9432V12.9659H19.8548V11.9432H20.8604Z" fill="black"/>
</svg>
