<svg width="24" height="24" viewBox="0 0 24 24" fill="none" xmlns="http://www.w3.org/2000/svg">
<path fill-rule="evenodd" clip-rule="evenodd" d="M5.15429 9L4.17929 10.9757L2 11.2907L3.57714 12.8293L3.20429 15L5.15429 13.9757L7.10429 15L6.73143 12.8293L8.30857 11.2929L6.12929 10.9757L5.15429 9ZM12.1543 9L11.1793 10.9757L9 11.2907L10.5771 12.8293L10.2043 15L12.1543 13.9757L14.1043 15L13.7314 12.8293L15.3086 11.2929L13.1293 10.9757L12.1543 9ZM18.1793 10.9757L19.1543 9L20.1293 10.9757L22.3086 11.2929L20.7314 12.8293L21.1043 15L19.1543 13.9757L17.2043 15L17.5771 12.8293L16 11.2907L18.1793 10.9757Z" fill="black"/>
</svg>
