<svg width="24" height="24" viewBox="0 0 24 24" fill="none" xmlns="http://www.w3.org/2000/svg">
<path d="M2.90909 7H21.0909C21.593 7 22 6.55228 22 6V3C22 2.44772 21.593 2 21.0909 2H2.90909C2.40701 2 2 2.44772 2 3V6C2 6.55228 2.40701 7 2.90909 7Z" fill="black"/>
<path d="M7.68182 14.5H21.3182C21.6948 14.5 22 14.0523 22 13.5V10.5C22 9.94772 21.6948 9.5 21.3182 9.5H7.68182C7.30526 9.5 7 9.94772 7 10.5V13.5C7 14.0523 7.30526 14.5 7.68182 14.5Z" fill="black"/>
<path d="M7.68182 22H21.3182C21.6948 22 22 21.5523 22 21V18C22 17.4477 21.6948 17 21.3182 17H7.68182C7.30526 17 7 17.4477 7 18V21C7 21.5523 7.30526 22 7.68182 22Z" fill="black"/>
<path d="M4.5 7V19.5" stroke="black" stroke-linecap="round"/>
<path d="M4.5 19.5H7.5" stroke="black" stroke-linecap="round"/>
<path d="M4 12H7" stroke="black"/>
</svg>
