<svg width="24" height="24" viewBox="0 0 24 24" fill="none" xmlns="http://www.w3.org/2000/svg">
<path d="M10 2.75C11.3701 2.74983 12.7122 3.13789 13.8708 3.86922C15.0294 4.60054 15.957 5.64519 16.5462 6.88212C17.1354 8.11905 17.3621 9.49762 17.1999 10.8581C17.0378 12.2186 16.4934 13.5052 15.63 14.569L20.53 19.469C20.6645 19.6027 20.7435 19.7823 20.7509 19.9718C20.7582 20.1613 20.6936 20.3466 20.5699 20.4903C20.4462 20.6341 20.2726 20.7256 20.0841 20.7465C19.8956 20.7674 19.7062 20.7161 19.554 20.603L19.47 20.53L14.569 15.63C13.6679 16.3611 12.6044 16.8653 11.468 17.1C10.3316 17.3348 9.15546 17.2934 8.03838 16.9793C6.9213 16.6651 5.89595 16.0874 5.0485 15.2947C4.20104 14.502 3.55625 13.5175 3.16829 12.4238C2.78034 11.3302 2.66057 10.1594 2.81904 9.00989C2.97751 7.86035 3.4096 6.76565 4.079 5.81778C4.74839 4.8699 5.63552 4.09655 6.66585 3.56272C7.69618 3.02889 8.83959 2.75018 10 2.75ZM10 4.25C9.2449 4.25 8.4972 4.39873 7.79957 4.68769C7.10195 4.97666 6.46808 5.4002 5.93414 5.93414C5.4002 6.46807 4.97666 7.10195 4.6877 7.79957C4.39873 8.49719 4.25 9.2449 4.25 10C4.25 10.7551 4.39873 11.5028 4.6877 12.2004C4.97666 12.8981 5.4002 13.5319 5.93414 14.0659C6.46808 14.5998 7.10195 15.0233 7.79957 15.3123C8.4972 15.6013 9.2449 15.75 10 15.75C11.525 15.75 12.9875 15.1442 14.0659 14.0659C15.1442 12.9875 15.75 11.525 15.75 10C15.75 8.47501 15.1442 7.01247 14.0659 5.93414C12.9875 4.8558 11.525 4.25 10 4.25Z" fill="black"/>
</svg>
