<svg width="24" height="24" viewBox="0 0 24 24" fill="none" xmlns="http://www.w3.org/2000/svg">
<path d="M6.25 3C5.38805 3 4.5614 3.34241 3.9519 3.9519C3.34241 4.5614 3 5.38805 3 6.25V17.75C3 18.612 3.34241 19.4386 3.9519 20.0481C4.5614 20.6576 5.38805 21 6.25 21H17.75C18.612 21 19.4386 20.6576 20.0481 20.0481C20.6576 19.4386 21 18.612 21 17.75V6.25C21 5.38805 20.6576 4.5614 20.0481 3.9519C19.4386 3.34241 18.612 3 17.75 3H6.25ZM4.5 6.25C4.5 5.284 5.284 4.5 6.25 4.5H17.75C18.716 4.5 19.5 5.284 19.5 6.25V17.75C19.5 18.2141 19.3156 18.6592 18.9874 18.9874C18.6592 19.3156 18.2141 19.5 17.75 19.5H6.25C5.78587 19.5 5.34075 19.3156 5.01256 18.9874C4.68437 18.6592 4.5 18.2141 4.5 17.75V6.25ZM17.28 9.28C17.3537 9.21134 17.4128 9.12854 17.4538 9.03654C17.4948 8.94454 17.5168 8.84522 17.5186 8.74452C17.5204 8.64382 17.5018 8.54379 17.4641 8.4504C17.4264 8.35701 17.3703 8.27218 17.299 8.20096C17.2278 8.12974 17.143 8.0736 17.0496 8.03588C16.9562 7.99816 16.8562 7.97963 16.7555 7.98141C16.6548 7.98319 16.5555 8.00523 16.4635 8.04622C16.3715 8.08721 16.2887 8.14631 16.22 8.22L9.997 14.436L7.78 12.22C7.63783 12.0875 7.44978 12.0154 7.25548 12.0188C7.06118 12.0223 6.87579 12.101 6.73838 12.2384C6.60097 12.3758 6.52225 12.5612 6.51883 12.7555C6.5154 12.9498 6.58752 13.1378 6.72 13.28L9.465 16.026C9.60563 16.1664 9.79625 16.2453 9.995 16.2453C10.1938 16.2453 10.3844 16.1664 10.525 16.026L17.279 9.281L17.28 9.28Z" fill="black"/>
</svg>
