<svg width="24" height="24" viewBox="0 0 24 24" fill="none" xmlns="http://www.w3.org/2000/svg">
<path d="M15.4286 12H8.57142M18.8571 16.5714V7.42857C18.8571 6.82236 18.6163 6.24098 18.1877 5.81232C17.759 5.38367 17.1776 5.14285 16.5714 5.14285H7.42857C6.82236 5.14285 6.24098 5.38367 5.81232 5.81232C5.38367 6.24098 5.14285 6.82236 5.14285 7.42857V16.5714C5.14285 17.1776 5.38367 17.759 5.81232 18.1877C6.24098 18.6163 6.82236 18.8571 7.42857 18.8571H16.5714C17.1776 18.8571 17.759 18.6163 18.1877 18.1877C18.6163 17.759 18.8571 17.1776 18.8571 16.5714ZM12 8.57142V15.4926V8.57142Z" stroke="black" stroke-width="1.14286" stroke-linecap="round" stroke-linejoin="round"/>
</svg>
