<svg width="24" height="24" viewBox="0 0 24 24" fill="none" xmlns="http://www.w3.org/2000/svg">
<path d="M8 16C8 16.5304 7.78929 17.0391 7.41421 17.4142C7.03914 17.7893 6.53043 18 6 18C5.46957 18 4.96086 17.7893 4.58579 17.4142C4.21071 17.0391 4 16.5304 4 16C4 15.4696 4.21071 14.9609 4.58579 14.5858C4.96086 14.2107 5.46957 14 6 14C6.53043 14 7.03914 14.2107 7.41421 14.5858C7.78929 14.9609 8 15.4696 8 16Z" fill="black"/>
<path fill-rule="evenodd" clip-rule="evenodd" d="M12 11C11.737 11 11.5 11.198 11.5 11.461V20.5C11.5 20.6326 11.5527 20.7598 11.6464 20.8536C11.7402 20.9473 11.8674 21 12 21C12.1326 21 12.2598 20.9473 12.3536 20.8536C12.4473 20.7598 12.5 20.6326 12.5 20.5V11.461C12.5 11.198 12.263 11 12 11ZM11.5 7.5C11.5 7.776 11.737 8 12.013 8C12.2895 8 12.5 7.776 12.5 7.5V3.5C12.5 3.36739 12.4473 3.24021 12.3536 3.14645C12.2598 3.05268 12.1326 3 12 3C11.8674 3 11.7402 3.05268 11.6464 3.14645C11.5527 3.24021 11.5 3.36739 11.5 3.5V7.5ZM18 16.5C17.737 16.5 17.5 16.698 17.5 16.961V20.5C17.5 20.6326 17.5527 20.7598 17.6464 20.8536C17.7402 20.9473 17.8674 21 18 21C18.1326 21 18.2598 20.9473 18.3536 20.8536C18.4473 20.7598 18.5 20.6326 18.5 20.5V16.961C18.5 16.698 18.263 16.5 18 16.5ZM17.5 13C17.5 13.276 17.737 13.5 18.013 13.5C18.2895 13.5 18.5 13.276 18.5 13V3.5C18.5 3.36739 18.4473 3.24021 18.3536 3.14645C18.2598 3.05268 18.1326 3 18 3C17.8674 3 17.7402 3.05268 17.6464 3.14645C17.5527 3.24021 17.5 3.36739 17.5 3.5V13ZM6 19C5.737 19 5.5 19.198 5.5 19.461V20.5C5.5 20.6326 5.55268 20.7598 5.64645 20.8536C5.74021 20.9473 5.86739 21 6 21C6.13261 21 6.25979 20.9473 6.35355 20.8536C6.44732 20.7598 6.5 20.6326 6.5 20.5V19.461C6.5 19.198 6.263 19 6 19ZM5.5 15.5C5.5 15.776 5.737 16 6.013 16C6.2895 16 6.5 15.776 6.5 15.5V3.5C6.5 3.36739 6.44732 3.24021 6.35355 3.14645C6.25979 3.05268 6.13261 3 6 3C5.86739 3 5.74021 3.05268 5.64645 3.14645C5.55268 3.24021 5.5 3.36739 5.5 3.5V15.5Z" fill="black"/>
<path d="M14 8C14 8.53043 13.7893 9.03914 13.4142 9.41421C13.0391 9.78929 12.5304 10 12 10C11.4696 10 10.9609 9.78929 10.5858 9.41421C10.2107 9.03914 10 8.53043 10 8C10 7.46957 10.2107 6.96086 10.5858 6.58579C10.9609 6.21071 11.4696 6 12 6C12.5304 6 13.0391 6.21071 13.4142 6.58579C13.7893 6.96086 14 7.46957 14 8V8ZM20 13.5C20 14.0304 19.7893 14.5391 19.4142 14.9142C19.0391 15.2893 18.5304 15.5 18 15.5C17.4696 15.5 16.9609 15.2893 16.5858 14.9142C16.2107 14.5391 16 14.0304 16 13.5C16 12.9696 16.2107 12.4609 16.5858 12.0858C16.9609 11.7107 17.4696 11.5 18 11.5C18.5304 11.5 19.0391 11.7107 19.4142 12.0858C19.7893 12.4609 20 12.9696 20 13.5Z" fill="black"/>
</svg>
