<svg width="24" height="24" viewBox="0 0 24 24" fill="none" xmlns="http://www.w3.org/2000/svg">
<path d="M17.28 9.27997C17.4124 9.13779 17.4846 8.94975 17.4811 8.75545C17.4777 8.56115 17.399 8.37576 17.2616 8.23835C17.1242 8.10093 16.9388 8.02222 16.7445 8.01879C16.5502 8.01537 16.3621 8.08749 16.22 8.21997L10.25 14.19L7.77997 11.72C7.63779 11.5875 7.44975 11.5154 7.25545 11.5188C7.06114 11.5222 6.87576 11.6009 6.73835 11.7383C6.60093 11.8758 6.52222 12.0611 6.51879 12.2554C6.51537 12.4497 6.58749 12.6378 6.71997 12.78L9.71997 15.78C9.86059 15.9204 10.0512 15.9993 10.25 15.9993C10.4487 15.9993 10.6393 15.9204 10.78 15.78L17.28 9.27997Z" fill="black"/>
<path d="M12 1C18.075 1 23 5.925 23 12C23 18.075 18.075 23 12 23C5.925 23 1 18.075 1 12C1 5.925 5.925 1 12 1ZM2.5 12C2.5 14.5196 3.50089 16.9359 5.28249 18.7175C7.06408 20.4991 9.48044 21.5 12 21.5C14.5196 21.5 16.9359 20.4991 18.7175 18.7175C20.4991 16.9359 21.5 14.5196 21.5 12C21.5 9.48044 20.4991 7.06408 18.7175 5.28249C16.9359 3.50089 14.5196 2.5 12 2.5C9.48044 2.5 7.06408 3.50089 5.28249 5.28249C3.50089 7.06408 2.5 9.48044 2.5 12Z" fill="black"/>
</svg>
