<svg width="24" height="24" viewBox="0 0 24 24" fill="none" xmlns="http://www.w3.org/2000/svg">
<path d="M6.75 7.91625L7.91625 6.75L17.25 16.083L16.083 17.25L6.75 7.91625Z" fill="black"/>
<path d="M12 1.49996C10.6187 1.49139 9.24946 1.75714 7.97167 2.28178C6.69388 2.80642 5.53297 3.57952 4.55624 4.55624C3.57952 5.53297 2.80642 6.69388 2.28178 7.97167C1.75714 9.24946 1.49139 10.6187 1.49996 12C1.49139 13.3812 1.75714 14.7505 2.28178 16.0282C2.80642 17.306 3.57952 18.4669 4.55624 19.4437C5.53297 20.4204 6.69388 21.1935 7.97167 21.7181C9.24946 22.2428 10.6187 22.5085 12 22.5C13.3812 22.5085 14.7505 22.2428 16.0282 21.7181C17.306 21.1935 18.4669 20.4204 19.4437 19.4437C20.4204 18.4669 21.1935 17.306 21.7181 16.0282C22.2428 14.7505 22.5085 13.3812 22.5 12C22.5085 10.6187 22.2428 9.24946 21.7181 7.97167C21.1935 6.69388 20.4204 5.53297 19.4437 4.55624C18.4669 3.57952 17.306 2.80642 16.0282 2.28178C14.7505 1.75714 13.3812 1.49139 12 1.49996ZM12 21C10.2199 21 8.47987 20.4721 6.99982 19.4832C5.51978 18.4942 4.36623 17.0886 3.68504 15.4441C3.00385 13.7996 2.82562 11.99 3.17289 10.2441C3.52016 8.49831 4.37732 6.89467 5.636 5.636C6.89467 4.37732 8.49831 3.52016 10.2441 3.17289C11.99 2.82562 13.7996 3.00385 15.4441 3.68504C17.0886 4.36623 18.4942 5.51978 19.4832 6.99982C20.4721 8.47987 21 10.2199 21 12C20.993 14.3848 20.0426 16.6699 18.3563 18.3563C16.6699 20.0426 14.3848 20.993 12 21Z" fill="black"/>
</svg>
