<svg width="60" height="132" viewBox="352 28 60 132" fill="none" xmlns="http://www.w3.org/2000/svg">
<g><path opacity="0.66" d="M381.959 103.799C376.332 102.829 370.964 106.645 370.058 112.272C367.601 126.954 376.203 138.208 372.904 158C376.203 138.208 388.039 130.318 390.497 115.635C391.403 110.073 387.586 104.769 381.959 103.799Z" fill="black"></path><path d="M381.96 103.799C378.208 103.152 374.586 105.74 374.004 109.491C372.387 119.322 378.144 126.825 375.88 140.149C378.079 126.89 386.034 121.586 387.651 111.819C388.298 108.003 385.776 104.446 381.96 103.799Z" fill="black"></path><path d="M388.428 107.615L374.392 105.222C373.745 105.092 373.293 104.51 373.422 103.799L373.875 101.211L390.303 104.057L389.851 106.645C389.657 107.291 389.074 107.744 388.428 107.615Z" fill="black"></path><path d="M368.959 76.3104L357.705 87.4352C356.347 88.7935 355.635 90.6045 355.764 92.5449L356.993 110.59C357.058 111.172 357.705 111.496 358.158 111.172L374.004 101.083L368.959 76.3104Z" fill="black"></path><path d="M402.98 82.0021L409.966 96.1668C410.806 97.8485 410.871 99.8535 410.095 101.6L403.045 118.222C402.786 118.74 402.075 118.869 401.751 118.416L390.044 103.734L402.98 82.0021Z" fill="black"></path><path d="M394.507 30C376.85 40.0253 361.585 78.574 370.899 99.6594C371.158 100.306 371.74 100.759 372.322 100.888L391.661 104.252C392.308 104.381 392.955 104.122 393.408 103.605C409.319 86.853 407.766 45.3936 394.507 30Z" fill="black"></path><path d="M394.507 30C388.104 33.622 382.089 40.9954 377.367 49.9212C372.452 48.8216 404.015 54.5134 404.015 54.5134C402.527 44.4881 399.293 35.5624 394.507 30Z" fill="black"></path><path d="M394.184 75.0161C390.562 78.5087 384.871 78.3794 381.378 74.7573C377.885 71.1353 378.015 65.4435 381.637 61.9509C385.259 58.4582 390.95 58.5875 394.443 62.2096C397.871 65.7669 397.742 71.5234 394.184 75.0161Z" fill="black"></path><path d="M395.219 68.6127C395.154 72.6875 391.791 75.9214 387.781 75.7921C383.706 75.7274 380.472 72.3641 380.601 68.354C380.666 64.2792 384.029 61.0452 388.039 61.1746C392.049 61.2393 395.284 64.5379 395.219 68.6127Z" fill="black"></path><path d="M395.219 68.613C395.219 66.9313 394.702 65.3143 393.731 64.0208C393.731 64.2148 393.667 64.4088 393.667 64.6029C393.602 65.5084 393.667 66.4786 393.279 67.2547C392.891 68.0309 392.179 68.5483 391.338 68.7423C390.174 68.9364 388.88 68.3542 387.716 68.6776C386.293 69.0657 385.452 70.618 384.029 71.0708C383.383 71.2648 382.671 71.2001 381.96 70.9414C381.507 70.812 381.054 70.5533 380.731 70.2299C381.507 73.3992 384.288 75.7277 387.716 75.7923C391.791 75.9217 395.154 72.6877 395.219 68.613Z" fill="black"></path><g opacity="0.4">
<path d="M389.074 62.469C388.945 62.469 388.751 62.4043 388.621 62.4043C388.427 62.4043 388.298 62.469 388.168 62.5336C388.039 62.663 387.974 62.7924 387.974 62.9217C387.974 63.2451 388.168 63.5038 388.492 63.5685H388.556C388.686 63.5685 388.815 63.5685 388.945 63.6332C389.139 63.6332 389.268 63.6332 389.397 63.5038C389.527 63.4392 389.591 63.2451 389.656 63.1158C389.656 62.857 389.462 62.5336 389.074 62.469Z" fill="black"></path>
<path d="M387.004 62.5981C386.875 62.5334 386.681 62.4687 386.552 62.5334C384.935 62.9215 383.447 63.9563 382.606 65.3793C382.412 65.638 382.541 66.0261 382.8 66.2201C382.865 66.2848 382.93 66.2848 382.994 66.2848C383.253 66.3495 383.512 66.2201 383.641 66.0261C384.352 64.8618 385.452 64.021 386.81 63.7623C386.94 63.6976 387.134 63.6329 387.198 63.5036C387.263 63.3742 387.328 63.1802 387.263 63.0508C387.263 62.7921 387.134 62.6627 387.004 62.5981Z" fill="black"></path>
</g><path d="M371.676 96.3607C371.87 97.8483 372.129 99.4006 372.452 100.888L380.925 102.311C380.796 102.052 380.731 101.794 380.601 101.535C380.343 100.824 380.084 100.177 379.89 99.4653C379.437 98.0423 379.049 96.6194 378.661 95.1317C377.95 92.2212 377.497 89.1813 377.174 86.1413C376.591 80.0615 376.85 73.8523 377.885 67.7078C378.402 64.6679 379.114 61.628 380.084 58.6527L380.408 57.5532L380.796 56.4536L381.572 54.2545L382.477 52.0555L382.93 50.9559L383.447 49.8564C386.035 44.0999 389.269 38.6022 393.02 33.4279C388.751 38.1494 384.935 43.3884 381.701 48.9508L381.054 49.9857L380.472 51.0853L379.308 53.2197L378.273 55.4188L377.756 56.5183L377.303 57.6178C376.009 60.5931 374.91 63.6977 374.004 66.867C372.193 73.1409 371.223 79.7381 371.158 86.4001C371.029 89.6987 371.223 93.062 371.676 96.3607Z" fill="black"></path><path d="M379.178 119.128C377.755 118.869 376.85 117.576 377.044 116.153L379.696 98.8189C380.019 96.6844 380.537 94.55 381.313 92.545L384.417 84.2661L385.905 84.5248L386.034 93.3858C386.099 95.5849 385.905 97.7193 385.452 99.8537L382.154 117.123C381.895 118.417 380.601 119.322 379.178 119.128Z" fill="black"></path></g>

    
    <ellipse cx="386" cy="48" rx="11" ry="1.4" transform="rotate(-12 386 48)" fill="white"></ellipse>
    
    <circle cx="388" cy="68.4" r="4.6" fill="white"></circle>
    
    <path d="M 372.5 80 L 374 100" stroke="white" stroke-width="1.6" stroke-linecap="round"></path>
    <path d="M 401 86 L 391 104" stroke="white" stroke-width="1.6" stroke-linecap="round"></path>
  
</svg>