<svg width="32" height="32" viewBox="0 0 32 32" fill="none" xmlns="http://www.w3.org/2000/svg">
  
  <rect x="2.5" y="3.5" width="22" height="20" rx="3" stroke="black" stroke-width="1.5"></rect>
  
  <path d="M2.5 8 H 24.5" stroke="black" stroke-width="1" opacity="0.55"></path>
  
  <circle cx="5" cy="5.75" r="0.65" fill="black" opacity="0.5"></circle>
  <circle cx="7.2" cy="5.75" r="0.65" fill="black" opacity="0.5"></circle>
  <circle cx="9.4" cy="5.75" r="0.65" fill="black" opacity="0.5"></circle>

  
  <rect x="5" y="11.4" width="8" height="1.4" rx="0.6" fill="black" opacity="0.55"></rect>
  <rect x="5" y="14.6" width="13" height="1.2" rx="0.5" fill="black" opacity="0.32"></rect>
  <rect x="5" y="17.4" width="10" height="1.2" rx="0.5" fill="black" opacity="0.32"></rect>

  
  <g transform="translate(20.5, 17.5)">
    
    <path d="M5.6 0.4 C 4.3 1.4, 3.2 4, 3.9 6.5 C 4 6.8, 4.3 7, 4.5 7.05 L 6.7 7.4 C 6.9 7.45, 7.15 7.35, 7.25 7.15 C 8.6 4.95, 8 1.5, 6.5 0.4 Z" fill="black"></path>
    
    <circle cx="5.8" cy="3" r="0.7" fill="white"></circle>
    
    <path d="M4 5 L 2.5 7.4 C 2.4 7.6, 2.5 7.8, 2.7 7.8 L 4.6 7.2 Z" fill="black"></path>
    
    <path d="M7.4 5.6 L 8.7 7.6 C 8.85 7.8, 8.7 8, 8.55 8 L 6.85 7.4 Z" fill="black"></path>
    
    <path d="M4.7 7.5 Q 5.6 8.7, 6.4 7.5 L 5.7 10.5 L 5.2 10.5 Z" fill="black" opacity="0.55"></path>
  </g>
</svg>